<svg width="303" height="100" viewBox="0 0 303 100" fill="none" xmlns="http://www.w3.org/2000/svg">
<path d="M130.89 13.94C130.477 13.34 130.157 12.64 129.93 11.84C129.71 11.0333 129.6 10.1733 129.6 9.26C129.6 8.34667 129.71 7.49 129.93 6.69C130.157 5.88333 130.477 5.18 130.89 4.58H132.71C132.277 5.35333 131.96 6.12 131.76 6.88C131.56 7.64 131.46 8.43333 131.46 9.26C131.46 10.0867 131.56 10.88 131.76 11.64C131.96 12.4 132.277 13.1667 132.71 13.94H130.89ZM132.551 12L135.641 5H137.591L140.691 12H138.631L136.211 5.97H136.991L134.571 12H132.551ZM134.241 10.64L134.751 9.18H138.171L138.681 10.64H134.241ZM143.093 8.07H146.323V9.6H143.093V8.07ZM143.233 12H141.253V5H146.743V6.53H143.233V12ZM149.208 12V6.57H147.058V5H153.328V6.57H151.188V12H149.208ZM155.885 7.71H159.135V9.19H155.885V7.71ZM156.025 10.47H159.685V12H154.065V5H159.555V6.53H156.025V10.47ZM160.784 12V5H163.984C164.624 5 165.174 5.10333 165.634 5.31C166.101 5.51667 166.461 5.81667 166.714 6.21C166.967 6.59667 167.094 7.05667 167.094 7.59C167.094 8.11667 166.967 8.57333 166.714 8.96C166.461 9.34 166.101 9.63333 165.634 9.84C165.174 10.04 164.624 10.14 163.984 10.14H161.884L162.764 9.31V12H160.784ZM165.114 12L163.374 9.45H165.484L167.234 12H165.114ZM162.764 9.52L161.884 8.61H163.864C164.277 8.61 164.584 8.52 164.784 8.34C164.991 8.16 165.094 7.91 165.094 7.59C165.094 7.26333 164.991 7.01 164.784 6.83C164.584 6.65 164.277 6.56 163.864 6.56H161.884L162.764 5.65V9.52ZM169.286 13.94H167.466C167.906 13.1667 168.223 12.4 168.416 11.64C168.616 10.88 168.716 10.0867 168.716 9.26C168.716 8.43333 168.616 7.64 168.416 6.88C168.223 6.12 167.906 5.35333 167.466 4.58H169.286C169.706 5.18 170.026 5.88333 170.246 6.69C170.466 7.49 170.576 8.34667 170.576 9.26C170.576 10.1733 170.466 11.0333 170.246 11.84C170.026 12.64 169.706 13.34 169.286 13.94Z" fill="white"/>
<path d="M118.89 97.94C118.477 97.34 118.157 96.64 117.93 95.84C117.71 95.0333 117.6 94.1733 117.6 93.26C117.6 92.3467 117.71 91.49 117.93 90.69C118.157 89.8833 118.477 89.18 118.89 88.58H120.71C120.277 89.3533 119.96 90.12 119.76 90.88C119.56 91.64 119.46 92.4333 119.46 93.26C119.46 94.0867 119.56 94.88 119.76 95.64C119.96 96.4 120.277 97.1667 120.71 97.94H118.89ZM121.391 96V89H123.021L126.881 93.66H126.111V89H128.051V96H126.421L122.561 91.34H123.331V96H121.391ZM131.268 91.71H134.518V93.19H131.268V91.71ZM131.408 94.47H135.068V96H129.448V89H134.938V90.53H131.408V94.47ZM137.799 96L135.529 89H137.569L139.479 95.06H138.449L140.459 89H142.279L144.179 95.06H143.189L145.159 89H147.049L144.779 96H142.659L141.039 90.85H141.609L139.919 96H137.799ZM150.815 96V89H152.795V94.43H156.135V96H150.815ZM160.341 96.14C159.781 96.14 159.265 96.05 158.791 95.87C158.318 95.69 157.905 95.4367 157.551 95.11C157.205 94.7767 156.935 94.39 156.741 93.95C156.548 93.51 156.451 93.0267 156.451 92.5C156.451 91.9733 156.548 91.49 156.741 91.05C156.935 90.61 157.205 90.2267 157.551 89.9C157.905 89.5667 158.318 89.31 158.791 89.13C159.265 88.95 159.781 88.86 160.341 88.86C160.908 88.86 161.425 88.95 161.891 89.13C162.365 89.31 162.775 89.5667 163.121 89.9C163.468 90.2267 163.738 90.61 163.931 91.05C164.131 91.49 164.231 91.9733 164.231 92.5C164.231 93.0267 164.131 93.5133 163.931 93.96C163.738 94.4 163.468 94.7833 163.121 95.11C162.775 95.4367 162.365 95.69 161.891 95.87C161.425 96.05 160.908 96.14 160.341 96.14ZM160.341 94.5C160.608 94.5 160.855 94.4533 161.081 94.36C161.315 94.2667 161.515 94.1333 161.681 93.96C161.855 93.78 161.988 93.5667 162.081 93.32C162.181 93.0733 162.231 92.8 162.231 92.5C162.231 92.1933 162.181 91.92 162.081 91.68C161.988 91.4333 161.855 91.2233 161.681 91.05C161.515 90.87 161.315 90.7333 161.081 90.64C160.855 90.5467 160.608 90.5 160.341 90.5C160.075 90.5 159.825 90.5467 159.591 90.64C159.365 90.7333 159.165 90.87 158.991 91.05C158.825 91.2233 158.691 91.4333 158.591 91.68C158.498 91.92 158.451 92.1933 158.451 92.5C158.451 92.8 158.498 93.0733 158.591 93.32C158.691 93.5667 158.825 93.78 158.991 93.96C159.165 94.1333 159.365 94.2667 159.591 94.36C159.825 94.4533 160.075 94.5 160.341 94.5ZM168.768 96.14C168.215 96.14 167.702 96.0533 167.228 95.88C166.755 95.7 166.345 95.4467 165.998 95.12C165.658 94.7933 165.392 94.41 165.198 93.97C165.005 93.5233 164.908 93.0333 164.908 92.5C164.908 91.9667 165.005 91.48 165.198 91.04C165.392 90.5933 165.662 90.2067 166.008 89.88C166.355 89.5533 166.765 89.3033 167.238 89.13C167.718 88.95 168.242 88.86 168.808 88.86C169.468 88.86 170.058 88.97 170.578 89.19C171.098 89.41 171.528 89.7267 171.868 90.14L170.608 91.28C170.368 91.02 170.108 90.8267 169.828 90.7C169.555 90.5667 169.248 90.5 168.908 90.5C168.608 90.5 168.335 90.5467 168.088 90.64C167.842 90.7333 167.632 90.87 167.458 91.05C167.285 91.2233 167.148 91.4333 167.048 91.68C166.955 91.92 166.908 92.1933 166.908 92.5C166.908 92.7933 166.955 93.0633 167.048 93.31C167.148 93.5567 167.285 93.77 167.458 93.95C167.632 94.1233 167.838 94.26 168.078 94.36C168.325 94.4533 168.595 94.5 168.888 94.5C169.182 94.5 169.468 94.4533 169.748 94.36C170.028 94.26 170.312 94.0933 170.598 93.86L171.708 95.25C171.308 95.5367 170.845 95.7567 170.318 95.91C169.792 96.0633 169.275 96.14 168.768 96.14ZM169.958 94.99V92.35H171.708V95.25L169.958 94.99ZM176.494 96.14C175.934 96.14 175.417 96.05 174.944 95.87C174.47 95.69 174.057 95.4367 173.704 95.11C173.357 94.7767 173.087 94.39 172.894 93.95C172.7 93.51 172.604 93.0267 172.604 92.5C172.604 91.9733 172.7 91.49 172.894 91.05C173.087 90.61 173.357 90.2267 173.704 89.9C174.057 89.5667 174.47 89.31 174.944 89.13C175.417 88.95 175.934 88.86 176.494 88.86C177.06 88.86 177.577 88.95 178.044 89.13C178.517 89.31 178.927 89.5667 179.274 89.9C179.62 90.2267 179.89 90.61 180.084 91.05C180.284 91.49 180.384 91.9733 180.384 92.5C180.384 93.0267 180.284 93.5133 180.084 93.96C179.89 94.4 179.62 94.7833 179.274 95.11C178.927 95.4367 178.517 95.69 178.044 95.87C177.577 96.05 177.06 96.14 176.494 96.14ZM176.494 94.5C176.76 94.5 177.007 94.4533 177.234 94.36C177.467 94.2667 177.667 94.1333 177.834 93.96C178.007 93.78 178.14 93.5667 178.234 93.32C178.334 93.0733 178.384 92.8 178.384 92.5C178.384 92.1933 178.334 91.92 178.234 91.68C178.14 91.4333 178.007 91.2233 177.834 91.05C177.667 90.87 177.467 90.7333 177.234 90.64C177.007 90.5467 176.76 90.5 176.494 90.5C176.227 90.5 175.977 90.5467 175.744 90.64C175.517 90.7333 175.317 90.87 175.144 91.05C174.977 91.2233 174.844 91.4333 174.744 91.68C174.65 91.92 174.604 92.1933 174.604 92.5C174.604 92.8 174.65 93.0733 174.744 93.32C174.844 93.5667 174.977 93.78 175.144 93.96C175.317 94.1333 175.517 94.2667 175.744 94.36C175.977 94.4533 176.227 94.5 176.494 94.5ZM182.55 97.94H180.73C181.17 97.1667 181.487 96.4 181.68 95.64C181.88 94.88 181.98 94.0867 181.98 93.26C181.98 92.4333 181.88 91.64 181.68 90.88C181.487 90.12 181.17 89.3533 180.73 88.58H182.55C182.97 89.18 183.29 89.8833 183.51 90.69C183.73 91.49 183.84 92.3467 183.84 93.26C183.84 94.1733 183.73 95.0333 183.51 95.84C183.29 96.64 182.97 97.34 182.55 97.94Z" fill="white"/>
<g clip-path="url(#clip0_109_1440)">
<path d="M18.3666 49.294C16.3324 48.638 13.9657 48.3193 11.2469 48.3193H0V63.802H11.2664C13.9852 63.802 16.3519 63.4833 18.3862 62.8273C20.4204 62.1713 22.0047 61.2715 23.1196 60.1094C24.2541 58.9473 24.8213 57.5977 24.8213 56.0607C24.8213 54.5236 24.2541 53.1553 23.1196 51.9932C21.9852 50.8311 20.4008 49.9313 18.3862 49.294H18.3666ZM17.9363 58.2725C17.3691 58.891 16.5475 59.3784 15.4718 59.7345C14.396 60.0719 13.1441 60.2594 11.7163 60.2594H5.9266V51.8995H11.7163C13.1441 51.8995 14.396 52.0682 15.4718 52.4243C16.5475 52.7617 17.3691 53.249 17.9363 53.8676C18.5035 54.4862 18.7969 55.2172 18.7969 56.0794C18.7969 56.9416 18.5035 57.6539 17.9363 58.2725Z" fill="white"/>
<path d="M32.3134 48.3379H26.3477V63.8205H32.3134V48.3379Z" fill="white"/>
<path d="M54.4949 49.0122C52.4607 48.3374 50.094 48 47.3947 48C44.6955 48 42.3092 48.3374 40.275 49.0122C38.2408 49.687 36.6564 50.6242 35.5415 51.8425C34.4266 53.0609 33.8398 54.4667 33.8398 56.0787C33.8398 57.6907 34.4071 59.0965 35.5415 60.3149C36.676 61.5333 38.2603 62.4705 40.275 63.1453C42.3092 63.8201 44.6759 64.1575 47.3947 64.1575C50.1136 64.1575 52.4607 63.8201 54.4949 63.1453C56.5292 62.4705 58.1135 61.5333 59.248 60.3149C60.3824 59.0965 60.9497 57.6907 60.9497 56.0787C60.9497 54.4667 60.3824 53.0609 59.248 51.8425C58.1135 50.6242 56.5292 49.687 54.4949 49.0122ZM54.0059 58.4592C53.3996 59.134 52.5194 59.6589 51.4045 60.015C50.2896 60.3711 48.94 60.5586 47.3947 60.5586C45.8495 60.5586 44.4999 60.3711 43.385 60.015C42.2701 59.6589 41.3899 59.134 40.7836 58.4592C40.1772 57.7844 39.8642 56.9784 39.8642 56.06C39.8642 55.1415 40.1772 54.3355 40.7836 53.6607C41.3899 52.9859 42.2701 52.4799 43.385 52.105C44.4999 51.7488 45.8495 51.5614 47.3947 51.5614C48.94 51.5614 50.2896 51.7488 51.4045 52.105C52.5194 52.4611 53.3996 52.9859 54.0059 53.6607C54.6123 54.3355 54.9252 55.1415 54.9252 56.06C54.9252 56.9784 54.6123 57.7844 54.0059 58.4592Z" fill="white"/>
<path d="M81.8407 59.2657L70.1831 48.3379H62.4766V63.8205H68.2467V52.649L80.1194 63.8205H87.6108V48.3379H81.8407V59.2657Z" fill="white"/>
<path d="M96.1571 48.3379H90.1914V63.8205H96.1571V48.3379Z" fill="white"/>
<path d="M117.38 55.2544C116.089 54.917 114.368 54.6733 112.217 54.5421L107.561 54.2047C106.192 54.0922 105.253 53.9235 104.725 53.6986C104.197 53.4737 103.943 53.155 103.943 52.7614C103.943 52.2178 104.373 51.8242 105.253 51.5243C106.133 51.2431 107.327 51.0932 108.833 51.0932C109.928 51.0932 110.887 51.1681 111.669 51.3368C112.451 51.5055 113.097 51.7305 113.547 52.0116C113.997 52.2928 114.27 52.6489 114.349 53.0426H120.412C120.314 52.0304 119.767 51.1307 118.769 50.3809C117.772 49.6311 116.422 49.0313 114.74 48.6002C113.058 48.1691 111.121 47.9629 108.95 47.9629C106.779 47.9629 104.784 48.1503 103.141 48.544C101.498 48.9376 100.207 49.4812 99.2876 50.2122C98.3683 50.9432 97.9184 51.8242 97.9184 52.8739C97.9184 54.1859 98.603 55.2356 99.9917 55.9854C101.38 56.7351 103.63 57.2225 106.759 57.4287L111.141 57.7098C112.647 57.8223 113.684 57.991 114.212 58.2347C114.759 58.4596 115.014 58.797 115.014 59.2469C115.014 59.7904 114.544 60.2216 113.605 60.5215C112.666 60.8214 111.376 60.9713 109.713 60.9713C108.559 60.9713 107.542 60.8776 106.662 60.6902C105.801 60.5027 105.097 60.2403 104.588 59.9029C104.06 59.5655 103.767 59.1531 103.649 58.7033H97.625C97.6837 59.7717 98.2314 60.7089 99.2289 61.5149C100.246 62.3209 101.635 62.9582 103.395 63.4081C105.175 63.8579 107.229 64.0829 109.576 64.0829C111.923 64.0829 113.86 63.8579 115.581 63.4268C117.302 62.9957 118.632 62.3584 119.571 61.5711C120.51 60.7651 120.999 59.8467 120.999 58.7783C120.999 57.8973 120.705 57.1663 120.138 56.5852C119.571 56.0041 118.632 55.5355 117.341 55.1981L117.38 55.2544Z" fill="white"/>
<path d="M141.828 57.0904C141.828 58.1963 141.417 59.0773 140.615 59.7146C139.794 60.3519 138.503 60.6706 136.703 60.6706C134.904 60.6706 133.593 60.3332 132.811 59.6771C132.029 59.0023 131.637 58.0464 131.637 56.7905V56.2469H125.789L125.828 57.0904C125.828 58.5712 126.278 59.8458 127.197 60.8955C128.097 61.9452 129.369 62.7512 131.012 63.3135C132.635 63.8758 134.552 64.157 136.743 64.157C138.933 64.157 140.87 63.8946 142.532 63.351C144.195 62.8074 145.486 62.0389 146.425 60.9892C147.344 59.9583 147.813 58.7212 147.813 57.2966V48.3369H141.887V57.0904H141.828Z" fill="white"/>
<path d="M199.683 60.053L193.834 48.3379H187.536L181.668 60.0717L176.602 48.3379H170.304H149.355V56.0792V63.8205H170.46V60.5403H155.321V57.56H169.463V54.5797H155.321V51.6181H170.304V48.3379L177.443 63.8205H185.052L190.666 52.8552L196.279 63.8205H203.908L211.027 48.3379H204.749L199.683 60.053Z" fill="white"/>
<path d="M216.997 57.56H231.139V54.5797H216.997V51.6181H231.98V48.3379H211.031V56.0792V63.8205H232.136V60.5403H216.997V57.56Z" fill="white"/>
<path d="M239.997 48.3379H234.031V63.8205H254.491V60.2404H239.997V48.3379Z" fill="white"/>
<path d="M273.386 57.5225C274.677 57.1101 275.694 56.5291 276.417 55.7981C277.141 55.067 277.513 54.2048 277.513 53.2489C277.513 52.2929 277.141 51.3932 276.417 50.6622C275.694 49.9311 274.677 49.3688 273.386 48.9564C272.095 48.5441 270.569 48.3379 268.848 48.3379H255.41V63.8205H261.376V58.1411H264.916L271.312 63.8205H278.236L271.469 57.9536C272.153 57.8599 272.799 57.71 273.386 57.5225ZM261.376 51.3744H268.046C269.122 51.3744 269.963 51.5431 270.569 51.8618C271.175 52.1992 271.469 52.649 271.469 53.2489C271.469 53.8487 271.175 54.2985 270.569 54.6359C269.963 54.9733 269.122 55.142 268.046 55.142H261.376V51.3744Z" fill="white"/>
<path d="M303.001 48.3379H296.409L289.27 54.4485L282.15 48.3379H275.559L286.316 57.5788V63.8205H292.282V57.5038L303.001 48.3379Z" fill="white"/>
</g>
<defs>
<clipPath id="clip0_109_1440">
<rect width="303" height="16" fill="white" transform="translate(0 48)"/>
</clipPath>
</defs>
</svg>
