<svg width="617" height="102" viewBox="0 0 617 102" fill="none" xmlns="http://www.w3.org/2000/svg">
<path fill-rule="evenodd" clip-rule="evenodd" d="M86.747 0C94.0972 0 100.558 3.80736 104.266 9.55684C105.151 10.928 106.387 12.0665 107.912 12.6471C137.891 24.0616 159.192 53.0728 159.192 87.0589C159.192 90.3183 158.996 93.5319 158.615 96.6885C158.287 99.4051 155.92 101.361 153.183 101.361H149.269C148.245 101.361 147.425 100.519 147.424 99.4958C147.424 73.3948 136.01 52.2358 121.929 52.2358C107.848 52.2358 96.4334 73.3948 96.4334 99.4958C96.4331 100.519 95.6126 101.361 94.5888 101.361H71.7142C70.5484 101.361 69.6466 100.351 69.6463 99.1848C69.6463 87.6798 60.3197 78.3531 48.8146 78.3531C37.3096 78.3531 27.9829 87.6798 27.9829 99.1848C27.9827 100.351 27.0808 101.361 25.9151 101.361H6.39481C3.43492 101.361 0.872625 99.2451 0.532154 96.3048C0.180926 93.2716 1.92034e-05 90.1863 0 87.0589C0 47.1069 29.4352 14.0299 67.8017 8.33109C69.4195 8.09077 70.8762 7.24002 72.0341 6.08489C75.8025 2.32524 81.0033 5.25181e-07 86.747 0ZM107.148 31.1419C105.457 31.1419 104.087 32.5126 104.087 34.2033C104.087 35.8941 105.457 37.2647 107.148 37.2647C108.839 37.2647 110.21 35.8941 110.21 34.2033C110.21 32.5126 108.839 31.1419 107.148 31.1419Z" fill="black"/>
<path fill-rule="evenodd" clip-rule="evenodd" d="M107.148 31.1453C105.458 31.1453 104.087 32.5159 104.087 34.2066C104.087 35.8974 105.458 37.268 107.148 37.268C108.839 37.268 110.21 35.8974 110.21 34.2066C110.21 32.5159 108.839 31.1453 107.148 31.1453Z" fill="white"/>
<path d="M188.679 96.8646V39.7009C188.679 38.509 189.107 37.4853 189.963 36.6296C190.818 35.7739 191.842 35.346 193.034 35.346H201.561C202.813 35.346 203.853 35.7739 204.678 36.6296C205.533 37.4853 205.961 38.509 205.961 39.7009V96.7729C205.961 97.9647 205.518 98.9885 204.632 99.8442C203.776 100.669 202.752 101.082 201.561 101.082H193.034C191.842 101.082 190.818 100.685 189.963 99.8901C189.107 99.0649 188.679 98.0564 188.679 96.8646Z" fill="black"/>
<path d="M213.507 98.2856V53.6824C213.507 52.8573 213.766 52.1849 214.286 51.6654C214.836 51.1153 215.508 50.8403 216.303 50.8403H226.571C227.366 50.8403 228.023 51.1153 228.542 51.6654C229.093 52.1849 229.368 52.8573 229.368 53.6824V56.5704C234.624 52.1391 240.217 49.9234 246.145 49.9234C252.105 49.9234 256.949 51.7418 260.677 55.3785C264.405 58.9847 266.27 64.5161 266.27 71.9729V98.2856C266.27 99.0802 265.995 99.7525 265.444 100.303C264.925 100.822 264.253 101.082 263.427 101.082H253.205C252.41 101.082 251.738 100.822 251.188 100.303C250.668 99.7525 250.409 99.0802 250.409 98.2856V71.9729C250.409 64.6689 247.49 61.0169 241.653 61.0169C237.833 61.0169 233.738 63.202 229.368 67.5722V98.2856C229.368 99.0802 229.093 99.7525 228.542 100.303C228.023 100.822 227.366 101.082 226.571 101.082H216.303C215.508 101.082 214.836 100.822 214.286 100.303C213.766 99.7525 213.507 99.0802 213.507 98.2856Z" fill="black"/>
<path d="M294.396 101.999C288.009 101.999 282.66 99.7525 278.351 95.2601C274.073 90.7677 271.934 84.3347 271.934 75.9611C271.934 67.5569 274.149 61.1239 278.581 56.6621C283.042 52.1696 289.032 49.9234 296.55 49.9234C300.431 49.9234 304.847 50.7027 309.798 52.2613V38.1882C309.798 37.363 310.058 36.6907 310.578 36.1712C311.128 35.6211 311.8 35.346 312.595 35.346H322.817C323.642 35.346 324.315 35.6211 324.834 36.1712C325.384 36.6907 325.659 37.363 325.659 38.1882V98.2856C325.659 99.0802 325.384 99.7525 324.834 100.303C324.315 100.822 323.642 101.082 322.817 101.082H314.016C313.191 101.082 312.518 100.822 311.999 100.303C311.479 99.7525 311.219 99.0802 311.219 98.2856V96.8646C306.391 100.287 300.783 101.999 294.396 101.999ZM299.851 61.0169C295.633 61.0169 292.654 62.2088 290.912 64.5925C289.17 66.9457 288.299 70.7352 288.299 75.9611C288.299 81.187 289.124 84.9918 290.774 87.3755C292.425 89.7592 294.9 90.9511 298.201 90.9511C301.532 90.9511 305.398 89.5759 309.798 86.8254V62.8506C305.856 61.6282 302.54 61.0169 299.851 61.0169Z" fill="black"/>
<path d="M335.059 41.2595V39.7009C335.059 38.0812 335.517 36.7976 336.434 35.8503C337.381 34.9029 338.68 34.4292 340.33 34.4292H346.014C347.634 34.4292 348.918 34.9029 349.865 35.8503C350.813 36.7671 351.286 38.0506 351.286 39.7009V41.2595C351.286 42.8792 350.813 44.1628 349.865 45.1101C348.948 46.0575 347.665 46.5312 346.014 46.5312H340.33C338.711 46.5312 337.427 46.0575 336.48 45.1101C335.532 44.1628 335.059 42.8792 335.059 41.2595ZM335.242 98.2856V54.7826C335.242 53.9574 335.502 53.2851 336.021 52.7656C336.571 52.246 337.244 51.9863 338.038 51.9863H348.307C349.132 51.9863 349.804 52.2613 350.324 52.8114C350.843 53.3309 351.103 53.988 351.103 54.7826V98.2856C351.103 99.1108 350.828 99.7831 350.278 100.303C349.758 100.822 349.101 101.082 348.307 101.082H338.038C337.213 101.082 336.541 100.822 336.021 100.303C335.502 99.7831 335.242 99.1108 335.242 98.2856Z" fill="black"/>
<path d="M363.894 97.7814C359.86 94.9698 357.843 90.9969 357.843 85.8627C357.843 80.7286 359.86 76.7862 363.894 74.0358C367.959 71.2853 373.185 69.9101 379.572 69.9101H394.745C394.745 66.3345 393.997 63.8438 392.499 62.438C391.002 61.0322 388.373 60.3293 384.614 60.3293C380.886 60.3293 378.258 61.2614 376.73 63.1256C375.232 64.9593 373.383 65.8761 371.183 65.8761H364.353C363.528 65.8761 362.84 65.6163 362.29 65.0968C361.77 64.5467 361.511 63.8744 361.511 63.0798C361.511 54.3089 369.838 49.9234 386.494 49.9234C393.767 49.9234 399.604 51.5584 404.005 54.8284C408.406 58.0678 410.606 63.0951 410.606 69.9101V98.2856C410.606 99.1108 410.346 99.7831 409.827 100.303C409.307 100.822 408.635 101.082 407.81 101.082H398.963C398.137 101.082 397.465 100.822 396.946 100.303C396.426 99.7525 396.166 99.0802 396.166 98.2856V96.8646C391.338 100.318 385.76 102.029 379.434 101.999C373.139 101.999 367.959 100.593 363.894 97.7814ZM380.672 80.316C378.533 80.316 376.837 80.8355 375.584 81.8746C374.361 82.9136 373.75 84.2583 373.75 85.9086C373.75 87.5589 374.392 88.9188 375.675 89.9884C376.959 91.058 378.777 91.5929 381.13 91.5929C385.837 91.5929 390.375 90.2176 394.745 87.4672V80.316H380.672Z" fill="black"/>
<path d="M421.907 96.6812V39.7926C421.907 38.5396 422.319 37.4853 423.145 36.6296C423.97 35.7739 424.978 35.346 426.17 35.346H444.827C446.019 35.346 447.15 35.7739 448.22 36.6296C449.289 37.4853 450.007 38.509 450.374 39.7009L463.897 78.8491L477.42 39.7009C477.787 38.509 478.505 37.4853 479.575 36.6296C480.644 35.7739 481.775 35.346 482.967 35.346H501.624C502.816 35.346 503.809 35.7739 504.604 36.6296C505.429 37.4853 505.842 38.5396 505.842 39.7926V96.6812C505.842 97.9342 505.414 98.9885 504.558 99.8442C503.733 100.669 502.724 101.082 501.533 101.082H493.281C492.089 101.082 491.066 100.669 490.21 99.8442C489.385 98.9885 488.972 97.9342 488.972 96.6812V51.8946L472.79 96.9562C472.363 98.087 471.614 99.0649 470.544 99.8901C469.475 100.685 468.344 101.082 467.152 101.082H460.597C459.405 101.082 458.274 100.685 457.204 99.8901C456.165 99.0649 455.417 98.087 454.958 96.9562L438.822 51.8946V96.6812C438.822 97.9342 438.394 98.9885 437.539 99.8442C436.714 100.669 435.705 101.082 434.513 101.082H426.262C425.07 101.082 424.046 100.669 423.19 99.8442C422.335 98.9885 421.907 97.9342 421.907 96.6812Z" fill="black"/>
<path d="M517.535 97.7814C513.501 94.9698 511.484 90.9969 511.484 85.8627C511.484 80.7286 513.501 76.7862 517.535 74.0358C521.599 71.2853 526.825 69.9101 533.212 69.9101H548.386C548.386 66.3345 547.637 63.8438 546.14 62.438C544.642 61.0322 542.014 60.3293 538.255 60.3293C534.526 60.3293 531.898 61.2614 530.37 63.1256C528.873 64.9593 527.024 65.8761 524.823 65.8761H517.993C517.168 65.8761 516.48 65.6163 515.93 65.0968C515.411 64.5467 515.151 63.8744 515.151 63.0798C515.151 54.3089 523.479 49.9234 540.134 49.9234C547.408 49.9234 553.245 51.5584 557.646 54.8284C562.046 58.0678 564.247 63.0951 564.247 69.9101V98.2856C564.247 99.1108 563.987 99.7831 563.467 100.303C562.948 100.822 562.276 101.082 561.45 101.082H552.603C551.778 101.082 551.106 100.822 550.586 100.303C550.067 99.7525 549.807 99.0802 549.807 98.2856V96.8646C544.978 100.318 539.401 102.029 533.075 101.999C526.779 101.999 521.599 100.593 517.535 97.7814ZM534.313 80.316C532.173 80.316 530.477 80.8355 529.224 81.8746C528.002 82.9136 527.391 84.2583 527.391 85.9086C527.391 87.5589 528.032 88.9188 529.316 89.9884C530.599 91.058 532.418 91.5929 534.771 91.5929C539.477 91.5929 544.016 90.2176 548.386 87.4672V80.316H534.313Z" fill="black"/>
<path d="M574.631 98.2856V38.1882C574.631 37.363 574.89 36.6907 575.41 36.1712C575.96 35.6211 576.632 35.346 577.427 35.346H587.695C588.49 35.346 589.147 35.6211 589.666 36.1712C590.217 36.6907 590.492 37.363 590.492 38.1882V98.2856C590.492 99.0802 590.217 99.7525 589.666 100.303C589.147 100.822 588.49 101.082 587.695 101.082H577.427C576.632 101.082 575.96 100.822 575.41 100.303C574.89 99.7525 574.631 99.0802 574.631 98.2856Z" fill="black"/>
<path d="M600.83 98.2856V38.1882C600.83 37.363 601.089 36.6907 601.609 36.1712C602.159 35.6211 602.831 35.346 603.626 35.346H613.894C614.689 35.346 615.346 35.6211 615.865 36.1712C616.416 36.6907 616.691 37.363 616.691 38.1882V98.2856C616.691 99.0802 616.416 99.7525 615.865 100.303C615.346 100.822 614.689 101.082 613.894 101.082H603.626C602.831 101.082 602.159 100.822 601.609 100.303C601.089 99.7525 600.83 99.0802 600.83 98.2856Z" fill="black"/>
</svg>
