<svg width="196" height="195" viewBox="0 0 196 195" fill="none" xmlns="http://www.w3.org/2000/svg">
<path d="M150.022 0H45.4697C20.3508 0 0 20.2797 0 45.2953V149.448C0 174.463 20.3508 194.743 45.4697 194.743H150.022C175.13 194.743 195.492 174.463 195.492 149.448V45.2953C195.492 20.2797 175.141 0 150.022 0Z" fill="#FEF9F3"/>
<path d="M96.4912 187.657H47.382C41.6234 187.657 36.2565 186.504 31.2695 184.211C36.2565 171.214 48.7295 162.042 63.3102 162.042C79.2385 162.042 92.6675 172.931 96.5027 187.461V187.657H96.4912Z" fill="#FEF9F3"/>
<path d="M31.0744 88.4812C31.0744 88.4812 19.373 92.491 7.0957 102.435V48.3481C7.0957 25.6025 25.7074 7.07422 48.7302 7.07422H148.1C152.131 7.07422 155.771 7.65035 159.422 8.79108C187.431 17.0067 185.128 58.4764 156.162 62.878H155.586C126.621 67.0838 112.812 31.3408 76.1641 23.321C50.0777 17.5828 23.5998 34.9819 21.8722 61.5414C21.2964 72.05 24.7515 81.0376 30.8901 88.6771L31.0859 88.4812H31.0744Z" fill="#F45B2C"/>
<path d="M188.387 60.5732V151.532C188.387 171.409 172.274 187.656 152.131 187.656H125.468C123.545 177.331 119.526 137.394 139.093 110.074C150.023 94.7837 172.666 81.406 188.398 60.5848L188.387 60.5732Z" fill="#F88740"/>
<path d="M96.4912 187.657H47.382C41.6234 187.657 36.2565 186.504 31.2695 184.211C36.2565 171.214 48.7295 162.042 63.3102 162.042C79.2385 162.042 92.6675 172.931 96.5027 187.461V187.657H96.4912Z" fill="#E03817"/>
</svg>
