<svg width="608" height="112" viewBox="0 0 608 112" fill="none" xmlns="http://www.w3.org/2000/svg">
<path d="M110.616 72.0199C110.616 50.0318 92.581 32.3471 70.7127 32.5104C48.6815 32.5104 30.9722 50.5121 31.1255 72.3369V111.846H45.8066V72.1736C45.6437 58.3122 56.8174 47.0059 70.7031 47.0059C84.5888 47.0059 95.9254 58.1585 95.9254 72.0199V111.846H110.606V72.0199H110.616Z" fill="#F45B2C"/>
<path d="M199.843 0.00341797H185.315V42.8559H184.673C184.673 42.8559 175.732 32.5006 160.256 32.5006C138.387 32.5006 120.506 50.5022 120.669 72.3271C120.669 94.152 138.55 111.837 160.409 111.837C182.268 111.837 200.159 93.835 199.996 72.0101L199.69 0.00341797H199.853H199.843ZM160.419 97.3508C146.533 97.3508 135.196 86.1982 135.043 72.3367C135.043 58.4752 146.217 47.1689 160.265 47.1689C174.314 47.1689 185.488 58.3215 185.488 72.183C185.488 86.0445 174.314 97.3508 160.428 97.3508H160.419Z" fill="#F45B2C"/>
<path d="M323.549 111.846V71.8564C323.233 49.8682 305.351 32.1835 283.483 32.3468C261.452 32.3468 243.733 50.3485 243.896 72.1734C243.896 94.1615 261.931 111.846 283.799 111.683C299.122 111.683 307.9 101.328 307.9 101.328H308.696V111.846H323.54H323.549ZM283.646 97.1874C269.76 97.1874 258.423 86.0348 258.27 72.1734C258.27 58.3119 269.444 47.0056 283.492 47.0056C297.541 47.0056 308.715 58.1582 308.715 72.1734C308.715 86.1885 297.541 97.3507 283.655 97.3507V97.1874H283.646Z" fill="#F45B2C"/>
<path d="M459.55 66.6021C459.55 47.6398 443.911 32.1934 424.754 32.1934C413.744 32.1934 403.844 37.6112 397.462 45.7378C391.08 37.6112 381.181 32.3567 370.17 32.3567C351.176 32.3567 335.69 47.9664 335.69 67.092V111.856H350.381V67.092C350.218 56.1027 359.159 47.0154 370.17 47.0154C381.181 47.0154 390.285 55.9394 390.285 66.9287V111.856H404.966V66.7654C404.803 55.7761 413.744 46.8521 424.764 46.6888C435.775 46.5255 444.879 55.6128 444.879 66.6021V111.846H459.56V66.6021H459.55Z" fill="#F45B2C"/>
<path d="M548.941 111.846V72.0199C548.778 50.0318 530.743 32.3471 508.874 32.5104C486.843 32.5104 469.134 50.5121 469.287 72.3369C469.287 94.1618 487.169 111.846 509.191 111.846H509.507C524.83 111.683 533.608 101.328 533.608 101.328H534.403V111.846H549.084H548.921H548.941ZM509.191 97.351C495.305 97.351 483.968 86.1984 483.968 72.3369C483.968 58.4755 495.142 47.1692 509.028 47.1692C522.913 47.1692 534.25 58.3218 534.25 72.1832C534.25 86.0447 523.076 97.351 509.191 97.351Z" fill="#F45B2C"/>
<path d="M16.2814 0.00390625H0V112H16.2814V0.00390625Z" fill="#F45B2C"/>
<path d="M608 0.00341797H593.472V112H608V0.00341797Z" fill="#F45B2C"/>
<path d="M579.424 0.00341797H564.896V112H579.424V0.00341797Z" fill="#F45B2C"/>
<path d="M232.253 32.5107H217.725V111.847H232.253V32.5107Z" fill="#F45B2C"/>
<path d="M224.902 0.00349371C218.836 0.00349371 214.045 4.94098 214.045 10.9928C214.045 17.0446 218.99 21.8284 225.056 21.8284C231.122 21.8284 236.067 16.8909 235.913 10.8391C235.923 4.78729 230.978 -0.150203 224.902 0.00349371Z" fill="#F45B2C"/>
</svg>
