<svg width="623" height="116" viewBox="0 0 623 116" fill="none" xmlns="http://www.w3.org/2000/svg">
<g clip-path="url(#clip0_1500_31)">
<path d="M238.437 70.3339C238.437 53.3924 224.493 39.7666 207.585 39.8925C190.551 39.8925 176.859 53.7624 176.977 70.5781V101.02H188.328V70.4523C188.202 59.7723 196.842 51.061 207.578 51.061C218.314 51.061 227.079 59.6538 227.079 70.3339V101.02H238.43V70.3339H238.437Z" fill="#F45B2C"/>
<path d="M307.425 14.854H296.193V47.871H295.696C295.696 47.871 288.783 39.8925 276.817 39.8925C259.91 39.8925 246.084 53.7624 246.21 70.5781C246.21 87.3938 260.036 101.02 276.936 101.02C293.837 101.02 307.67 87.1495 307.544 70.3339L307.299 14.854H307.425ZM276.943 89.851C266.207 89.851 257.442 81.2581 257.324 70.5781C257.324 59.8981 265.963 51.1868 276.825 51.1868C287.687 51.1868 296.326 59.7797 296.326 70.4597C296.326 81.1397 287.687 89.851 276.951 89.851H276.943Z" fill="#F45B2C"/>
<path d="M403.071 101.019V70.2079C402.826 53.2664 389.001 39.6407 372.093 39.7665C355.059 39.7665 341.359 53.6365 341.485 70.4521C341.485 87.3936 355.429 101.019 372.337 100.894C384.185 100.894 390.972 92.915 390.972 92.915H391.587V101.019H403.064H403.071ZM372.219 89.7324C361.483 89.7324 352.718 81.1395 352.599 70.4595C352.599 59.7795 361.238 51.0682 372.1 51.0682C382.962 51.0682 391.601 59.6611 391.601 70.4595C391.601 81.258 382.962 89.8582 372.226 89.8582V89.7324H372.219Z" fill="#F45B2C"/>
<path d="M508.224 66.1593C508.224 51.5492 496.132 39.6479 481.321 39.6479C472.807 39.6479 465.154 43.8223 460.219 50.0837C455.285 43.8223 447.631 39.7738 439.117 39.7738C424.432 39.7738 412.459 51.8008 412.459 66.5367V101.027H423.817V66.5367C423.691 58.0697 430.604 51.0681 439.117 51.0681C447.631 51.0681 454.67 57.9439 454.67 66.4109V101.027H466.02V66.2851C465.895 57.818 472.807 50.9423 481.328 50.8165C489.841 50.6906 496.88 57.6922 496.88 66.1593V101.019H508.231V66.1593H508.224Z" fill="#F45B2C"/>
<path d="M577.337 101.02V70.3339C577.211 53.3924 563.266 39.7666 546.358 39.8925C529.325 39.8925 515.632 53.7624 515.751 70.5781C515.751 87.3938 529.576 101.02 546.603 101.02H546.847C558.695 100.894 565.482 92.9151 565.482 92.9151H566.097V101.02H577.448H577.322H577.337ZM546.603 89.851C535.867 89.851 527.102 81.2581 527.102 70.5781C527.102 59.8981 535.741 51.1868 546.477 51.1868C557.213 51.1868 565.978 59.7797 565.978 70.4597C565.978 81.1397 557.339 89.851 546.603 89.851Z" fill="#F45B2C"/>
<path d="M165.5 14.854H152.912V101.145H165.5V14.854Z" fill="#F45B2C"/>
<path d="M623 14.854H611.768V101.145H623V14.854Z" fill="#F45B2C"/>
<path d="M600.906 14.854H589.674V101.145H600.906V14.854Z" fill="#F45B2C"/>
<path d="M332.477 39.8926H321.244V101.02H332.477V39.8926Z" fill="#F45B2C"/>
<path d="M326.801 14.8538C322.111 14.8538 318.406 18.658 318.406 23.3208C318.406 27.9836 322.229 31.6694 326.92 31.6694C331.61 31.6694 335.433 27.8652 335.314 23.2024C335.314 18.5396 331.491 14.7353 326.801 14.8538Z" fill="#F45B2C"/>
<path d="M57.5114 116H25.9183C22.2137 116 18.7609 115.26 15.5527 113.787C18.7609 105.438 26.7852 99.5469 36.1653 99.5469C46.4123 99.5469 55.0515 106.541 57.5188 115.874V116H57.5114Z" fill="#F45B2C"/>
<path d="M15.4261 52.2899C15.4261 52.2899 7.89827 54.8656 0 61.2529V26.5113C0 11.9086 11.9734 0 26.7845 0H90.7115C93.3048 0 95.6461 0.370063 97.9948 1.10279C116.014 6.37989 114.532 33.017 95.898 35.8443H95.5275C76.8933 38.5458 68.0096 15.5871 44.4333 10.4358C27.6439 6.74995 10.6101 17.9185 9.50608 34.9858C9.13561 41.7357 11.3584 47.5087 15.3075 52.4157L15.4335 52.2899H15.4261Z" fill="#F45B2C"/>
<path d="M116.63 34.3711V92.7967C116.63 105.564 106.264 116 93.3054 116H76.153C74.9156 109.368 72.3298 83.7153 84.9181 66.1669C91.9495 56.3454 106.516 47.7526 116.637 34.3785L116.63 34.3711Z" fill="#F45B2C"/>
<path d="M57.5114 116H25.9183C22.2137 116 18.7609 115.26 15.5527 113.787C18.7609 105.438 26.7852 99.5469 36.1653 99.5469C46.4123 99.5469 55.0515 106.541 57.5188 115.874V116H57.5114Z" fill="#F45B2C"/>
</g>
<defs>
<clipPath id="clip0_1500_31">
<rect width="623" height="116" fill="white"/>
</clipPath>
</defs>
</svg>
