<?xml version="1.0" encoding="UTF-8"?>
<svg id="_Слой_1" data-name="Слой_1" xmlns="http://www.w3.org/2000/svg" version="1.1" viewBox="0 0 602 141">
  <!-- Generator: Adobe Illustrator 29.6.1, SVG Export Plug-In . SVG Version: 2.1.1 Build 9)  -->
  <defs>
    <style>
      .st0 {
        fill: #fff;
      }
    </style>
  </defs>
  <path class="st0" d="M110.46,124.04c-7.49,0-14.52-1.26-21.09-3.79-6.47-2.63-12.19-6.37-17.15-11.23-4.86-4.86-8.7-10.57-11.53-17.15-2.73-6.58-4.1-13.81-4.1-21.7s1.37-15.63,4.1-22.31c2.73-6.68,6.47-12.39,11.23-17.15,4.75-4.75,10.17-8.4,16.24-10.93,6.17-2.63,12.59-3.95,19.27-3.95s13.1,1.21,18.36,3.64c5.36,2.33,9.86,5.51,13.5,9.56,3.74,3.95,6.68,8.45,8.8,13.5l-7.13-2.28V15.85h14.26v35.96l-10.01.91c-2.12-4.75-4.81-8.95-8.04-12.59-3.14-3.64-6.98-6.47-11.53-8.5-4.45-2.02-9.76-3.03-15.93-3.03-4.86,0-9.51.96-13.96,2.88-4.35,1.82-8.24,4.55-11.68,8.19-3.44,3.54-6.17,7.89-8.19,13.05-1.92,5.06-2.88,10.82-2.88,17.3,0,5.97.96,11.48,2.88,16.54,1.92,4.96,4.55,9.31,7.89,13.05,3.44,3.64,7.44,6.47,11.99,8.5,4.55,1.92,9.46,2.88,14.72,2.88,4.45,0,8.45-.51,11.99-1.52,3.64-1.01,6.88-2.43,9.71-4.25,2.93-1.82,5.56-3.89,7.89-6.22,2.33-2.43,4.4-5.01,6.22-7.74l10.17,8.5c-2.23,3.34-4.86,6.47-7.89,9.41-2.93,2.93-6.32,5.56-10.17,7.89-3.74,2.23-7.94,3.95-12.59,5.16-4.65,1.21-9.76,1.82-15.33,1.82Z"/>
  <path class="st0" d="M159.55,124.04l22.86-108.19h22.56c5.24,0,9.6.94,13.06,2.82,3.46,1.88,5.99,4.65,7.57,8.31,1.58,3.66,2.08,8.21,1.48,13.65-.79,8.01-2.87,14.2-6.23,18.55-3.36,4.35-7.96,7.22-13.8,8.61l-.15.74c2.97.89,5.34,2.33,7.12,4.3,1.78,1.88,3.02,4.35,3.71,7.42.69,2.97.79,6.63.3,10.98-.69,7.52-2.42,13.7-5.19,18.55-2.77,4.85-6.53,8.46-11.28,10.83-4.75,2.28-10.39,3.41-16.92,3.41h-25.08ZM178.55,111.13h6.98c4.75,0,8.26-1.29,10.54-3.86,2.37-2.57,3.96-5.84,4.75-9.8l1.34-6.53c.79-3.86.94-6.98.45-9.35-.4-2.37-1.39-4.11-2.97-5.19-1.58-1.09-3.61-1.63-6.08-1.63h-9.35l2.67-12.61h9.35c2.37,0,4.45-.49,6.23-1.48,1.88-.99,3.46-2.42,4.75-4.3,1.39-1.88,2.37-4.2,2.97-6.98l1.19-6.23c.69-3.36.79-6.08.3-8.16-.4-2.18-1.34-3.76-2.82-4.75-1.48-.99-3.36-1.48-5.64-1.48h-7.12l-17.51,82.37Z"/>
  <path class="st0" d="M317.89,67.93v10.67h-48.76l-.14-.14c-7.31,0-13.7-1.3-19.19-3.89-5.48-2.69-9.81-6.35-12.98-10.96-3.08-4.71-4.62-10.19-4.62-16.45s1.54-11.59,4.62-16.3c3.17-4.71,7.5-8.37,12.98-10.96,5.48-2.69,11.88-4.04,19.19-4.04h58.28v108.19h-13.56V20.47l6.06,6.06h-49.77c-7.5,0-13.42,1.88-17.74,5.63-4.33,3.75-6.49,8.75-6.49,15s2.16,11.4,6.49,15.15c4.33,3.75,10.24,5.63,17.74,5.63h47.89ZM290.91,73.41l-44,50.63h-16.73l44.29-50.63h16.45Z"/>
  <path class="st0" d="M387.44,123.81c-9.95,0-18.64-1.49-26.08-4.46-7.34-2.97-13.16-7.11-17.43-12.41-4.18-5.39-6.55-11.67-7.11-18.83h13.11c1.02,7.9,4.74,14.04,11.16,18.41,6.51,4.28,15.29,6.42,26.36,6.42s19.2-1.72,25.24-5.16c6.14-3.53,9.2-8.79,9.2-15.76,0-5.86-2.46-10.23-7.39-13.11-4.93-2.98-12.74-4.46-23.43-4.46h-21.76v-10.04h21.34c6.32,0,11.58-.79,15.76-2.37,4.18-1.67,7.3-3.9,9.34-6.69,2.14-2.88,3.21-6.04,3.21-9.48,0-4.18-1.3-7.72-3.9-10.6-2.6-2.88-6.23-5.07-10.88-6.55-4.65-1.49-10.04-2.23-16.18-2.23-10.13,0-18.32,2.09-24.54,6.28-6.23,4.09-9.95,9.81-11.16,17.15h-13.11c.74-6.51,3.16-12.37,7.25-17.57,4.09-5.21,9.71-9.3,16.87-12.27,7.16-2.98,15.57-4.46,25.24-4.46,9.02,0,16.78,1.21,23.29,3.63,6.51,2.42,11.53,5.81,15.06,10.18,3.63,4.28,5.44,9.2,5.44,14.78,0,4.93-1.44,9.39-4.32,13.39-2.88,4-7.16,7.16-12.83,9.48-5.58,2.32-12.46,3.49-20.64,3.49v-2.51c8.37-.28,15.57.51,21.62,2.37,6.14,1.86,10.83,4.7,14.09,8.51,3.35,3.72,5.02,8.27,5.02,13.67,0,6.32-1.86,11.81-5.58,16.46-3.72,4.65-9.16,8.27-16.32,10.88-7.07,2.6-15.71,3.91-25.94,3.91Z"/>
  <path class="st0" d="M457.83,61.28l30.86-.02c7.75,0,14.09,1.26,19.03,3.79,4.93,2.53,8.41,6.11,10.42,10.72,2.01,4.61,2.49,10.06,1.44,16.33-1.05,6.27-3.36,11.8-6.91,16.6-3.55,4.79-8.22,8.55-13.99,11.27-5.78,2.72-12.54,4.08-20.29,4.08l-40.58.03,17.89-108.24h13.11s-15.99,96.81-15.99,96.81l27.48-.02c4.93,0,9.26-.99,13-2.97,3.77-2.01,6.8-4.59,9.08-7.72,2.32-3.17,3.77-6.52,4.33-10.04.84-5.18-.41-9.63-3.76-13.37-3.35-3.77-8.72-5.65-16.12-5.64l-30.86.02,1.89-11.63Z"/>
</svg>