<svg width="130" height="108" viewBox="0 0 130 108" fill="none" xmlns="http://www.w3.org/2000/svg">
<rect x="64.7852" width="4.31909" height="4.31909" fill="#5E6361"/>
<rect x="69.1035" width="4.31909" height="4.31909" fill="#5E6363"/>
<rect x="73.4238" width="4.31909" height="4.31909" fill="#5F6462"/>
<rect x="64.7852" y="4.31885" width="4.31909" height="4.31909" fill="#092644"/>
<rect x="69.1035" y="4.31885" width="4.31909" height="4.31909" fill="#0A2745"/>
<rect x="73.4238" y="4.31885" width="4.31909" height="4.31909" fill="#0A2745"/>
<rect x="64.7852" y="8.63818" width="4.31909" height="4.31909" fill="#0A2745"/>
<rect x="69.1035" y="8.63818" width="4.31909" height="4.31909" fill="#0A2745"/>
<rect x="73.4238" y="8.63818" width="4.31909" height="4.31909" fill="#0A2745"/>
<rect x="64.7852" y="12.9565" width="4.31909" height="4.31909" fill="#092743"/>
<rect x="69.1035" y="12.9565" width="4.31909" height="4.31909" fill="#092845"/>
<rect x="73.4238" y="12.9565" width="4.31909" height="4.31909" fill="#0A2745"/>
<rect x="60.4668" y="17.2764" width="4.31909" height="4.31909" fill="#0A2844"/>
<rect x="64.7852" y="17.2764" width="4.31909" height="4.31909" fill="#132E4B"/>
<rect x="69.1035" y="17.2764" width="4.31909" height="4.31909" fill="#0C2744"/>
<rect x="51.8281" y="21.5942" width="4.31909" height="4.31909" fill="#05121A"/>
<rect x="56.1484" y="21.5942" width="4.31909" height="4.31909" fill="#0C1824"/>
<rect x="60.4668" y="21.5942" width="4.31909" height="4.31909" fill="#12304C"/>
<rect x="64.7852" y="21.5942" width="4.31909" height="4.31909" fill="#AAAAAA"/>
<rect x="69.1035" y="21.5942" width="4.31909" height="4.31909" fill="#B3B3B3"/>
<rect x="51.8281" y="25.9146" width="4.31909" height="4.31909" fill="#081F3F"/>
<rect x="56.1484" y="25.9146" width="4.31909" height="4.31909" fill="#142F4C"/>
<rect x="60.4668" y="25.9146" width="4.31909" height="4.31909" fill="#17324F"/>
<rect x="21.5938" y="30.2339" width="4.31909" height="4.31909" fill="#000C15"/>
<rect x="25.9141" y="30.2339" width="4.31909" height="4.31909" fill="#050B17"/>
<rect x="30.2324" y="30.2339" width="4.31909" height="4.31909" fill="#06101C"/>
<rect x="34.5527" y="30.2339" width="4.31909" height="4.31909" fill="#0B1521"/>
<rect x="38.8711" y="30.2339" width="4.31909" height="4.31909" fill="#0B1521"/>
<rect x="43.1914" y="30.2339" width="4.31909" height="4.31909" fill="#0A1622"/>
<rect x="47.5098" y="30.2339" width="4.31909" height="4.31909" fill="#091722"/>
<rect x="51.8281" y="30.2339" width="4.31909" height="4.31909" fill="#0C2742"/>
<rect x="56.1484" y="30.2339" width="4.31909" height="4.31909" fill="#0A2542"/>
<rect x="60.4668" y="30.2339" width="4.31909" height="4.31909" fill="#193451"/>
<rect x="64.7852" y="30.2339" width="4.31909" height="4.31909" fill="#081420"/>
<rect x="69.1035" y="30.2339" width="4.31909" height="4.31909" fill="#0B1521"/>
<rect x="73.4238" y="30.2339" width="4.31909" height="4.31909" fill="#0B1521"/>
<rect x="77.7422" y="30.2339" width="4.31909" height="4.31909" fill="#0B1521"/>
<rect x="82.0605" y="30.2339" width="4.31909" height="4.31909" fill="#0B1521"/>
<rect x="86.3789" y="30.2339" width="4.31909" height="4.31909" fill="#0B1521"/>
<rect x="90.6992" y="30.2339" width="4.31909" height="4.31909" fill="#0B1521"/>
<rect x="95.0176" y="30.2339" width="4.31909" height="4.31909" fill="#0B1521"/>
<rect x="99.3379" y="30.2339" width="4.31909" height="4.31909" fill="#0B1521"/>
<rect x="103.656" y="30.2339" width="4.31909" height="4.31909" fill="#0B1521"/>
<rect x="107.977" y="30.2339" width="4.31909" height="4.31909" fill="#6A7070"/>
<rect x="21.5938" y="34.5527" width="4.31909" height="4.31909" fill="#072849"/>
<rect x="25.9141" y="34.5527" width="4.31909" height="4.31909" fill="#0A2745"/>
<rect x="30.2324" y="34.5527" width="4.31909" height="4.31909" fill="#0A2745"/>
<rect x="34.5527" y="34.5527" width="4.31909" height="4.31909" fill="#0A2745"/>
<rect x="38.8711" y="34.5527" width="4.31909" height="4.31909" fill="#0A2745"/>
<rect x="43.1914" y="34.5527" width="4.31909" height="4.31909" fill="#0A2745"/>
<rect x="47.5098" y="34.5527" width="4.31909" height="4.31909" fill="#0A2844"/>
<rect x="51.8281" y="34.5527" width="4.31909" height="4.31909" fill="#0D2845"/>
<rect x="56.1484" y="34.5527" width="4.31909" height="4.31909" fill="#1A3552"/>
<rect x="60.4668" y="34.5527" width="4.31909" height="4.31909" fill="#0A2745"/>
<rect x="64.7852" y="34.5527" width="4.31909" height="4.31909" fill="#0A2745"/>
<rect x="69.1035" y="34.5527" width="4.31909" height="4.31909" fill="#0A2745"/>
<rect x="73.4238" y="34.5527" width="4.31909" height="4.31909" fill="#0A2745"/>
<rect x="77.7422" y="34.5527" width="4.31909" height="4.31909" fill="#0A2745"/>
<rect x="82.0605" y="34.5527" width="4.31909" height="4.31909" fill="#0A2745"/>
<rect x="86.3789" y="34.5527" width="4.31909" height="4.31909" fill="#0A2745"/>
<rect x="90.6992" y="34.5527" width="4.31909" height="4.31909" fill="#0A2745"/>
<rect x="95.0176" y="34.5527" width="4.31909" height="4.31909" fill="#0A2745"/>
<rect x="99.3379" y="34.5527" width="4.31909" height="4.31909" fill="#0A2745"/>
<rect x="103.656" y="34.5527" width="4.31909" height="4.31909" fill="#0A2745"/>
<rect x="107.977" y="34.5527" width="4.31909" height="4.31909" fill="#6A6C6F"/>
<rect x="12.9551" y="38.8701" width="4.31909" height="4.31909" fill="#757578"/>
<rect x="17.2754" y="38.8701" width="4.31909" height="4.31909" fill="#092845"/>
<rect x="21.5938" y="38.8701" width="4.31909" height="4.31909" fill="#BCD0CE"/>
<rect x="25.9141" y="38.8701" width="4.31909" height="4.31909" fill="#B6CFCB"/>
<rect x="30.2324" y="38.8701" width="4.31909" height="4.31909" fill="#B6CFCB"/>
<rect x="34.5527" y="38.8701" width="4.31909" height="4.31909" fill="#B6CFCB"/>
<rect x="38.8711" y="38.8701" width="4.31909" height="4.31909" fill="#B6CFCB"/>
<rect x="43.1914" y="38.8701" width="4.31909" height="4.31909" fill="#B3CCC8"/>
<rect x="47.5098" y="38.8701" width="4.31909" height="4.31909" fill="#B8D1CD"/>
<rect x="51.8281" y="38.8701" width="4.31909" height="4.31909" fill="#B3CCC8"/>
<rect x="56.1484" y="38.8701" width="4.31909" height="4.31909" fill="#B5CECA"/>
<rect x="60.4668" y="38.8701" width="4.31909" height="4.31909" fill="#B6CFCB"/>
<rect x="64.7852" y="38.8701" width="4.31909" height="4.31909" fill="#B6CFC9"/>
<rect x="69.1035" y="38.8701" width="4.31909" height="4.31909" fill="#B6CFC9"/>
<rect x="73.4238" y="38.8701" width="4.31909" height="4.31909" fill="#B6D0C7"/>
<rect x="77.7422" y="38.8701" width="4.31909" height="4.31909" fill="#B6D0C7"/>
<rect x="82.0605" y="38.8701" width="4.31909" height="4.31909" fill="#B6D0C7"/>
<rect x="86.3789" y="38.8701" width="4.31909" height="4.31909" fill="#B6D0C7"/>
<rect x="90.6992" y="38.8701" width="4.31909" height="4.31909" fill="#B6CFCB"/>
<rect x="95.0176" y="38.8701" width="4.31909" height="4.31909" fill="#B6CFCB"/>
<rect x="99.3379" y="38.8701" width="4.31909" height="4.31909" fill="#B6CFCB"/>
<rect x="103.656" y="38.8701" width="4.31909" height="4.31909" fill="#B6CFC9"/>
<rect x="107.977" y="38.8701" width="4.31909" height="4.31909" fill="#63838E"/>
<rect x="112.295" y="38.8701" width="4.31909" height="4.31909" fill="#0A2745"/>
<rect x="12.9551" y="43.1904" width="4.31909" height="4.31909" fill="#6A7073"/>
<rect x="17.2754" y="43.1904" width="4.31909" height="4.31909" fill="#0C192A"/>
<rect x="21.5938" y="43.1904" width="4.31909" height="4.31909" fill="#B0CDC8"/>
<rect x="25.9141" y="43.1904" width="4.31909" height="4.31909" fill="#B4CFCA"/>
<rect x="30.2324" y="43.1904" width="4.31909" height="4.31909" fill="#B5D0CB"/>
<rect x="34.5527" y="43.1904" width="4.31909" height="4.31909" fill="#B3CEC9"/>
<rect x="38.8711" y="43.1904" width="4.31909" height="4.31909" fill="#B3CEC9"/>
<rect x="43.1914" y="43.1904" width="4.31909" height="4.31909" fill="#B8D3CE"/>
<rect x="47.5098" y="43.1904" width="4.31909" height="4.31909" fill="#B8D3CE"/>
<rect x="51.8281" y="43.1904" width="4.31909" height="4.31909" fill="#B3CEC9"/>
<rect x="56.1484" y="43.1904" width="4.31909" height="4.31909" fill="#B5D0C9"/>
<rect x="60.4668" y="43.1904" width="4.31909" height="4.31909" fill="#B4CFC8"/>
<rect x="64.7852" y="43.1904" width="4.31909" height="4.31909" fill="#B4CFC8"/>
<rect x="69.1035" y="43.1904" width="4.31909" height="4.31909" fill="#B4CFC8"/>
<rect x="73.4238" y="43.1904" width="4.31909" height="4.31909" fill="#B4CFC8"/>
<rect x="77.7422" y="43.1904" width="4.31909" height="4.31909" fill="#B4CFC8"/>
<rect x="82.0605" y="43.1904" width="4.31909" height="4.31909" fill="#B4CFC8"/>
<rect x="86.3789" y="43.1904" width="4.31909" height="4.31909" fill="#B1CCC7"/>
<rect x="90.6992" y="43.1904" width="4.31909" height="4.31909" fill="#ADD1D1"/>
<rect x="95.0176" y="43.1904" width="4.31909" height="4.31909" fill="#AAD2D1"/>
<rect x="99.3379" y="43.1904" width="4.31909" height="4.31909" fill="#B0D0CF"/>
<rect x="103.656" y="43.1904" width="4.31909" height="4.31909" fill="#B2CDC6"/>
<rect x="107.977" y="43.1904" width="4.31909" height="4.31909" fill="#6A8888"/>
<rect x="112.295" y="43.1904" width="4.31909" height="4.31909" fill="#0A1720"/>
<rect x="8.63867" y="47.5093" width="4.31909" height="4.31909" fill="#082744"/>
<rect x="12.9551" y="47.5093" width="4.31909" height="4.31909" fill="#6B8C91"/>
<rect x="17.2754" y="47.5093" width="4.31909" height="4.31909" fill="#97AAAE"/>
<rect x="21.5938" y="47.5093" width="4.31909" height="4.31909" fill="#96A9AD"/>
<rect x="25.9141" y="47.5093" width="4.31909" height="4.31909" fill="#96A8AA"/>
<rect x="30.2324" y="47.5093" width="4.31909" height="4.31909" fill="#95A9AA"/>
<rect x="34.5527" y="47.5093" width="4.31909" height="4.31909" fill="#96A8AC"/>
<rect x="38.8711" y="47.5093" width="4.31909" height="4.31909" fill="#92A5A9"/>
<rect x="43.1914" y="47.5093" width="4.31909" height="4.31909" fill="#9CAEB2"/>
<rect x="47.5098" y="47.5093" width="4.31909" height="4.31909" fill="#96A9AD"/>
<rect x="51.8281" y="47.5093" width="4.31909" height="4.31909" fill="#97AAAE"/>
<rect x="56.1484" y="47.5093" width="4.31909" height="4.31909" fill="#97AAAE"/>
<rect x="60.4668" y="47.5093" width="4.31909" height="4.31909" fill="#97AAAE"/>
<rect x="64.7852" y="47.5093" width="4.31909" height="4.31909" fill="#97AAAE"/>
<rect x="69.1035" y="47.5093" width="4.31909" height="4.31909" fill="#97AAAE"/>
<rect x="73.4238" y="47.5093" width="4.31909" height="4.31909" fill="#97AAAE"/>
<rect x="77.7422" y="47.5093" width="4.31909" height="4.31909" fill="#97AAAE"/>
<rect x="82.0605" y="47.5093" width="4.31909" height="4.31909" fill="#96AAA9"/>
<rect x="86.3789" y="47.5093" width="4.31909" height="4.31909" fill="#97ABAC"/>
<rect x="90.6992" y="47.5093" width="4.31909" height="4.31909" fill="#0D273E"/>
<rect x="95.0176" y="47.5093" width="4.31909" height="4.31909" fill="#0A2745"/>
<rect x="99.3379" y="47.5093" width="4.31909" height="4.31909" fill="#0B2548"/>
<rect x="103.656" y="47.5093" width="4.31909" height="4.31909" fill="#98ABAF"/>
<rect x="107.977" y="47.5093" width="4.31909" height="4.31909" fill="#97ABAC"/>
<rect x="112.295" y="47.5093" width="4.31909" height="4.31909" fill="#96A8AC"/>
<rect x="116.615" y="47.5093" width="4.31909" height="4.31909" fill="#193451"/>
<rect x="120.934" y="47.5093" width="4.31909" height="4.31909" fill="#AFAFAF"/>
<rect y="51.8281" width="4.31909" height="4.31909" fill="#303240"/>
<rect x="4.31836" y="51.8281" width="4.31909" height="4.31909" fill="#0C2744"/>
<rect x="8.63867" y="51.8281" width="4.31909" height="4.31909" fill="#97AAAE"/>
<rect x="12.9551" y="51.8281" width="4.31909" height="4.31909" fill="#97AAAE"/>
<rect x="17.2754" y="51.8281" width="4.31909" height="4.31909" fill="#97AAAE"/>
<rect x="21.5938" y="51.8281" width="4.31909" height="4.31909" fill="#9AACB0"/>
<rect x="25.9141" y="51.8281" width="4.31909" height="4.31909" fill="#092847"/>
<rect x="30.2324" y="51.8281" width="4.31909" height="4.31909" fill="#173452"/>
<rect x="34.5527" y="51.8281" width="4.31909" height="4.31909" fill="#1C2E46"/>
<rect x="38.8711" y="51.8281" width="4.31909" height="4.31909" fill="#9FB1B5"/>
<rect x="43.1914" y="51.8281" width="4.31909" height="4.31909" fill="#97A9AD"/>
<rect x="47.5098" y="51.8281" width="4.31909" height="4.31909" fill="#97AAAE"/>
<rect x="51.8281" y="51.8281" width="4.31909" height="4.31909" fill="#97AAAE"/>
<rect x="56.1484" y="51.8281" width="4.31909" height="4.31909" fill="#97AAAE"/>
<rect x="60.4668" y="51.8281" width="4.31909" height="4.31909" fill="#97AAAE"/>
<rect x="64.7852" y="51.8281" width="4.31909" height="4.31909" fill="#97AAAE"/>
<rect x="69.1035" y="51.8281" width="4.31909" height="4.31909" fill="#97AAAE"/>
<rect x="73.4238" y="51.8281" width="4.31909" height="4.31909" fill="#97AAAE"/>
<rect x="77.7422" y="51.8281" width="4.31909" height="4.31909" fill="#97AAAE"/>
<rect x="82.0605" y="51.8281" width="4.31909" height="4.31909" fill="#98B1B8"/>
<rect x="86.3789" y="51.8281" width="4.31909" height="4.31909" fill="#0A2745"/>
<rect x="90.6992" y="51.8281" width="4.31909" height="4.31909" fill="#F6B535"/>
<rect x="95.0176" y="51.8281" width="4.31909" height="4.31909" fill="#F5B436"/>
<rect x="99.3379" y="51.8281" width="4.31909" height="4.31909" fill="#F58728"/>
<rect x="103.656" y="51.8281" width="4.31909" height="4.31909" fill="#0A2745"/>
<rect x="107.977" y="51.8281" width="4.31909" height="4.31909" fill="#4B7083"/>
<rect x="112.295" y="51.8281" width="4.31909" height="4.31909" fill="#99ABAF"/>
<rect x="116.615" y="51.8281" width="4.31909" height="4.31909" fill="#9EB0B4"/>
<rect x="120.934" y="51.8281" width="4.31909" height="4.31909" fill="#24353C"/>
<rect x="125.252" y="51.8281" width="4.31909" height="4.31909" fill="#092847"/>
<rect y="56.1475" width="4.31909" height="4.31909" fill="#2F3444"/>
<rect x="4.31836" y="56.1475" width="4.31909" height="4.31909" fill="#0D2846"/>
<rect x="8.63867" y="56.1475" width="4.31909" height="4.31909" fill="#98ABAF"/>
<rect x="12.9551" y="56.1475" width="4.31909" height="4.31909" fill="#93A6AC"/>
<rect x="17.2754" y="56.1475" width="4.31909" height="4.31909" fill="#96ABAE"/>
<rect x="21.5938" y="56.1475" width="4.31909" height="4.31909" fill="#98ACB3"/>
<rect x="25.9141" y="56.1475" width="4.31909" height="4.31909" fill="#0A2844"/>
<rect x="30.2324" y="56.1475" width="4.31909" height="4.31909" fill="#0D2845"/>
<rect x="34.5527" y="56.1475" width="4.31909" height="4.31909" fill="#1C2C45"/>
<rect x="38.8711" y="56.1475" width="4.31909" height="4.31909" fill="#95A8AC"/>
<rect x="43.1914" y="56.1475" width="4.31909" height="4.31909" fill="#9AACB0"/>
<rect x="47.5098" y="56.1475" width="4.31909" height="4.31909" fill="#97AAAE"/>
<rect x="51.8281" y="56.1475" width="4.31909" height="4.31909" fill="#97AAAE"/>
<rect x="56.1484" y="56.1475" width="4.31909" height="4.31909" fill="#97AAAE"/>
<rect x="60.4668" y="56.1475" width="4.31909" height="4.31909" fill="#97AAAE"/>
<rect x="64.7852" y="56.1475" width="4.31909" height="4.31909" fill="#97AAAE"/>
<rect x="69.1035" y="56.1475" width="4.31909" height="4.31909" fill="#97AAAE"/>
<rect x="73.4238" y="56.1475" width="4.31909" height="4.31909" fill="#96A9AD"/>
<rect x="77.7422" y="56.1475" width="4.31909" height="4.31909" fill="#99ACB0"/>
<rect x="82.0605" y="56.1475" width="4.31909" height="4.31909" fill="#98B3BA"/>
<rect x="86.3789" y="56.1475" width="4.31909" height="4.31909" fill="#092847"/>
<rect x="90.6992" y="56.1475" width="4.31909" height="4.31909" fill="#F2B330"/>
<rect x="95.0176" y="56.1475" width="4.31909" height="4.31909" fill="#F4B335"/>
<rect x="99.3379" y="56.1475" width="4.31909" height="4.31909" fill="#F68922"/>
<rect x="103.656" y="56.1475" width="4.31909" height="4.31909" fill="#0C2742"/>
<rect x="107.977" y="56.1475" width="4.31909" height="4.31909" fill="#477584"/>
<rect x="112.295" y="56.1475" width="4.31909" height="4.31909" fill="#94A7AD"/>
<rect x="116.615" y="56.1475" width="4.31909" height="4.31909" fill="#9CAFB3"/>
<rect x="120.934" y="56.1475" width="4.31909" height="4.31909" fill="#162930"/>
<rect x="125.252" y="56.1475" width="4.31909" height="4.31909" fill="#0A2745"/>
<rect y="60.4663" width="4.31909" height="4.31909" fill="#2F3447"/>
<rect x="4.31836" y="60.4663" width="4.31909" height="4.31909" fill="#0B2644"/>
<rect x="8.63867" y="60.4663" width="4.31909" height="4.31909" fill="#98ABAF"/>
<rect x="12.9551" y="60.4663" width="4.31909" height="4.31909" fill="#ACC0C1"/>
<rect x="17.2754" y="60.4663" width="4.31909" height="4.31909" fill="#0A2745"/>
<rect x="21.5938" y="60.4663" width="4.31909" height="4.31909" fill="#1A3552"/>
<rect x="25.9141" y="60.4663" width="4.31909" height="4.31909" fill="#2B4965"/>
<rect x="30.2324" y="60.4663" width="4.31909" height="4.31909" fill="#1E3D59"/>
<rect x="34.5527" y="60.4663" width="4.31909" height="4.31909" fill="#0A2745"/>
<rect x="38.8711" y="60.4663" width="4.31909" height="4.31909" fill="#0A2745"/>
<rect x="43.1914" y="60.4663" width="4.31909" height="4.31909" fill="#03142E"/>
<rect x="47.5098" y="60.4663" width="4.31909" height="4.31909" fill="#97AAAE"/>
<rect x="51.8281" y="60.4663" width="4.31909" height="4.31909" fill="#97AAAE"/>
<rect x="56.1484" y="60.4663" width="4.31909" height="4.31909" fill="#97AAAE"/>
<rect x="60.4668" y="60.4663" width="4.31909" height="4.31909" fill="#97AAAE"/>
<rect x="64.7852" y="60.4663" width="4.31909" height="4.31909" fill="#97AAAE"/>
<rect x="69.1035" y="60.4663" width="4.31909" height="4.31909" fill="#97AAAE"/>
<rect x="73.4238" y="60.4663" width="4.31909" height="4.31909" fill="#98ABAF"/>
<rect x="77.7422" y="60.4663" width="4.31909" height="4.31909" fill="#0A2844"/>
<rect x="82.0605" y="60.4663" width="4.31909" height="4.31909" fill="#0D444B"/>
<rect x="86.3789" y="60.4663" width="4.31909" height="4.31909" fill="#1FA465"/>
<rect x="90.6992" y="60.4663" width="4.31909" height="4.31909" fill="#0D2843"/>
<rect x="95.0176" y="60.4663" width="4.31909" height="4.31909" fill="#0A2745"/>
<rect x="99.3379" y="60.4663" width="4.31909" height="4.31909" fill="#0B2644"/>
<rect x="103.656" y="60.4663" width="4.31909" height="4.31909" fill="#E83135"/>
<rect x="107.977" y="60.4663" width="4.31909" height="4.31909" fill="#903F48"/>
<rect x="112.295" y="60.4663" width="4.31909" height="4.31909" fill="#0A2844"/>
<rect x="116.615" y="60.4663" width="4.31909" height="4.31909" fill="#96A9AD"/>
<rect x="120.934" y="60.4663" width="4.31909" height="4.31909" fill="#172933"/>
<rect x="125.252" y="60.4663" width="4.31909" height="4.31909" fill="#0A2745"/>
<rect y="64.7866" width="4.31909" height="4.31909" fill="#303346"/>
<rect x="4.31836" y="64.7866" width="4.31909" height="4.31909" fill="#0D2846"/>
<rect x="8.63867" y="64.7866" width="4.31909" height="4.31909" fill="#97AAAE"/>
<rect x="12.9551" y="64.7866" width="4.31909" height="4.31909" fill="#AFC8C5"/>
<rect x="17.2754" y="64.7866" width="4.31909" height="4.31909" fill="#0A2745"/>
<rect x="21.5938" y="64.7866" width="4.31909" height="4.31909" fill="#1E3D59"/>
<rect x="25.9141" y="64.7866" width="4.31909" height="4.31909" fill="#1C3A56"/>
<rect x="30.2324" y="64.7866" width="4.31909" height="4.31909" fill="#1E3D5A"/>
<rect x="34.5527" y="64.7866" width="4.31909" height="4.31909" fill="#1E3D5A"/>
<rect x="38.8711" y="64.7866" width="4.31909" height="4.31909" fill="#092644"/>
<rect x="43.1914" y="64.7866" width="4.31909" height="4.31909" fill="#03142E"/>
<rect x="47.5098" y="64.7866" width="4.31909" height="4.31909" fill="#97AAAE"/>
<rect x="51.8281" y="64.7866" width="4.31909" height="4.31909" fill="#05132D"/>
<rect x="56.1484" y="64.7866" width="4.31909" height="4.31909" fill="#081630"/>
<rect x="60.4668" y="64.7866" width="4.31909" height="4.31909" fill="#91AFB1"/>
<rect x="64.7852" y="64.7866" width="4.31909" height="4.31909" fill="#191F35"/>
<rect x="69.1035" y="64.7866" width="4.31909" height="4.31909" fill="#0D213A"/>
<rect x="73.4238" y="64.7866" width="4.31909" height="4.31909" fill="#9AA9AE"/>
<rect x="77.7422" y="64.7866" width="4.31909" height="4.31909" fill="#0B2643"/>
<rect x="82.0605" y="64.7866" width="4.31909" height="4.31909" fill="#14446C"/>
<rect x="86.3789" y="64.7866" width="4.31909" height="4.31909" fill="#1671A0"/>
<rect x="90.6992" y="64.7866" width="4.31909" height="4.31909" fill="#0B2945"/>
<rect x="95.0176" y="64.7866" width="4.31909" height="4.31909" fill="#0A2745"/>
<rect x="99.3379" y="64.7866" width="4.31909" height="4.31909" fill="#1B3653"/>
<rect x="103.656" y="64.7866" width="4.31909" height="4.31909" fill="#EE393E"/>
<rect x="107.977" y="64.7866" width="4.31909" height="4.31909" fill="#84313B"/>
<rect x="112.295" y="64.7866" width="4.31909" height="4.31909" fill="#0A2745"/>
<rect x="116.615" y="64.7866" width="4.31909" height="4.31909" fill="#97AAAE"/>
<rect x="120.934" y="64.7866" width="4.31909" height="4.31909" fill="#172933"/>
<rect x="125.252" y="64.7866" width="4.31909" height="4.31909" fill="#0A2745"/>
<rect y="69.1055" width="4.31909" height="4.31909" fill="#303344"/>
<rect x="4.31836" y="69.1055" width="4.31909" height="4.31909" fill="#0D2846"/>
<rect x="8.63867" y="69.1055" width="4.31909" height="4.31909" fill="#97AAAE"/>
<rect x="12.9551" y="69.1055" width="4.31909" height="4.31909" fill="#ADC5C5"/>
<rect x="17.2754" y="69.1055" width="4.31909" height="4.31909" fill="#0A2745"/>
<rect x="21.5938" y="69.1055" width="4.31909" height="4.31909" fill="#1E3D5A"/>
<rect x="25.9141" y="69.1055" width="4.31909" height="4.31909" fill="#1E3D5A"/>
<rect x="30.2324" y="69.1055" width="4.31909" height="4.31909" fill="#1E3D5A"/>
<rect x="34.5527" y="69.1055" width="4.31909" height="4.31909" fill="#1E3D5A"/>
<rect x="38.8711" y="69.1055" width="4.31909" height="4.31909" fill="#0A2745"/>
<rect x="43.1914" y="69.1055" width="4.31909" height="4.31909" fill="#03142E"/>
<rect x="47.5098" y="69.1055" width="4.31909" height="4.31909" fill="#97AAAE"/>
<rect x="51.8281" y="69.1055" width="4.31909" height="4.31909" fill="#0A2747"/>
<rect x="56.1484" y="69.1055" width="4.31909" height="4.31909" fill="#0A2745"/>
<rect x="60.4668" y="69.1055" width="4.31909" height="4.31909" fill="#98AAAE"/>
<rect x="64.7852" y="69.1055" width="4.31909" height="4.31909" fill="#1B273D"/>
<rect x="69.1035" y="69.1055" width="4.31909" height="4.31909" fill="#092847"/>
<rect x="73.4238" y="69.1055" width="4.31909" height="4.31909" fill="#97AAAE"/>
<rect x="77.7422" y="69.1055" width="4.31909" height="4.31909" fill="#0C2744"/>
<rect x="82.0605" y="69.1055" width="4.31909" height="4.31909" fill="#0E3E64"/>
<rect x="86.3789" y="69.1055" width="4.31909" height="4.31909" fill="#16719E"/>
<rect x="90.6992" y="69.1055" width="4.31909" height="4.31909" fill="#0C2448"/>
<rect x="95.0176" y="69.1055" width="4.31909" height="4.31909" fill="#1C3754"/>
<rect x="99.3379" y="69.1055" width="4.31909" height="4.31909" fill="#1A3552"/>
<rect x="103.656" y="69.1055" width="4.31909" height="4.31909" fill="#F34044"/>
<rect x="107.977" y="69.1055" width="4.31909" height="4.31909" fill="#88323D"/>
<rect x="112.295" y="69.1055" width="4.31909" height="4.31909" fill="#0B2846"/>
<rect x="116.615" y="69.1055" width="4.31909" height="4.31909" fill="#97AAAE"/>
<rect x="120.934" y="69.1055" width="4.31909" height="4.31909" fill="#172933"/>
<rect x="125.252" y="69.1055" width="4.31909" height="4.31909" fill="#0A2745"/>
<rect y="73.4243" width="4.31909" height="4.31909" fill="#2E313F"/>
<rect x="4.31836" y="73.4243" width="4.31909" height="4.31909" fill="#0C2745"/>
<rect x="8.63867" y="73.4243" width="4.31909" height="4.31909" fill="#97AAAE"/>
<rect x="12.9551" y="73.4243" width="4.31909" height="4.31909" fill="#9CB4B6"/>
<rect x="17.2754" y="73.4243" width="4.31909" height="4.31909" fill="#546881"/>
<rect x="21.5938" y="73.4243" width="4.31909" height="4.31909" fill="#092644"/>
<rect x="25.9141" y="73.4243" width="4.31909" height="4.31909" fill="#1D3C59"/>
<rect x="30.2324" y="73.4243" width="4.31909" height="4.31909" fill="#1E3D5A"/>
<rect x="34.5527" y="73.4243" width="4.31909" height="4.31909" fill="#092644"/>
<rect x="38.8711" y="73.4243" width="4.31909" height="4.31909" fill="#566880"/>
<rect x="43.1914" y="73.4243" width="4.31909" height="4.31909" fill="#4F677F"/>
<rect x="47.5098" y="73.4243" width="4.31909" height="4.31909" fill="#97AAAE"/>
<rect x="51.8281" y="73.4243" width="4.31909" height="4.31909" fill="#9AACB0"/>
<rect x="56.1484" y="73.4243" width="4.31909" height="4.31909" fill="#96ABAE"/>
<rect x="60.4668" y="73.4243" width="4.31909" height="4.31909" fill="#93ADAC"/>
<rect x="64.7852" y="73.4243" width="4.31909" height="4.31909" fill="#95AAAD"/>
<rect x="69.1035" y="73.4243" width="4.31909" height="4.31909" fill="#97ACB1"/>
<rect x="73.4238" y="73.4243" width="4.31909" height="4.31909" fill="#98ABAF"/>
<rect x="77.7422" y="73.4243" width="4.31909" height="4.31909" fill="#62788D"/>
<rect x="82.0605" y="73.4243" width="4.31909" height="4.31909" fill="#6F8A93"/>
<rect x="86.3789" y="73.4243" width="4.31909" height="4.31909" fill="#0B2945"/>
<rect x="90.6992" y="73.4243" width="4.31909" height="4.31909" fill="#2CA96F"/>
<rect x="95.0176" y="73.4243" width="4.31909" height="4.31909" fill="#50A965"/>
<rect x="99.3379" y="73.4243" width="4.31909" height="4.31909" fill="#F3B73B"/>
<rect x="103.656" y="73.4243" width="4.31909" height="4.31909" fill="#0B2945"/>
<rect x="107.977" y="73.4243" width="4.31909" height="4.31909" fill="#51778C"/>
<rect x="112.295" y="73.4243" width="4.31909" height="4.31909" fill="#62778A"/>
<rect x="116.615" y="73.4243" width="4.31909" height="4.31909" fill="#96ABAE"/>
<rect x="120.934" y="73.4243" width="4.31909" height="4.31909" fill="#172933"/>
<rect x="125.252" y="73.4243" width="4.31909" height="4.31909" fill="#0A2745"/>
<rect y="77.7427" width="4.31909" height="4.31909" fill="#2E3143"/>
<rect x="4.31836" y="77.7427" width="4.31909" height="4.31909" fill="#0D2748"/>
<rect x="8.63867" y="77.7427" width="4.31909" height="4.31909" fill="#A8BDBE"/>
<rect x="12.9551" y="77.7427" width="4.31909" height="4.31909" fill="#A5BBB8"/>
<rect x="17.2754" y="77.7427" width="4.31909" height="4.31909" fill="#52667E"/>
<rect x="21.5938" y="77.7427" width="4.31909" height="4.31909" fill="#0B2945"/>
<rect x="25.9141" y="77.7427" width="4.31909" height="4.31909" fill="#1E3D5A"/>
<rect x="30.2324" y="77.7427" width="4.31909" height="4.31909" fill="#1E3D5A"/>
<rect x="34.5527" y="77.7427" width="4.31909" height="4.31909" fill="#0A2745"/>
<rect x="38.8711" y="77.7427" width="4.31909" height="4.31909" fill="#546880"/>
<rect x="43.1914" y="77.7427" width="4.31909" height="4.31909" fill="#52667F"/>
<rect x="47.5098" y="77.7427" width="4.31909" height="4.31909" fill="#96A9AD"/>
<rect x="51.8281" y="77.7427" width="4.31909" height="4.31909" fill="#97AAAE"/>
<rect x="56.1484" y="77.7427" width="4.31909" height="4.31909" fill="#97AAAE"/>
<rect x="60.4668" y="77.7427" width="4.31909" height="4.31909" fill="#97AAAE"/>
<rect x="64.7852" y="77.7427" width="4.31909" height="4.31909" fill="#95AAAD"/>
<rect x="69.1035" y="77.7427" width="4.31909" height="4.31909" fill="#9BB3B7"/>
<rect x="73.4238" y="77.7427" width="4.31909" height="4.31909" fill="#9BB0B5"/>
<rect x="77.7422" y="77.7427" width="4.31909" height="4.31909" fill="#63758B"/>
<rect x="82.0605" y="77.7427" width="4.31909" height="4.31909" fill="#768997"/>
<rect x="86.3789" y="77.7427" width="4.31909" height="4.31909" fill="#092644"/>
<rect x="90.6992" y="77.7427" width="4.31909" height="4.31909" fill="#2BA66D"/>
<rect x="95.0176" y="77.7427" width="4.31909" height="4.31909" fill="#58AD69"/>
<rect x="99.3379" y="77.7427" width="4.31909" height="4.31909" fill="#F5B539"/>
<rect x="103.656" y="77.7427" width="4.31909" height="4.31909" fill="#0B2846"/>
<rect x="107.977" y="77.7427" width="4.31909" height="4.31909" fill="#50798B"/>
<rect x="112.295" y="77.7427" width="4.31909" height="4.31909" fill="#607588"/>
<rect x="116.615" y="77.7427" width="4.31909" height="4.31909" fill="#95A8AC"/>
<rect x="120.934" y="77.7427" width="4.31909" height="4.31909" fill="#182933"/>
<rect x="125.252" y="77.7427" width="4.31909" height="4.31909" fill="#0A2745"/>
<rect y="82.0625" width="4.31909" height="4.31909" fill="#2A3242"/>
<rect x="4.31836" y="82.0625" width="4.31909" height="4.31909" fill="#0D2549"/>
<rect x="8.63867" y="82.0625" width="4.31909" height="4.31909" fill="#5F7686"/>
<rect x="12.9551" y="82.0625" width="4.31909" height="4.31909" fill="#8EA5AD"/>
<rect x="17.2754" y="82.0625" width="4.31909" height="4.31909" fill="#97AAB0"/>
<rect x="21.5938" y="82.0625" width="4.31909" height="4.31909" fill="#556981"/>
<rect x="25.9141" y="82.0625" width="4.31909" height="4.31909" fill="#092845"/>
<rect x="30.2324" y="82.0625" width="4.31909" height="4.31909" fill="#0A2745"/>
<rect x="34.5527" y="82.0625" width="4.31909" height="4.31909" fill="#546880"/>
<rect x="38.8711" y="82.0625" width="4.31909" height="4.31909" fill="#98ABB1"/>
<rect x="43.1914" y="82.0625" width="4.31909" height="4.31909" fill="#9AADB3"/>
<rect x="47.5098" y="82.0625" width="4.31909" height="4.31909" fill="#607789"/>
<rect x="51.8281" y="82.0625" width="4.31909" height="4.31909" fill="#607789"/>
<rect x="56.1484" y="82.0625" width="4.31909" height="4.31909" fill="#607789"/>
<rect x="60.4668" y="82.0625" width="4.31909" height="4.31909" fill="#607789"/>
<rect x="64.7852" y="82.0625" width="4.31909" height="4.31909" fill="#607789"/>
<rect x="69.1035" y="82.0625" width="4.31909" height="4.31909" fill="#607789"/>
<rect x="73.4238" y="82.0625" width="4.31909" height="4.31909" fill="#617689"/>
<rect x="77.7422" y="82.0625" width="4.31909" height="4.31909" fill="#96AAAB"/>
<rect x="82.0605" y="82.0625" width="4.31909" height="4.31909" fill="#9BAEB2"/>
<rect x="86.3789" y="82.0625" width="4.31909" height="4.31909" fill="#5F7187"/>
<rect x="90.6992" y="82.0625" width="4.31909" height="4.31909" fill="#193654"/>
<rect x="95.0176" y="82.0625" width="4.31909" height="4.31909" fill="#0A2745"/>
<rect x="99.3379" y="82.0625" width="4.31909" height="4.31909" fill="#082543"/>
<rect x="103.656" y="82.0625" width="4.31909" height="4.31909" fill="#546880"/>
<rect x="107.977" y="82.0625" width="4.31909" height="4.31909" fill="#7FA0A9"/>
<rect x="112.295" y="82.0625" width="4.31909" height="4.31909" fill="#96A7AE"/>
<rect x="116.615" y="82.0625" width="4.31909" height="4.31909" fill="#617689"/>
<rect x="120.934" y="82.0625" width="4.31909" height="4.31909" fill="#182C33"/>
<rect x="125.252" y="82.0625" width="4.31909" height="4.31909" fill="#0A2747"/>
<rect x="8.63867" y="86.3818" width="4.31909" height="4.31909" fill="#092845"/>
<rect x="12.9551" y="86.3818" width="4.31909" height="4.31909" fill="#4E5A68"/>
<rect x="17.2754" y="86.3818" width="4.31909" height="4.31909" fill="#546880"/>
<rect x="21.5938" y="86.3818" width="4.31909" height="4.31909" fill="#546880"/>
<rect x="25.9141" y="86.3818" width="4.31909" height="4.31909" fill="#546880"/>
<rect x="30.2324" y="86.3818" width="4.31909" height="4.31909" fill="#546880"/>
<rect x="34.5527" y="86.3818" width="4.31909" height="4.31909" fill="#546880"/>
<rect x="38.8711" y="86.3818" width="4.31909" height="4.31909" fill="#546880"/>
<rect x="43.1914" y="86.3818" width="4.31909" height="4.31909" fill="#596B81"/>
<rect x="47.5098" y="86.3818" width="4.31909" height="4.31909" fill="#0A2745"/>
<rect x="51.8281" y="86.3818" width="4.31909" height="4.31909" fill="#0A2745"/>
<rect x="56.1484" y="86.3818" width="4.31909" height="4.31909" fill="#0A2745"/>
<rect x="60.4668" y="86.3818" width="4.31909" height="4.31909" fill="#0A2745"/>
<rect x="64.7852" y="86.3818" width="4.31909" height="4.31909" fill="#0A2745"/>
<rect x="69.1035" y="86.3818" width="4.31909" height="4.31909" fill="#0A2745"/>
<rect x="73.4238" y="86.3818" width="4.31909" height="4.31909" fill="#0A2745"/>
<rect x="77.7422" y="86.3818" width="4.31909" height="4.31909" fill="#0A2745"/>
<rect x="82.0605" y="86.3818" width="4.31909" height="4.31909" fill="#081327"/>
<rect x="86.3789" y="86.3818" width="4.31909" height="4.31909" fill="#5E7086"/>
<rect x="90.6992" y="86.3818" width="4.31909" height="4.31909" fill="#566880"/>
<rect x="95.0176" y="86.3818" width="4.31909" height="4.31909" fill="#546880"/>
<rect x="99.3379" y="86.3818" width="4.31909" height="4.31909" fill="#546880"/>
<rect x="103.656" y="86.3818" width="4.31909" height="4.31909" fill="#546880"/>
<rect x="107.977" y="86.3818" width="4.31909" height="4.31909" fill="#546880"/>
<rect x="112.295" y="86.3818" width="4.31909" height="4.31909" fill="#546880"/>
<rect x="116.615" y="86.3818" width="4.31909" height="4.31909" fill="#092847"/>
<rect x="120.934" y="86.3818" width="4.31909" height="4.31909" fill="#BFBFBF"/>
<rect x="8.63867" y="90.7007" width="4.31909" height="4.31909" fill="#092845"/>
<rect x="12.9551" y="90.7007" width="4.31909" height="4.31909" fill="#4E606E"/>
<rect x="17.2754" y="90.7007" width="4.31909" height="4.31909" fill="#50697D"/>
<rect x="21.5938" y="90.7007" width="4.31909" height="4.31909" fill="#566880"/>
<rect x="25.9141" y="90.7007" width="4.31909" height="4.31909" fill="#57697F"/>
<rect x="30.2324" y="90.7007" width="4.31909" height="4.31909" fill="#57697F"/>
<rect x="34.5527" y="90.7007" width="4.31909" height="4.31909" fill="#56687E"/>
<rect x="38.8711" y="90.7007" width="4.31909" height="4.31909" fill="#546881"/>
<rect x="43.1914" y="90.7007" width="4.31909" height="4.31909" fill="#556A7D"/>
<rect x="47.5098" y="90.7007" width="4.31909" height="4.31909" fill="#092845"/>
<rect x="51.8281" y="90.7007" width="4.31909" height="4.31909" fill="#092845"/>
<rect x="56.1484" y="90.7007" width="4.31909" height="4.31909" fill="#092845"/>
<rect x="60.4668" y="90.7007" width="4.31909" height="4.31909" fill="#092845"/>
<rect x="64.7852" y="90.7007" width="4.31909" height="4.31909" fill="#092845"/>
<rect x="69.1035" y="90.7007" width="4.31909" height="4.31909" fill="#092845"/>
<rect x="73.4238" y="90.7007" width="4.31909" height="4.31909" fill="#092845"/>
<rect x="77.7422" y="90.7007" width="4.31909" height="4.31909" fill="#092845"/>
<rect x="82.0605" y="90.7007" width="4.31909" height="4.31909" fill="#021126"/>
<rect x="86.3789" y="90.7007" width="4.31909" height="4.31909" fill="#52687D"/>
<rect x="90.6992" y="90.7007" width="4.31909" height="4.31909" fill="#596B83"/>
<rect x="95.0176" y="90.7007" width="4.31909" height="4.31909" fill="#56687E"/>
<rect x="99.3379" y="90.7007" width="4.31909" height="4.31909" fill="#56687E"/>
<rect x="103.656" y="90.7007" width="4.31909" height="4.31909" fill="#56687E"/>
<rect x="107.977" y="90.7007" width="4.31909" height="4.31909" fill="#56687E"/>
<rect x="112.295" y="90.7007" width="4.31909" height="4.31909" fill="#546880"/>
<rect x="116.615" y="90.7007" width="4.31909" height="4.31909" fill="#0C2745"/>
<rect x="120.934" y="90.7007" width="4.31909" height="4.31909" fill="#AAD4D4"/>
<rect x="12.9551" y="95.02" width="4.31909" height="4.31909" fill="#6A7380"/>
<rect x="17.2754" y="95.02" width="4.31909" height="4.31909" fill="#0A2745"/>
<rect x="21.5938" y="95.02" width="4.31909" height="4.31909" fill="#3B5B74"/>
<rect x="25.9141" y="95.02" width="4.31909" height="4.31909" fill="#3C5A76"/>
<rect x="30.2324" y="95.02" width="4.31909" height="4.31909" fill="#3C5A76"/>
<rect x="34.5527" y="95.02" width="4.31909" height="4.31909" fill="#3C5A76"/>
<rect x="38.8711" y="95.02" width="4.31909" height="4.31909" fill="#0A2948"/>
<rect x="43.1914" y="95.02" width="4.31909" height="4.31909" fill="#0B2546"/>
<rect x="86.3789" y="95.02" width="4.31909" height="4.31909" fill="#0A2745"/>
<rect x="90.6992" y="95.02" width="4.31909" height="4.31909" fill="#3D5B77"/>
<rect x="95.0176" y="95.02" width="4.31909" height="4.31909" fill="#3C5A76"/>
<rect x="99.3379" y="95.02" width="4.31909" height="4.31909" fill="#3C5A76"/>
<rect x="103.656" y="95.02" width="4.31909" height="4.31909" fill="#3C5A76"/>
<rect x="107.977" y="95.02" width="4.31909" height="4.31909" fill="#183553"/>
<rect x="112.295" y="95.02" width="4.31909" height="4.31909" fill="#0A2745"/>
<rect x="21.5938" y="99.3379" width="4.31909" height="4.31909" fill="#0B1F38"/>
<rect x="25.9141" y="99.3379" width="4.31909" height="4.31909" fill="#082341"/>
<rect x="30.2324" y="99.3379" width="4.31909" height="4.31909" fill="#082341"/>
<rect x="34.5527" y="99.3379" width="4.31909" height="4.31909" fill="#05233F"/>
<rect x="90.6992" y="99.3379" width="4.31909" height="4.31909" fill="#0D2748"/>
<rect x="95.0176" y="99.3379" width="4.31909" height="4.31909" fill="#0A2745"/>
<rect x="99.3379" y="99.3379" width="4.31909" height="4.31909" fill="#0C2745"/>
<rect x="103.656" y="99.3379" width="4.31909" height="4.31909" fill="#082543"/>
<rect x="107.977" y="99.3379" width="4.31909" height="4.31909" fill="#BFBFBF"/>
<rect x="21.5938" y="103.658" width="4.31909" height="4.31909" fill="#0A2844"/>
<rect x="25.9141" y="103.658" width="4.31909" height="4.31909" fill="#0A2745"/>
<rect x="30.2324" y="103.658" width="4.31909" height="4.31909" fill="#0A2745"/>
<rect x="34.5527" y="103.658" width="4.31909" height="4.31909" fill="#092844"/>
<rect x="90.6992" y="103.658" width="4.31909" height="4.31909" fill="#092847"/>
<rect x="95.0176" y="103.658" width="4.31909" height="4.31909" fill="#0A2745"/>
<rect x="99.3379" y="103.658" width="4.31909" height="4.31909" fill="#0A2745"/>
<rect x="103.656" y="103.658" width="4.31909" height="4.31909" fill="#0A2745"/>
<rect x="107.977" y="103.658" width="4.31909" height="4.31909" fill="#757583"/>
</svg>
