<svg width="269" height="269" viewBox="0 0 269 269" fill="none" xmlns="http://www.w3.org/2000/svg">
<rect x="107.6" y="17.9341" width="17.9334" height="17.9334" fill="#FBFFFF"/>
<rect x="125.534" y="17.9341" width="17.9334" height="17.9334" fill="#FEFFFF"/>
<rect x="143.467" y="17.9341" width="17.9334" height="17.9334" fill="#F1F4FC"/>
<rect x="161.401" y="17.9341" width="17.9334" height="17.9334" fill="#FEFCFF"/>
<rect x="71.7339" y="35.8684" width="17.9334" height="17.9334" fill="#FEFFFB"/>
<rect x="89.6672" y="35.8684" width="17.9334" height="17.9334" fill="#F2C06B"/>
<rect x="107.6" y="35.8684" width="17.9334" height="17.9334" fill="#F2C06B"/>
<rect x="125.534" y="35.8684" width="17.9334" height="17.9334" fill="#F2C06B"/>
<rect x="143.467" y="35.8684" width="17.9334" height="17.9334" fill="#FD3D8E"/>
<rect x="161.401" y="35.8684" width="17.9334" height="17.9334" fill="#FE3D8E"/>
<rect x="179.334" y="35.8684" width="17.9334" height="17.9334" fill="#FE3D8E"/>
<rect x="197.267" y="35.8684" width="17.9334" height="17.9334" fill="#FEFEFF"/>
<rect x="53.8003" y="53.7988" width="17.9334" height="17.9334" fill="#F4F8F2"/>
<rect x="71.7339" y="53.7988" width="17.9334" height="17.9334" fill="#F2C06B"/>
<rect x="89.6672" y="53.7988" width="17.9334" height="17.9334" fill="#F2C06B"/>
<rect x="107.6" y="53.7988" width="17.9334" height="17.9334" fill="#F2C06B"/>
<rect x="125.534" y="53.7988" width="17.9334" height="17.9334" fill="#F5BF65"/>
<rect x="143.467" y="53.7988" width="17.9334" height="17.9334" fill="#FD3D8E"/>
<rect x="161.401" y="53.7988" width="17.9334" height="17.9334" fill="#FE3D8E"/>
<rect x="179.334" y="53.7988" width="17.9334" height="17.9334" fill="#FE3D8E"/>
<rect x="197.267" y="53.7988" width="17.9334" height="17.9334" fill="#FE3D8E"/>
<rect x="215.201" y="53.7988" width="17.9334" height="17.9334" fill="#F33B8B"/>
<rect x="35.8671" y="71.7329" width="17.9334" height="17.9334" fill="#FDFCF7"/>
<rect x="53.8003" y="71.7329" width="17.9334" height="17.9334" fill="#F2C06B"/>
<rect x="71.7339" y="71.7329" width="17.9334" height="17.9334" fill="#F2C06B"/>
<rect x="89.6672" y="71.7329" width="17.9334" height="17.9334" fill="#F2C06B"/>
<rect x="107.6" y="71.7329" width="17.9334" height="17.9334" fill="#F2C06B"/>
<rect x="125.534" y="71.7329" width="17.9334" height="17.9334" fill="#F4FBF9"/>
<rect x="143.467" y="71.7329" width="17.9334" height="17.9334" fill="#FD3D8E"/>
<rect x="161.401" y="71.7329" width="17.9334" height="17.9334" fill="#FE3D8E"/>
<rect x="179.334" y="71.7329" width="17.9334" height="17.9334" fill="#FE3D8E"/>
<rect x="197.267" y="71.7329" width="17.9334" height="17.9334" fill="#FE3D8E"/>
<rect x="215.201" y="71.7329" width="17.9334" height="17.9334" fill="#FE3D8E"/>
<rect x="233.134" y="71.7329" width="17.9334" height="17.9334" fill="#F6FFFF"/>
<rect x="35.8671" y="89.667" width="17.9334" height="17.9334" fill="#F4BF69"/>
<rect x="53.8003" y="89.667" width="17.9334" height="17.9334" fill="#F2C06B"/>
<rect x="71.7339" y="89.667" width="17.9334" height="17.9334" fill="#F2C06B"/>
<rect x="89.6672" y="89.667" width="17.9334" height="17.9334" fill="#F2C06B"/>
<rect x="107.6" y="89.667" width="17.9334" height="17.9334" fill="#F2C06B"/>
<rect x="125.534" y="89.667" width="17.9334" height="17.9334" fill="#A262F6"/>
<rect x="143.467" y="89.667" width="17.9334" height="17.9334" fill="#FD3D8E"/>
<rect x="161.401" y="89.667" width="17.9334" height="17.9334" fill="#FE3D8E"/>
<rect x="179.334" y="89.667" width="17.9334" height="17.9334" fill="#FE3D8E"/>
<rect x="197.267" y="89.667" width="17.9334" height="17.9334" fill="#FE3D8E"/>
<rect x="215.201" y="89.667" width="17.9334" height="17.9334" fill="#FE3D8E"/>
<rect x="233.134" y="89.667" width="17.9334" height="17.9334" fill="#B2ED83"/>
<rect x="35.8671" y="107.601" width="17.9334" height="17.9334" fill="#F2C06B"/>
<rect x="53.8003" y="107.601" width="17.9334" height="17.9334" fill="#F2C06B"/>
<rect x="71.7339" y="107.601" width="17.9334" height="17.9334" fill="#F2C06B"/>
<rect x="89.6672" y="107.601" width="17.9334" height="17.9334" fill="#F2C06B"/>
<rect x="107.6" y="107.601" width="17.9334" height="17.9334" fill="#FBF6FF"/>
<rect x="125.534" y="107.601" width="17.9334" height="17.9334" fill="#9E62FE"/>
<rect x="143.467" y="107.601" width="17.9334" height="17.9334" fill="#FD3D8E"/>
<rect x="161.401" y="107.601" width="17.9334" height="17.9334" fill="#FE3D8E"/>
<rect x="179.334" y="107.601" width="17.9334" height="17.9334" fill="#FE3D8E"/>
<rect x="197.267" y="107.601" width="17.9334" height="17.9334" fill="#FE3D8E"/>
<rect x="215.201" y="107.601" width="17.9334" height="17.9334" fill="#F7FAF0"/>
<rect x="233.134" y="107.601" width="17.9334" height="17.9334" fill="#ACF26B"/>
<rect x="251.068" y="107.601" width="17.9334" height="17.9334" fill="#FFFDFF"/>
<rect x="17.9335" y="125.534" width="17.9334" height="17.9334" fill="#FFFEFE"/>
<rect x="35.8671" y="125.534" width="17.9334" height="17.9334" fill="#F2C06B"/>
<rect x="53.8003" y="125.534" width="17.9334" height="17.9334" fill="#F2C06B"/>
<rect x="71.7339" y="125.534" width="17.9334" height="17.9334" fill="#F2C06B"/>
<rect x="89.6672" y="125.534" width="17.9334" height="17.9334" fill="#F4F5F0"/>
<rect x="107.6" y="125.534" width="17.9334" height="17.9334" fill="#9E63EF"/>
<rect x="125.534" y="125.534" width="17.9334" height="17.9334" fill="#9E62FE"/>
<rect x="143.467" y="125.534" width="17.9334" height="17.9334" fill="#FD3D8E"/>
<rect x="161.401" y="125.534" width="17.9334" height="17.9334" fill="#FE3D8E"/>
<rect x="179.334" y="125.534" width="17.9334" height="17.9334" fill="#FE3D8E"/>
<rect x="197.267" y="125.534" width="17.9334" height="17.9334" fill="#FD3B8A"/>
<rect x="215.201" y="125.534" width="17.9334" height="17.9334" fill="#ACF26B"/>
<rect x="233.134" y="125.534" width="17.9334" height="17.9334" fill="#ACF26B"/>
<rect x="251.068" y="125.534" width="17.9334" height="17.9334" fill="#FBFAFF"/>
<rect x="35.8671" y="143.466" width="17.9334" height="17.9334" fill="#FFFFFB"/>
<rect x="53.8003" y="143.466" width="17.9334" height="17.9334" fill="#9F62FE"/>
<rect x="71.7339" y="143.466" width="17.9334" height="17.9334" fill="#9E63FE"/>
<rect x="89.6672" y="143.466" width="17.9334" height="17.9334" fill="#9E62FE"/>
<rect x="107.6" y="143.466" width="17.9334" height="17.9334" fill="#9E62FE"/>
<rect x="125.534" y="143.466" width="17.9334" height="17.9334" fill="#9E62FE"/>
<rect x="143.467" y="143.466" width="17.9334" height="17.9334" fill="#FD3D8E"/>
<rect x="161.401" y="143.466" width="17.9334" height="17.9334" fill="#FE3D8E"/>
<rect x="179.334" y="143.466" width="17.9334" height="17.9334" fill="#FC3B94"/>
<rect x="197.267" y="143.466" width="17.9334" height="17.9334" fill="#ADF26B"/>
<rect x="215.201" y="143.466" width="17.9334" height="17.9334" fill="#ACF26B"/>
<rect x="233.134" y="143.466" width="17.9334" height="17.9334" fill="#ACF26B"/>
<rect x="251.068" y="143.466" width="17.9334" height="17.9334" fill="#FBFFF8"/>
<rect x="35.8671" y="161.4" width="17.9334" height="17.9334" fill="#9E62FE"/>
<rect x="53.8003" y="161.4" width="17.9334" height="17.9334" fill="#9E62FE"/>
<rect x="71.7339" y="161.4" width="17.9334" height="17.9334" fill="#9E62FE"/>
<rect x="89.6672" y="161.4" width="17.9334" height="17.9334" fill="#9E62FE"/>
<rect x="107.6" y="161.4" width="17.9334" height="17.9334" fill="#9E62FE"/>
<rect x="125.534" y="161.4" width="17.9334" height="17.9334" fill="#9E62FE"/>
<rect x="143.467" y="161.4" width="17.9334" height="17.9334" fill="#FD3D8E"/>
<rect x="161.401" y="161.4" width="17.9334" height="17.9334" fill="#F93F90"/>
<rect x="179.334" y="161.4" width="17.9334" height="17.9334" fill="#ACF26B"/>
<rect x="197.267" y="161.4" width="17.9334" height="17.9334" fill="#ACF26B"/>
<rect x="215.201" y="161.4" width="17.9334" height="17.9334" fill="#ACF26B"/>
<rect x="233.134" y="161.4" width="17.9334" height="17.9334" fill="#ACF26B"/>
<rect x="35.8671" y="179.334" width="17.9334" height="17.9334" fill="#9570D8"/>
<rect x="53.8003" y="179.334" width="17.9334" height="17.9334" fill="#9E62FE"/>
<rect x="71.7339" y="179.334" width="17.9334" height="17.9334" fill="#9E62FE"/>
<rect x="89.6672" y="179.334" width="17.9334" height="17.9334" fill="#9E62FE"/>
<rect x="107.6" y="179.334" width="17.9334" height="17.9334" fill="#9E62FE"/>
<rect x="125.534" y="179.334" width="17.9334" height="17.9334" fill="#9E62FE"/>
<rect x="143.467" y="179.334" width="17.9334" height="17.9334" fill="#FD3D8E"/>
<rect x="161.401" y="179.334" width="17.9334" height="17.9334" fill="#F9FFF8"/>
<rect x="179.334" y="179.334" width="17.9334" height="17.9334" fill="#ACF26B"/>
<rect x="197.267" y="179.334" width="17.9334" height="17.9334" fill="#ACF26B"/>
<rect x="215.201" y="179.334" width="17.9334" height="17.9334" fill="#ACF26B"/>
<rect x="233.134" y="179.334" width="17.9334" height="17.9334" fill="#ACF173"/>
<rect x="53.8003" y="197.268" width="17.9334" height="17.9334" fill="#9E62FE"/>
<rect x="71.7339" y="197.268" width="17.9334" height="17.9334" fill="#9E62FE"/>
<rect x="89.6672" y="197.268" width="17.9334" height="17.9334" fill="#9E62FE"/>
<rect x="107.6" y="197.268" width="17.9334" height="17.9334" fill="#9E62FE"/>
<rect x="125.534" y="197.268" width="17.9334" height="17.9334" fill="#9E62FE"/>
<rect x="143.467" y="197.268" width="17.9334" height="17.9334" fill="#F0F3ED"/>
<rect x="161.401" y="197.268" width="17.9334" height="17.9334" fill="#ACF26B"/>
<rect x="179.334" y="197.268" width="17.9334" height="17.9334" fill="#ACF26B"/>
<rect x="197.267" y="197.268" width="17.9334" height="17.9334" fill="#ACF26B"/>
<rect x="215.201" y="197.268" width="17.9334" height="17.9334" fill="#ACF26B"/>
<rect x="71.7339" y="215.201" width="17.9334" height="17.9334" fill="#9E62FF"/>
<rect x="89.6672" y="215.201" width="17.9334" height="17.9334" fill="#9E62FE"/>
<rect x="107.6" y="215.201" width="17.9334" height="17.9334" fill="#9E62FE"/>
<rect x="125.534" y="215.201" width="17.9334" height="17.9334" fill="#9E62FE"/>
<rect x="143.467" y="215.201" width="17.9334" height="17.9334" fill="#ADF26B"/>
<rect x="161.401" y="215.201" width="17.9334" height="17.9334" fill="#ACF26B"/>
<rect x="179.334" y="215.201" width="17.9334" height="17.9334" fill="#ACF26B"/>
<rect x="197.267" y="215.201" width="17.9334" height="17.9334" fill="#ACF26B"/>
<rect x="215.201" y="215.201" width="17.9334" height="17.9334" fill="#FAFEFF"/>
<rect x="89.6672" y="233.134" width="17.9334" height="17.9334" fill="#FCFFFF"/>
<rect x="107.6" y="233.134" width="17.9334" height="17.9334" fill="#9E62FE"/>
<rect x="125.534" y="233.134" width="17.9334" height="17.9334" fill="#9E62FE"/>
<rect x="143.467" y="233.134" width="17.9334" height="17.9334" fill="#ADF26B"/>
<rect x="161.401" y="233.134" width="17.9334" height="17.9334" fill="#ACF26B"/>
<rect x="179.334" y="233.134" width="17.9334" height="17.9334" fill="#C5EEA1"/>
</svg>
