<svg width="115" height="115" viewBox="0 0 115 115" fill="none" xmlns="http://www.w3.org/2000/svg">
<rect width="6.3889" height="6.3889" fill="black"/>
<rect x="6.38879" width="6.3889" height="6.3889" fill="#0E1734"/>
<rect x="12.7776" width="6.3889" height="6.3889" fill="#00080F"/>
<rect x="63.8889" width="6.3889" height="6.3889" fill="#001627"/>
<rect x="70.2777" width="6.3889" height="6.3889" fill="#040730"/>
<rect x="6.38879" y="6.38916" width="6.3889" height="6.3889" fill="#F2E8FF"/>
<rect x="12.7776" y="6.38916" width="6.3889" height="6.3889" fill="#CAB3BD"/>
<rect x="19.1669" y="6.38916" width="6.3889" height="6.3889" fill="#191317"/>
<rect x="57.5001" y="6.38916" width="6.3889" height="6.3889" fill="#0E1B45"/>
<rect x="63.8889" y="6.38916" width="6.3889" height="6.3889" fill="#0CAE63"/>
<rect x="70.2777" y="6.38916" width="6.3889" height="6.3889" fill="#1C5B52"/>
<rect x="76.667" y="6.38916" width="6.3889" height="6.3889" fill="#0D1A21"/>
<rect x="95.8334" y="6.38916" width="6.3889" height="6.3889" fill="#0E1A42"/>
<rect x="102.223" y="6.38916" width="6.3889" height="6.3889" fill="#230938"/>
<rect x="6.38879" y="12.7783" width="6.3889" height="6.3889" fill="#ADAEE6"/>
<rect x="12.7776" y="12.7783" width="6.3889" height="6.3889" fill="#95BEAC"/>
<rect x="19.1669" y="12.7783" width="6.3889" height="6.3889" fill="#ABA1C3"/>
<rect x="25.5557" y="12.7783" width="6.3889" height="6.3889" fill="#111D33"/>
<rect x="38.3333" y="12.7783" width="6.3889" height="6.3889" fill="#1C1F6C"/>
<rect x="44.7225" y="12.7783" width="6.3889" height="6.3889" fill="#011135"/>
<rect x="57.5001" y="12.7783" width="6.3889" height="6.3889" fill="#0D1A46"/>
<rect x="63.8889" y="12.7783" width="6.3889" height="6.3889" fill="#58CA8E"/>
<rect x="70.2777" y="12.7783" width="6.3889" height="6.3889" fill="#687D82"/>
<rect x="76.667" y="12.7783" width="6.3889" height="6.3889" fill="#0D1A21"/>
<rect x="95.8334" y="12.7783" width="6.3889" height="6.3889" fill="#3E2660"/>
<rect x="102.223" y="12.7783" width="6.3889" height="6.3889" fill="#43354C"/>
<rect x="108.611" y="12.7783" width="6.3889" height="6.3889" fill="#0B1D35"/>
<rect x="12.7776" y="19.1665" width="6.3889" height="6.3889" fill="#23B8E3"/>
<rect x="19.1669" y="19.1665" width="6.3889" height="6.3889" fill="#32729E"/>
<rect x="25.5557" y="19.1665" width="6.3889" height="6.3889" fill="#2C6A81"/>
<rect x="38.3333" y="19.1665" width="6.3889" height="6.3889" fill="#1F102F"/>
<rect x="44.7225" y="19.1665" width="6.3889" height="6.3889" fill="#061528"/>
<rect x="57.5001" y="19.1665" width="6.3889" height="6.3889" fill="#1D0E4F"/>
<rect x="63.8889" y="19.1665" width="6.3889" height="6.3889" fill="#C7C2C8"/>
<rect x="70.2777" y="19.1665" width="6.3889" height="6.3889" fill="#3F3D53"/>
<rect x="76.667" y="19.1665" width="6.3889" height="6.3889" fill="#080F27"/>
<rect x="89.4445" y="19.1665" width="6.3889" height="6.3889" fill="#B780DB"/>
<rect x="95.8334" y="19.1665" width="6.3889" height="6.3889" fill="#CC4DBE"/>
<rect x="102.223" y="19.1665" width="6.3889" height="6.3889" fill="#954D7F"/>
<rect x="108.611" y="19.1665" width="6.3889" height="6.3889" fill="#221541"/>
<rect x="6.38879" y="25.5557" width="6.3889" height="6.3889" fill="#19185E"/>
<rect x="12.7776" y="25.5557" width="6.3889" height="6.3889" fill="#20B4D8"/>
<rect x="19.1669" y="25.5557" width="6.3889" height="6.3889" fill="#27C0C5"/>
<rect x="25.5557" y="25.5557" width="6.3889" height="6.3889" fill="#19A365"/>
<rect x="31.9445" y="25.5557" width="6.3889" height="6.3889" fill="#101A58"/>
<rect x="38.3333" y="25.5557" width="6.3889" height="6.3889" fill="#1A0043"/>
<rect x="44.7225" y="25.5557" width="6.3889" height="6.3889" fill="#981B90"/>
<rect x="51.1113" y="25.5557" width="6.3889" height="6.3889" fill="#23164C"/>
<rect x="57.5001" y="25.5557" width="6.3889" height="6.3889" fill="#151531"/>
<rect x="63.8889" y="25.5557" width="6.3889" height="6.3889" fill="#6B6C7E"/>
<rect x="70.2777" y="25.5557" width="6.3889" height="6.3889" fill="#474D65"/>
<rect x="76.667" y="25.5557" width="6.3889" height="6.3889" fill="#0D1B43"/>
<rect x="89.4445" y="25.5557" width="6.3889" height="6.3889" fill="#B14AC0"/>
<rect x="95.8334" y="25.5557" width="6.3889" height="6.3889" fill="#B348B8"/>
<rect x="102.223" y="25.5557" width="6.3889" height="6.3889" fill="#1A2131"/>
<rect x="12.7776" y="31.9448" width="6.3889" height="6.3889" fill="#351487"/>
<rect x="19.1669" y="31.9448" width="6.3889" height="6.3889" fill="#32BDD2"/>
<rect x="25.5557" y="31.9448" width="6.3889" height="6.3889" fill="#259E69"/>
<rect x="31.9445" y="31.9448" width="6.3889" height="6.3889" fill="#226053"/>
<rect x="38.3333" y="31.9448" width="6.3889" height="6.3889" fill="#0F0E38"/>
<rect x="44.7225" y="31.9448" width="6.3889" height="6.3889" fill="#8E1A95"/>
<rect x="51.1113" y="31.9448" width="6.3889" height="6.3889" fill="#101F3C"/>
<rect x="57.5001" y="31.9448" width="6.3889" height="6.3889" fill="#061937"/>
<rect x="63.8889" y="31.9448" width="6.3889" height="6.3889" fill="#9593A9"/>
<rect x="70.2777" y="31.9448" width="6.3889" height="6.3889" fill="#414663"/>
<rect x="76.667" y="31.9448" width="6.3889" height="6.3889" fill="#140D37"/>
<rect x="83.0558" y="31.9448" width="6.3889" height="6.3889" fill="#491198"/>
<rect x="89.4445" y="31.9448" width="6.3889" height="6.3889" fill="#8A17A6"/>
<rect x="95.8334" y="31.9448" width="6.3889" height="6.3889" fill="#15123F"/>
<rect x="12.7776" y="38.334" width="6.3889" height="6.3889" fill="#2A0055"/>
<rect x="19.1669" y="38.334" width="6.3889" height="6.3889" fill="#469CCD"/>
<rect x="25.5557" y="38.334" width="6.3889" height="6.3889" fill="#1DCD82"/>
<rect x="31.9445" y="38.334" width="6.3889" height="6.3889" fill="#265D60"/>
<rect x="38.3333" y="38.334" width="6.3889" height="6.3889" fill="#0B0A34"/>
<rect x="44.7225" y="38.334" width="6.3889" height="6.3889" fill="#8F1B96"/>
<rect x="51.1113" y="38.334" width="6.3889" height="6.3889" fill="#11203D"/>
<rect x="57.5001" y="38.334" width="6.3889" height="6.3889" fill="#0B1E3C"/>
<rect x="63.8889" y="38.334" width="6.3889" height="6.3889" fill="#9F9DB3"/>
<rect x="70.2777" y="38.334" width="6.3889" height="6.3889" fill="#2F3451"/>
<rect x="76.667" y="38.334" width="6.3889" height="6.3889" fill="#1A1653"/>
<rect x="83.0558" y="38.334" width="6.3889" height="6.3889" fill="#4925BB"/>
<rect x="89.4445" y="38.334" width="6.3889" height="6.3889" fill="#110C35"/>
<rect x="25.5557" y="44.7217" width="6.3889" height="6.3889" fill="#21B374"/>
<rect x="31.9445" y="44.7217" width="6.3889" height="6.3889" fill="#3A6979"/>
<rect x="38.3333" y="44.7217" width="6.3889" height="6.3889" fill="#200034"/>
<rect x="44.7225" y="44.7217" width="6.3889" height="6.3889" fill="#B72999"/>
<rect x="51.1113" y="44.7217" width="6.3889" height="6.3889" fill="#300846"/>
<rect x="57.5001" y="44.7217" width="6.3889" height="6.3889" fill="#071437"/>
<rect x="63.8889" y="44.7217" width="6.3889" height="6.3889" fill="#AEAAC3"/>
<rect x="70.2777" y="44.7217" width="6.3889" height="6.3889" fill="#0D0D2F"/>
<rect x="76.667" y="44.7217" width="6.3889" height="6.3889" fill="#3020A5"/>
<rect x="83.0558" y="44.7217" width="6.3889" height="6.3889" fill="#3D3394"/>
<rect x="12.7776" y="51.1108" width="6.3889" height="6.3889" fill="#161E43"/>
<rect x="19.1669" y="51.1108" width="6.3889" height="6.3889" fill="#46456F"/>
<rect x="25.5557" y="51.1108" width="6.3889" height="6.3889" fill="#605961"/>
<rect x="31.9445" y="51.1108" width="6.3889" height="6.3889" fill="#52525A"/>
<rect x="38.3333" y="51.1108" width="6.3889" height="6.3889" fill="#595866"/>
<rect x="44.7225" y="51.1108" width="6.3889" height="6.3889" fill="#5A5967"/>
<rect x="51.1113" y="51.1108" width="6.3889" height="6.3889" fill="#605969"/>
<rect x="57.5001" y="51.1108" width="6.3889" height="6.3889" fill="#525D71"/>
<rect x="63.8889" y="51.1108" width="6.3889" height="6.3889" fill="#4C4C64"/>
<rect x="70.2777" y="51.1108" width="6.3889" height="6.3889" fill="#3C3F60"/>
<rect x="76.667" y="51.1108" width="6.3889" height="6.3889" fill="#1A2246"/>
<rect x="83.0558" y="51.1108" width="6.3889" height="6.3889" fill="#1F274C"/>
<rect x="89.4445" y="51.1108" width="6.3889" height="6.3889" fill="#07102D"/>
<rect x="12.7776" y="57.5" width="6.3889" height="6.3889" fill="#141835"/>
<rect x="19.1669" y="57.5" width="6.3889" height="6.3889" fill="#847AAC"/>
<rect x="25.5557" y="57.5" width="6.3889" height="6.3889" fill="#CECAD9"/>
<rect x="31.9445" y="57.5" width="6.3889" height="6.3889" fill="#B6B3BC"/>
<rect x="38.3333" y="57.5" width="6.3889" height="6.3889" fill="#E7DCEA"/>
<rect x="44.7225" y="57.5" width="6.3889" height="6.3889" fill="#B9ACC6"/>
<rect x="51.1113" y="57.5" width="6.3889" height="6.3889" fill="#BAB1C2"/>
<rect x="57.5001" y="57.5" width="6.3889" height="6.3889" fill="#ADA4B5"/>
<rect x="63.8889" y="57.5" width="6.3889" height="6.3889" fill="#918AA9"/>
<rect x="70.2777" y="57.5" width="6.3889" height="6.3889" fill="#666283"/>
<rect x="76.667" y="57.5" width="6.3889" height="6.3889" fill="#585987"/>
<rect x="83.0558" y="57.5" width="6.3889" height="6.3889" fill="#585987"/>
<rect x="89.4445" y="57.5" width="6.3889" height="6.3889" fill="#000829"/>
<rect x="12.7776" y="63.8892" width="6.3889" height="6.3889" fill="#161D30"/>
<rect x="19.1669" y="63.8892" width="6.3889" height="6.3889" fill="#161848"/>
<rect x="25.5557" y="63.8892" width="6.3889" height="6.3889" fill="#0F1934"/>
<rect x="31.9445" y="63.8892" width="6.3889" height="6.3889" fill="#111C32"/>
<rect x="38.3333" y="63.8892" width="6.3889" height="6.3889" fill="#162137"/>
<rect x="44.7225" y="63.8892" width="6.3889" height="6.3889" fill="#16203B"/>
<rect x="51.1113" y="63.8892" width="6.3889" height="6.3889" fill="#122138"/>
<rect x="57.5001" y="63.8892" width="6.3889" height="6.3889" fill="#132239"/>
<rect x="63.8889" y="63.8892" width="6.3889" height="6.3889" fill="#181E38"/>
<rect x="70.2777" y="63.8892" width="6.3889" height="6.3889" fill="#101B37"/>
<rect x="76.667" y="63.8892" width="6.3889" height="6.3889" fill="#111C38"/>
<rect x="83.0558" y="63.8892" width="6.3889" height="6.3889" fill="#07122E"/>
<rect x="89.4445" y="63.8892" width="6.3889" height="6.3889" fill="#08122B"/>
<rect x="19.1669" y="70.2783" width="6.3889" height="6.3889" fill="#0F1E35"/>
<rect x="25.5557" y="70.2783" width="6.3889" height="6.3889" fill="#8985A0"/>
<rect x="31.9445" y="70.2783" width="6.3889" height="6.3889" fill="#B0A4B8"/>
<rect x="38.3333" y="70.2783" width="6.3889" height="6.3889" fill="#C3BBCA"/>
<rect x="44.7225" y="70.2783" width="6.3889" height="6.3889" fill="#B4A6BF"/>
<rect x="51.1113" y="70.2783" width="6.3889" height="6.3889" fill="#B2A9BC"/>
<rect x="57.5001" y="70.2783" width="6.3889" height="6.3889" fill="#9C96B2"/>
<rect x="63.8889" y="70.2783" width="6.3889" height="6.3889" fill="#686381"/>
<rect x="70.2777" y="70.2783" width="6.3889" height="6.3889" fill="#6A6B8A"/>
<rect x="76.667" y="70.2783" width="6.3889" height="6.3889" fill="#5B5F85"/>
<rect x="83.0558" y="70.2783" width="6.3889" height="6.3889" fill="#6E7298"/>
<rect x="19.1669" y="76.6665" width="6.3889" height="6.3889" fill="#101F36"/>
<rect x="25.5557" y="76.6665" width="6.3889" height="6.3889" fill="#8681A1"/>
<rect x="31.9445" y="76.6665" width="6.3889" height="6.3889" fill="#C5BBC6"/>
<rect x="38.3333" y="76.6665" width="6.3889" height="6.3889" fill="#FAF4F4"/>
<rect x="44.7225" y="76.6665" width="6.3889" height="6.3889" fill="#BBAEBF"/>
<rect x="51.1113" y="76.6665" width="6.3889" height="6.3889" fill="#B3AABD"/>
<rect x="57.5001" y="76.6665" width="6.3889" height="6.3889" fill="#9F99B5"/>
<rect x="63.8889" y="76.6665" width="6.3889" height="6.3889" fill="#9893B1"/>
<rect x="70.2777" y="76.6665" width="6.3889" height="6.3889" fill="#6F708F"/>
<rect x="76.667" y="76.6665" width="6.3889" height="6.3889" fill="#5E6288"/>
<rect x="83.0558" y="76.6665" width="6.3889" height="6.3889" fill="#6D7197"/>
<rect x="19.1669" y="83.0557" width="6.3889" height="6.3889" fill="#101E3B"/>
<rect x="25.5557" y="83.0557" width="6.3889" height="6.3889" fill="#8B85A7"/>
<rect x="31.9445" y="83.0557" width="6.3889" height="6.3889" fill="#BBB1BA"/>
<rect x="38.3333" y="83.0557" width="6.3889" height="6.3889" fill="#FAF4F6"/>
<rect x="44.7225" y="83.0557" width="6.3889" height="6.3889" fill="#B9B0C1"/>
<rect x="51.1113" y="83.0557" width="6.3889" height="6.3889" fill="#B0A7BA"/>
<rect x="57.5001" y="83.0557" width="6.3889" height="6.3889" fill="#9E98B4"/>
<rect x="63.8889" y="83.0557" width="6.3889" height="6.3889" fill="#A09AB6"/>
<rect x="70.2777" y="83.0557" width="6.3889" height="6.3889" fill="#726E93"/>
<rect x="76.667" y="83.0557" width="6.3889" height="6.3889" fill="#5B5F85"/>
<rect x="83.0558" y="83.0557" width="6.3889" height="6.3889" fill="#6E7298"/>
<rect x="19.1669" y="89.4448" width="6.3889" height="6.3889" fill="#0F1D3A"/>
<rect x="25.5557" y="89.4448" width="6.3889" height="6.3889" fill="#8B85A7"/>
<rect x="31.9445" y="89.4448" width="6.3889" height="6.3889" fill="#BBB1BA"/>
<rect x="38.3333" y="89.4448" width="6.3889" height="6.3889" fill="#FCF6F8"/>
<rect x="44.7225" y="89.4448" width="6.3889" height="6.3889" fill="#B8AFC0"/>
<rect x="51.1113" y="89.4448" width="6.3889" height="6.3889" fill="#B0A7BA"/>
<rect x="57.5001" y="89.4448" width="6.3889" height="6.3889" fill="#9E98B4"/>
<rect x="63.8889" y="89.4448" width="6.3889" height="6.3889" fill="#A09AB6"/>
<rect x="70.2777" y="89.4448" width="6.3889" height="6.3889" fill="#726E93"/>
<rect x="76.667" y="89.4448" width="6.3889" height="6.3889" fill="#5B5F85"/>
<rect x="83.0558" y="89.4448" width="6.3889" height="6.3889" fill="#6F7399"/>
<rect x="19.1669" y="95.834" width="6.3889" height="6.3889" fill="#141A3A"/>
<rect x="25.5557" y="95.834" width="6.3889" height="6.3889" fill="#8583AA"/>
<rect x="31.9445" y="95.834" width="6.3889" height="6.3889" fill="#AA9FAD"/>
<rect x="38.3333" y="95.834" width="6.3889" height="6.3889" fill="#C9C5C6"/>
<rect x="44.7225" y="95.834" width="6.3889" height="6.3889" fill="#B7AFC4"/>
<rect x="51.1113" y="95.834" width="6.3889" height="6.3889" fill="#B3ADB9"/>
<rect x="57.5001" y="95.834" width="6.3889" height="6.3889" fill="#9F9CAD"/>
<rect x="63.8889" y="95.834" width="6.3889" height="6.3889" fill="#9A9AB6"/>
<rect x="70.2777" y="95.834" width="6.3889" height="6.3889" fill="#656887"/>
<rect x="76.667" y="95.834" width="6.3889" height="6.3889" fill="#585E78"/>
<rect x="83.0558" y="95.834" width="6.3889" height="6.3889" fill="#6C7096"/>
<rect x="19.1669" y="102.222" width="6.3889" height="6.3889" fill="#171544"/>
<rect x="25.5557" y="102.222" width="6.3889" height="6.3889" fill="#635D7F"/>
<rect x="31.9445" y="102.222" width="6.3889" height="6.3889" fill="#8C8899"/>
<rect x="38.3333" y="102.222" width="6.3889" height="6.3889" fill="#B7AEB1"/>
<rect x="44.7225" y="102.222" width="6.3889" height="6.3889" fill="#A79DA8"/>
<rect x="51.1113" y="102.222" width="6.3889" height="6.3889" fill="#A09AA8"/>
<rect x="57.5001" y="102.222" width="6.3889" height="6.3889" fill="#807D90"/>
<rect x="63.8889" y="102.222" width="6.3889" height="6.3889" fill="#8B86A4"/>
<rect x="70.2777" y="102.222" width="6.3889" height="6.3889" fill="#616080"/>
<rect x="76.667" y="102.222" width="6.3889" height="6.3889" fill="#4D5177"/>
<rect x="83.0558" y="102.222" width="6.3889" height="6.3889" fill="#62658E"/>
<rect x="25.5557" y="108.611" width="6.3889" height="6.3889" fill="#333366"/>
<rect x="31.9445" y="108.611" width="6.3889" height="6.3889" fill="#202060"/>
<rect x="38.3333" y="108.611" width="6.3889" height="6.3889" fill="#1E1E3C"/>
<rect x="44.7225" y="108.611" width="6.3889" height="6.3889" fill="#1E1E3C"/>
<rect x="51.1113" y="108.611" width="6.3889" height="6.3889" fill="#121249"/>
<rect x="57.5001" y="108.611" width="6.3889" height="6.3889" fill="#0F0F4B"/>
<rect x="63.8889" y="108.611" width="6.3889" height="6.3889" fill="#151555"/>
<rect x="70.2777" y="108.611" width="6.3889" height="6.3889" fill="#151555"/>
<rect x="76.667" y="108.611" width="6.3889" height="6.3889" fill="#242449"/>
<rect x="83.0558" y="108.611" width="6.3889" height="6.3889" fill="#000055"/>
</svg>
