<svg width="1604" height="254" viewBox="0 0 1604 254" fill="none" xmlns="http://www.w3.org/2000/svg">
<path d="M1604 238.08H707.179V234.461H1604V238.08Z" fill="#9E62FE"/>
<path d="M343.951 133.446H350.398V128.459H399.212L399.469 133.26H404.332V158.979H375.376V165.678H388.528C394.128 165.678 394.238 165.678 393.833 172.08H368.634V180.566C368.597 180.983 368.648 181.403 368.785 181.799C368.922 182.194 369.14 182.555 369.426 182.858C369.712 183.161 370.059 183.399 370.444 183.556C370.828 183.713 371.241 183.785 371.655 183.767C374.823 183.767 377.992 183.767 381.27 183.767V193.854H375.339L374.786 189.164H368.634V209.486L363.476 209.746V218.604H357.214V223.592L350.767 224.001V246.966L356.808 247.226V253.293H344.209V235.651C342.662 235.986 340.746 233.939 340.23 237.103C340.23 237.512 339.014 237.996 338.315 238.033C336.215 238.033 334.078 238.033 331.978 238.033C330.689 235.539 330.689 235.539 326.526 235.577V241.569L321.368 242.127V246.817L326.084 247.263V253.256H314.81V230.329H308.363V224.001H303.427L302.985 218.753H297.311C296.832 216.781 296.869 214.585 295.801 213.431C294.732 212.277 292.522 212.166 290.533 211.533V205.838H284.122V172.341H290.312V183.507H294.88C294.475 185.293 297.753 186.335 294.88 188.606L302.8 189.052V195.454C305.269 195.454 307.553 195.454 309.8 195.454C313.816 195.454 314.147 195.045 314.516 190.69C314.516 190.28 314.516 189.871 314.737 189.238H320.594L321.11 183.99H328.478V177.477H338.572V172.527L343.73 171.969L343.951 133.446ZM363.366 136.387H357.177V142.565L363.366 142.267V136.387Z" fill="#9E62FE"/>
<path d="M47.9181 210.361V253.741C40.2355 254.194 32.5208 253.741 24.6453 254V250.76L28.792 250.436V197.693H22.363C20.8865 197.58 19.4035 197.58 17.927 197.693C15.934 198.017 17.2198 194 14.4232 195.328C12.8481 196.073 13.8125 192.283 11.5945 193.093L10.7909 189.853L7.96209 189.529V151.786C10.5337 151.365 10.5337 151.365 11.5945 149.292C13.0281 149.179 14.4683 149.179 15.9019 149.292C16.9305 149.292 18.4413 148.222 19.1164 150.425C19.5021 151.851 21.4629 152.24 21.3986 154.508C21.1415 164.583 21.3986 174.691 21.3986 185.026H29.0169C29.0169 183.86 29.2099 182.434 29.2099 181.041C29.2099 167.531 29.2099 154.054 29.2099 140.544C29.2099 139.151 28.4705 137.305 30.1742 136.527C31.8779 135.749 32.9065 132.445 36.121 133.287C38.3305 133.564 40.5654 133.564 42.7749 133.287C43.5785 133.287 44.3501 133.028 44.9287 134.324C45.5073 135.62 47.6288 136.171 48.1431 137.564C48.4184 139.411 48.4184 141.289 48.1431 143.136V202.942H55.8901V165.425C58.6867 165.425 58.0116 163.449 58.4295 161.862H66.0157C67.3657 162.153 66.4336 165.393 68.973 165.328C69.2069 166.161 69.3258 167.022 69.3266 167.888C69.3266 177.25 69.1338 186.613 69.4874 195.976C69.4858 197.205 69.1717 198.413 68.5752 199.485C67.9787 200.557 67.1196 201.457 66.0799 202.099C65.1156 202.877 63.9584 203.233 63.7334 204.723C63.6286 204.94 63.4698 205.126 63.2726 205.262C63.0754 205.398 62.8466 205.481 62.6083 205.501C60.9689 205.242 60.8404 206.505 60.0368 207.38C59.2332 208.255 58.5259 208.968 57.7544 209.713C56.9829 210.458 55.3114 210.037 54.0578 210.069C52.8041 210.101 50.8433 210.069 49.0432 210.069C48.6562 210.111 48.2773 210.209 47.9181 210.361Z" fill="#9E62FE"/>
<path d="M679.181 208.182H672.147C670.732 208.04 669.306 208.04 667.891 208.182C665.746 208.606 666.133 206.592 665.253 205.815C664.374 205.037 662.194 206.769 662.158 204.26C662.158 202.529 659.099 203.907 659.697 201.681C657.27 198.819 657.235 198.819 657.235 196.7V161.759C657.54 160.516 658.175 159.379 659.073 158.471C659.972 157.562 661.099 156.916 662.334 156.601H667.786C667.786 159.498 669.896 158.968 671.69 159.286V194.333H679.04V126.713L684.421 122.296H695.676C697.383 123.348 698.856 124.743 700.002 126.395V194.509H708.407V153.845C709.673 152.185 712.487 154.305 712.276 151.266C712.276 151.019 713.19 150.524 713.683 150.56C714.808 150.56 716.918 150.842 716.918 151.125C717.129 153.845 721.068 153.245 720.928 156.848C720.471 169.284 720.928 181.579 720.928 194.509C717.657 193.661 716.989 197.053 714.843 198.042C716.32 200.798 712.1 200.303 712.311 202.423C712.311 202.635 711.045 203.165 710.377 203.165C707.141 203.165 703.905 203.165 700.248 203.165V249.658H674.96C674.257 248.422 674.081 247.397 676.051 247.362H679.216L679.181 208.182Z" fill="#9E62FE"/>
<path d="M997.567 213.602H991.492C990.27 213.479 989.039 213.479 987.817 213.602C985.964 213.97 986.298 212.22 985.539 211.544C984.78 210.868 982.896 212.373 982.866 210.193C982.866 208.688 980.224 209.885 980.74 207.951C978.644 205.463 978.614 205.463 978.614 203.62V173.246C978.877 172.165 979.426 171.177 980.202 170.387C980.977 169.597 981.951 169.035 983.018 168.762H987.726C987.726 171.28 989.548 170.819 991.098 171.096V201.562H997.446V142.779L1002.09 138.94H1011.81C1013.29 139.854 1014.56 141.067 1015.55 142.503V201.716H1022.81V166.366C1023.9 164.923 1026.33 166.765 1026.15 164.124C1026.15 163.909 1026.94 163.479 1027.36 163.51C1028.34 163.51 1030.16 163.756 1030.16 164.001C1030.34 166.366 1033.74 165.844 1033.62 168.977C1033.23 179.787 1033.62 190.475 1033.62 201.716C1030.8 200.979 1030.22 203.927 1028.37 204.787C1029.64 207.183 1026 206.753 1026.18 208.596C1026.18 208.78 1025.09 209.24 1024.51 209.24C1021.71 209.24 1018.92 209.24 1015.76 209.24V249.658H993.922C993.315 248.583 993.163 247.692 994.864 247.662H997.598L997.567 213.602Z" fill="#9E62FE"/>
<path d="M609.68 224.113H628.1L628.432 227.314C629.463 228.579 632.631 226.644 632.337 229.956L638.636 233.008C640.405 233.008 639.336 236.432 641.989 235.651C643.676 235.427 645.385 235.427 647.073 235.651H677.687C678.461 237.177 678.608 238.256 676.582 238.256H637.789C636.942 237.177 637.568 235.39 635.468 235.614C634.031 235.614 632.042 236.544 631.784 233.604C631.784 233.008 628.763 232.934 628.432 232.078C628.1 231.222 626.479 230.552 626.479 230.44C625.89 227.5 623.827 227.835 621.727 227.872C618.522 227.872 615.353 227.872 612.222 227.872C610.048 231.594 608.28 232.859 605.517 233.045C604.706 233.045 603.196 233.045 603.159 233.306C602.717 235.576 599.954 235.986 599.475 237.996H355.813V235.614H591.149C591.577 235.558 592.011 235.558 592.439 235.614C596.123 236.73 597.928 233.939 600.101 231.892C600.47 231.519 600.58 230.626 600.986 230.515C602.349 230.142 605.001 230.031 605.001 229.845C605.001 227.239 606.954 228.319 608.059 227.76C609.164 227.202 608.98 225.75 609.68 224.113Z" fill="#9E62FE"/>
<path d="M264.671 223.964L264.929 227.314C265.96 228.616 269.165 226.606 268.834 229.956C270.565 230.254 271.007 232.115 272.076 232.822C273.144 233.529 275.354 233.008 276.975 233.008C278.007 233.864 277.417 235.762 279.738 235.688C287.106 235.427 294.659 235.688 302.137 235.688H309.063C309.874 237.14 310.095 238.256 308.069 238.256H275.354L274.875 235.837C273.333 235.668 271.776 235.668 270.234 235.837C267.876 236.284 269.386 232.338 266.918 233.157C264.45 233.976 265.186 230.775 264.229 230.775C261.171 230.775 262.792 228.319 261.981 227.053C259.881 228.224 257.423 228.556 255.092 227.984C253.571 227.74 252.014 227.863 250.548 228.342C249.082 228.82 247.749 229.641 246.656 230.738C245.035 232.487 243.745 233.827 241.351 233.194C238.956 232.562 239.361 236.693 236.93 236.209C236.93 238.107 235.825 238.591 234.093 238.442C232.388 238.349 230.678 238.349 228.972 238.442H57.6651V235.837H227.609C228.457 235.837 229.341 235.837 230.188 235.837C232.288 236.023 234.351 236.097 234.756 233.231C237.188 233.455 237.446 228.728 240.651 230.589C240.835 230.589 241.646 230.217 241.646 230.105C240.982 226.383 245.329 229.435 245.698 226.83C246.066 224.224 247.835 224.113 249.898 224.15C254.761 224.001 259.624 223.964 264.671 223.964Z" fill="#9E62FE"/>
<path d="M0.046918 237.959V235.8H29.2612V237.959H0.046918Z" fill="#9E62FE"/>
<rect x="1184.9" y="235.475" width="3.68875" height="1.85254" fill="#D9D9D9"/>
<rect x="1447.95" y="133.151" width="4.15564" height="4.1546" fill="#9E62FE"/>
<rect x="1452.11" y="133.151" width="4.15564" height="4.1546" fill="#9E62FE"/>
<rect x="1456.26" y="133.151" width="4.15564" height="4.1546" fill="#9E62FE"/>
<rect x="1485.35" y="133.151" width="4.15564" height="4.1546" fill="#9E62FE"/>
<rect x="1489.51" y="133.151" width="4.15564" height="4.1546" fill="#9E62FE"/>
<rect x="1493.66" y="133.151" width="4.15564" height="4.1546" fill="#9E62FE"/>
<rect x="1447.95" y="137.307" width="4.15564" height="4.1546" fill="#9E62FE"/>
<rect x="1452.11" y="137.307" width="4.15564" height="4.1546" fill="#9E62FE"/>
<rect x="1456.26" y="137.307" width="4.15564" height="4.1546" fill="#9E62FE"/>
<rect x="1485.35" y="137.307" width="4.15564" height="4.1546" fill="#9E62FE"/>
<rect x="1489.51" y="137.307" width="4.15564" height="4.1546" fill="#9E62FE"/>
<rect x="1493.66" y="137.307" width="4.15564" height="4.1546" fill="#9E62FE"/>
<rect x="1447.95" y="141.459" width="4.15564" height="4.1546" fill="#9E62FE"/>
<rect x="1452.11" y="141.459" width="4.15564" height="4.1546" fill="#9E62FE"/>
<rect x="1456.26" y="141.459" width="4.15564" height="4.1546" fill="#9E62FE"/>
<rect x="1485.35" y="141.459" width="4.15564" height="4.1546" fill="#9E62FE"/>
<rect x="1489.51" y="141.459" width="4.15564" height="4.1546" fill="#9E62FE"/>
<rect x="1493.66" y="141.459" width="4.15564" height="4.1546" fill="#9E62FE"/>
<rect x="1435.48" y="145.615" width="4.15564" height="4.1546" fill="#9E62FE"/>
<rect x="1439.64" y="145.615" width="4.15564" height="4.1546" fill="#9E62FE"/>
<rect x="1443.8" y="145.615" width="4.15564" height="4.1546" fill="#9E62FE"/>
<rect x="1447.95" y="145.615" width="4.15564" height="4.1546" fill="#9E62FE"/>
<rect x="1452.11" y="145.615" width="4.15564" height="4.1546" fill="#9E62FE"/>
<rect x="1456.26" y="145.615" width="4.15564" height="4.1546" fill="#9E62FE"/>
<rect x="1460.42" y="145.615" width="4.15564" height="4.1546" fill="#9E62FE"/>
<rect x="1464.57" y="145.615" width="4.15564" height="4.1546" fill="#9E62FE"/>
<rect x="1468.73" y="145.615" width="4.15564" height="4.1546" fill="#9E62FE"/>
<rect x="1472.89" y="145.615" width="4.15564" height="4.1546" fill="#9E62FE"/>
<rect x="1477.04" y="145.615" width="4.15564" height="4.1546" fill="#9E62FE"/>
<rect x="1481.2" y="145.615" width="4.15564" height="4.1546" fill="#9E62FE"/>
<rect x="1485.35" y="145.615" width="4.15564" height="4.1546" fill="#9E62FE"/>
<rect x="1489.51" y="145.615" width="4.15564" height="4.1546" fill="#9E62FE"/>
<rect x="1493.66" y="145.615" width="4.15564" height="4.1546" fill="#9E62FE"/>
<rect x="1497.82" y="145.615" width="4.15564" height="4.1546" fill="#9E62FE"/>
<rect x="1501.97" y="145.615" width="4.15564" height="4.1546" fill="#9E62FE"/>
<rect x="1506.13" y="145.615" width="4.15564" height="4.1546" fill="#9E62FE"/>
<rect x="1435.48" y="149.769" width="4.15564" height="4.1546" fill="#9E62FE"/>
<rect x="1439.64" y="149.769" width="4.15564" height="4.1546" fill="#9E62FE"/>
<rect x="1443.8" y="149.769" width="4.15564" height="4.1546" fill="#9E62FE"/>
<rect x="1447.95" y="149.769" width="4.15564" height="4.1546" fill="#9E62FE"/>
<rect x="1452.11" y="149.769" width="4.15564" height="4.1546" fill="#9E62FE"/>
<rect x="1456.26" y="149.769" width="4.15564" height="4.1546" fill="#9E62FE"/>
<rect x="1460.42" y="149.769" width="4.15564" height="4.1546" fill="#9E62FE"/>
<rect x="1464.57" y="149.769" width="4.15564" height="4.1546" fill="#9E62FE"/>
<rect x="1468.73" y="149.769" width="4.15564" height="4.1546" fill="#9E62FE"/>
<rect x="1472.89" y="149.769" width="4.15564" height="4.1546" fill="#9E62FE"/>
<rect x="1477.04" y="149.769" width="4.15564" height="4.1546" fill="#9E62FE"/>
<rect x="1481.2" y="149.769" width="4.15564" height="4.1546" fill="#9E62FE"/>
<rect x="1485.35" y="149.769" width="4.15564" height="4.1546" fill="#9E62FE"/>
<rect x="1489.51" y="149.769" width="4.15564" height="4.1546" fill="#9E62FE"/>
<rect x="1493.66" y="149.769" width="4.15564" height="4.1546" fill="#9E62FE"/>
<rect x="1497.82" y="149.769" width="4.15564" height="4.1546" fill="#9E62FE"/>
<rect x="1501.97" y="149.769" width="4.15564" height="4.1546" fill="#9E62FE"/>
<rect x="1506.13" y="149.769" width="4.15564" height="4.1546" fill="#9E62FE"/>
<rect x="1423.02" y="153.924" width="4.15564" height="4.1546" fill="#9E62FE"/>
<rect x="1427.17" y="153.924" width="4.15564" height="4.1546" fill="#9E62FE"/>
<rect x="1431.33" y="153.924" width="4.15564" height="4.1546" fill="#9E62FE"/>
<rect x="1435.48" y="153.924" width="4.15564" height="4.1546" fill="#9E62FE"/>
<rect x="1439.64" y="153.924" width="4.15564" height="4.1546" fill="#9E62FE"/>
<rect x="1443.8" y="153.924" width="4.15564" height="4.1546" fill="#9E62FE"/>
<rect x="1447.95" y="153.924" width="4.15564" height="4.1546" fill="#9E62FE"/>
<rect x="1452.11" y="153.924" width="4.15564" height="4.1546" fill="#9E62FE"/>
<rect x="1456.26" y="153.924" width="4.15564" height="4.1546" fill="#9E62FE"/>
<rect x="1460.42" y="153.924" width="4.15564" height="4.1546" fill="#9E62FE"/>
<rect x="1464.57" y="153.924" width="4.15564" height="4.1546" fill="#9E62FE"/>
<rect x="1468.73" y="153.924" width="4.15564" height="4.1546" fill="#9E62FE"/>
<rect x="1472.89" y="153.924" width="4.15564" height="4.1546" fill="#9E62FE"/>
<rect x="1477.04" y="153.924" width="4.15564" height="4.1546" fill="#9E62FE"/>
<rect x="1481.2" y="153.924" width="4.15564" height="4.1546" fill="#9E62FE"/>
<rect x="1485.35" y="153.924" width="4.15564" height="4.1546" fill="#9E62FE"/>
<rect x="1489.51" y="153.924" width="4.15564" height="4.1546" fill="#9E62FE"/>
<rect x="1493.66" y="153.924" width="4.15564" height="4.1546" fill="#9E62FE"/>
<rect x="1497.82" y="153.924" width="4.15564" height="4.1546" fill="#9E62FE"/>
<rect x="1501.97" y="153.924" width="4.15564" height="4.1546" fill="#9E62FE"/>
<rect x="1506.13" y="153.924" width="4.15564" height="4.1546" fill="#9E62FE"/>
<rect x="1510.29" y="153.924" width="4.15564" height="4.1546" fill="#9E62FE"/>
<rect x="1514.44" y="153.924" width="4.15564" height="4.1546" fill="#9E62FE"/>
<rect x="1518.6" y="153.924" width="4.15564" height="4.1546" fill="#9E62FE"/>
<rect x="1423.02" y="158.079" width="4.15564" height="4.1546" fill="#9E62FE"/>
<rect x="1427.17" y="158.079" width="4.15564" height="4.1546" fill="#9E62FE"/>
<rect x="1431.33" y="158.079" width="4.15564" height="4.1546" fill="#9E62FE"/>
<rect x="1435.48" y="158.079" width="4.15564" height="4.1546" fill="#9E62FE"/>
<rect x="1439.64" y="158.079" width="4.15564" height="4.1546" fill="#9E62FE"/>
<rect x="1443.8" y="158.079" width="4.15564" height="4.1546" fill="#9E62FE"/>
<rect x="1447.95" y="158.079" width="4.15564" height="4.1546" fill="#9E62FE"/>
<rect x="1452.11" y="158.079" width="4.15564" height="4.1546" fill="#9E62FE"/>
<rect x="1456.26" y="158.079" width="4.15564" height="4.1546" fill="#9E62FE"/>
<rect x="1460.42" y="158.079" width="4.15564" height="4.1546" fill="#9E62FE"/>
<rect x="1464.57" y="158.079" width="4.15564" height="4.1546" fill="#9E62FE"/>
<rect x="1468.73" y="158.079" width="4.15564" height="4.1546" fill="#9E62FE"/>
<rect x="1472.89" y="158.079" width="4.15564" height="4.1546" fill="#9E62FE"/>
<rect x="1477.04" y="158.079" width="4.15564" height="4.1546" fill="#9E62FE"/>
<rect x="1481.2" y="158.079" width="4.15564" height="4.1546" fill="#9E62FE"/>
<rect x="1485.35" y="158.079" width="4.15564" height="4.1546" fill="#9E62FE"/>
<rect x="1489.51" y="158.079" width="4.15564" height="4.1546" fill="#9E62FE"/>
<rect x="1493.66" y="158.079" width="4.15564" height="4.1546" fill="#9E62FE"/>
<rect x="1497.82" y="158.079" width="4.15564" height="4.1546" fill="#9E62FE"/>
<rect x="1501.97" y="158.079" width="4.15564" height="4.1546" fill="#9E62FE"/>
<rect x="1506.13" y="158.079" width="4.15564" height="4.1546" fill="#9E62FE"/>
<rect x="1510.29" y="158.079" width="4.15564" height="4.1546" fill="#9E62FE"/>
<rect x="1514.44" y="158.079" width="4.15564" height="4.1546" fill="#9E62FE"/>
<rect x="1518.6" y="158.079" width="4.15564" height="4.1546" fill="#9E62FE"/>
<rect x="1423.02" y="162.233" width="4.15564" height="4.1546" fill="#9E62FE"/>
<rect x="1427.17" y="162.233" width="4.15564" height="4.1546" fill="#9E62FE"/>
<rect x="1431.33" y="162.233" width="4.15564" height="4.1546" fill="#9E62FE"/>
<rect x="1435.48" y="162.233" width="4.15564" height="4.1546" fill="#9E62FE"/>
<rect x="1439.64" y="162.233" width="4.15564" height="4.1546" fill="#9E62FE"/>
<rect x="1443.8" y="162.233" width="4.15564" height="4.1546" fill="#9E62FE"/>
<rect x="1460.42" y="162.233" width="4.15564" height="4.1546" fill="#9E62FE"/>
<rect x="1464.57" y="162.233" width="4.15564" height="4.1546" fill="#9E62FE"/>
<rect x="1468.73" y="162.233" width="4.15564" height="4.1546" fill="#9E62FE"/>
<rect x="1472.89" y="162.233" width="4.15564" height="4.1546" fill="#9E62FE"/>
<rect x="1477.04" y="162.233" width="4.15564" height="4.1546" fill="#9E62FE"/>
<rect x="1481.2" y="162.233" width="4.15564" height="4.1546" fill="#9E62FE"/>
<rect x="1497.82" y="162.233" width="4.15564" height="4.1546" fill="#9E62FE"/>
<rect x="1501.98" y="162.233" width="4.15564" height="4.1546" fill="#9E62FE"/>
<rect x="1506.13" y="162.233" width="4.15564" height="4.1546" fill="#9E62FE"/>
<rect x="1510.29" y="162.233" width="4.15564" height="4.1546" fill="#9E62FE"/>
<rect x="1514.44" y="162.233" width="4.15564" height="4.1546" fill="#9E62FE"/>
<rect x="1518.6" y="162.233" width="4.15564" height="4.1546" fill="#9E62FE"/>
<rect x="1423.02" y="166.389" width="4.15564" height="4.1546" fill="#9E62FE"/>
<rect x="1427.17" y="166.389" width="4.15564" height="4.1546" fill="#9E62FE"/>
<rect x="1431.33" y="166.389" width="4.15564" height="4.1546" fill="#9E62FE"/>
<rect x="1435.48" y="166.389" width="4.15564" height="4.1546" fill="#9E62FE"/>
<rect x="1439.64" y="166.389" width="4.15564" height="4.1546" fill="#9E62FE"/>
<rect x="1443.8" y="166.389" width="4.15564" height="4.1546" fill="#9E62FE"/>
<rect x="1460.42" y="166.389" width="4.15564" height="4.1546" fill="#9E62FE"/>
<rect x="1464.57" y="166.389" width="4.15564" height="4.1546" fill="#9E62FE"/>
<rect x="1468.73" y="166.389" width="4.15564" height="4.1546" fill="#9E62FE"/>
<rect x="1472.89" y="166.389" width="4.15564" height="4.1546" fill="#9E62FE"/>
<rect x="1477.04" y="166.389" width="4.15564" height="4.1546" fill="#9E62FE"/>
<rect x="1481.2" y="166.389" width="4.15564" height="4.1546" fill="#9E62FE"/>
<rect x="1497.82" y="166.389" width="4.15564" height="4.1546" fill="#9E62FE"/>
<rect x="1501.97" y="166.389" width="4.15564" height="4.1546" fill="#9E62FE"/>
<rect x="1506.13" y="166.389" width="4.15564" height="4.1546" fill="#9E62FE"/>
<rect x="1510.29" y="166.389" width="4.15564" height="4.1546" fill="#9E62FE"/>
<rect x="1514.44" y="166.389" width="4.15564" height="4.1546" fill="#9E62FE"/>
<rect x="1518.6" y="166.389" width="4.15564" height="4.1546" fill="#9E62FE"/>
<rect x="1406.4" y="170.541" width="4.15564" height="4.1546" fill="#9E62FE"/>
<rect x="1410.55" y="170.541" width="4.15564" height="4.1546" fill="#9E62FE"/>
<rect x="1414.71" y="170.541" width="4.15564" height="4.1546" fill="#9E62FE"/>
<rect x="1418.86" y="170.541" width="4.15564" height="4.1546" fill="#9E62FE"/>
<rect x="1423.02" y="170.541" width="4.15564" height="4.1546" fill="#9E62FE"/>
<rect x="1427.17" y="170.541" width="4.15564" height="4.1546" fill="#9E62FE"/>
<rect x="1431.33" y="170.541" width="4.15564" height="4.1546" fill="#9E62FE"/>
<rect x="1435.48" y="170.541" width="4.15564" height="4.1546" fill="#9E62FE"/>
<rect x="1439.64" y="170.541" width="4.15564" height="4.1546" fill="#9E62FE"/>
<rect x="1443.8" y="170.541" width="4.15564" height="4.1546" fill="#9E62FE"/>
<rect x="1460.42" y="170.541" width="4.15564" height="4.1546" fill="#9E62FE"/>
<rect x="1464.57" y="170.541" width="4.15564" height="4.1546" fill="#9E62FE"/>
<rect x="1468.73" y="170.541" width="4.15564" height="4.1546" fill="#9E62FE"/>
<rect x="1472.89" y="170.541" width="4.15564" height="4.1546" fill="#9E62FE"/>
<rect x="1477.04" y="170.541" width="4.15564" height="4.1546" fill="#9E62FE"/>
<rect x="1481.2" y="170.541" width="4.15564" height="4.1546" fill="#9E62FE"/>
<rect x="1497.82" y="170.541" width="4.15564" height="4.1546" fill="#9E62FE"/>
<rect x="1501.97" y="170.541" width="4.15564" height="4.1546" fill="#9E62FE"/>
<rect x="1506.13" y="170.541" width="4.15564" height="4.1546" fill="#9E62FE"/>
<rect x="1510.29" y="170.541" width="4.15564" height="4.1546" fill="#9E62FE"/>
<rect x="1514.44" y="170.541" width="4.15564" height="4.1546" fill="#9E62FE"/>
<rect x="1518.6" y="170.541" width="4.15564" height="4.1546" fill="#9E62FE"/>
<rect x="1522.75" y="170.541" width="4.15564" height="4.1546" fill="#9E62FE"/>
<rect x="1526.91" y="170.541" width="4.15564" height="4.1546" fill="#9E62FE"/>
<rect x="1531.06" y="170.541" width="4.15564" height="4.1546" fill="#9E62FE"/>
<rect x="1406.4" y="174.697" width="4.15564" height="4.1546" fill="#9E62FE"/>
<rect x="1410.55" y="174.697" width="4.15564" height="4.1546" fill="#9E62FE"/>
<rect x="1414.71" y="174.697" width="4.15564" height="4.1546" fill="#9E62FE"/>
<rect x="1418.86" y="174.697" width="4.15564" height="4.1546" fill="#9E62FE"/>
<rect x="1423.02" y="174.697" width="4.15564" height="4.1546" fill="#9E62FE"/>
<rect x="1427.17" y="174.697" width="4.15564" height="4.1546" fill="#9E62FE"/>
<rect x="1431.33" y="174.697" width="4.15564" height="4.1546" fill="#9E62FE"/>
<rect x="1435.48" y="174.697" width="4.15564" height="4.1546" fill="#9E62FE"/>
<rect x="1439.64" y="174.697" width="4.15564" height="4.1546" fill="#9E62FE"/>
<rect x="1443.8" y="174.697" width="4.15564" height="4.1546" fill="#9E62FE"/>
<rect x="1447.95" y="174.697" width="4.15564" height="4.1546" fill="#9E62FE"/>
<rect x="1452.11" y="174.697" width="4.15564" height="4.1546" fill="#9E62FE"/>
<rect x="1456.26" y="174.697" width="4.15564" height="4.1546" fill="#9E62FE"/>
<rect x="1460.42" y="174.697" width="4.15564" height="4.1546" fill="#9E62FE"/>
<rect x="1464.57" y="174.697" width="4.15564" height="4.1546" fill="#9E62FE"/>
<rect x="1468.73" y="174.697" width="4.15564" height="4.1546" fill="#9E62FE"/>
<rect x="1472.89" y="174.697" width="4.15564" height="4.1546" fill="#9E62FE"/>
<rect x="1477.04" y="174.697" width="4.15564" height="4.1546" fill="#9E62FE"/>
<rect x="1481.2" y="174.697" width="4.15564" height="4.1546" fill="#9E62FE"/>
<rect x="1485.35" y="174.697" width="4.15564" height="4.1546" fill="#9E62FE"/>
<rect x="1489.51" y="174.697" width="4.15564" height="4.1546" fill="#9E62FE"/>
<rect x="1493.66" y="174.697" width="4.15564" height="4.1546" fill="#9E62FE"/>
<rect x="1497.82" y="174.697" width="4.15564" height="4.1546" fill="#9E62FE"/>
<rect x="1501.97" y="174.697" width="4.15564" height="4.1546" fill="#9E62FE"/>
<rect x="1506.13" y="174.697" width="4.15564" height="4.1546" fill="#9E62FE"/>
<rect x="1510.29" y="174.697" width="4.15564" height="4.1546" fill="#9E62FE"/>
<rect x="1514.44" y="174.697" width="4.15564" height="4.1546" fill="#9E62FE"/>
<rect x="1518.6" y="174.697" width="4.15564" height="4.1546" fill="#9E62FE"/>
<rect x="1522.75" y="174.697" width="4.15564" height="4.1546" fill="#9E62FE"/>
<rect x="1526.91" y="174.697" width="4.15564" height="4.1546" fill="#9E62FE"/>
<rect x="1531.06" y="174.697" width="4.15564" height="4.1546" fill="#9E62FE"/>
<rect x="1406.4" y="178.851" width="4.15564" height="4.1546" fill="#9E62FE"/>
<rect x="1410.55" y="178.851" width="4.15564" height="4.1546" fill="#9E62FE"/>
<rect x="1414.71" y="178.851" width="4.15564" height="4.1546" fill="#9E62FE"/>
<rect x="1418.86" y="178.851" width="4.15564" height="4.1546" fill="#9E62FE"/>
<rect x="1423.02" y="178.851" width="4.15564" height="4.1546" fill="#9E62FE"/>
<rect x="1427.17" y="178.851" width="4.15564" height="4.1546" fill="#9E62FE"/>
<rect x="1431.33" y="178.851" width="4.15564" height="4.1546" fill="#9E62FE"/>
<rect x="1435.48" y="178.851" width="4.15564" height="4.1546" fill="#9E62FE"/>
<rect x="1439.64" y="178.851" width="4.15564" height="4.1546" fill="#9E62FE"/>
<rect x="1443.8" y="178.851" width="4.15564" height="4.1546" fill="#9E62FE"/>
<rect x="1447.95" y="178.851" width="4.15564" height="4.1546" fill="#9E62FE"/>
<rect x="1452.11" y="178.851" width="4.15564" height="4.1546" fill="#9E62FE"/>
<rect x="1456.26" y="178.851" width="4.15564" height="4.1546" fill="#9E62FE"/>
<rect x="1460.42" y="178.851" width="4.15564" height="4.1546" fill="#9E62FE"/>
<rect x="1464.57" y="178.851" width="4.15564" height="4.1546" fill="#9E62FE"/>
<rect x="1468.73" y="178.851" width="4.15564" height="4.1546" fill="#9E62FE"/>
<rect x="1472.89" y="178.851" width="4.15564" height="4.1546" fill="#9E62FE"/>
<rect x="1477.04" y="178.851" width="4.15564" height="4.1546" fill="#9E62FE"/>
<rect x="1481.2" y="178.851" width="4.15564" height="4.1546" fill="#9E62FE"/>
<rect x="1485.35" y="178.851" width="4.15564" height="4.1546" fill="#9E62FE"/>
<rect x="1489.51" y="178.851" width="4.15564" height="4.1546" fill="#9E62FE"/>
<rect x="1493.66" y="178.851" width="4.15564" height="4.1546" fill="#9E62FE"/>
<rect x="1497.82" y="178.851" width="4.15564" height="4.1546" fill="#9E62FE"/>
<rect x="1501.97" y="178.851" width="4.15564" height="4.1546" fill="#9E62FE"/>
<rect x="1506.13" y="178.851" width="4.15564" height="4.1546" fill="#9E62FE"/>
<rect x="1510.29" y="178.851" width="4.15564" height="4.1546" fill="#9E62FE"/>
<rect x="1514.44" y="178.851" width="4.15564" height="4.1546" fill="#9E62FE"/>
<rect x="1518.6" y="178.851" width="4.15564" height="4.1546" fill="#9E62FE"/>
<rect x="1522.75" y="178.851" width="4.15564" height="4.1546" fill="#9E62FE"/>
<rect x="1526.91" y="178.851" width="4.15564" height="4.1546" fill="#9E62FE"/>
<rect x="1531.06" y="178.851" width="4.15564" height="4.1546" fill="#9E62FE"/>
<rect x="1406.4" y="183.006" width="4.15564" height="4.1546" fill="#9E62FE"/>
<rect x="1410.55" y="183.006" width="4.15564" height="4.1546" fill="#9E62FE"/>
<rect x="1414.71" y="183.006" width="4.15564" height="4.1546" fill="#9E62FE"/>
<rect x="1418.86" y="183.006" width="4.15564" height="4.1546" fill="#9E62FE"/>
<rect x="1435.48" y="183.006" width="4.15564" height="4.1546" fill="#9E62FE"/>
<rect x="1439.64" y="183.006" width="4.15564" height="4.1546" fill="#9E62FE"/>
<rect x="1443.8" y="183.006" width="4.15564" height="4.1546" fill="#9E62FE"/>
<rect x="1447.95" y="183.006" width="4.15564" height="4.1546" fill="#9E62FE"/>
<rect x="1452.11" y="183.006" width="4.15564" height="4.1546" fill="#9E62FE"/>
<rect x="1456.26" y="183.006" width="4.15564" height="4.1546" fill="#9E62FE"/>
<rect x="1460.42" y="183.006" width="4.15564" height="4.1546" fill="#9E62FE"/>
<rect x="1464.57" y="183.006" width="4.15564" height="4.1546" fill="#9E62FE"/>
<rect x="1468.73" y="183.006" width="4.15564" height="4.1546" fill="#9E62FE"/>
<rect x="1472.89" y="183.006" width="4.15564" height="4.1546" fill="#9E62FE"/>
<rect x="1477.04" y="183.006" width="4.15564" height="4.1546" fill="#9E62FE"/>
<rect x="1481.2" y="183.006" width="4.15564" height="4.1546" fill="#9E62FE"/>
<rect x="1485.35" y="183.006" width="4.15564" height="4.1546" fill="#9E62FE"/>
<rect x="1489.51" y="183.006" width="4.15564" height="4.1546" fill="#9E62FE"/>
<rect x="1493.66" y="183.006" width="4.15564" height="4.1546" fill="#9E62FE"/>
<rect x="1497.82" y="183.006" width="4.15564" height="4.1546" fill="#9E62FE"/>
<rect x="1501.97" y="183.006" width="4.15564" height="4.1546" fill="#9E62FE"/>
<rect x="1506.13" y="183.006" width="4.15564" height="4.1546" fill="#9E62FE"/>
<rect x="1522.75" y="183.006" width="4.15564" height="4.1546" fill="#9E62FE"/>
<rect x="1526.91" y="183.006" width="4.15564" height="4.1546" fill="#9E62FE"/>
<rect x="1531.06" y="183.006" width="4.15564" height="4.1546" fill="#9E62FE"/>
<rect x="1406.4" y="187.161" width="4.15564" height="4.1546" fill="#9E62FE"/>
<rect x="1410.55" y="187.161" width="4.15564" height="4.1546" fill="#9E62FE"/>
<rect x="1414.71" y="187.161" width="4.15564" height="4.1546" fill="#9E62FE"/>
<rect x="1418.86" y="187.161" width="4.15564" height="4.1546" fill="#9E62FE"/>
<rect x="1435.48" y="187.161" width="4.15564" height="4.1546" fill="#9E62FE"/>
<rect x="1439.64" y="187.161" width="4.15564" height="4.1546" fill="#9E62FE"/>
<rect x="1443.8" y="187.161" width="4.15564" height="4.1546" fill="#9E62FE"/>
<rect x="1447.95" y="187.161" width="4.15564" height="4.1546" fill="#9E62FE"/>
<rect x="1452.11" y="187.161" width="4.15564" height="4.1546" fill="#9E62FE"/>
<rect x="1456.26" y="187.161" width="4.15564" height="4.1546" fill="#9E62FE"/>
<rect x="1460.42" y="187.161" width="4.15564" height="4.1546" fill="#9E62FE"/>
<rect x="1464.57" y="187.161" width="4.15564" height="4.1546" fill="#9E62FE"/>
<rect x="1468.73" y="187.161" width="4.15564" height="4.1546" fill="#9E62FE"/>
<rect x="1472.89" y="187.161" width="4.15564" height="4.1546" fill="#9E62FE"/>
<rect x="1477.04" y="187.161" width="4.15564" height="4.1546" fill="#9E62FE"/>
<rect x="1481.2" y="187.161" width="4.15564" height="4.1546" fill="#9E62FE"/>
<rect x="1485.35" y="187.161" width="4.15564" height="4.1546" fill="#9E62FE"/>
<rect x="1489.51" y="187.161" width="4.15564" height="4.1546" fill="#9E62FE"/>
<rect x="1493.66" y="187.161" width="4.15564" height="4.1546" fill="#9E62FE"/>
<rect x="1497.82" y="187.161" width="4.15564" height="4.1546" fill="#9E62FE"/>
<rect x="1501.97" y="187.161" width="4.15564" height="4.1546" fill="#9E62FE"/>
<rect x="1506.13" y="187.161" width="4.15564" height="4.1546" fill="#9E62FE"/>
<rect x="1522.75" y="187.161" width="4.15564" height="4.1546" fill="#9E62FE"/>
<rect x="1526.91" y="187.161" width="4.15564" height="4.1546" fill="#9E62FE"/>
<rect x="1531.06" y="187.161" width="4.15564" height="4.1546" fill="#9E62FE"/>
<rect x="1406.4" y="191.315" width="4.15564" height="4.1546" fill="#9E62FE"/>
<rect x="1410.55" y="191.315" width="4.15564" height="4.1546" fill="#9E62FE"/>
<rect x="1414.71" y="191.315" width="4.15564" height="4.1546" fill="#9E62FE"/>
<rect x="1418.86" y="191.315" width="4.15564" height="4.1546" fill="#9E62FE"/>
<rect x="1435.48" y="191.315" width="4.15564" height="4.1546" fill="#9E62FE"/>
<rect x="1439.64" y="191.315" width="4.15564" height="4.1546" fill="#9E62FE"/>
<rect x="1443.8" y="191.315" width="4.15564" height="4.1546" fill="#9E62FE"/>
<rect x="1447.95" y="191.315" width="4.15564" height="4.1546" fill="#9E62FE"/>
<rect x="1452.11" y="191.315" width="4.15564" height="4.1546" fill="#9E62FE"/>
<rect x="1456.26" y="191.315" width="4.15564" height="4.1546" fill="#9E62FE"/>
<rect x="1460.42" y="191.315" width="4.15564" height="4.1546" fill="#9E62FE"/>
<rect x="1464.57" y="191.315" width="4.15564" height="4.1546" fill="#9E62FE"/>
<rect x="1468.73" y="191.315" width="4.15564" height="4.1546" fill="#9E62FE"/>
<rect x="1472.89" y="191.315" width="4.15564" height="4.1546" fill="#9E62FE"/>
<rect x="1477.04" y="191.315" width="4.15564" height="4.1546" fill="#9E62FE"/>
<rect x="1481.2" y="191.315" width="4.15564" height="4.1546" fill="#9E62FE"/>
<rect x="1485.35" y="191.315" width="4.15564" height="4.1546" fill="#9E62FE"/>
<rect x="1489.51" y="191.315" width="4.15564" height="4.1546" fill="#9E62FE"/>
<rect x="1493.66" y="191.315" width="4.15564" height="4.1546" fill="#9E62FE"/>
<rect x="1497.82" y="191.315" width="4.15564" height="4.1546" fill="#9E62FE"/>
<rect x="1501.97" y="191.315" width="4.15564" height="4.1546" fill="#9E62FE"/>
<rect x="1506.13" y="191.315" width="4.15564" height="4.1546" fill="#9E62FE"/>
<rect x="1522.75" y="191.315" width="4.15564" height="4.1546" fill="#9E62FE"/>
<rect x="1526.91" y="191.315" width="4.15564" height="4.1546" fill="#9E62FE"/>
<rect x="1531.06" y="191.315" width="4.15564" height="4.1546" fill="#9E62FE"/>
<rect x="1406.4" y="195.471" width="4.15564" height="4.1546" fill="#9E62FE"/>
<rect x="1410.55" y="195.471" width="4.15564" height="4.1546" fill="#9E62FE"/>
<rect x="1414.71" y="195.471" width="4.15564" height="4.1546" fill="#9E62FE"/>
<rect x="1418.86" y="195.471" width="4.15564" height="4.1546" fill="#9E62FE"/>
<rect x="1447.95" y="195.471" width="4.15564" height="4.1546" fill="#9E62FE"/>
<rect x="1452.11" y="195.471" width="4.15564" height="4.1546" fill="#9E62FE"/>
<rect x="1456.26" y="195.471" width="4.15564" height="4.1546" fill="#9E62FE"/>
<rect x="1485.35" y="195.471" width="4.15564" height="4.1546" fill="#9E62FE"/>
<rect x="1489.51" y="195.471" width="4.15564" height="4.1546" fill="#9E62FE"/>
<rect x="1493.66" y="195.471" width="4.15564" height="4.1546" fill="#9E62FE"/>
<rect x="1522.75" y="195.471" width="4.15564" height="4.1546" fill="#9E62FE"/>
<rect x="1526.91" y="195.471" width="4.15564" height="4.1546" fill="#9E62FE"/>
<rect x="1531.06" y="195.471" width="4.15564" height="4.1546" fill="#9E62FE"/>
<rect x="1406.4" y="199.624" width="4.15564" height="4.1546" fill="#9E62FE"/>
<rect x="1410.55" y="199.624" width="4.15564" height="4.1546" fill="#9E62FE"/>
<rect x="1414.71" y="199.624" width="4.15564" height="4.1546" fill="#9E62FE"/>
<rect x="1418.86" y="199.624" width="4.15564" height="4.1546" fill="#9E62FE"/>
<rect x="1447.95" y="199.624" width="4.15564" height="4.1546" fill="#9E62FE"/>
<rect x="1452.11" y="199.624" width="4.15564" height="4.1546" fill="#9E62FE"/>
<rect x="1456.26" y="199.624" width="4.15564" height="4.1546" fill="#9E62FE"/>
<rect x="1485.35" y="199.624" width="4.15564" height="4.1546" fill="#9E62FE"/>
<rect x="1489.51" y="199.624" width="4.15564" height="4.1546" fill="#9E62FE"/>
<rect x="1493.66" y="199.624" width="4.15564" height="4.1546" fill="#9E62FE"/>
<rect x="1522.75" y="199.624" width="4.15564" height="4.1546" fill="#9E62FE"/>
<rect x="1526.91" y="199.624" width="4.15564" height="4.1546" fill="#9E62FE"/>
<rect x="1531.06" y="199.624" width="4.15564" height="4.1546" fill="#9E62FE"/>
<rect x="1406.4" y="203.779" width="4.15564" height="4.1546" fill="#9E62FE"/>
<rect x="1410.55" y="203.779" width="4.15564" height="4.1546" fill="#9E62FE"/>
<rect x="1414.71" y="203.779" width="4.15564" height="4.1546" fill="#9E62FE"/>
<rect x="1418.86" y="203.779" width="4.15564" height="4.1546" fill="#9E62FE"/>
<rect x="1447.95" y="203.779" width="4.15564" height="4.1546" fill="#9E62FE"/>
<rect x="1452.11" y="203.779" width="4.15564" height="4.1546" fill="#9E62FE"/>
<rect x="1456.26" y="203.779" width="4.15564" height="4.1546" fill="#9E62FE"/>
<rect x="1485.35" y="203.779" width="4.15564" height="4.1546" fill="#9E62FE"/>
<rect x="1489.51" y="203.779" width="4.15564" height="4.1546" fill="#9E62FE"/>
<rect x="1493.66" y="203.779" width="4.15564" height="4.1546" fill="#9E62FE"/>
<rect x="1522.75" y="203.779" width="4.15564" height="4.1546" fill="#9E62FE"/>
<rect x="1526.91" y="203.779" width="4.15564" height="4.1546" fill="#9E62FE"/>
<rect x="1531.06" y="203.779" width="4.15564" height="4.1546" fill="#9E62FE"/>
<rect x="1435.48" y="207.933" width="4.15564" height="4.1546" fill="#9E62FE"/>
<rect x="1439.64" y="207.933" width="4.15564" height="4.1546" fill="#9E62FE"/>
<rect x="1443.8" y="207.933" width="4.15564" height="4.1546" fill="#9E62FE"/>
<rect x="1447.95" y="207.933" width="4.15564" height="4.1546" fill="#9E62FE"/>
<rect x="1452.11" y="207.933" width="4.15564" height="4.1546" fill="#9E62FE"/>
<rect x="1456.26" y="207.933" width="4.15564" height="4.1546" fill="#9E62FE"/>
<rect x="1485.35" y="207.933" width="4.15564" height="4.1546" fill="#9E62FE"/>
<rect x="1489.51" y="207.933" width="4.15564" height="4.1546" fill="#9E62FE"/>
<rect x="1493.66" y="207.933" width="4.15564" height="4.1546" fill="#9E62FE"/>
<rect x="1497.82" y="207.933" width="4.15564" height="4.1546" fill="#9E62FE"/>
<rect x="1501.97" y="207.933" width="4.15564" height="4.1546" fill="#9E62FE"/>
<rect x="1506.13" y="207.933" width="4.15564" height="4.1546" fill="#9E62FE"/>
<rect x="1435.48" y="212.088" width="4.15564" height="4.1546" fill="#9E62FE"/>
<rect x="1439.64" y="212.088" width="4.15564" height="4.1546" fill="#9E62FE"/>
<rect x="1443.8" y="212.088" width="4.15564" height="4.1546" fill="#9E62FE"/>
<rect x="1447.95" y="212.088" width="4.15564" height="4.1546" fill="#9E62FE"/>
<rect x="1452.11" y="212.088" width="4.15564" height="4.1546" fill="#9E62FE"/>
<rect x="1456.26" y="212.088" width="4.15564" height="4.1546" fill="#9E62FE"/>
<rect x="1485.35" y="212.088" width="4.15564" height="4.1546" fill="#9E62FE"/>
<rect x="1489.51" y="212.088" width="4.15564" height="4.1546" fill="#9E62FE"/>
<rect x="1493.66" y="212.088" width="4.15564" height="4.1546" fill="#9E62FE"/>
<rect x="1497.82" y="212.088" width="4.15564" height="4.1546" fill="#9E62FE"/>
<rect x="1501.97" y="212.088" width="4.15564" height="4.1546" fill="#9E62FE"/>
<rect x="1506.13" y="212.088" width="4.15564" height="4.1546" fill="#9E62FE"/>
<rect x="1435.48" y="216.243" width="4.15564" height="4.1546" fill="#9E62FE"/>
<rect x="1439.64" y="216.243" width="4.15564" height="4.1546" fill="#9E62FE"/>
<rect x="1443.8" y="216.243" width="4.15564" height="4.1546" fill="#9E62FE"/>
<rect x="1447.95" y="216.243" width="4.15564" height="4.1546" fill="#9E62FE"/>
<rect x="1452.11" y="216.243" width="4.15564" height="4.1546" fill="#9E62FE"/>
<rect x="1456.26" y="216.243" width="4.15564" height="4.1546" fill="#9E62FE"/>
<rect x="1485.35" y="216.243" width="4.15564" height="4.1546" fill="#9E62FE"/>
<rect x="1489.51" y="216.243" width="4.15564" height="4.1546" fill="#9E62FE"/>
<rect x="1493.66" y="216.243" width="4.15564" height="4.1546" fill="#9E62FE"/>
<rect x="1497.82" y="216.243" width="4.15564" height="4.1546" fill="#9E62FE"/>
<rect x="1501.97" y="216.243" width="4.15564" height="4.1546" fill="#9E62FE"/>
<rect x="1506.13" y="216.243" width="4.15564" height="4.1546" fill="#9E62FE"/>
</svg>
