<svg width="138" height="215" viewBox="0 0 138 215" fill="none" xmlns="http://www.w3.org/2000/svg">
<rect x="42.9258" width="8.58517" height="8.58517" fill="#FFBFBF"/>
<rect x="51.5137" width="8.58517" height="8.58517" fill="#DFBFAF"/>
<rect x="60.0996" width="8.58517" height="8.58517" fill="#E6CCB3"/>
<rect x="42.9258" y="8.5874" width="8.58517" height="8.58517" fill="#E25424"/>
<rect x="51.5137" y="8.5874" width="8.58517" height="8.58517" fill="#DF5628"/>
<rect x="60.0996" y="8.5874" width="8.58517" height="8.58517" fill="#E85E30"/>
<rect x="51.5137" y="17.1709" width="8.58517" height="8.58517" fill="#F88C32"/>
<rect x="60.0996" y="17.1709" width="8.58517" height="8.58517" fill="#F58931"/>
<rect x="68.6836" y="17.1709" width="8.58517" height="8.58517" fill="#E05423"/>
<rect x="77.2656" y="17.1709" width="8.58517" height="8.58517" fill="#F36326"/>
<rect x="85.8516" y="17.1709" width="8.58517" height="8.58517" fill="#F46227"/>
<rect x="34.3398" y="25.7563" width="8.58517" height="8.58517" fill="#E86A41"/>
<rect x="42.9258" y="25.7563" width="8.58517" height="8.58517" fill="#FC9941"/>
<rect x="51.5137" y="25.7563" width="8.58517" height="8.58517" fill="#F4AF36"/>
<rect x="60.0996" y="25.7563" width="8.58517" height="8.58517" fill="#F1B437"/>
<rect x="68.6836" y="25.7563" width="8.58517" height="8.58517" fill="#F88323"/>
<rect x="77.2656" y="25.7563" width="8.58517" height="8.58517" fill="#EF6632"/>
<rect x="85.8516" y="25.7563" width="8.58517" height="8.58517" fill="#F7672A"/>
<rect x="34.3398" y="34.3438" width="8.58517" height="8.58517" fill="#E25424"/>
<rect x="42.9258" y="34.3438" width="8.58517" height="8.58517" fill="#F58728"/>
<rect x="51.5137" y="34.3438" width="8.58517" height="8.58517" fill="#F5B635"/>
<rect x="60.0996" y="34.3438" width="8.58517" height="8.58517" fill="#F3B637"/>
<rect x="68.6836" y="34.3438" width="8.58517" height="8.58517" fill="#F78628"/>
<rect x="42.9277" y="42.9272" width="8.58517" height="8.58517" fill="#E15321"/>
<rect x="51.5137" y="42.9272" width="8.58517" height="8.58517" fill="#172C49"/>
<rect x="60.0996" y="42.9272" width="8.58517" height="8.58517" fill="#0A2747"/>
<rect x="68.6836" y="42.9272" width="8.58517" height="8.58517" fill="#082744"/>
<rect x="77.2656" y="42.9272" width="8.58517" height="8.58517" fill="#196F9E"/>
<rect x="85.8516" y="42.9272" width="8.58517" height="8.58517" fill="#1B6F9D"/>
<rect x="42.9277" y="51.5093" width="8.58517" height="8.58517" fill="#FFCCB3"/>
<rect x="51.5137" y="51.5093" width="8.58517" height="8.58517" fill="#AAAAB8"/>
<rect x="60.0996" y="51.5093" width="8.58517" height="8.58517" fill="#AAB6C2"/>
<rect x="68.6836" y="51.5093" width="8.58517" height="8.58517" fill="#0A2745"/>
<rect x="77.2656" y="51.5093" width="8.58517" height="8.58517" fill="#185D7E"/>
<rect x="85.8516" y="51.5093" width="8.58517" height="8.58517" fill="#216288"/>
<rect x="68.6836" y="60.0977" width="8.58517" height="8.58517" fill="#092644"/>
<rect x="77.2656" y="60.0977" width="8.58517" height="8.58517" fill="#1F3E5B"/>
<rect x="85.8516" y="60.0977" width="8.58517" height="8.58517" fill="#193857"/>
<rect x="42.9277" y="68.6821" width="8.58517" height="8.58517" fill="#0A2844"/>
<rect x="51.5137" y="68.6821" width="8.58517" height="8.58517" fill="#082743"/>
<rect x="60.0996" y="68.6821" width="8.58517" height="8.58517" fill="#0D2645"/>
<rect x="68.6836" y="68.6821" width="8.58517" height="8.58517" fill="#1E3D5A"/>
<rect x="77.2656" y="68.6821" width="8.58517" height="8.58517" fill="#0C2947"/>
<rect x="85.8516" y="68.6821" width="8.58517" height="8.58517" fill="#092644"/>
<rect x="94.4395" y="68.6821" width="8.58517" height="8.58517" fill="#092743"/>
<rect x="42.9258" y="77.2686" width="8.58517" height="8.58517" fill="#0A2745"/>
<rect x="51.5137" y="77.2686" width="8.58517" height="8.58517" fill="#11304D"/>
<rect x="60.0996" y="77.2686" width="8.58517" height="8.58517" fill="#13304E"/>
<rect x="68.6836" y="77.2686" width="8.58517" height="8.58517" fill="#1B3856"/>
<rect x="77.2656" y="77.2686" width="8.58517" height="8.58517" fill="#0B2846"/>
<rect x="85.8516" y="77.2686" width="8.58517" height="8.58517" fill="#0A2745"/>
<rect x="94.4395" y="77.2686" width="8.58517" height="8.58517" fill="#092845"/>
<rect x="25.7598" y="85.853" width="8.58517" height="8.58517" fill="#0A2747"/>
<rect x="34.3398" y="85.853" width="8.58517" height="8.58517" fill="#0A2745"/>
<rect x="42.9258" y="85.853" width="8.58517" height="8.58517" fill="#0A2745"/>
<rect x="51.5137" y="85.853" width="8.58517" height="8.58517" fill="#1E3D5A"/>
<rect x="60.0996" y="85.853" width="8.58517" height="8.58517" fill="#1E3D5A"/>
<rect x="68.6836" y="85.853" width="8.58517" height="8.58517" fill="#0A2745"/>
<rect x="77.2656" y="85.853" width="8.58517" height="8.58517" fill="#0A2745"/>
<rect x="85.8516" y="85.853" width="8.58517" height="8.58517" fill="#0A2745"/>
<rect x="94.4395" y="85.853" width="8.58517" height="8.58517" fill="#0A2745"/>
<rect x="103.025" y="85.853" width="8.58517" height="8.58517" fill="#0A2745"/>
<rect x="111.605" y="85.853" width="8.58517" height="8.58517" fill="#676F7E"/>
<rect x="17.1699" y="94.4385" width="8.58517" height="8.58517" fill="#092441"/>
<rect x="25.7598" y="94.4385" width="8.58517" height="8.58517" fill="#1C3F5B"/>
<rect x="34.3398" y="94.4385" width="8.58517" height="8.58517" fill="#1F3D5F"/>
<rect x="42.9277" y="94.4385" width="8.58517" height="8.58517" fill="#1DA2C1"/>
<rect x="51.5137" y="94.4385" width="8.58517" height="8.58517" fill="#418298"/>
<rect x="60.0996" y="94.4385" width="8.58517" height="8.58517" fill="#3B5975"/>
<rect x="68.6836" y="94.4385" width="8.58517" height="8.58517" fill="#3E5C78"/>
<rect x="77.2656" y="94.4385" width="8.58517" height="8.58517" fill="#3E5C78"/>
<rect x="85.8516" y="94.4385" width="8.58517" height="8.58517" fill="#3E5C78"/>
<rect x="94.4395" y="94.4385" width="8.58517" height="8.58517" fill="#1E3D5A"/>
<rect x="103.025" y="94.4385" width="8.58517" height="8.58517" fill="#0A2745"/>
<rect x="111.605" y="94.4385" width="8.58517" height="8.58517" fill="#09213D"/>
<rect x="120.195" y="94.4385" width="8.58517" height="8.58517" fill="#0A2037"/>
<rect x="17.1699" y="103.026" width="8.58517" height="8.58517" fill="#0A2844"/>
<rect x="25.7598" y="103.026" width="8.58517" height="8.58517" fill="#1B3C5B"/>
<rect x="34.3398" y="103.026" width="8.58517" height="8.58517" fill="#1F3D59"/>
<rect x="42.9258" y="103.026" width="8.58517" height="8.58517" fill="#1A9CBC"/>
<rect x="51.5137" y="103.026" width="8.58517" height="8.58517" fill="#3B778F"/>
<rect x="60.0996" y="103.026" width="8.58517" height="8.58517" fill="#3C5A76"/>
<rect x="68.6836" y="103.026" width="8.58517" height="8.58517" fill="#3C5A76"/>
<rect x="77.2656" y="103.026" width="8.58517" height="8.58517" fill="#3C5A76"/>
<rect x="85.8516" y="103.026" width="8.58517" height="8.58517" fill="#3D5B77"/>
<rect x="94.4395" y="103.026" width="8.58517" height="8.58517" fill="#1F3E5B"/>
<rect x="103.025" y="103.026" width="8.58517" height="8.58517" fill="#112C49"/>
<rect x="111.605" y="103.026" width="8.58517" height="8.58517" fill="#0A2844"/>
<rect x="120.195" y="103.026" width="8.58517" height="8.58517" fill="#062341"/>
<rect y="111.609" width="8.58517" height="8.58517" fill="#595967"/>
<rect x="8.58398" y="111.609" width="8.58517" height="8.58517" fill="#0D2748"/>
<rect x="17.1699" y="111.609" width="8.58517" height="8.58517" fill="#0A2747"/>
<rect x="25.7598" y="111.609" width="8.58517" height="8.58517" fill="#199BBD"/>
<rect x="34.3398" y="111.609" width="8.58517" height="8.58517" fill="#1A9CBC"/>
<rect x="42.9258" y="111.609" width="8.58517" height="8.58517" fill="#A6DBDF"/>
<rect x="51.5137" y="111.609" width="8.58517" height="8.58517" fill="#577B91"/>
<rect x="60.0996" y="111.609" width="8.58517" height="8.58517" fill="#3C5A76"/>
<rect x="68.6836" y="111.609" width="8.58517" height="8.58517" fill="#3C5A76"/>
<rect x="77.2656" y="111.609" width="8.58517" height="8.58517" fill="#3C5A76"/>
<rect x="85.8516" y="111.609" width="8.58517" height="8.58517" fill="#3C5A76"/>
<rect x="94.4395" y="111.609" width="8.58517" height="8.58517" fill="#3A5872"/>
<rect x="103.025" y="111.609" width="8.58517" height="8.58517" fill="#1F3D59"/>
<rect x="111.605" y="111.609" width="8.58517" height="8.58517" fill="#1E3956"/>
<rect x="120.195" y="111.609" width="8.58517" height="8.58517" fill="#0A2745"/>
<rect x="128.779" y="111.609" width="8.58517" height="8.58517" fill="#0A2747"/>
<rect y="120.194" width="8.58517" height="8.58517" fill="#595764"/>
<rect x="8.58398" y="120.194" width="8.58517" height="8.58517" fill="#0A2745"/>
<rect x="17.1699" y="120.194" width="8.58517" height="8.58517" fill="#1D3C59"/>
<rect x="25.7598" y="120.194" width="8.58517" height="8.58517" fill="#2C5372"/>
<rect x="34.3398" y="120.194" width="8.58517" height="8.58517" fill="#254E6A"/>
<rect x="42.9277" y="120.194" width="8.58517" height="8.58517" fill="#3B5A76"/>
<rect x="51.5137" y="120.194" width="8.58517" height="8.58517" fill="#375571"/>
<rect x="60.0996" y="120.194" width="8.58517" height="8.58517" fill="#3C5A76"/>
<rect x="68.6836" y="120.194" width="8.58517" height="8.58517" fill="#3C5A76"/>
<rect x="77.2656" y="120.194" width="8.58517" height="8.58517" fill="#3C5A76"/>
<rect x="85.8516" y="120.194" width="8.58517" height="8.58517" fill="#3C5772"/>
<rect x="94.4395" y="120.194" width="8.58517" height="8.58517" fill="#2D4B67"/>
<rect x="103.025" y="120.194" width="8.58517" height="8.58517" fill="#2B4965"/>
<rect x="111.605" y="120.194" width="8.58517" height="8.58517" fill="#183754"/>
<rect x="120.195" y="120.194" width="8.58517" height="8.58517" fill="#0A2745"/>
<rect x="128.779" y="120.194" width="8.58517" height="8.58517" fill="#0A2745"/>
<rect y="128.777" width="8.58517" height="8.58517" fill="#595764"/>
<rect x="8.58398" y="128.777" width="8.58517" height="8.58517" fill="#0A2745"/>
<rect x="17.1699" y="128.777" width="8.58517" height="8.58517" fill="#1E3D5A"/>
<rect x="25.7598" y="128.777" width="8.58517" height="8.58517" fill="#3C5A76"/>
<rect x="34.3398" y="128.777" width="8.58517" height="8.58517" fill="#3C5A76"/>
<rect x="42.9258" y="128.777" width="8.58517" height="8.58517" fill="#3C5A76"/>
<rect x="51.5137" y="128.777" width="8.58517" height="8.58517" fill="#3C5A76"/>
<rect x="60.0996" y="128.777" width="8.58517" height="8.58517" fill="#3C5A76"/>
<rect x="68.6836" y="128.777" width="8.58517" height="8.58517" fill="#3B5975"/>
<rect x="77.2656" y="128.777" width="8.58517" height="8.58517" fill="#3D5B75"/>
<rect x="85.8516" y="128.777" width="8.58517" height="8.58517" fill="#3B5671"/>
<rect x="94.4395" y="128.777" width="8.58517" height="8.58517" fill="#2C4A66"/>
<rect x="103.025" y="128.777" width="8.58517" height="8.58517" fill="#1E3D5A"/>
<rect x="111.605" y="128.777" width="8.58517" height="8.58517" fill="#183754"/>
<rect x="120.195" y="128.777" width="8.58517" height="8.58517" fill="#0A2745"/>
<rect x="128.779" y="128.777" width="8.58517" height="8.58517" fill="#0A2745"/>
<rect y="137.364" width="8.58517" height="8.58517" fill="#595764"/>
<rect x="8.58398" y="137.364" width="8.58517" height="8.58517" fill="#0A2745"/>
<rect x="17.1699" y="137.364" width="8.58517" height="8.58517" fill="#1E3D5A"/>
<rect x="25.7598" y="137.364" width="8.58517" height="8.58517" fill="#3C5A76"/>
<rect x="34.3398" y="137.364" width="8.58517" height="8.58517" fill="#3C5A76"/>
<rect x="42.9258" y="137.364" width="8.58517" height="8.58517" fill="#3C5A76"/>
<rect x="51.5137" y="137.364" width="8.58517" height="8.58517" fill="#3C5A76"/>
<rect x="60.0996" y="137.364" width="8.58517" height="8.58517" fill="#3C5A76"/>
<rect x="68.6836" y="137.364" width="8.58517" height="8.58517" fill="#46647E"/>
<rect x="77.2656" y="137.364" width="8.58517" height="8.58517" fill="#2B4965"/>
<rect x="85.8516" y="137.364" width="8.58517" height="8.58517" fill="#213F5B"/>
<rect x="94.4395" y="137.364" width="8.58517" height="8.58517" fill="#1E3D5A"/>
<rect x="103.025" y="137.364" width="8.58517" height="8.58517" fill="#1E3D5A"/>
<rect x="111.605" y="137.364" width="8.58517" height="8.58517" fill="#183754"/>
<rect x="120.195" y="137.364" width="8.58517" height="8.58517" fill="#0A2745"/>
<rect x="128.779" y="137.364" width="8.58517" height="8.58517" fill="#0A2745"/>
<rect y="145.951" width="8.58517" height="8.58517" fill="#595764"/>
<rect x="8.58398" y="145.951" width="8.58517" height="8.58517" fill="#0A2745"/>
<rect x="17.1699" y="145.951" width="8.58517" height="8.58517" fill="#203D5B"/>
<rect x="25.7598" y="145.951" width="8.58517" height="8.58517" fill="#3C5A76"/>
<rect x="34.3398" y="145.951" width="8.58517" height="8.58517" fill="#3C5A76"/>
<rect x="42.9277" y="145.951" width="8.58517" height="8.58517" fill="#3C5A76"/>
<rect x="51.5137" y="145.951" width="8.58517" height="8.58517" fill="#3C5A76"/>
<rect x="60.0996" y="145.951" width="8.58517" height="8.58517" fill="#3B5975"/>
<rect x="68.6836" y="145.951" width="8.58517" height="8.58517" fill="#34526E"/>
<rect x="77.2656" y="145.951" width="8.58517" height="8.58517" fill="#264561"/>
<rect x="85.8516" y="145.951" width="8.58517" height="8.58517" fill="#1E3D5A"/>
<rect x="94.4395" y="145.951" width="8.58517" height="8.58517" fill="#1E3D5A"/>
<rect x="103.025" y="145.951" width="8.58517" height="8.58517" fill="#193855"/>
<rect x="111.605" y="145.951" width="8.58517" height="8.58517" fill="#163351"/>
<rect x="120.195" y="145.951" width="8.58517" height="8.58517" fill="#0A2745"/>
<rect x="128.779" y="145.951" width="8.58517" height="8.58517" fill="#092743"/>
<rect y="154.532" width="8.58517" height="8.58517" fill="#595764"/>
<rect x="8.58398" y="154.532" width="8.58517" height="8.58517" fill="#0A2745"/>
<rect x="17.1699" y="154.532" width="8.58517" height="8.58517" fill="#0A2745"/>
<rect x="25.7598" y="154.532" width="8.58517" height="8.58517" fill="#3C5A76"/>
<rect x="34.3398" y="154.532" width="8.58517" height="8.58517" fill="#3D5B77"/>
<rect x="42.9258" y="154.532" width="8.58517" height="8.58517" fill="#3D5B77"/>
<rect x="51.5137" y="154.532" width="8.58517" height="8.58517" fill="#3B5973"/>
<rect x="60.0996" y="154.532" width="8.58517" height="8.58517" fill="#47657F"/>
<rect x="68.6836" y="154.532" width="8.58517" height="8.58517" fill="#2C4A66"/>
<rect x="77.2656" y="154.532" width="8.58517" height="8.58517" fill="#1E3D5A"/>
<rect x="85.8516" y="154.532" width="8.58517" height="8.58517" fill="#1E3D5A"/>
<rect x="94.4395" y="154.532" width="8.58517" height="8.58517" fill="#1E3D5A"/>
<rect x="103.025" y="154.532" width="8.58517" height="8.58517" fill="#092644"/>
<rect x="111.605" y="154.532" width="8.58517" height="8.58517" fill="#0A2745"/>
<rect x="120.195" y="154.532" width="8.58517" height="8.58517" fill="#0A2745"/>
<rect x="128.779" y="154.532" width="8.58517" height="8.58517" fill="#092743"/>
<rect y="163.121" width="8.58517" height="8.58517" fill="#595764"/>
<rect x="8.58398" y="163.121" width="8.58517" height="8.58517" fill="#0A2745"/>
<rect x="17.1699" y="163.121" width="8.58517" height="8.58517" fill="#0A2745"/>
<rect x="25.7598" y="163.121" width="8.58517" height="8.58517" fill="#0A2745"/>
<rect x="34.3398" y="163.121" width="8.58517" height="8.58517" fill="#0A2745"/>
<rect x="42.9258" y="163.121" width="8.58517" height="8.58517" fill="#1E3B59"/>
<rect x="51.5137" y="163.121" width="8.58517" height="8.58517" fill="#2B4965"/>
<rect x="60.0996" y="163.121" width="8.58517" height="8.58517" fill="#2C4A66"/>
<rect x="68.6836" y="163.121" width="8.58517" height="8.58517" fill="#1E3D5A"/>
<rect x="77.2656" y="163.121" width="8.58517" height="8.58517" fill="#1E3D5A"/>
<rect x="85.8516" y="163.121" width="8.58517" height="8.58517" fill="#1E3D5A"/>
<rect x="94.4395" y="163.121" width="8.58517" height="8.58517" fill="#0A2745"/>
<rect x="103.025" y="163.121" width="8.58517" height="8.58517" fill="#0A2745"/>
<rect x="111.605" y="163.121" width="8.58517" height="8.58517" fill="#0A2745"/>
<rect x="120.195" y="163.121" width="8.58517" height="8.58517" fill="#0A2745"/>
<rect x="128.779" y="163.121" width="8.58517" height="8.58517" fill="#0A2745"/>
<rect y="171.706" width="8.58517" height="8.58517" fill="#565661"/>
<rect x="8.58398" y="171.706" width="8.58517" height="8.58517" fill="#0A2543"/>
<rect x="17.1699" y="171.706" width="8.58517" height="8.58517" fill="#0A2745"/>
<rect x="25.7598" y="171.706" width="8.58517" height="8.58517" fill="#0A2745"/>
<rect x="34.3398" y="171.706" width="8.58517" height="8.58517" fill="#132E4B"/>
<rect x="42.9277" y="171.706" width="8.58517" height="8.58517" fill="#1F3D59"/>
<rect x="51.5137" y="171.706" width="8.58517" height="8.58517" fill="#2C4A66"/>
<rect x="60.0996" y="171.706" width="8.58517" height="8.58517" fill="#1E3D5A"/>
<rect x="68.6836" y="171.706" width="8.58517" height="8.58517" fill="#1E3D5A"/>
<rect x="77.2656" y="171.706" width="8.58517" height="8.58517" fill="#1E3D5A"/>
<rect x="85.8516" y="171.706" width="8.58517" height="8.58517" fill="#203D5B"/>
<rect x="94.4395" y="171.706" width="8.58517" height="8.58517" fill="#0A2745"/>
<rect x="103.025" y="171.706" width="8.58517" height="8.58517" fill="#0A2745"/>
<rect x="111.605" y="171.706" width="8.58517" height="8.58517" fill="#0A2745"/>
<rect x="120.195" y="171.706" width="8.58517" height="8.58517" fill="#072642"/>
<rect x="128.779" y="171.706" width="8.58517" height="8.58517" fill="#092A49"/>
<rect x="17.1699" y="180.292" width="8.58517" height="8.58517" fill="#0A2745"/>
<rect x="25.7598" y="180.292" width="8.58517" height="8.58517" fill="#0A2844"/>
<rect x="34.3398" y="180.292" width="8.58517" height="8.58517" fill="#0A2542"/>
<rect x="42.9258" y="180.292" width="8.58517" height="8.58517" fill="#15304D"/>
<rect x="51.5137" y="180.292" width="8.58517" height="8.58517" fill="#0A2745"/>
<rect x="60.0996" y="180.292" width="8.58517" height="8.58517" fill="#0A2745"/>
<rect x="68.6836" y="180.292" width="8.58517" height="8.58517" fill="#0A2745"/>
<rect x="77.2656" y="180.292" width="8.58517" height="8.58517" fill="#0A2745"/>
<rect x="85.8516" y="180.292" width="8.58517" height="8.58517" fill="#0A2745"/>
<rect x="94.4395" y="180.292" width="8.58517" height="8.58517" fill="#0A2745"/>
<rect x="103.025" y="180.292" width="8.58517" height="8.58517" fill="#0A2745"/>
<rect x="111.605" y="180.292" width="8.58517" height="8.58517" fill="#0A2745"/>
<rect x="120.195" y="180.292" width="8.58517" height="8.58517" fill="#0C2745"/>
<rect x="25.7598" y="188.876" width="8.58517" height="8.58517" fill="#122F4D"/>
<rect x="34.3398" y="188.876" width="8.58517" height="8.58517" fill="#0E2946"/>
<rect x="42.9258" y="188.876" width="8.58517" height="8.58517" fill="#0A2745"/>
<rect x="51.5137" y="188.876" width="8.58517" height="8.58517" fill="#0A2745"/>
<rect x="60.0996" y="188.876" width="8.58517" height="8.58517" fill="#0A2745"/>
<rect x="68.6836" y="188.876" width="8.58517" height="8.58517" fill="#0A2745"/>
<rect x="77.2656" y="188.876" width="8.58517" height="8.58517" fill="#0A2745"/>
<rect x="85.8516" y="188.876" width="8.58517" height="8.58517" fill="#0A2745"/>
<rect x="94.4395" y="188.876" width="8.58517" height="8.58517" fill="#0A2745"/>
<rect x="103.025" y="188.876" width="8.58517" height="8.58517" fill="#0A2745"/>
<rect x="111.605" y="188.876" width="8.58517" height="8.58517" fill="#7A8999"/>
<rect x="42.9277" y="197.457" width="8.58517" height="8.58517" fill="#0A2745"/>
<rect x="51.5137" y="197.457" width="8.58517" height="8.58517" fill="#0A2745"/>
<rect x="60.0996" y="197.457" width="8.58517" height="8.58517" fill="#0A2745"/>
<rect x="68.6836" y="197.457" width="8.58517" height="8.58517" fill="#0A2745"/>
<rect x="77.2656" y="197.457" width="8.58517" height="8.58517" fill="#0A2745"/>
<rect x="85.8516" y="197.457" width="8.58517" height="8.58517" fill="#0A2745"/>
<rect x="94.4395" y="197.457" width="8.58517" height="8.58517" fill="#0A2745"/>
<rect x="42.9258" y="206.044" width="8.58517" height="8.58517" fill="#BFBFBF"/>
<rect x="51.5137" y="206.044" width="8.58517" height="8.58517" fill="#BFBFBF"/>
<rect x="60.0996" y="206.044" width="8.58517" height="8.58517" fill="#BFBFBF"/>
<rect x="68.6836" y="206.044" width="8.58517" height="8.58517" fill="#BFBFBF"/>
<rect x="77.2656" y="206.044" width="8.58517" height="8.58517" fill="#BFBFBF"/>
<rect x="85.8516" y="206.044" width="8.58517" height="8.58517" fill="#CCCCCC"/>
<rect x="94.4395" y="206.044" width="8.58517" height="8.58517" fill="#BFBFBF"/>
</svg>
