<svg width="566" height="720" viewBox="0 0 566 720" fill="none" xmlns="http://www.w3.org/2000/svg">
<g clip-path="url(#clip0_914_23957)">
<path d="M629.915 0V5.21008H600.859V14.4638H591.388V5.21008H581.435V14.075H571.884V5.21008H562.092V14.075H552.54V5.21008H542.587V0.233278L629.915 0Z" fill="#B391E2" fill-opacity="0.07"/>
<path d="M455.42 0V4.66575H446.029V0H455.42Z" fill="#B391E2" fill-opacity="0.07"/>
<path d="M290.878 871.33L290.397 880.195H280.925V889.682H271.454V899.014H280.604V908.656H290.718V918.066H281.006V927.242H290.798V936.651H416.652V927.242H426.605V937.195H436.076V946.138H368.574V955.469L358.862 955.936V946.138H348.588V955.547H339.278V964.412H329.646V955.547H319.854V964.568H310.302V974.21H319.533V983.464H310.302V992.796H319.452C319.452 1002.67 319.452 1012.16 319.452 1021.65L310.142 1021.02V1002.59H300.189V983.775H271.294V974.21H290.316V965.034H251.549V974.366H242.318V983.775H232.446V974.521H222.653V983.775H96.4778V974.133H87.0067V964.801H96.1568V955.314L87.0067 955.781V946.138H67.7432V936.962H86.6856V918.221H67.663V909.201H96.4778V918.066H193.437V908.89H232.044V899.48H261.421V871.408H270.812V852.745H232.125V843.258H261.501V833.693H271.294V824.362H290.557V806.01H299.788C299.788 808.965 299.788 811.92 300.269 815.186L310.944 813.941C310.944 817.052 310.382 820.24 310.061 823.584H319.693V814.719L310.944 813.941L310.382 804.921H318.971V795.278L328.923 795.978V777.315H309.901V786.647H319.051V795.356L309.5 795.978V804.999L299.547 805.699L300.028 795.745H290.316V777.004H270.892V767.284H261.662V758.03H271.053V748.621H280.203V739.212H271.053V729.647H298.664C299.231 729.529 299.774 729.318 300.269 729.025V739.212H309.339C309.74 742.478 310.061 745.51 310.463 748.543H290.718V767.284H309.981C309.981 765.651 309.981 764.173 309.981 762.696C309.981 758.03 309.981 753.442 309.981 748.776H319.131V739.6H328.763V748.388H338.234V739.134H328.843V729.802H323.144H299.707V720.626H270.652V711.373H318.81V720.626H328.602V711.761H338.234V730.191H357.417V739.445H348.107V758.186H338.555V814.33H347.384L348.187 823.973H377.082V814.486H386.473L386.955 824.206H396.105V833.46H328.763V842.791H318.971V852.123H309.5V843.102H299.627V833.849H290.076V842.947H299.226V852.201H280.283V871.019L290.316 871.564L290.878 871.33ZM184.207 927.319V936.651H203.069V927.319H184.207ZM125.614 965.112H116.303V974.133H125.614V965.112ZM125.614 927.319H116.383V936.573H125.614V927.319Z" fill="#B391E2" fill-opacity="0.07"/>
<path d="M339.358 673.969L338.876 664.17H310.222V654.839H300.349V645.43H290.958V636.098H319.372V627.311L329.245 626.533V635.865H377.403V627.311H386.955V599.316H396.667V608.181L406.78 608.803V617.513H435.274V627.078H407.262V636.565H397.63V645.818H368.574V655.383H358.862V664.637H349.391C349.391 668.214 348.829 671.402 348.669 674.591H339.599L339.358 673.969Z" fill="#B391E2" fill-opacity="0.07"/>
<path d="M203.631 551.492H212.781V561.135H280.685V570.777H290.958L290.477 579.876H281.006V589.674H271.615L271.133 579.953H261.742V570.777H232.446V579.876H222.653V589.285H212.941V598.772H222.653V608.103H203.631V626.922H193.838V636.331H203.31V645.663H193.919C193.919 649.24 193.437 652.35 193.196 655.383H184.287V645.74H174.495V636.487H183.805V617.59H193.437V599.161H203.149V589.907H193.838V580.575H203.149V571.244H193.838V561.912H203.069L203.631 551.959V551.492Z" fill="#B391E2" fill-opacity="0.07"/>
<path d="M310.463 314.394L300.269 314.861V324.037H280.845V342.7H271.213V352.42H261.582V361.363H251.709V371.316H242.479L242.077 361.596H232.606V352.576H242.158V342.933H261.582V333.602H270.812V314.861H280.203V305.685L290.236 305.14V296.042H299.868V286.788H309.821V276.913H338.796V286.711H329.084V295.887H319.211V305.374H309.419L309.981 314.472L310.463 314.394Z" fill="#B391E2" fill-opacity="0.07"/>
<path d="M203.711 551.415H193.919V446.124H203.229V436.948H193.919V427.383H203.31V418.13H212.861V408.954H222.493V436.715H213.182V445.969H222.653V455.456H213.102V464.865H203.791V533.141H212.941V542.239H203.711V551.493V551.415Z" fill="#B391E2" fill-opacity="0.07"/>
<path d="M446.029 145.183H435.916V154.437H426.525V163.457L416.492 164.079V173.255H407.262V182.509H397.63V173.955H387.998V164.624H407.021V145.805H417.054L416.412 136.474H426.605V127.142H445.949V108.246H455.42V98.5254H465.534V108.401H474.925V117.577H465.213V127.142H455.42V136.551H446.029V145.183Z" fill="#B391E2" fill-opacity="0.07"/>
<path d="M494.429 79.5507L503.659 80.1728V70.7635H532.956V61.5098H542.507V51.8672H571.081L571.884 61.5098H552.38V70.8413H542.828V80.095H523.244V89.8154H513.612V98.5248H494.268V117.11H484.717V108.323H474.844V98.5248H465.453V89.5043H494.027L494.509 79.4729L494.429 79.5507Z" fill="#B391E2" fill-opacity="0.07"/>
<path d="M368.093 276.679L358.461 277.224V286.555H348.428V276.835H339.117V267.581H348.428V258.716H357.979V249.073H348.909V239.897H358.14V220.923H367.771V202.183H377.644V183.52H396.667V192.696H387.436V202.027H396.667V211.203H377.644V230.099H368.012V258.405H377.323V267.814H367.771V276.757L368.093 276.679Z" fill="#B391E2" fill-opacity="0.07"/>
<path d="M184.046 729.957V702.041H174.495V693.02H193.196V711.372H241.355L241.917 720.859H231.723V730.268H222.573V739.833H231.964V748.931H241.917L241.355 758.185H212.38V749.009H202.908V739.833H212.219V720.626H192.875V729.568H183.565L184.046 729.957Z" fill="#B391E2" fill-opacity="0.07"/>
<path d="M610.17 182.976V192.618H600.859V201.95H591.147V211.203H581.515V220.69H571.723V230.022H562.172V239.509H552.38V248.841H542.668V258.405H533.036V267.737H523.244V239.742H542.507V230.722H552.38V221.39H562.011V211.437H571.723V202.183H581.355V193.007H590.987V183.053H610.17V182.976Z" fill="#B391E2" fill-opacity="0.07"/>
<path d="M494.429 523.809V532.752H416.653V542.317H407.262V551.571H397.55L397.148 560.902H387.998V542.55H397.469V533.141H407.101V523.732H475.246V511.601H484.717V523.265L494.91 523.809H494.429Z" fill="#B391E2" fill-opacity="0.07"/>
<path d="M338.876 580.654V608.182H290.718V580.654H338.876Z" fill="#B391E2" fill-opacity="0.07"/>
<path d="M446.029 418.208V427.228H455.42V436.715H407.262V445.813H397.79V427.539H416.653V418.208H426.686V427.228H436.157V418.363H446.431L446.029 418.208Z" fill="#B391E2" fill-opacity="0.07"/>
<path d="M135.567 729.958H154.83V711.761H164.382V729.958H183.886V739.834H174.495V748.932H164.863V739.834H155.071L155.552 748.932H145.439V739.756H136.048V729.88L135.567 729.958Z" fill="#B391E2" fill-opacity="0.07"/>
<path d="M252.03 599.005H261.421V617.435H271.053V636.098H280.604V645.741H290.397V654.761H271.374V645.585H261.662V627.311H252.03V599.005Z" fill="#B391E2" fill-opacity="0.07"/>
<path d="M271.534 464.71H261.501V473.575H251.87V464.787H242.238V473.497H232.606V464.71H223.135V455.223H232.365V445.969H242.077V454.989H251.709V446.047H261.18L261.662 455.145H270.812C270.812 458.411 270.812 461.444 271.294 464.399L271.534 464.71Z" fill="#B391E2" fill-opacity="0.07"/>
<path d="M522.842 570.311L523.404 579.953H532.635V589.207H503.579V598.461H493.947V607.87H484.637V580.109H513.13C513.13 576.532 513.13 573.421 513.692 570.311H522.682H522.842Z" fill="#B391E2" fill-opacity="0.07"/>
<path d="M232.526 407.943L223.055 408.643V399.389H213.263V390.058H222.653L223.456 380.104H232.446V371.317H242.559V380.493H252.03V389.902H242.479V399.389H232.847V408.254L232.526 407.943Z" fill="#B391E2" fill-opacity="0.07"/>
<path d="M533.598 570.233H562.011V561.524H571.563V570.389H581.194V579.643H571.723V588.663H562.172V579.72H552.379V588.663H542.748V579.876H532.875L533.678 570.233H533.598Z" fill="#B391E2" fill-opacity="0.07"/>
<path d="M503.579 551.415V561.68L494.429 561.058V570.467H484.637V579.876H475.005V589.208H465.774V561.524H484.637V551.648H503.579V551.415Z" fill="#B391E2" fill-opacity="0.07"/>
<path d="M223.135 682.912H241.997V692.632H261.421V702.119H271.294V711.062H251.87V702.119H232.446V692.632H222.653L223.296 682.912H223.135Z" fill="#B391E2" fill-opacity="0.07"/>
<path d="M212.701 673.968H193.116C193.116 667.67 193.116 661.449 193.116 655.228H222.653V664.248H213.263C213.263 667.747 213.262 670.936 212.701 674.124V673.968Z" fill="#B391E2" fill-opacity="0.07"/>
<path d="M116.223 739.834V730.114H106.671V720.627H116.062V711.528H125.614V720.627H135.566V729.88H125.453V739.756H116.062L116.223 739.834Z" fill="#B391E2" fill-opacity="0.07"/>
<path d="M125.453 673.969L125.855 664.326H116.303V655.15H125.694V646.052H135.165V673.969H125.293H125.453Z" fill="#B391E2" fill-opacity="0.07"/>
<path d="M503.579 551.571L504.141 542.55H513.692V533.297L523.244 532.83V542.628H533.357V551.571H503.579Z" fill="#B391E2" fill-opacity="0.07"/>
<path d="M290.958 570.778V561.524H319.773V570.622H291.28L290.958 570.778Z" fill="#B391E2" fill-opacity="0.07"/>
<path d="M193.116 673.969L193.598 683.067H174.495V673.969H193.196H193.116Z" fill="#B391E2" fill-opacity="0.07"/>
<path d="M494.509 523.965V511.601H503.579V523.42H494.589L494.509 523.965Z" fill="#B391E2" fill-opacity="0.07"/>
<path d="M212.861 276.756L222.653 277.379V286.321H213.102V276.679L212.861 276.756Z" fill="#B391E2" fill-opacity="0.07"/>
<path d="M533.357 427.228L532.635 436.637H523.404V427.305H533.357V427.228Z" fill="#B391E2" fill-opacity="0.07"/>
<path d="M513.451 617.669V626.534H504.06V617.669H513.451Z" fill="#B391E2" fill-opacity="0.07"/>
<path d="M523.485 296.121H532.715V305.063H523.485V296.121Z" fill="#B391E2" fill-opacity="0.07"/>
<path d="M241.837 436.637H232.606V427.616H241.837V436.637Z" fill="#B391E2" fill-opacity="0.07"/>
<path d="M532.635 42.3032H523.485V33.2827H532.635V42.3032Z" fill="#B391E2" fill-opacity="0.07"/>
<path d="M523.244 276.679L532.635 277.457V286.4H523.404V276.602L523.244 276.679Z" fill="#B391E2" fill-opacity="0.07"/>
<path d="M503.98 286.4V277.379H513.291V286.4H503.98Z" fill="#B391E2" fill-opacity="0.07"/>
<path d="M368.012 276.756L377.483 277.456V286.399H368.092V276.679L368.012 276.756Z" fill="#B391E2" fill-opacity="0.07"/>
<path d="M232.526 408.02L241.837 408.953V417.74H232.526V407.942V408.02Z" fill="#B391E2" fill-opacity="0.07"/>
<path d="M513.371 417.896H504.141V408.954H513.371V417.896Z" fill="#B391E2" fill-opacity="0.07"/>
<path d="M532.715 164.779V173.722H523.485V164.779H532.715Z" fill="#B391E2" fill-opacity="0.07"/>
<path d="M533.598 417.819H523.404V408.876H532.554L533.518 417.896L533.598 417.819Z" fill="#B391E2" fill-opacity="0.07"/>
<path d="M504.06 51.8672H513.291V60.8099H504.06V51.8672Z" fill="#B391E2" fill-opacity="0.07"/>
<path d="M523.485 51.8672H532.635V60.8876H523.485V51.8672Z" fill="#B391E2" fill-opacity="0.07"/>
<path d="M523.404 183.364H532.715V192.384H523.404V183.364Z" fill="#B391E2" fill-opacity="0.07"/>
<path d="M368.253 417.819V408.876H377.483V417.819H368.253Z" fill="#B391E2" fill-opacity="0.07"/>
<path d="M47.9982 607.948H38.848V599.083H47.9982V607.948Z" fill="#B391E2" fill-opacity="0.07"/>
<path d="M241.837 286.478H232.687V277.379H241.837V286.478Z" fill="#B391E2" fill-opacity="0.07"/>
<path d="M532.715 599.005V607.87H523.485V599.005H532.715Z" fill="#B391E2" fill-opacity="0.07"/>
<path d="M377.564 626.612H368.333V617.669H377.564V626.612Z" fill="#B391E2" fill-opacity="0.07"/>
<path d="M368.092 305.685V296.121H377.564V305.141L368.012 305.608L368.092 305.685Z" fill="#B391E2" fill-opacity="0.07"/>
<path d="M359.103 305.452H349.471V296.121H358.942V305.608L359.103 305.452Z" fill="#B391E2" fill-opacity="0.07"/>
<path d="M377.484 154.981H368.414V146.039H377.484V154.981Z" fill="#B391E2" fill-opacity="0.07"/>
<path d="M523.485 145.883H532.635V154.981H523.485V145.883Z" fill="#B391E2" fill-opacity="0.07"/>
<path d="M222.653 305.219H213.503V296.121H222.653V305.219Z" fill="#B391E2" fill-opacity="0.07"/>
<path d="M358.14 173.8H349.07V164.624H358.14V173.8Z" fill="#B391E2" fill-opacity="0.07"/>
<path d="M377.564 173.799H368.414V164.701H377.564V173.799Z" fill="#B391E2" fill-opacity="0.07"/>
<path d="M377.483 607.948H368.494V599.083H377.483V607.948Z" fill="#B391E2" fill-opacity="0.07"/>
<path d="M67.4221 599.083V607.871H58.1917V599.083H67.4221Z" fill="#B391E2" fill-opacity="0.07"/>
<path d="M504.141 33.127H513.291V42.2252H504.141V33.127Z" fill="#B391E2" fill-opacity="0.07"/>
<path d="M504.06 164.624H513.291V173.645H504.06V164.624Z" fill="#B391E2" fill-opacity="0.07"/>
<path d="M504.141 427.461H513.291V436.56H504.141V427.461Z" fill="#B391E2" fill-opacity="0.07"/>
<path d="M358.22 427.539V436.56H349.07V427.539H358.22Z" fill="#B391E2" fill-opacity="0.07"/>
<path d="M407.262 183.053H416.412V192.463H407.262V182.976V183.053Z" fill="#B391E2" fill-opacity="0.07"/>
<path d="M435.675 193.085L426.686 192.385V183.442H435.595V193.162L435.675 193.085Z" fill="#B391E2" fill-opacity="0.07"/>
<path d="M446.19 193.162L445.708 183.52H455.42V192.384L446.35 193.084L446.19 193.162Z" fill="#B391E2" fill-opacity="0.07"/>
<path d="M446.029 193.085V201.95H435.434V193.085H445.788H446.029Z" fill="#B391E2" fill-opacity="0.07"/>
<path d="M358.22 211.126H348.99V202.261H358.22V211.126Z" fill="#B391E2" fill-opacity="0.07"/>
<path d="M513.291 211.126H504.06V202.261H513.291V211.126Z" fill="#B391E2" fill-opacity="0.07"/>
<path d="M523.404 211.047V202.338H532.715V211.047H523.404Z" fill="#B391E2" fill-opacity="0.07"/>
<path d="M368.333 523.809H377.564V532.674H368.333V523.809Z" fill="#B391E2" fill-opacity="0.07"/>
<path d="M523.163 532.829V523.887H532.715L533.196 532.752H523.083L523.163 532.829Z" fill="#B391E2" fill-opacity="0.07"/>
<path d="M513.451 239.976V248.685H504.06V239.976H513.451Z" fill="#B391E2" fill-opacity="0.07"/>
<path d="M542.507 542.706H533.197V532.752H542.427V543.017L542.507 542.706Z" fill="#B391E2" fill-opacity="0.07"/>
<path d="M561.851 532.519V542.705H552.46V533.53L561.77 532.752L561.851 532.519Z" fill="#B391E2" fill-opacity="0.07"/>
<path d="M368.414 108.401H377.564V117.266H368.414V108.401Z" fill="#B391E2" fill-opacity="0.07"/>
<path d="M280.524 276.68V267.893H290.878L290.397 277.146L280.444 276.524L280.524 276.68Z" fill="#B391E2" fill-opacity="0.07"/>
<path d="M484.957 164.624H493.867V173.645H484.957V164.624Z" fill="#B391E2" fill-opacity="0.07"/>
<path d="M474.603 164.701V173.644H465.534V164.701H474.603Z" fill="#B391E2" fill-opacity="0.07"/>
<path d="M280.444 276.524V286.4H271.454V277.379L280.524 276.524H280.444Z" fill="#B391E2" fill-opacity="0.07"/>
<path d="M455.42 173.722H446.511V164.624H455.42V173.722Z" fill="#B391E2" fill-opacity="0.07"/>
<path d="M426.525 164.156L435.675 164.701V173.643H426.605V164.079L426.525 164.156Z" fill="#B391E2" fill-opacity="0.07"/>
<path d="M407.262 286.322V277.379H416.412V286.322H407.262Z" fill="#B391E2" fill-opacity="0.07"/>
<path d="M435.675 277.379V286.322H426.605V277.379H435.675Z" fill="#B391E2" fill-opacity="0.07"/>
<path d="M446.109 277.379H455.42V286.4H446.35L446.109 277.379Z" fill="#B391E2" fill-opacity="0.07"/>
<path d="M474.603 277.379V286.4H465.453V277.379H474.603Z" fill="#B391E2" fill-opacity="0.07"/>
<path d="M358.22 542.784V551.415H348.99V542.784H358.22Z" fill="#B391E2" fill-opacity="0.07"/>
<path d="M551.737 286.478H542.667V277.379H551.737V286.478Z" fill="#B391E2" fill-opacity="0.07"/>
<path d="M571.161 286.866L562.332 286.399V276.679L571.884 277.301L571.322 286.788L571.161 286.866Z" fill="#B391E2" fill-opacity="0.07"/>
<path d="M522.923 502.89L532.715 502.424V511.522H523.003V502.89H522.923Z" fill="#B391E2" fill-opacity="0.07"/>
<path d="M503.579 511.678L504.141 502.969H513.933L513.451 511.756H503.579V511.678Z" fill="#B391E2" fill-opacity="0.07"/>
<path d="M455.42 145.183V154.748H446.27V145.183H455.42Z" fill="#B391E2" fill-opacity="0.07"/>
<path d="M280.524 305.685L271.454 305.14V296.198H280.444V305.763L280.524 305.685Z" fill="#B391E2" fill-opacity="0.07"/>
<path d="M338.957 295.576V305.141H329.726V296.12L339.037 295.653L338.957 295.576Z" fill="#B391E2" fill-opacity="0.07"/>
<path d="M407.262 296.042H416.412V305.141H407.262V296.042Z" fill="#B391E2" fill-opacity="0.07"/>
<path d="M435.675 296.198V305.14H426.605V296.198H435.675Z" fill="#B391E2" fill-opacity="0.07"/>
<path d="M455.42 305.218H446.431V296.198H455.42V305.218Z" fill="#B391E2" fill-opacity="0.07"/>
<path d="M494.108 296.198V305.063H484.957V296.198H494.108Z" fill="#B391E2" fill-opacity="0.07"/>
<path d="M551.737 305.14H542.667V296.198H551.737V305.14Z" fill="#B391E2" fill-opacity="0.07"/>
<path d="M571.242 295.498L571.804 305.063H562.332V296.12L571.322 295.576L571.242 295.498Z" fill="#B391E2" fill-opacity="0.07"/>
<path d="M513.291 23.4844H504.06V14.6973H513.291V23.4844Z" fill="#B391E2" fill-opacity="0.07"/>
<path d="M232.606 502.891H241.756V511.833H232.606V502.891Z" fill="#B391E2" fill-opacity="0.07"/>
<path d="M503.579 561.679L513.612 561.135C513.612 564.556 513.612 567.511 514.093 570.466H504.221C504.221 567.589 503.739 564.712 503.579 561.757V561.679Z" fill="#B391E2" fill-opacity="0.07"/>
<path d="M533.678 570.234H522.923C522.923 567.356 522.923 564.479 523.404 561.369H532.554C532.554 564.324 533.196 567.201 533.598 570.078L533.678 570.234Z" fill="#B391E2" fill-opacity="0.07"/>
<path d="M503.98 324.037V314.939H513.371V324.037H503.98Z" fill="#B391E2" fill-opacity="0.07"/>
<path d="M561.931 492.704V502.891H552.701V493.404L562.011 493.015L561.931 492.704Z" fill="#B391E2" fill-opacity="0.07"/>
<path d="M523.003 502.891H513.933C513.933 499.547 513.933 496.126 513.933 492.704H522.762C522.762 496.126 522.762 499.625 522.762 503.046L523.003 502.891Z" fill="#B391E2" fill-opacity="0.07"/>
<path d="M310.944 333.213H300.349V324.503H309.901L310.703 333.368L310.944 333.213Z" fill="#B391E2" fill-opacity="0.07"/>
<path d="M426.605 333.291H416.251L416.974 324.271H426.445V333.369L426.605 333.291Z" fill="#B391E2" fill-opacity="0.07"/>
<path d="M222.653 342.544H213.423V333.679H222.653V342.544Z" fill="#B391E2" fill-opacity="0.07"/>
<path d="M348.588 342.622V333.757H358.14V342.622H348.187H348.588Z" fill="#B391E2" fill-opacity="0.07"/>
<path d="M368.012 342.622V333.602H378.206V342.778H368.173L368.012 342.622Z" fill="#B391E2" fill-opacity="0.07"/>
<path d="M532.635 342.544H523.404V333.679H532.635V342.544Z" fill="#B391E2" fill-opacity="0.07"/>
<path d="M0.0803223 607.87V599.005H9.15012V607.87H0.0803223Z" fill="#B391E2" fill-opacity="0.07"/>
<path d="M465.373 136.317L464.891 145.338H455.42V136.317H465.453H465.373Z" fill="#B391E2" fill-opacity="0.07"/>
<path d="M28.5742 607.948H19.5043V599.005H28.5742V607.948Z" fill="#B391E2" fill-opacity="0.07"/>
<path d="M339.358 352.576V342.389H348.669V352.265H339.438L339.358 352.576Z" fill="#B391E2" fill-opacity="0.07"/>
<path d="M358.541 342.622H367.932V352.498H359.103V342.544L358.541 342.622Z" fill="#B391E2" fill-opacity="0.07"/>
<path d="M387.356 352.498H378.045V342.544H387.436V352.654L387.356 352.498Z" fill="#B391E2" fill-opacity="0.07"/>
<path d="M406.7 342.311V352.497H397.55V343.244L406.7 342.388V342.311Z" fill="#B391E2" fill-opacity="0.07"/>
<path d="M523.324 136.163V127.375H532.715V136.163H523.324Z" fill="#B391E2" fill-opacity="0.07"/>
<path d="M493.867 42.3028H484.877V33.2046H493.867V42.3028Z" fill="#B391E2" fill-opacity="0.07"/>
<path d="M193.839 361.207V352.576H203.069V361.207H193.839Z" fill="#B391E2" fill-opacity="0.07"/>
<path d="M222.653 361.363H213.343V352.498H222.653V361.363Z" fill="#B391E2" fill-opacity="0.07"/>
<path d="M571.402 42.7698L562.332 42.3032V33.2827H571.322V42.8475L571.402 42.7698Z" fill="#B391E2" fill-opacity="0.07"/>
<path d="M358.541 352.343V361.208H348.99L348.508 352.343H358.541Z" fill="#B391E2" fill-opacity="0.07"/>
<path d="M378.045 352.343L377.564 361.363H368.012V352.343H378.045Z" fill="#B391E2" fill-opacity="0.07"/>
<path d="M513.291 361.363H504.06V352.576H513.291V361.363Z" fill="#B391E2" fill-opacity="0.07"/>
<path d="M532.635 361.363H523.485V352.576H532.635V361.363Z" fill="#B391E2" fill-opacity="0.07"/>
<path d="M223.296 380.103H213.263V371.394H222.653C222.653 374.427 223.135 377.304 223.296 380.181V380.103Z" fill="#B391E2" fill-opacity="0.07"/>
<path d="M503.98 136.007V127.375H513.371V136.007H503.98Z" fill="#B391E2" fill-opacity="0.07"/>
<path d="M348.99 380.181V371.394H358.14V380.181H348.99Z" fill="#B391E2" fill-opacity="0.07"/>
<path d="M368.333 371.394H377.564V380.181H368.333V371.394Z" fill="#B391E2" fill-opacity="0.07"/>
<path d="M513.371 380.182H503.98V371.472H513.371V380.182Z" fill="#B391E2" fill-opacity="0.07"/>
<path d="M532.635 380.259H523.485V371.394H532.635V380.259Z" fill="#B391E2" fill-opacity="0.07"/>
<path d="M522.923 492.705L523.404 483.995H532.635V492.627H522.923V492.705Z" fill="#B391E2" fill-opacity="0.07"/>
<path d="M514.013 492.705H504.141V483.995H513.371C513.371 487.028 513.371 489.905 513.933 492.782L514.013 492.705Z" fill="#B391E2" fill-opacity="0.07"/>
<path d="M407.262 608.57V599.005H416.332V607.87L407.181 608.492L407.262 608.57Z" fill="#B391E2" fill-opacity="0.07"/>
<path d="M435.675 61.0432H426.525V51.8672H435.675V61.0432Z" fill="#B391E2" fill-opacity="0.07"/>
<path d="M203.069 399.078H193.919V390.135H203.069V399.078Z" fill="#B391E2" fill-opacity="0.07"/>
<path d="M465.614 51.8672H474.523V60.8099H465.614V51.8672Z" fill="#B391E2" fill-opacity="0.07"/>
<path d="M445.949 607.793V599.083H455.42V607.793H445.949Z" fill="#B391E2" fill-opacity="0.07"/>
<path d="M358.22 390.058V398.923H349.07V390.058H358.22Z" fill="#B391E2" fill-opacity="0.07"/>
<path d="M368.414 390.058H377.484V399H368.414V390.058Z" fill="#B391E2" fill-opacity="0.07"/>
<path d="M571.402 607.948H562.413V599.083H571.402V607.948Z" fill="#B391E2" fill-opacity="0.07"/>
<path d="M503.98 399V390.212H513.371V399H503.98Z" fill="#B391E2" fill-opacity="0.07"/>
<path d="M523.404 390.135H532.635V399H523.404V390.135Z" fill="#B391E2" fill-opacity="0.07"/>
<path d="M368.333 492.704V484.072H377.564V492.704H368.333Z" fill="#B391E2" fill-opacity="0.07"/>
<path d="M135.807 408.798H144.877V417.741H135.807V408.798Z" fill="#B391E2" fill-opacity="0.07"/>
<path d="M164.382 418.129H155.231V408.798H164.301V418.207L164.382 418.129Z" fill="#B391E2" fill-opacity="0.07"/>
<path d="M358.14 136.162H349.07V127.22H358.14V136.162Z" fill="#B391E2" fill-opacity="0.07"/>
<path d="M252.03 408.798H261.18V417.818H252.03V408.798Z" fill="#B391E2" fill-opacity="0.07"/>
<path d="M271.454 408.798H280.444V417.818H271.454V408.798Z" fill="#B391E2" fill-opacity="0.07"/>
<path d="M300.028 417.896H290.958V408.798H300.028V417.896Z" fill="#B391E2" fill-opacity="0.07"/>
<path d="M426.525 418.207V408.876H435.756V418.052H426.284L426.525 418.207Z" fill="#B391E2" fill-opacity="0.07"/>
<path d="M446.109 418.285V408.798H455.42V418.207H446.431L446.109 418.285Z" fill="#B391E2" fill-opacity="0.07"/>
<path d="M474.603 417.896H465.534V408.954H474.603V417.896Z" fill="#B391E2" fill-opacity="0.07"/>
<path d="M542.908 418.363V408.798H551.738V417.818H542.507L542.908 418.363Z" fill="#B391E2" fill-opacity="0.07"/>
<path d="M562.332 408.798H571.402V417.741H562.332V408.798Z" fill="#B391E2" fill-opacity="0.07"/>
<path d="M241.837 492.782H232.526V484.072H241.837V492.782Z" fill="#B391E2" fill-opacity="0.07"/>
<path d="M213.182 483.995H222.654V492.705H213.343L213.182 483.995Z" fill="#B391E2" fill-opacity="0.07"/>
<path d="M116.303 427.539H125.373V436.56H116.303V427.539Z" fill="#B391E2" fill-opacity="0.07"/>
<path d="M164.221 426.917V436.559H155.231V427.616L164.301 426.994L164.221 426.917Z" fill="#B391E2" fill-opacity="0.07"/>
<path d="M261.18 436.637H252.03V427.539H261.18V436.637Z" fill="#B391E2" fill-opacity="0.07"/>
<path d="M280.524 436.637H271.534V427.539H280.524V436.637Z" fill="#B391E2" fill-opacity="0.07"/>
<path d="M290.878 436.56V427.539H299.868V436.56H290.878Z" fill="#B391E2" fill-opacity="0.07"/>
<path d="M310.302 436.559V427.616H319.372V436.559H310.302Z" fill="#B391E2" fill-opacity="0.07"/>
<path d="M474.603 427.616V436.637H465.453V427.616H474.603Z" fill="#B391E2" fill-opacity="0.07"/>
<path d="M493.947 436.559H484.877V427.616H493.947V436.559Z" fill="#B391E2" fill-opacity="0.07"/>
<path d="M542.668 427.15H551.738V436.559H542.507C542.507 433.371 542.507 430.183 542.507 427.072L542.668 427.15Z" fill="#B391E2" fill-opacity="0.07"/>
<path d="M571.402 436.637H562.332V427.539H571.402V436.637Z" fill="#B391E2" fill-opacity="0.07"/>
<path d="M474.764 117.5H484.155V126.753L474.764 127.22V117.422V117.5Z" fill="#B391E2" fill-opacity="0.07"/>
<path d="M513.371 701.885H504.141V693.02H513.371V701.885Z" fill="#B391E2" fill-opacity="0.07"/>
<path d="M359.103 693.02L358.621 701.807H349.391V692.631L359.183 693.098L359.103 693.02Z" fill="#B391E2" fill-opacity="0.07"/>
<path d="M77.3749 701.807V693.02H86.7659V701.807H77.3749Z" fill="#B391E2" fill-opacity="0.07"/>
<path d="M47.9179 701.808H38.6875V692.943H47.9179V701.808Z" fill="#B391E2" fill-opacity="0.07"/>
<path d="M406.78 682.912V692.243H397.55V683.067H407.262L406.78 682.912Z" fill="#B391E2" fill-opacity="0.07"/>
<path d="M359.103 682.911H367.932L368.414 692.243L358.942 693.02C358.942 689.599 358.942 686.177 358.942 682.756L359.103 682.911Z" fill="#B391E2" fill-opacity="0.07"/>
<path d="M503.98 446.28H513.371V455.145H503.98V446.28Z" fill="#B391E2" fill-opacity="0.07"/>
<path d="M523.485 673.969H532.715V682.834H523.485V673.969Z" fill="#B391E2" fill-opacity="0.07"/>
<path d="M367.852 682.989L368.414 674.202H377.483V682.911H367.852V682.989Z" fill="#B391E2" fill-opacity="0.07"/>
<path d="M359.103 682.833H349.311C349.311 679.956 348.749 677.001 348.508 674.046H358.381C358.381 676.845 358.862 679.8 359.103 682.755V682.833Z" fill="#B391E2" fill-opacity="0.07"/>
<path d="M223.296 682.833H213.263C213.263 679.956 212.861 677.001 212.701 674.046H222.654C222.654 676.923 223.055 679.8 223.296 682.755V682.833Z" fill="#B391E2" fill-opacity="0.07"/>
<path d="M164.622 664.015L173.772 664.792V673.968H164.703V664.326L164.622 664.015Z" fill="#B391E2" fill-opacity="0.07"/>
<path d="M523.404 655.228H532.715V664.092H523.404V655.228Z" fill="#B391E2" fill-opacity="0.07"/>
<path d="M504.06 655.306H513.291V664.093H504.06V655.306Z" fill="#B391E2" fill-opacity="0.07"/>
<path d="M435.755 655.072V645.974H445.548V655.072H435.194H435.755Z" fill="#B391E2" fill-opacity="0.07"/>
<path d="M155.392 654.839H145.439V646.052H154.429C154.429 649.007 155.071 651.962 155.312 654.917L155.392 654.839Z" fill="#B391E2" fill-opacity="0.07"/>
<path d="M291.039 464.631H280.444L281.006 455.533H290.236C290.236 458.643 290.236 461.598 290.878 464.553L291.039 464.631Z" fill="#B391E2" fill-opacity="0.07"/>
<path d="M310.944 464.709H300.51V456.233H310.061L310.864 465.098L310.944 464.709Z" fill="#B391E2" fill-opacity="0.07"/>
<path d="M533.357 636.332L532.635 645.353H523.404V636.487H533.357V636.332Z" fill="#B391E2" fill-opacity="0.07"/>
<path d="M58.0312 645.274V636.409H67.3418V645.274H58.0312Z" fill="#B391E2" fill-opacity="0.07"/>
<path d="M349.07 465.02H358.14V473.885H349.07V465.02Z" fill="#B391E2" fill-opacity="0.07"/>
<path d="M377.564 465.176V473.963H368.414V465.176H377.564Z" fill="#B391E2" fill-opacity="0.07"/>
<path d="M562.252 626.611V617.59H571.402V626.611H562.252Z" fill="#B391E2" fill-opacity="0.07"/>
<path d="M513.853 465.02L513.371 473.885H504.141V465.176H514.013L513.853 465.02Z" fill="#B391E2" fill-opacity="0.07"/>
<path d="M533.437 465.099L532.635 473.886H523.404C523.404 471.009 523.404 468.054 523.404 465.099H533.839H533.437Z" fill="#B391E2" fill-opacity="0.07"/>
<path d="M542.908 627.311V617.513H551.737V626.455L542.427 627.233L542.908 627.311Z" fill="#B391E2" fill-opacity="0.07"/>
<path d="M465.453 626.612V617.669H474.603V626.612H465.453Z" fill="#B391E2" fill-opacity="0.07"/>
<path d="M455.42 626.612H446.35V617.669H455.42V626.612Z" fill="#B391E2" fill-opacity="0.07"/>
<path d="M319.372 627.311L310.382 626.3V617.436H319.372V627.311Z" fill="#B391E2" fill-opacity="0.07"/>
<path d="M523.485 108.479H532.715V117.266H523.485V108.479Z" fill="#B391E2" fill-opacity="0.07"/>
<path d="M28.6544 617.59V626.611H19.5845V617.59H28.6544Z" fill="#B391E2" fill-opacity="0.07"/>
<path d="M9.15014 626.612H0V617.669H9.15014V626.612Z" fill="#B391E2" fill-opacity="0.07"/>
<path d="M493.947 626.688H484.957V617.746H493.947V626.688Z" fill="#B391E2" fill-opacity="0.07"/>
<path d="M532.635 455.222H523.404V446.357H532.635V455.222Z" fill="#B391E2" fill-opacity="0.07"/>
<path d="M86.204 720.626H77.134V711.761H86.204V720.626Z" fill="#B391E2" fill-opacity="0.07"/>
<path d="M377.564 720.626H368.333V711.761H377.564V720.626Z" fill="#B391E2" fill-opacity="0.07"/>
<path d="M523.404 711.684H532.715V720.626H523.404V711.684Z" fill="#B391E2" fill-opacity="0.07"/>
<path d="M484.877 408.798H494.027V417.818H484.877V408.798Z" fill="#B391E2" fill-opacity="0.07"/>
<path d="M329.806 408.798H338.876V417.818H329.806V408.798Z" fill="#B391E2" fill-opacity="0.07"/>
<path d="M493.947 60.9654H484.877V51.8672H493.947V60.9654Z" fill="#B391E2" fill-opacity="0.07"/>
<path d="M396.907 51.8672V60.8099H387.757V51.8672H396.907Z" fill="#B391E2" fill-opacity="0.07"/>
<path d="M368.333 589.052V580.654H377.484V589.363L368.333 589.052Z" fill="#B391E2" fill-opacity="0.07"/>
<path d="M349.07 589.13V580.654H358.22V589.441L349.07 589.13Z" fill="#B391E2" fill-opacity="0.07"/>
<path d="M241.837 589.208H232.687V580.654H241.837V589.208Z" fill="#B391E2" fill-opacity="0.07"/>
<path d="M523.404 314.861H532.715V324.037H523.404V314.861Z" fill="#B391E2" fill-opacity="0.07"/>
<path d="M367.691 314.861H377.564V324.037H368.414C368.414 321.004 368.414 318.049 367.852 315.094L367.691 314.861Z" fill="#B391E2" fill-opacity="0.07"/>
<path d="M358.541 314.549V324.036H349.07V314.705H358.621L358.541 314.549Z" fill="#B391E2" fill-opacity="0.07"/>
<path d="M241.917 314.939V324.037H232.687V314.939H241.917Z" fill="#B391E2" fill-opacity="0.07"/>
<path d="M203.069 324.037H193.919V314.939H203.069V324.037Z" fill="#B391E2" fill-opacity="0.07"/>
<path d="M523.404 23.5621V14.7749H532.715V23.5621H523.404Z" fill="#B391E2" fill-opacity="0.07"/>
<path d="M494.108 146.039V154.826H484.957V146.039H494.108Z" fill="#B391E2" fill-opacity="0.07"/>
<path d="M493.947 286.4H484.877V277.379H493.947V286.4Z" fill="#B391E2" fill-opacity="0.07"/>
<path d="M387.757 277.379H396.907V286.322H387.757V277.379Z" fill="#B391E2" fill-opacity="0.07"/>
<path d="M484.877 183.442H493.947V192.462H484.877V183.442Z" fill="#B391E2" fill-opacity="0.07"/>
<path d="M252.03 523.809H261.261V532.674H252.03V523.809Z" fill="#B391E2" fill-opacity="0.07"/>
<path d="M329.726 532.674V523.809H338.876V532.674H329.726Z" fill="#B391E2" fill-opacity="0.07"/>
<path d="M542.427 532.596V523.965H551.737V532.985L542.026 532.519L542.427 532.596Z" fill="#B391E2" fill-opacity="0.07"/>
<path d="M562.011 532.596V523.809H571.402V532.985L561.851 532.518L562.011 532.596Z" fill="#B391E2" fill-opacity="0.07"/>
<path d="M561.931 502.891H571.402V511.678H562.092V502.891H561.931Z" fill="#B391E2" fill-opacity="0.07"/>
<path d="M116.303 551.415V542.784H125.453V551.415H116.303Z" fill="#B391E2" fill-opacity="0.07"/>
<path d="M164.382 542.705V551.414H155.231V542.705H164.382Z" fill="#B391E2" fill-opacity="0.07"/>
<path d="M290.878 542.627H299.948V551.492H290.878V542.627Z" fill="#B391E2" fill-opacity="0.07"/>
<path d="M310.302 551.414V542.705H319.452V551.414H310.302Z" fill="#B391E2" fill-opacity="0.07"/>
<path d="M338.796 551.57H329.726V542.705H338.796V551.57Z" fill="#B391E2" fill-opacity="0.07"/>
<path d="M552.139 502.891V511.678H542.908V502.891H552.139Z" fill="#B391E2" fill-opacity="0.07"/>
<path d="M435.595 551.493H426.686V542.784H435.595V551.493Z" fill="#B391E2" fill-opacity="0.07"/>
<path d="M455.42 551.493H446.511V542.784H455.42V551.493Z" fill="#B391E2" fill-opacity="0.07"/>
<path d="M465.373 551.414V542.705H474.523V551.414H465.373Z" fill="#B391E2" fill-opacity="0.07"/>
<path d="M542.347 542.784H551.978V551.804H542.507V543.017L542.347 542.784Z" fill="#B391E2" fill-opacity="0.07"/>
<path d="M561.931 542.705H571.402V551.414H562.092V542.549L561.931 542.705Z" fill="#B391E2" fill-opacity="0.07"/>
<path d="M494.509 511.6H484.957V502.891H494.027C494.027 505.768 494.027 508.723 494.027 511.678L494.509 511.6Z" fill="#B391E2" fill-opacity="0.07"/>
<path d="M475.005 511.6H465.534V502.891H474.844V511.833L475.005 511.6Z" fill="#B391E2" fill-opacity="0.07"/>
<path d="M435.675 511.678H426.605V502.891H435.675V511.678Z" fill="#B391E2" fill-opacity="0.07"/>
<path d="M387.677 511.6V502.891H396.827V511.6H387.677Z" fill="#B391E2" fill-opacity="0.07"/>
<path d="M319.533 502.891V511.678H310.382V502.891H319.533Z" fill="#B391E2" fill-opacity="0.07"/>
<path d="M144.958 561.524V570.311H135.727V561.524H144.958Z" fill="#B391E2" fill-opacity="0.07"/>
<path d="M271.534 502.891H280.444V511.678H271.534V502.891Z" fill="#B391E2" fill-opacity="0.07"/>
<path d="M338.796 570.389H329.726V561.524H338.796V570.389Z" fill="#B391E2" fill-opacity="0.07"/>
<path d="M407.262 561.446H416.251V570.311H407.262V561.446Z" fill="#B391E2" fill-opacity="0.07"/>
<path d="M455.42 570.311H446.431V561.446H455.42V570.311Z" fill="#B391E2" fill-opacity="0.07"/>
<path d="M116.303 502.891H125.453V511.678H116.303V502.891Z" fill="#B391E2" fill-opacity="0.07"/>
<path d="M542.908 89.5825H551.738V98.5252H542.908V89.5825Z" fill="#B391E2" fill-opacity="0.07"/>
<path d="M416.251 108.479V117.344H407.262V108.479H416.251Z" fill="#B391E2" fill-opacity="0.07"/>
<path d="M426.686 89.5825H435.675V98.5252H426.686V89.5825Z" fill="#B391E2" fill-opacity="0.07"/>
<path d="M125.453 580.654V589.363H116.383V580.654H125.453Z" fill="#B391E2" fill-opacity="0.07"/>
<path d="M155.231 580.654H164.301V589.519H155.231V580.654Z" fill="#B391E2" fill-opacity="0.07"/>
<path d="M396.908 89.7378V98.525H387.838V89.7378H396.908Z" fill="#B391E2" fill-opacity="0.07"/>
<path d="M387.838 580.187H396.827V589.052H387.838V580.187Z" fill="#B391E2" fill-opacity="0.07"/>
<path d="M407.262 580.654H416.332V589.519H407.262V580.654Z" fill="#B391E2" fill-opacity="0.07"/>
<path d="M435.755 580.654V589.363H426.686V580.654H435.755Z" fill="#B391E2" fill-opacity="0.07"/>
<path d="M455.42 580.654V589.363H446.35V580.654H455.42Z" fill="#B391E2" fill-opacity="0.07"/>
<path d="M271.454 589.519V598.383H261.903V589.596H271.454V589.519Z" fill="#B391E2" fill-opacity="0.07"/>
<path d="M562.011 492.86V483.995H571.402V492.705H561.931L562.011 492.86Z" fill="#B391E2" fill-opacity="0.07"/>
<path d="M542.748 492.705V483.995H551.737V492.705H542.748Z" fill="#B391E2" fill-opacity="0.07"/>
<path d="M494.027 492.782H484.797V484.072H494.027V492.782Z" fill="#B391E2" fill-opacity="0.07"/>
<path d="M474.523 492.859H465.534V484.072H474.523V492.859Z" fill="#B391E2" fill-opacity="0.07"/>
<path d="M455.42 492.859H446.511V484.072H455.42V492.859Z" fill="#B391E2" fill-opacity="0.07"/>
<path d="M407.262 483.995H416.332V492.705H407.262V483.995Z" fill="#B391E2" fill-opacity="0.07"/>
<path d="M338.876 483.995V492.705H329.806V483.995H338.876Z" fill="#B391E2" fill-opacity="0.07"/>
<path d="M319.372 492.86H310.382V483.995H319.372V492.86Z" fill="#B391E2" fill-opacity="0.07"/>
<path d="M299.948 492.782H290.878V483.995H299.948V492.782Z" fill="#B391E2" fill-opacity="0.07"/>
<path d="M271.534 483.917H280.444V492.704H271.534V483.917Z" fill="#B391E2" fill-opacity="0.07"/>
<path d="M252.03 483.917H261.1V492.704H252.03V483.917Z" fill="#B391E2" fill-opacity="0.07"/>
<path d="M174.495 492.782V483.995H183.725V492.782H174.495Z" fill="#B391E2" fill-opacity="0.07"/>
<path d="M96.8792 483.917H105.949V492.704H96.8792V483.917Z" fill="#B391E2" fill-opacity="0.07"/>
<path d="M562.172 464.865H571.402V473.885H562.332V464.787L562.172 464.865Z" fill="#B391E2" fill-opacity="0.07"/>
<path d="M542.427 465.098H551.737V473.963H542.347V465.02L542.427 465.098Z" fill="#B391E2" fill-opacity="0.07"/>
<path d="M493.867 473.963H484.957V465.254H493.867V473.963Z" fill="#B391E2" fill-opacity="0.07"/>
<path d="M474.764 464.865V473.963H465.453V465.02H474.844L474.764 464.865Z" fill="#B391E2" fill-opacity="0.07"/>
<path d="M426.605 465.099H435.675V473.964H426.605V465.099Z" fill="#B391E2" fill-opacity="0.07"/>
<path d="M310.463 464.787H319.452V473.963H309.981C309.981 470.774 310.382 467.742 310.543 464.709L310.463 464.787Z" fill="#B391E2" fill-opacity="0.07"/>
<path d="M299.948 464.787V473.963H290.637C290.637 470.775 290.637 467.742 291.039 464.631H300.028L299.948 464.787Z" fill="#B391E2" fill-opacity="0.07"/>
<path d="M280.444 464.709L280.845 473.885H271.534V464.709H280.524H280.444Z" fill="#B391E2" fill-opacity="0.07"/>
<path d="M183.725 473.963H174.495V465.176H183.645L183.725 473.963Z" fill="#B391E2" fill-opacity="0.07"/>
<path d="M155.151 465.099H164.301V473.964H155.151V465.099Z" fill="#B391E2" fill-opacity="0.07"/>
<path d="M135.727 465.099H144.877V473.964H135.727V465.099Z" fill="#B391E2" fill-opacity="0.07"/>
<path d="M125.453 465.099V473.964H116.303V465.099H125.453Z" fill="#B391E2" fill-opacity="0.07"/>
<path d="M96.8792 465.099H106.029V473.886H96.8792V465.099Z" fill="#B391E2" fill-opacity="0.07"/>
<path d="M542.748 627.311V636.254H533.437C533.437 633.299 533.437 630.344 532.875 626.767L542.828 627.233L542.748 627.311Z" fill="#B391E2" fill-opacity="0.07"/>
<path d="M19.424 645.274V636.409H28.5742V645.274H19.424Z" fill="#B391E2" fill-opacity="0.07"/>
<path d="M96.9594 636.409H106.029V645.274H96.9594V636.409Z" fill="#B391E2" fill-opacity="0.07"/>
<path d="M144.797 645.43H135.727V636.487H144.797V645.43Z" fill="#B391E2" fill-opacity="0.07"/>
<path d="M407.262 636.254H416.572V645.352H407.262V636.176V636.254Z" fill="#B391E2" fill-opacity="0.07"/>
<path d="M435.595 645.352H426.686V636.409H435.595V645.352Z" fill="#B391E2" fill-opacity="0.07"/>
<path d="M455.42 645.507H446.591V636.409H455.42V645.507Z" fill="#B391E2" fill-opacity="0.07"/>
<path d="M484.877 636.409H493.947V645.352H484.877V636.409Z" fill="#B391E2" fill-opacity="0.07"/>
<path d="M562.332 464.787H552.781V456.233H562.172V465.253L562.332 464.787Z" fill="#B391E2" fill-opacity="0.07"/>
<path d="M542.587 636.254H551.737V645.274H542.347V636.176L542.587 636.254Z" fill="#B391E2" fill-opacity="0.07"/>
<path d="M571.402 645.43H562.332V636.409H571.402V645.43Z" fill="#B391E2" fill-opacity="0.07"/>
<path d="M533.517 465.176L532.956 455.844H542.427V465.098H533.517V465.176Z" fill="#B391E2" fill-opacity="0.07"/>
<path d="M514.013 465.176V455.767H522.922V465.176H513.853H514.013Z" fill="#B391E2" fill-opacity="0.07"/>
<path d="M474.844 465.02V456.233H484.155V465.253H474.764L474.844 465.02Z" fill="#B391E2" fill-opacity="0.07"/>
<path d="M407.262 655.15H398.031V646.052H407.181V655.15H407.262Z" fill="#B391E2" fill-opacity="0.07"/>
<path d="M475.005 655.306V646.052H484.155V655.15H474.844L475.005 655.306Z" fill="#B391E2" fill-opacity="0.07"/>
<path d="M164.703 663.937L154.83 664.559C154.83 661.06 154.83 657.949 155.392 654.839H164.622V663.937H164.703Z" fill="#B391E2" fill-opacity="0.07"/>
<path d="M387.838 655.228H396.908V664.092H387.838V655.228Z" fill="#B391E2" fill-opacity="0.07"/>
<path d="M406.78 655.306H416.251V664.093H407.262V655.306H406.78Z" fill="#B391E2" fill-opacity="0.07"/>
<path d="M435.675 654.995V664.093H426.605V655.072H435.675V654.995Z" fill="#B391E2" fill-opacity="0.07"/>
<path d="M445.949 655.072H455.42V664.092H446.431V654.917L445.949 655.072Z" fill="#B391E2" fill-opacity="0.07"/>
<path d="M474.844 655.15V664.093H465.534V655.228H475.005L474.844 655.15Z" fill="#B391E2" fill-opacity="0.07"/>
<path d="M493.867 664.171H484.957V655.383H493.867V664.171Z" fill="#B391E2" fill-opacity="0.07"/>
<path d="M551.738 655.306V664.015H542.507V655.306H551.738Z" fill="#B391E2" fill-opacity="0.07"/>
<path d="M571.402 664.248H562.332V655.306H571.402V664.248Z" fill="#B391E2" fill-opacity="0.07"/>
<path d="M562.252 117.344V108.479H571.402V117.344H562.252Z" fill="#B391E2" fill-opacity="0.07"/>
<path d="M125.293 673.969L125.774 683.067H116.303V673.969H125.453H125.293Z" fill="#B391E2" fill-opacity="0.07"/>
<path d="M261.18 682.911H252.03V673.969H261.18V682.911Z" fill="#B391E2" fill-opacity="0.07"/>
<path d="M300.028 673.969V682.756H290.958V673.969H300.028Z" fill="#B391E2" fill-opacity="0.07"/>
<path d="M339.278 673.969V682.756H330.127V673.969H339.759H339.278Z" fill="#B391E2" fill-opacity="0.07"/>
<path d="M562.332 446.28H571.322V455.067H562.332V446.28Z" fill="#B391E2" fill-opacity="0.07"/>
<path d="M396.827 682.989H387.757V673.969H396.827V682.989Z" fill="#B391E2" fill-opacity="0.07"/>
<path d="M407.262 683.067V673.969H416.572V682.756H407.181L407.262 683.067Z" fill="#B391E2" fill-opacity="0.07"/>
<path d="M426.605 682.834V673.969H435.675V682.678L426.605 682.834Z" fill="#B391E2" fill-opacity="0.07"/>
<path d="M455.42 673.969V682.6H446.35V673.969H455.42Z" fill="#B391E2" fill-opacity="0.07"/>
<path d="M465.534 673.969H474.523V682.834H465.534V673.969Z" fill="#B391E2" fill-opacity="0.07"/>
<path d="M484.957 673.969H493.947V682.756H484.957V673.969Z" fill="#B391E2" fill-opacity="0.07"/>
<path d="M551.738 455.222H542.507V446.357H551.738V455.222Z" fill="#B391E2" fill-opacity="0.07"/>
<path d="M484.877 455.067V446.357H493.867V455.067H484.877Z" fill="#B391E2" fill-opacity="0.07"/>
<path d="M455.42 455.222H446.35V446.357H455.42V455.222Z" fill="#B391E2" fill-opacity="0.07"/>
<path d="M329.726 446.28H338.796V455.145H329.726V446.28Z" fill="#B391E2" fill-opacity="0.07"/>
<path d="M310.382 446.28H319.372V455.145H310.382V446.28Z" fill="#B391E2" fill-opacity="0.07"/>
<path d="M299.948 446.436V455.223H290.958V446.436H299.948Z" fill="#B391E2" fill-opacity="0.07"/>
<path d="M494.509 79.4733L484.957 80.0176V70.9194H494.027C494.027 73.7189 494.027 76.5961 494.027 79.5511L494.509 79.4733Z" fill="#B391E2" fill-opacity="0.07"/>
<path d="M280.604 446.436V455.067H271.534V446.436H280.604Z" fill="#B391E2" fill-opacity="0.07"/>
<path d="M9.15012 701.808H0.0803223V692.943H9.15012V701.808Z" fill="#B391E2" fill-opacity="0.07"/>
<path d="M183.805 446.436V455.067H174.495V446.436H183.805Z" fill="#B391E2" fill-opacity="0.07"/>
<path d="M164.301 446.436V455.145H155.151V446.436H164.301Z" fill="#B391E2" fill-opacity="0.07"/>
<path d="M125.373 701.807H116.383V693.02H125.373V701.807Z" fill="#B391E2" fill-opacity="0.07"/>
<path d="M164.221 701.808H155.151V692.943H164.221V701.808Z" fill="#B391E2" fill-opacity="0.07"/>
<path d="M474.603 70.9194V79.7066H465.534V70.9194H474.603Z" fill="#B391E2" fill-opacity="0.07"/>
<path d="M271.454 702.119V692.943H280.524V702.041H271.454V702.119Z" fill="#B391E2" fill-opacity="0.07"/>
<path d="M310.382 692.865H319.372V701.73H310.382V692.865Z" fill="#B391E2" fill-opacity="0.07"/>
<path d="M338.876 692.943V701.652H329.726V692.943H338.876Z" fill="#B391E2" fill-opacity="0.07"/>
<path d="M135.647 455.145V446.436H144.797V455.145H135.647Z" fill="#B391E2" fill-opacity="0.07"/>
<path d="M387.838 692.865H396.827V701.73H387.838V692.865Z" fill="#B391E2" fill-opacity="0.07"/>
<path d="M426.605 701.652V692.943H435.675V701.652H426.605Z" fill="#B391E2" fill-opacity="0.07"/>
<path d="M446.109 692.865H455.42V701.73H446.431L446.109 692.865Z" fill="#B391E2" fill-opacity="0.07"/>
<path d="M465.453 701.652V693.02H474.603V701.652H465.453Z" fill="#B391E2" fill-opacity="0.07"/>
<path d="M484.797 701.73V692.943H493.947V701.73H484.797Z" fill="#B391E2" fill-opacity="0.07"/>
<path d="M96.8792 446.28H105.949V455.145H96.8792V446.28Z" fill="#B391E2" fill-opacity="0.07"/>
<path d="M542.828 701.73V692.943H551.737V701.73H542.828Z" fill="#B391E2" fill-opacity="0.07"/>
<path d="M455.42 70.7642V79.6291H446.35V70.7642H455.42Z" fill="#B391E2" fill-opacity="0.07"/>
<path d="M435.595 79.7072H426.686V70.8423H435.595V79.7072Z" fill="#B391E2" fill-opacity="0.07"/>
<path d="M407.262 79.6295V70.8423H416.412V79.6295H407.262Z" fill="#B391E2" fill-opacity="0.07"/>
<path d="M396.827 711.839V720.627H387.838V711.917L396.827 711.839Z" fill="#B391E2" fill-opacity="0.07"/>
<path d="M407.262 711.684H416.251V720.626H407.262V711.684Z" fill="#B391E2" fill-opacity="0.07"/>
<path d="M426.605 711.684H435.675V720.626H426.605V711.684Z" fill="#B391E2" fill-opacity="0.07"/>
<path d="M446.109 711.684H455.42V720.626H446.431L446.109 711.684Z" fill="#B391E2" fill-opacity="0.07"/>
<path d="M474.844 720.626H465.614V711.684H474.764V720.626H474.844Z" fill="#B391E2" fill-opacity="0.07"/>
<path d="M484.957 711.684H493.947V720.626H484.957V711.684Z" fill="#B391E2" fill-opacity="0.07"/>
<path d="M387.838 70.7642H396.827V79.5513H387.838V70.7642Z" fill="#B391E2" fill-opacity="0.07"/>
<path d="M533.437 427.305C533.437 424.195 533.437 421.007 533.437 417.818L542.828 418.285C542.828 421.318 542.828 424.273 542.828 427.228H533.437V427.305Z" fill="#B391E2" fill-opacity="0.07"/>
<path d="M164.301 426.994C164.301 424.039 164.301 421.084 164.301 418.129H173.772V426.761H164.221L164.301 426.994Z" fill="#B391E2" fill-opacity="0.07"/>
<path d="M387.838 127.297H396.747V136.007H387.838V127.297Z" fill="#B391E2" fill-opacity="0.07"/>
<path d="M416.171 136.473H407.262V127.297H416.733C416.733 130.486 416.733 133.518 416.251 136.551L416.171 136.473Z" fill="#B391E2" fill-opacity="0.07"/>
<path d="M551.738 390.212V399H542.507V390.212H551.738Z" fill="#B391E2" fill-opacity="0.07"/>
<path d="M484.957 390.135H494.027V398.922H484.957V390.135Z" fill="#B391E2" fill-opacity="0.07"/>
<path d="M474.603 399.078H465.534V390.058H474.603V399.078Z" fill="#B391E2" fill-opacity="0.07"/>
<path d="M446.029 399V390.135H455.42V399H446.029Z" fill="#B391E2" fill-opacity="0.07"/>
<path d="M426.525 399V390.135H435.675V399H426.525Z" fill="#B391E2" fill-opacity="0.07"/>
<path d="M416.171 399.077H407.262V390.212H416.251L416.171 399.077Z" fill="#B391E2" fill-opacity="0.07"/>
<path d="M387.757 399V390.135H396.747V399H387.757Z" fill="#B391E2" fill-opacity="0.07"/>
<path d="M338.716 399H329.726V390.058H338.716V399Z" fill="#B391E2" fill-opacity="0.07"/>
<path d="M310.382 390.058H319.452V399H310.382V390.058Z" fill="#B391E2" fill-opacity="0.07"/>
<path d="M290.878 398.923V390.058H299.868V398.923H290.878Z" fill="#B391E2" fill-opacity="0.07"/>
<path d="M280.524 399.078H271.454V390.135H280.524V399.078Z" fill="#B391E2" fill-opacity="0.07"/>
<path d="M261.18 399.078H252.11V390.135H261.18V399.078Z" fill="#B391E2" fill-opacity="0.07"/>
<path d="M125.373 399.077H116.303V390.212H125.373V399.077Z" fill="#B391E2" fill-opacity="0.07"/>
<path d="M474.764 127.22V136.318H465.453V127.297H474.764V127.22Z" fill="#B391E2" fill-opacity="0.07"/>
<path d="M319.693 380.259H328.924V389.435H319.854V380.182L319.693 380.259Z" fill="#B391E2" fill-opacity="0.07"/>
<path d="M484.957 127.297H493.867V136.085H484.957V127.297Z" fill="#B391E2" fill-opacity="0.07"/>
<path d="M571.483 371.394V380.181H562.332V371.394H571.483Z" fill="#B391E2" fill-opacity="0.07"/>
<path d="M493.867 380.182H484.797V371.472H493.867V380.182Z" fill="#B391E2" fill-opacity="0.07"/>
<path d="M465.534 371.317H474.523V380.182H465.534V371.317Z" fill="#B391E2" fill-opacity="0.07"/>
<path d="M416.251 371.394V380.181H407.262V371.394H416.251Z" fill="#B391E2" fill-opacity="0.07"/>
<path d="M329.806 371.317H338.716V380.104H329.806V371.317Z" fill="#B391E2" fill-opacity="0.07"/>
<path d="M319.854 380.181H310.382V371.394H319.693V380.259L319.854 380.181Z" fill="#B391E2" fill-opacity="0.07"/>
<path d="M291.039 371.317H300.028V380.182H291.039V371.317Z" fill="#B391E2" fill-opacity="0.07"/>
<path d="M251.709 371.316H261.18V380.259H251.709V371.238V371.316Z" fill="#B391E2" fill-opacity="0.07"/>
<path d="M542.828 352.498H551.738V361.285H542.587L542.828 352.498Z" fill="#B391E2" fill-opacity="0.07"/>
<path d="M465.534 352.498H474.523V361.285H465.534V352.498Z" fill="#B391E2" fill-opacity="0.07"/>
<path d="M445.949 361.285V352.576H455.42V361.285H445.949Z" fill="#B391E2" fill-opacity="0.07"/>
<path d="M426.605 352.498H435.675V361.363H426.605V352.498Z" fill="#B391E2" fill-opacity="0.07"/>
<path d="M406.78 352.498H416.251V361.285H407.262V352.42L406.78 352.498Z" fill="#B391E2" fill-opacity="0.07"/>
<path d="M387.196 352.576H396.747V361.285H387.757C387.757 358.408 387.757 355.453 387.757 352.498L387.196 352.576Z" fill="#B391E2" fill-opacity="0.07"/>
<path d="M339.278 352.498V361.285H329.726V352.576H339.278V352.498Z" fill="#B391E2" fill-opacity="0.07"/>
<path d="M310.382 352.498H319.372V361.285H310.382V352.498Z" fill="#B391E2" fill-opacity="0.07"/>
<path d="M290.958 352.498H299.948V361.285H290.958V352.498Z" fill="#B391E2" fill-opacity="0.07"/>
<path d="M271.213 352.421H280.444V361.363H271.294V352.343L271.213 352.421Z" fill="#B391E2" fill-opacity="0.07"/>
<path d="M116.383 352.498H125.373V361.285H116.383V352.498Z" fill="#B391E2" fill-opacity="0.07"/>
<path d="M551.738 127.375V136.163H542.507V127.375H551.738Z" fill="#B391E2" fill-opacity="0.07"/>
<path d="M562.172 342.467V333.757H571.402V342.467H562.172Z" fill="#B391E2" fill-opacity="0.07"/>
<path d="M551.738 342.544H542.587V333.679H551.738V342.544Z" fill="#B391E2" fill-opacity="0.07"/>
<path d="M484.797 342.389V333.757H493.867V342.389H484.797Z" fill="#B391E2" fill-opacity="0.07"/>
<path d="M446.109 333.602H455.42V342.466H446.431L446.109 333.602Z" fill="#B391E2" fill-opacity="0.07"/>
<path d="M426.445 333.446H435.675V342.467H426.605V333.291L426.445 333.446Z" fill="#B391E2" fill-opacity="0.07"/>
<path d="M407.262 333.524H416.572C416.572 336.479 416.572 339.434 417.134 343.089L407.181 342.544V333.602L407.262 333.524Z" fill="#B391E2" fill-opacity="0.07"/>
<path d="M387.436 333.524H396.827V342.467H387.356V333.446L387.436 333.524Z" fill="#B391E2" fill-opacity="0.07"/>
<path d="M339.358 342.389L329.806 342.856V333.757H338.876C338.876 336.557 338.876 339.512 338.876 342.467L339.358 342.389Z" fill="#B391E2" fill-opacity="0.07"/>
<path d="M310.463 333.368H319.452V342.544H309.981C309.981 339.356 310.382 336.323 310.543 333.213L310.463 333.368Z" fill="#B391E2" fill-opacity="0.07"/>
<path d="M299.948 333.291V342.467H290.958V333.446H300.109L299.948 333.291Z" fill="#B391E2" fill-opacity="0.07"/>
<path d="M407.262 333.446H397.79V324.426H407.262V333.524V333.446Z" fill="#B391E2" fill-opacity="0.07"/>
<path d="M378.206 333.602V324.426H387.436V333.524H378.045L378.206 333.602Z" fill="#B391E2" fill-opacity="0.07"/>
<path d="M551.738 324.037H542.507V314.861H551.738V324.037Z" fill="#B391E2" fill-opacity="0.07"/>
<path d="M474.603 324.037H465.534V314.939H474.603V324.037Z" fill="#B391E2" fill-opacity="0.07"/>
<path d="M455.42 314.939V324.037H446.35V314.939H455.42Z" fill="#B391E2" fill-opacity="0.07"/>
<path d="M426.686 314.861H435.595V324.037H426.686V314.861Z" fill="#B391E2" fill-opacity="0.07"/>
<path d="M407.262 324.037V314.939H416.412V324.037H407.262Z" fill="#B391E2" fill-opacity="0.07"/>
<path d="M396.907 324.037H387.757V315.016H396.907V324.037Z" fill="#B391E2" fill-opacity="0.07"/>
<path d="M338.876 314.861V324.037H329.806V314.861H338.876Z" fill="#B391E2" fill-opacity="0.07"/>
<path d="M310.382 314.472H319.452V324.037H309.981L310.463 314.706L310.382 314.472Z" fill="#B391E2" fill-opacity="0.07"/>
<path d="M261.261 314.939V324.037H252.03V314.939H261.261Z" fill="#B391E2" fill-opacity="0.07"/>
<path d="M571.402 23.5622H562.332V14.6973H571.402V23.5622Z" fill="#B391E2" fill-opacity="0.07"/>
<path d="M542.828 23.4063V14.6191H551.737V23.4063H542.828Z" fill="#B391E2" fill-opacity="0.07"/>
<path d="M358.541 305.607H368.012V314.861H358.702C358.702 311.751 358.702 308.718 358.702 305.607H358.541Z" fill="#B391E2" fill-opacity="0.07"/>
<path d="M339.037 295.653V286.555H348.508V295.42H339.117L339.037 295.653Z" fill="#B391E2" fill-opacity="0.07"/>
<path d="M494.027 14.6191V23.4841H484.877V14.6191H494.027Z" fill="#B391E2" fill-opacity="0.07"/>
<path d="M474.603 14.6973V23.4844H465.534V14.6973H474.603Z" fill="#B391E2" fill-opacity="0.07"/>
<path d="M435.755 14.6191V23.4063H426.686V14.6191H435.755Z" fill="#B391E2" fill-opacity="0.07"/>
<path d="M562.172 267.814V276.835L552.62 277.302V267.97H562.092L562.172 267.814Z" fill="#B391E2" fill-opacity="0.07"/>
<path d="M523.404 276.602L513.933 277.146V267.814H523.083C523.083 270.769 523.083 273.802 523.083 276.757L523.404 276.602Z" fill="#B391E2" fill-opacity="0.07"/>
<path d="M562.252 267.97V258.794H571.402V267.814H562.172L562.252 267.97Z" fill="#B391E2" fill-opacity="0.07"/>
<path d="M484.797 267.503V258.794H493.947V267.503H484.797Z" fill="#B391E2" fill-opacity="0.07"/>
<path d="M446.109 258.716H455.42V267.503H446.511L446.109 258.716Z" fill="#B391E2" fill-opacity="0.07"/>
<path d="M435.675 267.659H426.605V258.794H435.675V267.659Z" fill="#B391E2" fill-opacity="0.07"/>
<path d="M416.332 258.716V267.503H407.262V258.716H416.332Z" fill="#B391E2" fill-opacity="0.07"/>
<path d="M339.358 267.659H329.726V258.794H339.197V267.737L339.358 267.659Z" fill="#B391E2" fill-opacity="0.07"/>
<path d="M319.452 258.872V267.503H310.382V258.872H319.452Z" fill="#B391E2" fill-opacity="0.07"/>
<path d="M290.958 267.97V258.794H300.349V267.892H291.36L290.958 267.97Z" fill="#B391E2" fill-opacity="0.07"/>
<path d="M280.524 267.892H271.454V258.794H280.444V267.97L280.524 267.892Z" fill="#B391E2" fill-opacity="0.07"/>
<path d="M251.87 267.581V258.794H261.18V267.581H251.87Z" fill="#B391E2" fill-opacity="0.07"/>
<path d="M494.027 248.762H484.877V239.897H494.027V248.762Z" fill="#B391E2" fill-opacity="0.07"/>
<path d="M474.523 248.841H465.534V239.976H474.523V248.841Z" fill="#B391E2" fill-opacity="0.07"/>
<path d="M446.029 239.897H455.42V248.762H446.35L446.029 239.897Z" fill="#B391E2" fill-opacity="0.07"/>
<path d="M426.525 248.685V239.976H435.595V248.685H426.525Z" fill="#B391E2" fill-opacity="0.07"/>
<path d="M407.262 239.897H416.171V248.685H407.262V239.897Z" fill="#B391E2" fill-opacity="0.07"/>
<path d="M387.838 239.897H396.827V248.685H387.838V239.897Z" fill="#B391E2" fill-opacity="0.07"/>
<path d="M319.533 239.976V248.685H310.382V239.976H319.533Z" fill="#B391E2" fill-opacity="0.07"/>
<path d="M280.604 239.976V248.685H271.454V239.976H280.604Z" fill="#B391E2" fill-opacity="0.07"/>
<path d="M494.027 221.157V229.867H484.877V221.157H494.027Z" fill="#B391E2" fill-opacity="0.07"/>
<path d="M455.42 221.079V229.944H446.27V221.079H455.42Z" fill="#B391E2" fill-opacity="0.07"/>
<path d="M407.262 221.079H416.332V229.866H407.262V221.079Z" fill="#B391E2" fill-opacity="0.07"/>
<path d="M290.958 221.001H299.948V229.866H290.958V221.001Z" fill="#B391E2" fill-opacity="0.07"/>
<path d="M251.709 229.866V221.079H261.18V229.788H251.709V229.866Z" fill="#B391E2" fill-opacity="0.07"/>
<path d="M280.604 202.261V211.048H271.454V202.261H280.604Z" fill="#B391E2" fill-opacity="0.07"/>
<path d="M319.372 211.125H310.382V202.338H319.372V211.125Z" fill="#B391E2" fill-opacity="0.07"/>
<path d="M416.251 211.126H407.262V202.261H416.332L416.251 211.126Z" fill="#B391E2" fill-opacity="0.07"/>
<path d="M435.595 201.794V211.048H426.284V201.95H435.274L435.595 201.794Z" fill="#B391E2" fill-opacity="0.07"/>
<path d="M446.029 201.95H455.42V211.048H446.431C446.431 207.937 446.431 204.904 446.431 201.794L446.029 201.95Z" fill="#B391E2" fill-opacity="0.07"/>
<path d="M465.534 202.183H474.523V211.048H465.534V202.183Z" fill="#B391E2" fill-opacity="0.07"/>
</g>
<defs>
<clipPath id="clip0_914_23957">
<rect width="1020" height="1197" fill="white"/>
</clipPath>
</defs>
</svg>
