<svg width="111" height="111" viewBox="0 0 111 111" fill="none" xmlns="http://www.w3.org/2000/svg">
<rect x="12.2852" width="6.14297" height="6.14297" fill="#363A3E"/>
<rect x="18.4277" width="6.14297" height="6.14297" fill="#3A3E41"/>
<rect x="24.5723" width="6.14297" height="6.14297" fill="#43474C"/>
<rect x="30.7148" width="6.14297" height="6.14297" fill="#41464B"/>
<rect x="36.8574" width="6.14297" height="6.14297" fill="#383C41"/>
<rect x="43" width="6.14297" height="6.14297" fill="#383C41"/>
<rect x="49.1426" width="6.14297" height="6.14297" fill="#383C41"/>
<rect x="55.2871" width="6.14297" height="6.14297" fill="#383C41"/>
<rect x="61.4297" width="6.14297" height="6.14297" fill="#383C41"/>
<rect x="67.5723" width="6.14297" height="6.14297" fill="#383C41"/>
<rect x="73.7148" width="6.14297" height="6.14297" fill="#383C41"/>
<rect x="79.8574" width="6.14297" height="6.14297" fill="#383C41"/>
<rect x="86.002" width="6.14297" height="6.14297" fill="#383C41"/>
<rect x="92.1445" width="6.14297" height="6.14297" fill="#363B43"/>
<rect x="6.14258" y="6.14404" width="6.14297" height="6.14297" fill="white"/>
<rect x="12.2852" y="6.14404" width="6.14297" height="6.14297" fill="#ADA177"/>
<rect x="18.4277" y="6.14404" width="6.14297" height="6.14297" fill="#B1A478"/>
<rect x="24.5723" y="6.14404" width="6.14297" height="6.14297" fill="#B2A578"/>
<rect x="30.7148" y="6.14404" width="6.14297" height="6.14297" fill="#B1A478"/>
<rect x="36.8574" y="6.14404" width="6.14297" height="6.14297" fill="#B2A578"/>
<rect x="43" y="6.14404" width="6.14297" height="6.14297" fill="#B2A578"/>
<rect x="49.1426" y="6.14404" width="6.14297" height="6.14297" fill="#B2A578"/>
<rect x="55.2871" y="6.14404" width="6.14297" height="6.14297" fill="#B2A578"/>
<rect x="61.4297" y="6.14404" width="6.14297" height="6.14297" fill="#B2A578"/>
<rect x="67.5723" y="6.14404" width="6.14297" height="6.14297" fill="#B2A578"/>
<rect x="73.7148" y="6.14404" width="6.14297" height="6.14297" fill="#B2A578"/>
<rect x="79.8574" y="6.14404" width="6.14297" height="6.14297" fill="#B2A578"/>
<rect x="86.002" y="6.14404" width="6.14297" height="6.14297" fill="#B1A477"/>
<rect x="92.1445" y="6.14404" width="6.14297" height="6.14297" fill="#092644"/>
<rect x="98.2871" y="6.14404" width="6.14297" height="6.14297" fill="#928C8C"/>
<rect x="6.14258" y="12.2876" width="6.14297" height="6.14297" fill="#9F9F9F"/>
<rect x="12.2852" y="12.2876" width="6.14297" height="6.14297" fill="#EAD49A"/>
<rect x="18.4277" y="12.2876" width="6.14297" height="6.14297" fill="#111D35"/>
<rect x="24.5723" y="12.2876" width="6.14297" height="6.14297" fill="#081827"/>
<rect x="30.7148" y="12.2876" width="6.14297" height="6.14297" fill="#081827"/>
<rect x="36.8574" y="12.2876" width="6.14297" height="6.14297" fill="#081827"/>
<rect x="43" y="12.2876" width="6.14297" height="6.14297" fill="#081827"/>
<rect x="49.1426" y="12.2876" width="6.14297" height="6.14297" fill="#081827"/>
<rect x="55.2871" y="12.2876" width="6.14297" height="6.14297" fill="#081827"/>
<rect x="61.4297" y="12.2876" width="6.14297" height="6.14297" fill="#081827"/>
<rect x="67.5723" y="12.2876" width="6.14297" height="6.14297" fill="#081827"/>
<rect x="73.7148" y="12.2876" width="6.14297" height="6.14297" fill="#081827"/>
<rect x="79.8574" y="12.2876" width="6.14297" height="6.14297" fill="#081827"/>
<rect x="86.002" y="12.2876" width="6.14297" height="6.14297" fill="#E6D398"/>
<rect x="92.1445" y="12.2876" width="6.14297" height="6.14297" fill="#0B2643"/>
<rect x="98.2871" y="12.2876" width="6.14297" height="6.14297" fill="#454A4D"/>
<rect x="6.14258" y="18.4307" width="6.14297" height="6.14297" fill="#A6A6A6"/>
<rect x="12.2852" y="18.4307" width="6.14297" height="6.14297" fill="#EFDAA1"/>
<rect x="18.4277" y="18.4307" width="6.14297" height="6.14297" fill="#092844"/>
<rect x="24.5723" y="18.4307" width="6.14297" height="6.14297" fill="#13577C"/>
<rect x="30.7148" y="18.4307" width="6.14297" height="6.14297" fill="#13577C"/>
<rect x="36.8574" y="18.4307" width="6.14297" height="6.14297" fill="#13577C"/>
<rect x="43" y="18.4307" width="6.14297" height="6.14297" fill="#13577C"/>
<rect x="49.1426" y="18.4307" width="6.14297" height="6.14297" fill="#13577C"/>
<rect x="55.2871" y="18.4307" width="6.14297" height="6.14297" fill="#13577C"/>
<rect x="61.4297" y="18.4307" width="6.14297" height="6.14297" fill="#13577C"/>
<rect x="67.5723" y="18.4307" width="6.14297" height="6.14297" fill="#13577C"/>
<rect x="73.7148" y="18.4307" width="6.14297" height="6.14297" fill="#11577B"/>
<rect x="79.8574" y="18.4307" width="6.14297" height="6.14297" fill="#0A2745"/>
<rect x="86.002" y="18.4307" width="6.14297" height="6.14297" fill="#EBD89E"/>
<rect x="92.1445" y="18.4307" width="6.14297" height="6.14297" fill="#0A2745"/>
<rect x="98.2871" y="18.4307" width="6.14297" height="6.14297" fill="#454A4D"/>
<rect x="6.14258" y="24.5718" width="6.14297" height="6.14297" fill="#999999"/>
<rect x="12.2852" y="24.5718" width="6.14297" height="6.14297" fill="#EDD79B"/>
<rect x="18.4277" y="24.5718" width="6.14297" height="6.14297" fill="#092844"/>
<rect x="24.5723" y="24.5718" width="6.14297" height="6.14297" fill="#1571A2"/>
<rect x="30.7148" y="24.5718" width="6.14297" height="6.14297" fill="#35C1D2"/>
<rect x="36.8574" y="24.5718" width="6.14297" height="6.14297" fill="#35C1CE"/>
<rect x="43" y="24.5718" width="6.14297" height="6.14297" fill="#1671A0"/>
<rect x="49.1426" y="24.5718" width="6.14297" height="6.14297" fill="#1671A0"/>
<rect x="55.2871" y="24.5718" width="6.14297" height="6.14297" fill="#1671A0"/>
<rect x="61.4297" y="24.5718" width="6.14297" height="6.14297" fill="#1671A0"/>
<rect x="67.5723" y="24.5718" width="6.14297" height="6.14297" fill="#1671A0"/>
<rect x="73.7148" y="24.5718" width="6.14297" height="6.14297" fill="#1571A0"/>
<rect x="79.8574" y="24.5718" width="6.14297" height="6.14297" fill="#0A2745"/>
<rect x="86.002" y="24.5718" width="6.14297" height="6.14297" fill="#E8D698"/>
<rect x="92.1445" y="24.5718" width="6.14297" height="6.14297" fill="#0A2745"/>
<rect x="98.2871" y="24.5718" width="6.14297" height="6.14297" fill="#454A4D"/>
<rect x="6.14258" y="30.7153" width="6.14297" height="6.14297" fill="#9F9F9F"/>
<rect x="12.2852" y="30.7153" width="6.14297" height="6.14297" fill="#EED89C"/>
<rect x="18.4277" y="30.7153" width="6.14297" height="6.14297" fill="#092844"/>
<rect x="24.5723" y="30.7153" width="6.14297" height="6.14297" fill="#1571A2"/>
<rect x="30.7148" y="30.7153" width="6.14297" height="6.14297" fill="#35C1D2"/>
<rect x="36.8574" y="30.7153" width="6.14297" height="6.14297" fill="#1671A0"/>
<rect x="43" y="30.7153" width="6.14297" height="6.14297" fill="#1671A0"/>
<rect x="49.1426" y="30.7153" width="6.14297" height="6.14297" fill="#1671A0"/>
<rect x="55.2871" y="30.7153" width="6.14297" height="6.14297" fill="#1671A0"/>
<rect x="61.4297" y="30.7153" width="6.14297" height="6.14297" fill="#1671A0"/>
<rect x="67.5723" y="30.7153" width="6.14297" height="6.14297" fill="#1671A0"/>
<rect x="73.7148" y="30.7153" width="6.14297" height="6.14297" fill="#1571A0"/>
<rect x="79.8574" y="30.7153" width="6.14297" height="6.14297" fill="#0A2745"/>
<rect x="86.002" y="30.7153" width="6.14297" height="6.14297" fill="#E9D799"/>
<rect x="92.1445" y="30.7153" width="6.14297" height="6.14297" fill="#0A2745"/>
<rect x="98.2871" y="30.7153" width="6.14297" height="6.14297" fill="#454A4D"/>
<rect x="6.14258" y="36.8594" width="6.14297" height="6.14297" fill="#A6A6A6"/>
<rect x="12.2852" y="36.8594" width="6.14297" height="6.14297" fill="#EED89C"/>
<rect x="18.4277" y="36.8594" width="6.14297" height="6.14297" fill="#092844"/>
<rect x="24.5723" y="36.8594" width="6.14297" height="6.14297" fill="#1571A2"/>
<rect x="30.7148" y="36.8594" width="6.14297" height="6.14297" fill="#1672A3"/>
<rect x="36.8574" y="36.8594" width="6.14297" height="6.14297" fill="#1772A1"/>
<rect x="43" y="36.8594" width="6.14297" height="6.14297" fill="#1671A0"/>
<rect x="49.1426" y="36.8594" width="6.14297" height="6.14297" fill="#1671A0"/>
<rect x="55.2871" y="36.8594" width="6.14297" height="6.14297" fill="#1671A0"/>
<rect x="61.4297" y="36.8594" width="6.14297" height="6.14297" fill="#1671A0"/>
<rect x="67.5723" y="36.8594" width="6.14297" height="6.14297" fill="#1671A0"/>
<rect x="73.7148" y="36.8594" width="6.14297" height="6.14297" fill="#1571A0"/>
<rect x="79.8574" y="36.8594" width="6.14297" height="6.14297" fill="#0A2745"/>
<rect x="86.002" y="36.8594" width="6.14297" height="6.14297" fill="#E9D799"/>
<rect x="92.1445" y="36.8594" width="6.14297" height="6.14297" fill="#0A2745"/>
<rect x="98.2871" y="36.8594" width="6.14297" height="6.14297" fill="#454A4D"/>
<rect x="6.14258" y="43.001" width="6.14297" height="6.14297" fill="#A6A6A6"/>
<rect x="12.2852" y="43.001" width="6.14297" height="6.14297" fill="#EED89C"/>
<rect x="18.4277" y="43.001" width="6.14297" height="6.14297" fill="#092844"/>
<rect x="24.5723" y="43.001" width="6.14297" height="6.14297" fill="#1571A0"/>
<rect x="30.7148" y="43.001" width="6.14297" height="6.14297" fill="#1671A0"/>
<rect x="36.8574" y="43.001" width="6.14297" height="6.14297" fill="#1671A0"/>
<rect x="43" y="43.001" width="6.14297" height="6.14297" fill="#1671A0"/>
<rect x="49.1426" y="43.001" width="6.14297" height="6.14297" fill="#1671A0"/>
<rect x="55.2871" y="43.001" width="6.14297" height="6.14297" fill="#2579A7"/>
<rect x="61.4297" y="43.001" width="6.14297" height="6.14297" fill="#176F9D"/>
<rect x="67.5723" y="43.001" width="6.14297" height="6.14297" fill="#1671A0"/>
<rect x="73.7148" y="43.001" width="6.14297" height="6.14297" fill="#1571A0"/>
<rect x="79.8574" y="43.001" width="6.14297" height="6.14297" fill="#0A2745"/>
<rect x="86.002" y="43.001" width="6.14297" height="6.14297" fill="#E9D799"/>
<rect x="92.1445" y="43.001" width="6.14297" height="6.14297" fill="#0A2745"/>
<rect x="98.2871" y="43.001" width="6.14297" height="6.14297" fill="#454A4D"/>
<rect x="6.14258" y="49.145" width="6.14297" height="6.14297" fill="#A6A6A6"/>
<rect x="12.2852" y="49.145" width="6.14297" height="6.14297" fill="#EED89C"/>
<rect x="18.4277" y="49.145" width="6.14297" height="6.14297" fill="#082A46"/>
<rect x="24.5723" y="49.145" width="6.14297" height="6.14297" fill="#1672A1"/>
<rect x="30.7148" y="49.145" width="6.14297" height="6.14297" fill="#1671A0"/>
<rect x="36.8574" y="49.145" width="6.14297" height="6.14297" fill="#1671A0"/>
<rect x="43" y="49.145" width="6.14297" height="6.14297" fill="#1671A0"/>
<rect x="49.1426" y="49.145" width="6.14297" height="6.14297" fill="#16719E"/>
<rect x="55.2871" y="49.145" width="6.14297" height="6.14297" fill="#146D99"/>
<rect x="61.4297" y="49.145" width="6.14297" height="6.14297" fill="#146F9C"/>
<rect x="67.5723" y="49.145" width="6.14297" height="6.14297" fill="#1671A0"/>
<rect x="73.7148" y="49.145" width="6.14297" height="6.14297" fill="#1E3D5A"/>
<rect x="79.8574" y="49.145" width="6.14297" height="6.14297" fill="#0A2745"/>
<rect x="86.002" y="49.145" width="6.14297" height="6.14297" fill="#E9D799"/>
<rect x="92.1445" y="49.145" width="6.14297" height="6.14297" fill="#0A2745"/>
<rect x="98.2871" y="49.145" width="6.14297" height="6.14297" fill="#49494C"/>
<rect x="6.14258" y="55.2871" width="6.14297" height="6.14297" fill="#A6A6A6"/>
<rect x="12.2852" y="55.2871" width="6.14297" height="6.14297" fill="#EED89C"/>
<rect x="18.4277" y="55.2871" width="6.14297" height="6.14297" fill="#082543"/>
<rect x="24.5723" y="55.2871" width="6.14297" height="6.14297" fill="#0A2844"/>
<rect x="30.7148" y="55.2871" width="6.14297" height="6.14297" fill="#0A2844"/>
<rect x="36.8574" y="55.2871" width="6.14297" height="6.14297" fill="#092644"/>
<rect x="43" y="55.2871" width="6.14297" height="6.14297" fill="#0F2A48"/>
<rect x="49.1426" y="55.2871" width="6.14297" height="6.14297" fill="#183351"/>
<rect x="55.2871" y="55.2871" width="6.14297" height="6.14297" fill="#0A2745"/>
<rect x="61.4297" y="55.2871" width="6.14297" height="6.14297" fill="#092644"/>
<rect x="67.5723" y="55.2871" width="6.14297" height="6.14297" fill="#0A2844"/>
<rect x="73.7148" y="55.2871" width="6.14297" height="6.14297" fill="#0A2844"/>
<rect x="79.8574" y="55.2871" width="6.14297" height="6.14297" fill="#092743"/>
<rect x="86.002" y="55.2871" width="6.14297" height="6.14297" fill="#E9D799"/>
<rect x="92.1445" y="55.2871" width="6.14297" height="6.14297" fill="#0A2745"/>
<rect x="98.2871" y="55.2871" width="6.14297" height="6.14297" fill="#49494C"/>
<rect x="6.14258" y="61.4302" width="6.14297" height="6.14297" fill="#A6A6A6"/>
<rect x="12.2852" y="61.4302" width="6.14297" height="6.14297" fill="#EED89C"/>
<rect x="18.4277" y="61.4302" width="6.14297" height="6.14297" fill="#E9D799"/>
<rect x="24.5723" y="61.4302" width="6.14297" height="6.14297" fill="#E9D799"/>
<rect x="30.7148" y="61.4302" width="6.14297" height="6.14297" fill="#E9D799"/>
<rect x="36.8574" y="61.4302" width="6.14297" height="6.14297" fill="#E7D597"/>
<rect x="43" y="61.4302" width="6.14297" height="6.14297" fill="#E3D397"/>
<rect x="49.1426" y="61.4302" width="6.14297" height="6.14297" fill="#E6D496"/>
<rect x="55.2871" y="61.4302" width="6.14297" height="6.14297" fill="#E9D799"/>
<rect x="61.4297" y="61.4302" width="6.14297" height="6.14297" fill="#E9D799"/>
<rect x="67.5723" y="61.4302" width="6.14297" height="6.14297" fill="#E9D799"/>
<rect x="73.7148" y="61.4302" width="6.14297" height="6.14297" fill="#E9D799"/>
<rect x="79.8574" y="61.4302" width="6.14297" height="6.14297" fill="#E9D799"/>
<rect x="86.002" y="61.4302" width="6.14297" height="6.14297" fill="#E9D799"/>
<rect x="92.1445" y="61.4302" width="6.14297" height="6.14297" fill="#0A2745"/>
<rect x="98.2871" y="61.4302" width="6.14297" height="6.14297" fill="#49494C"/>
<rect x="12.2852" y="67.5728" width="6.14297" height="6.14297" fill="#0A1E39"/>
<rect x="18.4277" y="67.5728" width="6.14297" height="6.14297" fill="#0A2745"/>
<rect x="24.5723" y="67.5728" width="6.14297" height="6.14297" fill="#0A2745"/>
<rect x="30.7148" y="67.5728" width="6.14297" height="6.14297" fill="#0A2745"/>
<rect x="36.8574" y="67.5728" width="6.14297" height="6.14297" fill="#1B3653"/>
<rect x="43" y="67.5728" width="6.14297" height="6.14297" fill="#0A2745"/>
<rect x="49.1426" y="67.5728" width="6.14297" height="6.14297" fill="#0A2745"/>
<rect x="55.2871" y="67.5728" width="6.14297" height="6.14297" fill="#0A2745"/>
<rect x="61.4297" y="67.5728" width="6.14297" height="6.14297" fill="#0A2745"/>
<rect x="67.5723" y="67.5728" width="6.14297" height="6.14297" fill="#0A2745"/>
<rect x="73.7148" y="67.5728" width="6.14297" height="6.14297" fill="#0A2745"/>
<rect x="79.8574" y="67.5728" width="6.14297" height="6.14297" fill="#0A2745"/>
<rect x="86.002" y="67.5728" width="6.14297" height="6.14297" fill="#0A2745"/>
<rect x="92.1445" y="67.5728" width="6.14297" height="6.14297" fill="#0B2A46"/>
<rect x="6.14258" y="73.7163" width="6.14297" height="6.14297" fill="#02192B"/>
<rect x="12.2852" y="73.7163" width="6.14297" height="6.14297" fill="#0A2745"/>
<rect x="18.4277" y="73.7163" width="6.14297" height="6.14297" fill="#0A2745"/>
<rect x="24.5723" y="73.7163" width="6.14297" height="6.14297" fill="#56646D"/>
<rect x="30.7148" y="73.7163" width="6.14297" height="6.14297" fill="#647177"/>
<rect x="36.8574" y="73.7163" width="6.14297" height="6.14297" fill="#58666F"/>
<rect x="43" y="73.7163" width="6.14297" height="6.14297" fill="#5C6972"/>
<rect x="49.1426" y="73.7163" width="6.14297" height="6.14297" fill="#5C6A73"/>
<rect x="55.2871" y="73.7163" width="6.14297" height="6.14297" fill="#5B6972"/>
<rect x="61.4297" y="73.7163" width="6.14297" height="6.14297" fill="#5B6A71"/>
<rect x="67.5723" y="73.7163" width="6.14297" height="6.14297" fill="#5C6A73"/>
<rect x="73.7148" y="73.7163" width="6.14297" height="6.14297" fill="#596A72"/>
<rect x="79.8574" y="73.7163" width="6.14297" height="6.14297" fill="#0A2745"/>
<rect x="86.002" y="73.7163" width="6.14297" height="6.14297" fill="#0A2745"/>
<rect x="92.1445" y="73.7163" width="6.14297" height="6.14297" fill="#0A2745"/>
<rect x="98.2871" y="73.7163" width="6.14297" height="6.14297" fill="#0D2845"/>
<rect x="104.43" y="73.7163" width="6.14297" height="6.14297" fill="#BFBFBF"/>
<rect y="79.8589" width="6.14297" height="6.14297" fill="#4F5355"/>
<rect x="6.14258" y="79.8589" width="6.14297" height="6.14297" fill="#EDD99A"/>
<rect x="12.2852" y="79.8589" width="6.14297" height="6.14297" fill="#E9D799"/>
<rect x="18.4277" y="79.8589" width="6.14297" height="6.14297" fill="#E5D395"/>
<rect x="24.5723" y="79.8589" width="6.14297" height="6.14297" fill="#E2D296"/>
<rect x="30.7148" y="79.8589" width="6.14297" height="6.14297" fill="#E5D393"/>
<rect x="36.8574" y="79.8589" width="6.14297" height="6.14297" fill="#E8D696"/>
<rect x="43" y="79.8589" width="6.14297" height="6.14297" fill="#EBD99B"/>
<rect x="49.1426" y="79.8589" width="6.14297" height="6.14297" fill="#E9D799"/>
<rect x="55.2871" y="79.8589" width="6.14297" height="6.14297" fill="#EAD898"/>
<rect x="61.4297" y="79.8589" width="6.14297" height="6.14297" fill="#E9D797"/>
<rect x="67.5723" y="79.8589" width="6.14297" height="6.14297" fill="#E9D797"/>
<rect x="73.7148" y="79.8589" width="6.14297" height="6.14297" fill="#E9D797"/>
<rect x="79.8574" y="79.8589" width="6.14297" height="6.14297" fill="#E9D797"/>
<rect x="86.002" y="79.8589" width="6.14297" height="6.14297" fill="#E9D799"/>
<rect x="92.1445" y="79.8589" width="6.14297" height="6.14297" fill="#062446"/>
<rect x="98.2871" y="79.8589" width="6.14297" height="6.14297" fill="#B3976F"/>
<rect x="104.43" y="79.8589" width="6.14297" height="6.14297" fill="#B9B9B9"/>
<rect y="86.002" width="6.14297" height="6.14297" fill="#4E4E52"/>
<rect x="6.14258" y="86.002" width="6.14297" height="6.14297" fill="#F0D69B"/>
<rect x="12.2852" y="86.002" width="6.14297" height="6.14297" fill="#092442"/>
<rect x="18.4277" y="86.002" width="6.14297" height="6.14297" fill="#17354F"/>
<rect x="24.5723" y="86.002" width="6.14297" height="6.14297" fill="#0A2844"/>
<rect x="30.7148" y="86.002" width="6.14297" height="6.14297" fill="#0A2844"/>
<rect x="36.8574" y="86.002" width="6.14297" height="6.14297" fill="#0A2844"/>
<rect x="43" y="86.002" width="6.14297" height="6.14297" fill="#E9D596"/>
<rect x="49.1426" y="86.002" width="6.14297" height="6.14297" fill="#E9D799"/>
<rect x="55.2871" y="86.002" width="6.14297" height="6.14297" fill="#0F2944"/>
<rect x="61.4297" y="86.002" width="6.14297" height="6.14297" fill="#0A2844"/>
<rect x="67.5723" y="86.002" width="6.14297" height="6.14297" fill="#0A2844"/>
<rect x="73.7148" y="86.002" width="6.14297" height="6.14297" fill="#0A2844"/>
<rect x="79.8574" y="86.002" width="6.14297" height="6.14297" fill="#0A2844"/>
<rect x="86.002" y="86.002" width="6.14297" height="6.14297" fill="#E6D496"/>
<rect x="92.1445" y="86.002" width="6.14297" height="6.14297" fill="#15334F"/>
<rect x="98.2871" y="86.002" width="6.14297" height="6.14297" fill="#AF976B"/>
<rect x="104.43" y="86.002" width="6.14297" height="6.14297" fill="#B3B3B3"/>
<rect y="92.146" width="6.14297" height="6.14297" fill="#4B5152"/>
<rect x="6.14258" y="92.146" width="6.14297" height="6.14297" fill="#ECD89B"/>
<rect x="12.2852" y="92.146" width="6.14297" height="6.14297" fill="#E8D698"/>
<rect x="18.4277" y="92.146" width="6.14297" height="6.14297" fill="#E7D597"/>
<rect x="24.5723" y="92.146" width="6.14297" height="6.14297" fill="#E9D799"/>
<rect x="30.7148" y="92.146" width="6.14297" height="6.14297" fill="#E9D799"/>
<rect x="36.8574" y="92.146" width="6.14297" height="6.14297" fill="#E9D799"/>
<rect x="43" y="92.146" width="6.14297" height="6.14297" fill="#E9D799"/>
<rect x="49.1426" y="92.146" width="6.14297" height="6.14297" fill="#E9D799"/>
<rect x="55.2871" y="92.146" width="6.14297" height="6.14297" fill="#E9D799"/>
<rect x="61.4297" y="92.146" width="6.14297" height="6.14297" fill="#E9D799"/>
<rect x="67.5723" y="92.146" width="6.14297" height="6.14297" fill="#E9D799"/>
<rect x="73.7148" y="92.146" width="6.14297" height="6.14297" fill="#E8D698"/>
<rect x="79.8574" y="92.146" width="6.14297" height="6.14297" fill="#E6D496"/>
<rect x="86.002" y="92.146" width="6.14297" height="6.14297" fill="#E9D99E"/>
<rect x="92.1445" y="92.146" width="6.14297" height="6.14297" fill="#072444"/>
<rect x="98.2871" y="92.146" width="6.14297" height="6.14297" fill="#B19669"/>
<rect x="104.43" y="92.146" width="6.14297" height="6.14297" fill="#B3B3B3"/>
<rect y="98.2881" width="6.14297" height="6.14297" fill="#4F5155"/>
<rect x="6.14258" y="98.2881" width="6.14297" height="6.14297" fill="#C1A478"/>
<rect x="12.2852" y="98.2881" width="6.14297" height="6.14297" fill="#AD9068"/>
<rect x="18.4277" y="98.2881" width="6.14297" height="6.14297" fill="#AD9068"/>
<rect x="24.5723" y="98.2881" width="6.14297" height="6.14297" fill="#AD9068"/>
<rect x="30.7148" y="98.2881" width="6.14297" height="6.14297" fill="#AD9068"/>
<rect x="36.8574" y="98.2881" width="6.14297" height="6.14297" fill="#AD9068"/>
<rect x="43" y="98.2881" width="6.14297" height="6.14297" fill="#AD9068"/>
<rect x="49.1426" y="98.2881" width="6.14297" height="6.14297" fill="#AD9068"/>
<rect x="55.2871" y="98.2881" width="6.14297" height="6.14297" fill="#AD9068"/>
<rect x="61.4297" y="98.2881" width="6.14297" height="6.14297" fill="#AD9068"/>
<rect x="67.5723" y="98.2881" width="6.14297" height="6.14297" fill="#AD9068"/>
<rect x="73.7148" y="98.2881" width="6.14297" height="6.14297" fill="#AB8D67"/>
<rect x="79.8574" y="98.2881" width="6.14297" height="6.14297" fill="#A68A63"/>
<rect x="86.002" y="98.2881" width="6.14297" height="6.14297" fill="#A88C65"/>
<rect x="92.1445" y="98.2881" width="6.14297" height="6.14297" fill="#0A2745"/>
<rect x="98.2871" y="98.2881" width="6.14297" height="6.14297" fill="#0B2641"/>
<rect x="104.43" y="98.2881" width="6.14297" height="6.14297" fill="#B9B9B9"/>
<rect x="6.14258" y="104.432" width="6.14297" height="6.14297" fill="#0A2038"/>
<rect x="12.2852" y="104.432" width="6.14297" height="6.14297" fill="#0D2742"/>
<rect x="18.4277" y="104.432" width="6.14297" height="6.14297" fill="#0A2745"/>
<rect x="24.5723" y="104.432" width="6.14297" height="6.14297" fill="#0A2745"/>
<rect x="30.7148" y="104.432" width="6.14297" height="6.14297" fill="#0A2745"/>
<rect x="36.8574" y="104.432" width="6.14297" height="6.14297" fill="#0A2745"/>
<rect x="43" y="104.432" width="6.14297" height="6.14297" fill="#0A2745"/>
<rect x="49.1426" y="104.432" width="6.14297" height="6.14297" fill="#0A2745"/>
<rect x="55.2871" y="104.432" width="6.14297" height="6.14297" fill="#0A2745"/>
<rect x="61.4297" y="104.432" width="6.14297" height="6.14297" fill="#0A2745"/>
<rect x="67.5723" y="104.432" width="6.14297" height="6.14297" fill="#092743"/>
<rect x="73.7148" y="104.432" width="6.14297" height="6.14297" fill="#193451"/>
<rect x="79.8574" y="104.432" width="6.14297" height="6.14297" fill="#0B2643"/>
<rect x="86.002" y="104.432" width="6.14297" height="6.14297" fill="#0D2742"/>
<rect x="92.1445" y="104.432" width="6.14297" height="6.14297" fill="#0D2742"/>
<rect x="98.2871" y="104.432" width="6.14297" height="6.14297" fill="#151922"/>
</svg>
