<svg width="104" height="115" viewBox="0 0 104 115" fill="none" xmlns="http://www.w3.org/2000/svg">
<rect x="68.6816" width="3.81566" height="3.81566" fill="#4A4A50"/>
<rect x="72.498" width="3.81566" height="3.81566" fill="#333D41"/>
<rect x="76.3125" width="3.81566" height="3.81566" fill="#333D41"/>
<rect x="80.1289" width="3.81566" height="3.81566" fill="#333D41"/>
<rect x="83.9453" width="3.81566" height="3.81566" fill="#333D41"/>
<rect x="87.7598" width="3.81566" height="3.81566" fill="#333D41"/>
<rect x="91.5762" width="3.81566" height="3.81566" fill="#333D41"/>
<rect x="95.3906" width="3.81566" height="3.81566" fill="#333D41"/>
<rect x="99.207" width="3.81566" height="3.81566" fill="#343D46"/>
<rect x="68.6816" y="3.81689" width="3.81566" height="3.81566" fill="#1E2128"/>
<rect x="72.498" y="3.81689" width="3.81566" height="3.81566" fill="#0A2745"/>
<rect x="76.3125" y="3.81689" width="3.81566" height="3.81566" fill="#0A2745"/>
<rect x="80.1289" y="3.81689" width="3.81566" height="3.81566" fill="#0A2745"/>
<rect x="83.9453" y="3.81689" width="3.81566" height="3.81566" fill="#0A2745"/>
<rect x="87.7598" y="3.81689" width="3.81566" height="3.81566" fill="#0A2745"/>
<rect x="91.5762" y="3.81689" width="3.81566" height="3.81566" fill="#0A2745"/>
<rect x="95.3906" y="3.81689" width="3.81566" height="3.81566" fill="#0A2745"/>
<rect x="99.207" y="3.81689" width="3.81566" height="3.81566" fill="#092749"/>
<rect x="64.8652" y="7.63135" width="3.81566" height="3.81566" fill="#0A243D"/>
<rect x="68.6816" y="7.63135" width="3.81566" height="3.81566" fill="#33AABE"/>
<rect x="72.498" y="7.63135" width="3.81566" height="3.81566" fill="#37C3D4"/>
<rect x="76.3125" y="7.63135" width="3.81566" height="3.81566" fill="#A8DDE1"/>
<rect x="80.1289" y="7.63135" width="3.81566" height="3.81566" fill="#A7DEE3"/>
<rect x="83.9453" y="7.63135" width="3.81566" height="3.81566" fill="#A7DEE3"/>
<rect x="87.7598" y="7.63135" width="3.81566" height="3.81566" fill="#A7DEE3"/>
<rect x="91.5762" y="7.63135" width="3.81566" height="3.81566" fill="#A7DEE3"/>
<rect x="95.3906" y="7.63135" width="3.81566" height="3.81566" fill="#0A2542"/>
<rect x="99.207" y="7.63135" width="3.81566" height="3.81566" fill="#092749"/>
<rect x="64.8652" y="11.4482" width="3.81566" height="3.81566" fill="#0A2747"/>
<rect x="68.6816" y="11.4482" width="3.81566" height="3.81566" fill="#30ABBB"/>
<rect x="72.498" y="11.4482" width="3.81566" height="3.81566" fill="#35C1CE"/>
<rect x="76.3125" y="11.4482" width="3.81566" height="3.81566" fill="#A5DCDF"/>
<rect x="80.1289" y="11.4482" width="3.81566" height="3.81566" fill="#A6DBDF"/>
<rect x="83.9453" y="11.4482" width="3.81566" height="3.81566" fill="#A6DBDF"/>
<rect x="87.7598" y="11.4482" width="3.81566" height="3.81566" fill="#A6DBDF"/>
<rect x="91.5762" y="11.4482" width="3.81566" height="3.81566" fill="#A6DBDF"/>
<rect x="95.3906" y="11.4482" width="3.81566" height="3.81566" fill="#08294A"/>
<rect x="99.207" y="11.4482" width="3.81566" height="3.81566" fill="#092749"/>
<rect x="57.2344" y="15.2632" width="3.81566" height="3.81566" fill="#072645"/>
<rect x="61.0488" y="15.2632" width="3.81566" height="3.81566" fill="#0A2747"/>
<rect x="64.8652" y="15.2632" width="3.81566" height="3.81566" fill="#34C1CB"/>
<rect x="68.6816" y="15.2632" width="3.81566" height="3.81566" fill="#A1D6E4"/>
<rect x="72.498" y="15.2632" width="3.81566" height="3.81566" fill="#A8DBDF"/>
<rect x="76.3125" y="15.2632" width="3.81566" height="3.81566" fill="#A7DADE"/>
<rect x="80.1289" y="15.2632" width="3.81566" height="3.81566" fill="#A9DCE0"/>
<rect x="83.9453" y="15.2632" width="3.81566" height="3.81566" fill="#35C1D0"/>
<rect x="87.7598" y="15.2632" width="3.81566" height="3.81566" fill="#35C1CE"/>
<rect x="91.5762" y="15.2632" width="3.81566" height="3.81566" fill="#35C1CE"/>
<rect x="95.3906" y="15.2632" width="3.81566" height="3.81566" fill="#092646"/>
<rect x="99.207" y="15.2632" width="3.81566" height="3.81566" fill="#092749"/>
<rect x="57.2344" y="19.0781" width="3.81566" height="3.81566" fill="#0B2846"/>
<rect x="61.0488" y="19.0781" width="3.81566" height="3.81566" fill="#0C2947"/>
<rect x="64.8652" y="19.0781" width="3.81566" height="3.81566" fill="#35C1CE"/>
<rect x="68.6816" y="19.0781" width="3.81566" height="3.81566" fill="#9BDCDE"/>
<rect x="72.498" y="19.0781" width="3.81566" height="3.81566" fill="#A6DBDF"/>
<rect x="76.3125" y="19.0781" width="3.81566" height="3.81566" fill="#A6DBDF"/>
<rect x="80.1289" y="19.0781" width="3.81566" height="3.81566" fill="#A6DBDF"/>
<rect x="83.9453" y="19.0781" width="3.81566" height="3.81566" fill="#36C2CF"/>
<rect x="87.7598" y="19.0781" width="3.81566" height="3.81566" fill="#35C1CE"/>
<rect x="91.5762" y="19.0781" width="3.81566" height="3.81566" fill="#35C1CE"/>
<rect x="95.3906" y="19.0781" width="3.81566" height="3.81566" fill="#082948"/>
<rect x="99.207" y="19.0781" width="3.81566" height="3.81566" fill="#092847"/>
<rect x="49.6035" y="22.8945" width="3.81566" height="3.81566" fill="#0A2946"/>
<rect x="53.4199" y="22.8945" width="3.81566" height="3.81566" fill="#0A2844"/>
<rect x="57.2344" y="22.8945" width="3.81566" height="3.81566" fill="#3AC2D2"/>
<rect x="61.0488" y="22.8945" width="3.81566" height="3.81566" fill="#39BDD2"/>
<rect x="64.8652" y="22.8945" width="3.81566" height="3.81566" fill="#A6DCDE"/>
<rect x="68.6816" y="22.8945" width="3.81566" height="3.81566" fill="#A8DAE1"/>
<rect x="72.498" y="22.8945" width="3.81566" height="3.81566" fill="#A6DBDF"/>
<rect x="76.3125" y="22.8945" width="3.81566" height="3.81566" fill="#34C1D2"/>
<rect x="80.1289" y="22.8945" width="3.81566" height="3.81566" fill="#37C1CC"/>
<rect x="83.9453" y="22.8945" width="3.81566" height="3.81566" fill="#35C1CE"/>
<rect x="87.7598" y="22.8945" width="3.81566" height="3.81566" fill="#35C1CE"/>
<rect x="91.5762" y="22.8945" width="3.81566" height="3.81566" fill="#34C0CD"/>
<rect x="95.3906" y="22.8945" width="3.81566" height="3.81566" fill="#082948"/>
<rect x="99.207" y="22.8945" width="3.81566" height="3.81566" fill="#0F2C4C"/>
<rect x="49.6035" y="26.71" width="3.81566" height="3.81566" fill="#082543"/>
<rect x="53.4199" y="26.71" width="3.81566" height="3.81566" fill="#092743"/>
<rect x="57.2344" y="26.71" width="3.81566" height="3.81566" fill="#37C0D2"/>
<rect x="61.0488" y="26.71" width="3.81566" height="3.81566" fill="#37C1CC"/>
<rect x="64.8652" y="26.71" width="3.81566" height="3.81566" fill="#A6DBDF"/>
<rect x="68.6816" y="26.71" width="3.81566" height="3.81566" fill="#A5DDDE"/>
<rect x="72.498" y="26.71" width="3.81566" height="3.81566" fill="#A6DBDF"/>
<rect x="76.3125" y="26.71" width="3.81566" height="3.81566" fill="#35C3D1"/>
<rect x="80.1289" y="26.71" width="3.81566" height="3.81566" fill="#35C1CE"/>
<rect x="83.9453" y="26.71" width="3.81566" height="3.81566" fill="#35C1CE"/>
<rect x="87.7598" y="26.71" width="3.81566" height="3.81566" fill="#34C0CD"/>
<rect x="91.5762" y="26.71" width="3.81566" height="3.81566" fill="#36BFD1"/>
<rect x="95.3906" y="26.71" width="3.81566" height="3.81566" fill="#163552"/>
<rect x="99.207" y="26.71" width="3.81566" height="3.81566" fill="#173454"/>
<rect x="41.9746" y="30.5264" width="3.81566" height="3.81566" fill="#676D70"/>
<rect x="45.7891" y="30.5264" width="3.81566" height="3.81566" fill="#0C2647"/>
<rect x="49.6035" y="30.5264" width="3.81566" height="3.81566" fill="#33C1CB"/>
<rect x="53.4199" y="30.5264" width="3.81566" height="3.81566" fill="#34C2CC"/>
<rect x="57.2344" y="30.5264" width="3.81566" height="3.81566" fill="#A8DBDF"/>
<rect x="61.0488" y="30.5264" width="3.81566" height="3.81566" fill="#A7DCE0"/>
<rect x="64.8652" y="30.5264" width="3.81566" height="3.81566" fill="#A6DBDF"/>
<rect x="68.6816" y="30.5264" width="3.81566" height="3.81566" fill="#43C1D0"/>
<rect x="72.498" y="30.5264" width="3.81566" height="3.81566" fill="#35C1CE"/>
<rect x="76.3125" y="30.5264" width="3.81566" height="3.81566" fill="#35C1CE"/>
<rect x="80.1289" y="30.5264" width="3.81566" height="3.81566" fill="#35C1CE"/>
<rect x="83.9453" y="30.5264" width="3.81566" height="3.81566" fill="#36C0CD"/>
<rect x="87.7598" y="30.5264" width="3.81566" height="3.81566" fill="#188CB5"/>
<rect x="91.5762" y="30.5264" width="3.81566" height="3.81566" fill="#228EBD"/>
<rect x="95.3906" y="30.5264" width="3.81566" height="3.81566" fill="#133654"/>
<rect x="99.207" y="30.5264" width="3.81566" height="3.81566" fill="#173454"/>
<rect x="41.9746" y="34.3408" width="3.81566" height="3.81566" fill="#6F6F72"/>
<rect x="45.7891" y="34.3408" width="3.81566" height="3.81566" fill="#0B294B"/>
<rect x="49.6035" y="34.3408" width="3.81566" height="3.81566" fill="#3BBFCE"/>
<rect x="53.4199" y="34.3408" width="3.81566" height="3.81566" fill="#37C1CE"/>
<rect x="57.2344" y="34.3408" width="3.81566" height="3.81566" fill="#A6DEDF"/>
<rect x="61.0488" y="34.3408" width="3.81566" height="3.81566" fill="#A6D9DD"/>
<rect x="64.8652" y="34.3408" width="3.81566" height="3.81566" fill="#A4DBDE"/>
<rect x="68.6816" y="34.3408" width="3.81566" height="3.81566" fill="#41C2C7"/>
<rect x="72.498" y="34.3408" width="3.81566" height="3.81566" fill="#35C1CE"/>
<rect x="76.3125" y="34.3408" width="3.81566" height="3.81566" fill="#35C1CE"/>
<rect x="80.1289" y="34.3408" width="3.81566" height="3.81566" fill="#33C0CA"/>
<rect x="83.9453" y="34.3408" width="3.81566" height="3.81566" fill="#39C1CD"/>
<rect x="87.7598" y="34.3408" width="3.81566" height="3.81566" fill="#1D89B7"/>
<rect x="91.5762" y="34.3408" width="3.81566" height="3.81566" fill="#1987B8"/>
<rect x="95.3906" y="34.3408" width="3.81566" height="3.81566" fill="#1A3553"/>
<rect x="99.207" y="34.3408" width="3.81566" height="3.81566" fill="#082948"/>
<rect x="38.1562" y="38.1572" width="3.81566" height="3.81566" fill="#0C2744"/>
<rect x="41.9746" y="38.1572" width="3.81566" height="3.81566" fill="#154E55"/>
<rect x="45.7891" y="38.1572" width="3.81566" height="3.81566" fill="#35C1CE"/>
<rect x="49.6035" y="38.1572" width="3.81566" height="3.81566" fill="#A6DBDF"/>
<rect x="53.4199" y="38.1572" width="3.81566" height="3.81566" fill="#A6DBDF"/>
<rect x="57.2344" y="38.1572" width="3.81566" height="3.81566" fill="#A6DBDF"/>
<rect x="61.0488" y="38.1572" width="3.81566" height="3.81566" fill="#A6DCDE"/>
<rect x="64.8652" y="38.1572" width="3.81566" height="3.81566" fill="#35C1CE"/>
<rect x="68.6816" y="38.1572" width="3.81566" height="3.81566" fill="#35C1CE"/>
<rect x="72.498" y="38.1572" width="3.81566" height="3.81566" fill="#35C1CE"/>
<rect x="76.3125" y="38.1572" width="3.81566" height="3.81566" fill="#34C0CD"/>
<rect x="80.1289" y="38.1572" width="3.81566" height="3.81566" fill="#34C1CB"/>
<rect x="83.9453" y="38.1572" width="3.81566" height="3.81566" fill="#1385B9"/>
<rect x="87.7598" y="38.1572" width="3.81566" height="3.81566" fill="#0C1C35"/>
<rect x="91.5762" y="38.1572" width="3.81566" height="3.81566" fill="#1B3653"/>
<rect x="7.63281" y="41.9727" width="3.81566" height="3.81566" fill="#1E282A"/>
<rect x="11.4473" y="41.9727" width="3.81566" height="3.81566" fill="#081420"/>
<rect x="15.2637" y="41.9727" width="3.81566" height="3.81566" fill="#0B1B28"/>
<rect x="19.0781" y="41.9727" width="3.81566" height="3.81566" fill="#2E4356"/>
<rect x="38.1562" y="41.9727" width="3.81566" height="3.81566" fill="#0E3240"/>
<rect x="41.9746" y="41.9727" width="3.81566" height="3.81566" fill="#276D77"/>
<rect x="45.7891" y="41.9727" width="3.81566" height="3.81566" fill="#47C3CF"/>
<rect x="49.6035" y="41.9727" width="3.81566" height="3.81566" fill="#A2DCDE"/>
<rect x="53.4199" y="41.9727" width="3.81566" height="3.81566" fill="#A6DBDF"/>
<rect x="57.2344" y="41.9727" width="3.81566" height="3.81566" fill="#72D1D7"/>
<rect x="61.0488" y="41.9727" width="3.81566" height="3.81566" fill="#72D1D5"/>
<rect x="64.8652" y="41.9727" width="3.81566" height="3.81566" fill="#35C1CE"/>
<rect x="68.6816" y="41.9727" width="3.81566" height="3.81566" fill="#35C1CE"/>
<rect x="72.498" y="41.9727" width="3.81566" height="3.81566" fill="#34C0CD"/>
<rect x="76.3125" y="41.9727" width="3.81566" height="3.81566" fill="#33BDCA"/>
<rect x="80.1289" y="41.9727" width="3.81566" height="3.81566" fill="#44C4D1"/>
<rect x="83.9453" y="41.9727" width="3.81566" height="3.81566" fill="#34A7C2"/>
<rect x="87.7598" y="41.9727" width="3.81566" height="3.81566" fill="#011627"/>
<rect x="91.5762" y="41.9727" width="3.81566" height="3.81566" fill="#091B31"/>
<rect x="7.63281" y="45.7896" width="3.81566" height="3.81566" fill="#141B23"/>
<rect x="11.4473" y="45.7896" width="3.81566" height="3.81566" fill="#0A2745"/>
<rect x="15.2637" y="45.7896" width="3.81566" height="3.81566" fill="#0A2745"/>
<rect x="19.0781" y="45.7896" width="3.81566" height="3.81566" fill="#1E3C58"/>
<rect x="30.5254" y="45.7896" width="3.81566" height="3.81566" fill="#062746"/>
<rect x="34.3418" y="45.7896" width="3.81566" height="3.81566" fill="#0A2948"/>
<rect x="38.1562" y="45.7896" width="3.81566" height="3.81566" fill="#35C1CE"/>
<rect x="41.9746" y="45.7896" width="3.81566" height="3.81566" fill="#5AC9D4"/>
<rect x="45.7891" y="45.7896" width="3.81566" height="3.81566" fill="#A6DBDF"/>
<rect x="49.6035" y="45.7896" width="3.81566" height="3.81566" fill="#A6DBDF"/>
<rect x="53.4199" y="45.7896" width="3.81566" height="3.81566" fill="#A6DBDF"/>
<rect x="57.2344" y="45.7896" width="3.81566" height="3.81566" fill="#37C1CE"/>
<rect x="61.0488" y="45.7896" width="3.81566" height="3.81566" fill="#35C1CE"/>
<rect x="64.8652" y="45.7896" width="3.81566" height="3.81566" fill="#35C1CE"/>
<rect x="68.6816" y="45.7896" width="3.81566" height="3.81566" fill="#36C0CD"/>
<rect x="72.498" y="45.7896" width="3.81566" height="3.81566" fill="#3BC1CD"/>
<rect x="76.3125" y="45.7896" width="3.81566" height="3.81566" fill="#218FC0"/>
<rect x="80.1289" y="45.7896" width="3.81566" height="3.81566" fill="#1F8DC0"/>
<rect x="83.9453" y="45.7896" width="3.81566" height="3.81566" fill="#193451"/>
<rect x="7.63281" y="49.604" width="3.81566" height="3.81566" fill="#18212A"/>
<rect x="11.4473" y="49.604" width="3.81566" height="3.81566" fill="#0A2745"/>
<rect x="15.2637" y="49.604" width="3.81566" height="3.81566" fill="#F5B339"/>
<rect x="19.0781" y="49.604" width="3.81566" height="3.81566" fill="#FCB83D"/>
<rect x="22.8945" y="49.604" width="3.81566" height="3.81566" fill="#071D35"/>
<rect x="26.7109" y="49.604" width="3.81566" height="3.81566" fill="#051A2F"/>
<rect x="30.5254" y="49.604" width="3.81566" height="3.81566" fill="#1883BB"/>
<rect x="34.3418" y="49.604" width="3.81566" height="3.81566" fill="#1386BD"/>
<rect x="38.1562" y="49.604" width="3.81566" height="3.81566" fill="#A8DBDF"/>
<rect x="41.9746" y="49.604" width="3.81566" height="3.81566" fill="#9DDDDC"/>
<rect x="45.7891" y="49.604" width="3.81566" height="3.81566" fill="#A6DBDF"/>
<rect x="49.6035" y="49.604" width="3.81566" height="3.81566" fill="#30BFCF"/>
<rect x="53.4199" y="49.604" width="3.81566" height="3.81566" fill="#33C1CF"/>
<rect x="57.2344" y="49.604" width="3.81566" height="3.81566" fill="#35C1CE"/>
<rect x="61.0488" y="49.604" width="3.81566" height="3.81566" fill="#35C1CE"/>
<rect x="64.8652" y="49.604" width="3.81566" height="3.81566" fill="#34C0CD"/>
<rect x="68.6816" y="49.604" width="3.81566" height="3.81566" fill="#138AB4"/>
<rect x="72.498" y="49.604" width="3.81566" height="3.81566" fill="#1881B1"/>
<rect x="76.3125" y="49.604" width="3.81566" height="3.81566" fill="#0D2B43"/>
<rect x="80.1289" y="49.604" width="3.81566" height="3.81566" fill="#0F304F"/>
<rect x="7.63281" y="53.4189" width="3.81566" height="3.81566" fill="#141B23"/>
<rect x="11.4473" y="53.4189" width="3.81566" height="3.81566" fill="#0A2745"/>
<rect x="15.2637" y="53.4189" width="3.81566" height="3.81566" fill="#F3B637"/>
<rect x="19.0781" y="53.4189" width="3.81566" height="3.81566" fill="#F5B537"/>
<rect x="22.8945" y="53.4189" width="3.81566" height="3.81566" fill="#071F39"/>
<rect x="26.7109" y="53.4189" width="3.81566" height="3.81566" fill="#071F39"/>
<rect x="30.5254" y="53.4189" width="3.81566" height="3.81566" fill="#1288BA"/>
<rect x="34.3418" y="53.4189" width="3.81566" height="3.81566" fill="#1385B7"/>
<rect x="38.1562" y="53.4189" width="3.81566" height="3.81566" fill="#A6DBDF"/>
<rect x="41.9746" y="53.4189" width="3.81566" height="3.81566" fill="#A6DBDF"/>
<rect x="45.7891" y="53.4189" width="3.81566" height="3.81566" fill="#A6DBDF"/>
<rect x="49.6035" y="53.4189" width="3.81566" height="3.81566" fill="#37C1CE"/>
<rect x="53.4199" y="53.4189" width="3.81566" height="3.81566" fill="#35C1CE"/>
<rect x="57.2344" y="53.4189" width="3.81566" height="3.81566" fill="#35C1CE"/>
<rect x="61.0488" y="53.4189" width="3.81566" height="3.81566" fill="#34C0CD"/>
<rect x="64.8652" y="53.4189" width="3.81566" height="3.81566" fill="#37BFCB"/>
<rect x="68.6816" y="53.4189" width="3.81566" height="3.81566" fill="#218FC0"/>
<rect x="72.498" y="53.4189" width="3.81566" height="3.81566" fill="#1886B7"/>
<rect x="76.3125" y="53.4189" width="3.81566" height="3.81566" fill="#0C2544"/>
<rect x="80.1289" y="53.4189" width="3.81566" height="3.81566" fill="#0A2946"/>
<rect x="7.63281" y="57.2358" width="3.81566" height="3.81566" fill="#121921"/>
<rect x="11.4473" y="57.2358" width="3.81566" height="3.81566" fill="#0A2745"/>
<rect x="15.2637" y="57.2358" width="3.81566" height="3.81566" fill="#F8612A"/>
<rect x="19.0781" y="57.2358" width="3.81566" height="3.81566" fill="#F36422"/>
<rect x="22.8945" y="57.2358" width="3.81566" height="3.81566" fill="#F3B52C"/>
<rect x="26.7109" y="57.2358" width="3.81566" height="3.81566" fill="#F8B331"/>
<rect x="30.5254" y="57.2358" width="3.81566" height="3.81566" fill="#0A2038"/>
<rect x="34.3418" y="57.2358" width="3.81566" height="3.81566" fill="#062039"/>
<rect x="38.1562" y="57.2358" width="3.81566" height="3.81566" fill="#A6DBDF"/>
<rect x="41.9746" y="57.2358" width="3.81566" height="3.81566" fill="#81D3DF"/>
<rect x="45.7891" y="57.2358" width="3.81566" height="3.81566" fill="#35C1CE"/>
<rect x="49.6035" y="57.2358" width="3.81566" height="3.81566" fill="#34C0CD"/>
<rect x="53.4199" y="57.2358" width="3.81566" height="3.81566" fill="#35C1CE"/>
<rect x="57.2344" y="57.2358" width="3.81566" height="3.81566" fill="#34C0CD"/>
<rect x="61.0488" y="57.2358" width="3.81566" height="3.81566" fill="#39BECF"/>
<rect x="64.8652" y="57.2358" width="3.81566" height="3.81566" fill="#2591C0"/>
<rect x="68.6816" y="57.2358" width="3.81566" height="3.81566" fill="#0D2742"/>
<rect x="72.498" y="57.2358" width="3.81566" height="3.81566" fill="#18334E"/>
<rect x="7.63281" y="61.0513" width="3.81566" height="3.81566" fill="#141B25"/>
<rect x="11.4473" y="61.0513" width="3.81566" height="3.81566" fill="#0B2641"/>
<rect x="15.2637" y="61.0513" width="3.81566" height="3.81566" fill="#F46427"/>
<rect x="19.0781" y="61.0513" width="3.81566" height="3.81566" fill="#F36326"/>
<rect x="22.8945" y="61.0513" width="3.81566" height="3.81566" fill="#F0B638"/>
<rect x="26.7109" y="61.0513" width="3.81566" height="3.81566" fill="#F2B536"/>
<rect x="30.5254" y="61.0513" width="3.81566" height="3.81566" fill="#08203A"/>
<rect x="34.3418" y="61.0513" width="3.81566" height="3.81566" fill="#0C213C"/>
<rect x="38.1562" y="61.0513" width="3.81566" height="3.81566" fill="#A5DADE"/>
<rect x="41.9746" y="61.0513" width="3.81566" height="3.81566" fill="#7BD4D8"/>
<rect x="45.7891" y="61.0513" width="3.81566" height="3.81566" fill="#35C1CE"/>
<rect x="49.6035" y="61.0513" width="3.81566" height="3.81566" fill="#35C1CE"/>
<rect x="53.4199" y="61.0513" width="3.81566" height="3.81566" fill="#34C0CD"/>
<rect x="57.2344" y="61.0513" width="3.81566" height="3.81566" fill="#41C7D2"/>
<rect x="61.0488" y="61.0513" width="3.81566" height="3.81566" fill="#33BBC7"/>
<rect x="64.8652" y="61.0513" width="3.81566" height="3.81566" fill="#238DBD"/>
<rect x="68.6816" y="61.0513" width="3.81566" height="3.81566" fill="#1E3350"/>
<rect x="72.498" y="61.0513" width="3.81566" height="3.81566" fill="#092644"/>
<rect x="15.2637" y="64.8672" width="3.81566" height="3.81566" fill="#051F3A"/>
<rect x="19.0781" y="64.8672" width="3.81566" height="3.81566" fill="#071F39"/>
<rect x="22.8945" y="64.8672" width="3.81566" height="3.81566" fill="#F36326"/>
<rect x="26.7109" y="64.8672" width="3.81566" height="3.81566" fill="#F36326"/>
<rect x="30.5254" y="64.8672" width="3.81566" height="3.81566" fill="#F78628"/>
<rect x="34.3418" y="64.8672" width="3.81566" height="3.81566" fill="#FA8528"/>
<rect x="38.1562" y="64.8672" width="3.81566" height="3.81566" fill="#071F39"/>
<rect x="41.9746" y="64.8672" width="3.81566" height="3.81566" fill="#185165"/>
<rect x="45.7891" y="64.8672" width="3.81566" height="3.81566" fill="#35C1CE"/>
<rect x="49.6035" y="64.8672" width="3.81566" height="3.81566" fill="#35C1CE"/>
<rect x="53.4199" y="64.8672" width="3.81566" height="3.81566" fill="#34C0CD"/>
<rect x="57.2344" y="64.8672" width="3.81566" height="3.81566" fill="#1F8DBE"/>
<rect x="61.0488" y="64.8672" width="3.81566" height="3.81566" fill="#2B9BC3"/>
<rect x="64.8652" y="64.8672" width="3.81566" height="3.81566" fill="#1B3550"/>
<rect x="15.2637" y="68.6826" width="3.81566" height="3.81566" fill="#051F3A"/>
<rect x="19.0781" y="68.6826" width="3.81566" height="3.81566" fill="#071F39"/>
<rect x="22.8945" y="68.6826" width="3.81566" height="3.81566" fill="#F46226"/>
<rect x="26.7109" y="68.6826" width="3.81566" height="3.81566" fill="#F4632A"/>
<rect x="30.5254" y="68.6826" width="3.81566" height="3.81566" fill="#F68525"/>
<rect x="34.3418" y="68.6826" width="3.81566" height="3.81566" fill="#FB8929"/>
<rect x="38.1562" y="68.6826" width="3.81566" height="3.81566" fill="#071F39"/>
<rect x="41.9746" y="68.6826" width="3.81566" height="3.81566" fill="#114763"/>
<rect x="45.7891" y="68.6826" width="3.81566" height="3.81566" fill="#37C0D0"/>
<rect x="49.6035" y="68.6826" width="3.81566" height="3.81566" fill="#35C1CE"/>
<rect x="53.4199" y="68.6826" width="3.81566" height="3.81566" fill="#35C2CC"/>
<rect x="57.2344" y="68.6826" width="3.81566" height="3.81566" fill="#0F88B7"/>
<rect x="61.0488" y="68.6826" width="3.81566" height="3.81566" fill="#279AB9"/>
<rect x="64.8652" y="68.6826" width="3.81566" height="3.81566" fill="#092646"/>
<rect x="22.8945" y="72.499" width="3.81566" height="3.81566" fill="#062039"/>
<rect x="26.7109" y="72.499" width="3.81566" height="3.81566" fill="#091E39"/>
<rect x="30.5254" y="72.499" width="3.81566" height="3.81566" fill="#F46226"/>
<rect x="34.3418" y="72.499" width="3.81566" height="3.81566" fill="#F46226"/>
<rect x="38.1562" y="72.499" width="3.81566" height="3.81566" fill="#F78628"/>
<rect x="41.9746" y="72.499" width="3.81566" height="3.81566" fill="#A5632F"/>
<rect x="45.7891" y="72.499" width="3.81566" height="3.81566" fill="#071F39"/>
<rect x="49.6035" y="72.499" width="3.81566" height="3.81566" fill="#1486BA"/>
<rect x="53.4199" y="72.499" width="3.81566" height="3.81566" fill="#1387BA"/>
<rect x="57.2344" y="72.499" width="3.81566" height="3.81566" fill="#0C2742"/>
<rect x="61.0488" y="72.499" width="3.81566" height="3.81566" fill="#0C2544"/>
<rect x="15.2637" y="76.3135" width="3.81566" height="3.81566" fill="#AABFBF"/>
<rect x="19.0781" y="76.3135" width="3.81566" height="3.81566" fill="#B1B1C4"/>
<rect x="22.8945" y="76.3135" width="3.81566" height="3.81566" fill="#442535"/>
<rect x="26.7109" y="76.3135" width="3.81566" height="3.81566" fill="#3D2437"/>
<rect x="30.5254" y="76.3135" width="3.81566" height="3.81566" fill="#97482A"/>
<rect x="34.3418" y="76.3135" width="3.81566" height="3.81566" fill="#944A31"/>
<rect x="38.1562" y="76.3135" width="3.81566" height="3.81566" fill="#F47727"/>
<rect x="41.9746" y="76.3135" width="3.81566" height="3.81566" fill="#CC6834"/>
<rect x="45.7891" y="76.3135" width="3.81566" height="3.81566" fill="#734B31"/>
<rect x="49.6035" y="76.3135" width="3.81566" height="3.81566" fill="#0F5680"/>
<rect x="53.4199" y="76.3135" width="3.81566" height="3.81566" fill="#0C5A80"/>
<rect x="57.2344" y="76.3135" width="3.81566" height="3.81566" fill="#555364"/>
<rect x="61.0488" y="76.3135" width="3.81566" height="3.81566" fill="#4F5165"/>
<rect x="15.2637" y="80.1289" width="3.81566" height="3.81566" fill="#07213C"/>
<rect x="19.0781" y="80.1289" width="3.81566" height="3.81566" fill="#071F39"/>
<rect x="22.8945" y="80.1289" width="3.81566" height="3.81566" fill="#B72925"/>
<rect x="26.7109" y="80.1289" width="3.81566" height="3.81566" fill="#B82B24"/>
<rect x="30.5254" y="80.1289" width="3.81566" height="3.81566" fill="#071F39"/>
<rect x="34.3418" y="80.1289" width="3.81566" height="3.81566" fill="#071F37"/>
<rect x="38.1562" y="80.1289" width="3.81566" height="3.81566" fill="#F36326"/>
<rect x="41.9746" y="80.1289" width="3.81566" height="3.81566" fill="#F46E25"/>
<rect x="45.7891" y="80.1289" width="3.81566" height="3.81566" fill="#F78628"/>
<rect x="49.6035" y="80.1289" width="3.81566" height="3.81566" fill="#071F3B"/>
<rect x="53.4199" y="80.1289" width="3.81566" height="3.81566" fill="#071F39"/>
<rect x="7.63281" y="83.9453" width="3.81566" height="3.81566" fill="#041735"/>
<rect x="11.4473" y="83.9453" width="3.81566" height="3.81566" fill="#031C3A"/>
<rect x="15.2637" y="83.9453" width="3.81566" height="3.81566" fill="#BA3926"/>
<rect x="19.0781" y="83.9453" width="3.81566" height="3.81566" fill="#CA422A"/>
<rect x="22.8945" y="83.9453" width="3.81566" height="3.81566" fill="#321C42"/>
<rect x="26.7109" y="83.9453" width="3.81566" height="3.81566" fill="#311A37"/>
<rect x="30.5254" y="83.9453" width="3.81566" height="3.81566" fill="#071F39"/>
<rect x="34.3418" y="83.9453" width="3.81566" height="3.81566" fill="#0C1F3D"/>
<rect x="38.1562" y="83.9453" width="3.81566" height="3.81566" fill="#11223C"/>
<rect x="41.9746" y="83.9453" width="3.81566" height="3.81566" fill="#6D4734"/>
<rect x="45.7891" y="83.9453" width="3.81566" height="3.81566" fill="#F16124"/>
<rect x="49.6035" y="83.9453" width="3.81566" height="3.81566" fill="#F87429"/>
<rect x="53.4199" y="83.9453" width="3.81566" height="3.81566" fill="#F77424"/>
<rect x="57.2344" y="83.9453" width="3.81566" height="3.81566" fill="#001A33"/>
<rect x="61.0488" y="83.9453" width="3.81566" height="3.81566" fill="#061B36"/>
<rect x="7.63281" y="87.7593" width="3.81566" height="3.81566" fill="#081E36"/>
<rect x="11.4473" y="87.7593" width="3.81566" height="3.81566" fill="#071F39"/>
<rect x="15.2637" y="87.7593" width="3.81566" height="3.81566" fill="#952426"/>
<rect x="19.0781" y="87.7593" width="3.81566" height="3.81566" fill="#972525"/>
<rect x="22.8945" y="87.7593" width="3.81566" height="3.81566" fill="#460837"/>
<rect x="26.7109" y="87.7593" width="3.81566" height="3.81566" fill="#450A38"/>
<rect x="30.5254" y="87.7593" width="3.81566" height="3.81566" fill="#071F39"/>
<rect x="34.3418" y="87.7593" width="3.81566" height="3.81566" fill="#071F39"/>
<rect x="38.1562" y="87.7593" width="3.81566" height="3.81566" fill="#071F39"/>
<rect x="41.9746" y="87.7593" width="3.81566" height="3.81566" fill="#604635"/>
<rect x="45.7891" y="87.7593" width="3.81566" height="3.81566" fill="#F36326"/>
<rect x="49.6035" y="87.7593" width="3.81566" height="3.81566" fill="#F36326"/>
<rect x="53.4199" y="87.7593" width="3.81566" height="3.81566" fill="#F36326"/>
<rect x="57.2344" y="87.7593" width="3.81566" height="3.81566" fill="#051F38"/>
<rect x="61.0488" y="87.7593" width="3.81566" height="3.81566" fill="#071F39"/>
<rect y="91.5752" width="3.81566" height="3.81566" fill="#5F646F"/>
<rect x="3.81641" y="91.5752" width="3.81566" height="3.81566" fill="#071F39"/>
<rect x="7.63281" y="91.5752" width="3.81566" height="3.81566" fill="#F9B72D"/>
<rect x="11.4473" y="91.5752" width="3.81566" height="3.81566" fill="#F6B535"/>
<rect x="15.2637" y="91.5752" width="3.81566" height="3.81566" fill="#560832"/>
<rect x="19.0781" y="91.5752" width="3.81566" height="3.81566" fill="#590B35"/>
<rect x="22.8945" y="91.5752" width="3.81566" height="3.81566" fill="#061F3D"/>
<rect x="26.7109" y="91.5752" width="3.81566" height="3.81566" fill="#0A1E37"/>
<rect x="41.9746" y="91.5752" width="3.81566" height="3.81566" fill="#5C6D81"/>
<rect x="45.7891" y="91.5752" width="3.81566" height="3.81566" fill="#051F38"/>
<rect x="49.6035" y="91.5752" width="3.81566" height="3.81566" fill="#071F37"/>
<rect x="53.4199" y="91.5752" width="3.81566" height="3.81566" fill="#05203B"/>
<rect x="57.2344" y="91.5752" width="3.81566" height="3.81566" fill="#032237"/>
<rect x="61.0488" y="91.5752" width="3.81566" height="3.81566" fill="#071F39"/>
<rect y="95.3901" width="3.81566" height="3.81566" fill="#62646F"/>
<rect x="3.81641" y="95.3901" width="3.81566" height="3.81566" fill="#071F39"/>
<rect x="7.63281" y="95.3901" width="3.81566" height="3.81566" fill="#FAB735"/>
<rect x="11.4473" y="95.3901" width="3.81566" height="3.81566" fill="#F5B537"/>
<rect x="15.2637" y="95.3901" width="3.81566" height="3.81566" fill="#570A34"/>
<rect x="19.0781" y="95.3901" width="3.81566" height="3.81566" fill="#580A32"/>
<rect x="22.8945" y="95.3901" width="3.81566" height="3.81566" fill="#08203A"/>
<rect x="26.7109" y="95.3901" width="3.81566" height="3.81566" fill="#172B44"/>
<rect x="41.9746" y="95.3901" width="3.81566" height="3.81566" fill="#61696C"/>
<rect x="45.7891" y="95.3901" width="3.81566" height="3.81566" fill="#071F39"/>
<rect x="49.6035" y="95.3901" width="3.81566" height="3.81566" fill="#061E3A"/>
<rect x="53.4199" y="95.3901" width="3.81566" height="3.81566" fill="#061E3A"/>
<rect x="57.2344" y="95.3901" width="3.81566" height="3.81566" fill="#061E3A"/>
<rect x="61.0488" y="95.3901" width="3.81566" height="3.81566" fill="#071F39"/>
<rect y="99.2085" width="3.81566" height="3.81566" fill="#62646F"/>
<rect x="3.81641" y="99.2085" width="3.81566" height="3.81566" fill="#071F39"/>
<rect x="7.63281" y="99.2085" width="3.81566" height="3.81566" fill="#FC6421"/>
<rect x="11.4473" y="99.2085" width="3.81566" height="3.81566" fill="#F36126"/>
<rect x="15.2637" y="99.2085" width="3.81566" height="3.81566" fill="#F36221"/>
<rect x="19.0781" y="99.2085" width="3.81566" height="3.81566" fill="#F16228"/>
<rect x="22.8945" y="99.2085" width="3.81566" height="3.81566" fill="#162949"/>
<rect x="26.7109" y="99.2085" width="3.81566" height="3.81566" fill="#081C35"/>
<rect y="103.023" width="3.81566" height="3.81566" fill="#626471"/>
<rect x="3.81641" y="103.023" width="3.81566" height="3.81566" fill="#0A1E37"/>
<rect x="7.63281" y="103.023" width="3.81566" height="3.81566" fill="#FB621F"/>
<rect x="11.4473" y="103.023" width="3.81566" height="3.81566" fill="#F06427"/>
<rect x="15.2637" y="103.023" width="3.81566" height="3.81566" fill="#EE6227"/>
<rect x="19.0781" y="103.023" width="3.81566" height="3.81566" fill="#F46F37"/>
<rect x="22.8945" y="103.023" width="3.81566" height="3.81566" fill="#142F40"/>
<rect x="26.7109" y="103.023" width="3.81566" height="3.81566" fill="#152D47"/>
<rect x="7.63281" y="106.84" width="3.81566" height="3.81566" fill="#03132A"/>
<rect x="11.4473" y="106.84" width="3.81566" height="3.81566" fill="#071F37"/>
<rect x="15.2637" y="106.84" width="3.81566" height="3.81566" fill="#162C44"/>
<rect x="19.0781" y="106.84" width="3.81566" height="3.81566" fill="#162C44"/>
<rect x="7.63281" y="110.654" width="3.81566" height="3.81566" fill="#0D1426"/>
<rect x="11.4473" y="110.654" width="3.81566" height="3.81566" fill="#05152F"/>
<rect x="15.2637" y="110.654" width="3.81566" height="3.81566" fill="#06162F"/>
<rect x="19.0781" y="110.654" width="3.81566" height="3.81566" fill="#13233D"/>
</svg>
