<svg width="90" height="154" viewBox="0 0 90 154" fill="none" xmlns="http://www.w3.org/2000/svg">
<rect x="32.3906" width="8.09746" height="8.09746" fill="#FFD151"/>
<rect x="24.291" y="8.09863" width="8.09746" height="8.09746" fill="#FFC841"/>
<rect x="24.291" y="16.1948" width="8.09746" height="8.09746" fill="#FFC83E"/>
<rect x="40.4883" y="16.1948" width="8.09746" height="8.09746" fill="#FFE2B0"/>
<rect x="48.5859" y="16.1948" width="8.09746" height="8.09746" fill="#FDC740"/>
<rect x="56.6836" y="16.1948" width="8.09746" height="8.09746" fill="#FDC73E"/>
<rect x="64.7812" y="16.1948" width="8.09746" height="8.09746" fill="#FD8413"/>
<rect x="72.8789" y="16.1948" width="8.09746" height="8.09746" fill="#E52521"/>
<rect x="80.9746" y="16.1948" width="8.09746" height="8.09746" fill="#531015"/>
<rect x="16.1934" y="24.2925" width="8.09746" height="8.09746" fill="#FFD242"/>
<rect x="40.4883" y="24.2925" width="8.09746" height="8.09746" fill="#FFE2B0"/>
<rect x="48.5859" y="24.2925" width="8.09746" height="8.09746" fill="#FEC642"/>
<rect x="56.6836" y="24.2925" width="8.09746" height="8.09746" fill="#FDC94B"/>
<rect x="64.7812" y="24.2925" width="8.09746" height="8.09746" fill="#EB1A23"/>
<rect x="16.1934" y="32.3911" width="8.09746" height="8.09746" fill="#FFD243"/>
<rect x="32.3906" y="32.3911" width="8.09746" height="8.09746" fill="#FDE2B1"/>
<rect x="40.4883" y="32.3911" width="8.09746" height="8.09746" fill="#FEC641"/>
<rect x="48.5859" y="32.3911" width="8.09746" height="8.09746" fill="#FCCC4E"/>
<rect x="56.6836" y="32.3911" width="8.09746" height="8.09746" fill="#FD9739"/>
<rect x="64.7812" y="32.3911" width="8.09746" height="8.09746" fill="#E81C1F"/>
<rect y="40.4897" width="8.09746" height="8.09746" fill="#816A3A"/>
<rect x="8.09766" y="40.4897" width="8.09746" height="8.09746" fill="#EAB94C"/>
<rect x="32.3906" y="40.4897" width="8.09746" height="8.09746" fill="#FFE2B1"/>
<rect x="40.4883" y="40.4897" width="8.09746" height="8.09746" fill="#FDC950"/>
<rect x="48.5859" y="40.4897" width="8.09746" height="8.09746" fill="#FED05F"/>
<rect x="56.6836" y="40.4897" width="8.09746" height="8.09746" fill="#EF1833"/>
<rect x="24.291" y="48.5874" width="8.09746" height="8.09746" fill="#FFE9B0"/>
<rect x="32.3887" y="48.5874" width="8.09746" height="8.09746" fill="#FECC59"/>
<rect x="40.4883" y="48.5874" width="8.09746" height="8.09746" fill="#FDD068"/>
<rect x="48.5859" y="48.5874" width="8.09746" height="8.09746" fill="#FD8318"/>
<rect x="56.6836" y="48.5874" width="8.09746" height="8.09746" fill="#F21B2C"/>
<rect x="24.291" y="56.6851" width="8.09746" height="8.09746" fill="#FEE4BD"/>
<rect x="32.3906" y="56.6851" width="8.09746" height="8.09746" fill="#FEC63C"/>
<rect x="40.4883" y="56.6851" width="8.09746" height="8.09746" fill="#FFC53E"/>
<rect x="48.5859" y="56.6851" width="8.09746" height="8.09746" fill="#E51A2F"/>
<rect x="16.1934" y="64.7817" width="8.09746" height="8.09746" fill="#E2D1B3"/>
<rect x="24.291" y="64.7817" width="8.09746" height="8.09746" fill="#F6D883"/>
<rect x="32.3887" y="64.7817" width="8.09746" height="8.09746" fill="#FFC740"/>
<rect x="40.4883" y="64.7817" width="8.09746" height="8.09746" fill="#F98F1D"/>
<rect x="48.5859" y="64.7817" width="8.09746" height="8.09746" fill="#E81E25"/>
<rect x="16.1934" y="72.8794" width="8.09746" height="8.09746" fill="#FDE2B4"/>
<rect x="24.291" y="72.8794" width="8.09746" height="8.09746" fill="#FDC845"/>
<rect x="32.3906" y="72.8794" width="8.09746" height="8.09746" fill="#F9AD38"/>
<rect x="40.4883" y="72.8794" width="8.09746" height="8.09746" fill="#F25F20"/>
<rect x="48.5859" y="72.8794" width="8.09746" height="8.09746" fill="#961B21"/>
<rect x="8.09766" y="80.9766" width="8.09746" height="8.09746" fill="#404000"/>
<rect x="16.1934" y="80.9766" width="8.09746" height="8.09746" fill="#FEE2A2"/>
<rect x="24.291" y="80.9766" width="8.09746" height="8.09746" fill="#FFC742"/>
<rect x="32.3887" y="80.9766" width="8.09746" height="8.09746" fill="#F88915"/>
<rect x="40.4883" y="80.9766" width="8.09746" height="8.09746" fill="#E6251A"/>
<rect y="89.0723" width="8.09746" height="8.09746" fill="#89816F"/>
<rect x="8.09766" y="89.0723" width="8.09746" height="8.09746" fill="#FFEAAE"/>
<rect x="16.1934" y="89.0723" width="8.09746" height="8.09746" fill="#FFD245"/>
<rect x="24.291" y="89.0723" width="8.09746" height="8.09746" fill="#FFD146"/>
<rect x="32.3906" y="89.0723" width="8.09746" height="8.09746" fill="#FFD245"/>
<rect x="40.4883" y="89.0723" width="8.09746" height="8.09746" fill="#FDC64C"/>
<rect x="48.5859" y="89.0723" width="8.09746" height="8.09746" fill="#FDC644"/>
<rect x="56.6836" y="89.0723" width="8.09746" height="8.09746" fill="#FDC846"/>
<rect x="64.7812" y="89.0723" width="8.09746" height="8.09746" fill="#FE841E"/>
<rect x="72.8789" y="89.0723" width="8.09746" height="8.09746" fill="#E72919"/>
<rect x="80.9746" y="89.0723" width="8.09746" height="8.09746" fill="#5C1115"/>
<rect x="40.4883" y="97.1704" width="8.09746" height="8.09746" fill="#FEC541"/>
<rect x="48.5859" y="97.1704" width="8.09746" height="8.09746" fill="#FAC943"/>
<rect x="56.6836" y="97.1704" width="8.09746" height="8.09746" fill="#FF8518"/>
<rect x="64.7812" y="97.1704" width="8.09746" height="8.09746" fill="#EE1922"/>
<rect x="40.4883" y="105.269" width="8.09746" height="8.09746" fill="#F9C93F"/>
<rect x="48.5859" y="105.269" width="8.09746" height="8.09746" fill="#FB8719"/>
<rect x="56.6836" y="105.269" width="8.09746" height="8.09746" fill="#E61D2B"/>
<rect x="32.3887" y="113.366" width="8.09746" height="8.09746" fill="#FFC43F"/>
<rect x="40.4883" y="113.367" width="8.09746" height="8.09746" fill="#FC851C"/>
<rect x="48.5859" y="113.367" width="8.09746" height="8.09746" fill="#E82328"/>
<rect x="32.3906" y="121.462" width="8.09746" height="8.09746" fill="#FF8411"/>
<rect x="40.4883" y="121.462" width="8.09746" height="8.09746" fill="#EC1C27"/>
<rect x="24.291" y="129.561" width="8.09746" height="8.09746" fill="#FF8A13"/>
<rect x="32.3906" y="129.561" width="8.09746" height="8.09746" fill="#F5182C"/>
<rect x="64.7812" y="129.561" width="8.09746" height="8.09746" fill="#FFD039"/>
<rect x="24.291" y="137.657" width="8.09746" height="8.09746" fill="#EC162D"/>
<rect x="56.6836" y="137.657" width="8.09746" height="8.09746" fill="#FFD335"/>
<rect x="16.1934" y="145.756" width="8.09746" height="8.09746" fill="#EB253A"/>
<rect x="48.5859" y="145.756" width="8.09746" height="8.09746" fill="#F5CA3D"/>
</svg>
