<svg width="130" height="195" viewBox="0 0 130 195" fill="none" xmlns="http://www.w3.org/2000/svg">
<rect x="101.75" width="9.25012" height="9.25012" fill="#5C0808"/>
<rect x="55.5" y="9.24902" width="9.25012" height="9.25012" fill="#900108"/>
<rect x="92.5" y="9.24902" width="9.25012" height="9.25012" fill="#EA4E4E"/>
<rect x="18.5" y="18.5" width="9.25012" height="9.25012" fill="#950106"/>
<rect x="55.5" y="18.5" width="9.25012" height="9.25012" fill="#EF1B28"/>
<rect x="92.5" y="18.5" width="9.25012" height="9.25012" fill="#F68716"/>
<rect x="37" y="27.75" width="9.25012" height="9.25012" fill="#7E1819"/>
<rect x="55.5" y="27.75" width="9.25012" height="9.25012" fill="#EF5623"/>
<rect x="92.5" y="27.75" width="9.25012" height="9.25012" fill="#8D712D"/>
<rect x="37" y="37.0005" width="9.25012" height="9.25012" fill="#F4892B"/>
<rect x="64.75" y="37.0005" width="9.25012" height="9.25012" fill="#584437"/>
<rect x="110.998" y="37.0005" width="9.25012" height="9.25012" fill="#9D0005"/>
<rect x="27.75" y="46.25" width="9.25012" height="9.25012" fill="#900309"/>
<rect x="37" y="46.25" width="9.25012" height="9.25012" fill="#F5C84D"/>
<rect x="64.75" y="46.25" width="9.25012" height="9.25012" fill="#400000"/>
<rect x="27.75" y="55.5005" width="9.25012" height="9.25012" fill="#EE1F2D"/>
<rect x="64.75" y="55.5005" width="9.25012" height="9.25012" fill="#550000"/>
<rect x="74" y="55.5005" width="9.25012" height="9.25012" fill="#8C0000"/>
<rect x="18.5" y="64.75" width="9.25012" height="9.25012" fill="#D21B29"/>
<rect x="27.75" y="64.75" width="9.25012" height="9.25012" fill="#FEBB40"/>
<rect x="55.5" y="64.75" width="9.25012" height="9.25012" fill="#6F040B"/>
<rect x="64.75" y="64.75" width="9.25012" height="9.25012" fill="#EA321C"/>
<rect x="74" y="64.75" width="9.25012" height="9.25012" fill="#E41C22"/>
<rect x="101.75" y="64.75" width="9.25012" height="9.25012" fill="#5F121A"/>
<rect x="18.5" y="74.0005" width="9.25012" height="9.25012" fill="#890309"/>
<rect x="27.75" y="74.0005" width="9.25012" height="9.25012" fill="#FF8E1B"/>
<rect x="55.5" y="74.0005" width="9.25012" height="9.25012" fill="#F5172C"/>
<rect x="64.75" y="74.0005" width="9.25012" height="9.25012" fill="#F98C20"/>
<rect x="74" y="74.0005" width="9.25012" height="9.25012" fill="#E71A1D"/>
<rect x="101.75" y="74.0005" width="9.25012" height="9.25012" fill="#773D1F"/>
<rect x="18.5" y="83.25" width="9.25012" height="9.25012" fill="#EA2029"/>
<rect x="27.75" y="83.25" width="9.25012" height="9.25012" fill="#FFCD43"/>
<rect x="55.5" y="83.25" width="9.25012" height="9.25012" fill="#F98818"/>
<rect x="64.75" y="83.25" width="9.25012" height="9.25012" fill="#F6B441"/>
<rect x="74" y="83.25" width="9.25012" height="9.25012" fill="#EC1D23"/>
<rect x="83.25" y="83.25" width="9.25012" height="9.25012" fill="#8D0004"/>
<rect x="101.75" y="83.25" width="9.25012" height="9.25012" fill="#E91F28"/>
<rect x="18.5" y="92.5005" width="9.25012" height="9.25012" fill="#8F090C"/>
<rect x="27.75" y="92.5005" width="9.25012" height="9.25012" fill="#FDE6B2"/>
<rect x="37" y="92.5005" width="9.25012" height="9.25012" fill="#DF2615"/>
<rect x="46.248" y="92.5005" width="9.25012" height="9.25012" fill="#8A0103"/>
<rect x="55.5" y="92.5005" width="9.25012" height="9.25012" fill="#EB1C29"/>
<rect x="64.75" y="92.5005" width="9.25012" height="9.25012" fill="#FCD792"/>
<rect x="74" y="92.5005" width="9.25012" height="9.25012" fill="#E61615"/>
<rect x="83.25" y="92.5005" width="9.25012" height="9.25012" fill="#F98512"/>
<rect x="92.5" y="92.5005" width="9.25012" height="9.25012" fill="#880000"/>
<rect x="101.75" y="92.5005" width="9.25012" height="9.25012" fill="#D15518"/>
<rect x="9.25" y="101.751" width="9.25012" height="9.25012" fill="#8C0000"/>
<rect x="18.5" y="101.751" width="9.25012" height="9.25012" fill="#EA1E26"/>
<rect x="27.75" y="101.751" width="9.25012" height="9.25012" fill="#830400"/>
<rect x="37" y="101.751" width="9.25012" height="9.25012" fill="#FDC357"/>
<rect x="46.248" y="101.751" width="9.25012" height="9.25012" fill="#FA8215"/>
<rect x="55.5" y="101.751" width="9.25012" height="9.25012" fill="#FAC345"/>
<rect x="64.75" y="101.751" width="9.25012" height="9.25012" fill="#EF931B"/>
<rect x="74" y="101.751" width="9.25012" height="9.25012" fill="#FDE3A7"/>
<rect x="83.25" y="101.751" width="9.25012" height="9.25012" fill="#FDDFA6"/>
<rect x="92.5" y="101.751" width="9.25012" height="9.25012" fill="#F8C948"/>
<rect x="101.75" y="101.751" width="9.25012" height="9.25012" fill="#E52128"/>
<rect x="9.25" y="111.001" width="9.25012" height="9.25012" fill="#8E0101"/>
<rect x="18.5" y="111.001" width="9.25012" height="9.25012" fill="#E91E28"/>
<rect x="27.75" y="111.001" width="9.25012" height="9.25012" fill="#E41C1D"/>
<rect x="37" y="111.001" width="9.25012" height="9.25012" fill="#FEE29B"/>
<rect x="46.248" y="111.001" width="9.25012" height="9.25012" fill="#FFE2B0"/>
<rect x="55.5" y="111.001" width="9.25012" height="9.25012" fill="#FCC83F"/>
<rect x="64.75" y="111.001" width="9.25012" height="9.25012" fill="#F9C043"/>
<rect x="74" y="111.001" width="9.25012" height="9.25012" fill="#FFE4BA"/>
<rect x="83.25" y="111.001" width="9.25012" height="9.25012" fill="#FB8718"/>
<rect x="92.5" y="111.001" width="9.25012" height="9.25012" fill="#FC8317"/>
<rect x="101.75" y="111.001" width="9.25012" height="9.25012" fill="#C21717"/>
<rect x="110.998" y="111.001" width="9.25012" height="9.25012" fill="#8F0003"/>
<rect x="9.25" y="120.251" width="9.25012" height="9.25012" fill="#8F0102"/>
<rect x="18.5" y="120.251" width="9.25012" height="9.25012" fill="#EA1D27"/>
<rect x="27.75" y="120.251" width="9.25012" height="9.25012" fill="#FE8518"/>
<rect x="37" y="120.251" width="9.25012" height="9.25012" fill="#FFC134"/>
<rect x="46.248" y="120.251" width="9.25012" height="9.25012" fill="#FFE1AE"/>
<rect x="55.5" y="120.251" width="9.25012" height="9.25012" fill="#FDE0B8"/>
<rect x="64.75" y="120.251" width="9.25012" height="9.25012" fill="#FAC94D"/>
<rect x="74" y="120.251" width="9.25012" height="9.25012" fill="#FFE1B3"/>
<rect x="83.25" y="120.251" width="9.25012" height="9.25012" fill="#FCC643"/>
<rect x="92.5" y="120.251" width="9.25012" height="9.25012" fill="#FB861A"/>
<rect x="101.75" y="120.251" width="9.25012" height="9.25012" fill="#F05F21"/>
<rect x="110.998" y="120.251" width="9.25012" height="9.25012" fill="#880003"/>
<rect x="120.25" y="120.251" width="9.25012" height="9.25012" fill="#8F0003"/>
<rect y="129.501" width="9.25012" height="9.25012" fill="#6F040D"/>
<rect x="9.25" y="129.501" width="9.25012" height="9.25012" fill="#E92124"/>
<rect x="18.5" y="129.501" width="9.25012" height="9.25012" fill="#E4301A"/>
<rect x="27.75" y="129.501" width="9.25012" height="9.25012" fill="#F98517"/>
<rect x="37" y="129.501" width="9.25012" height="9.25012" fill="#FDE098"/>
<rect x="46.248" y="129.501" width="9.25012" height="9.25012" fill="#FEE0B0"/>
<rect x="55.5" y="129.501" width="9.25012" height="9.25012" fill="#FCC657"/>
<rect x="64.75" y="129.501" width="9.25012" height="9.25012" fill="#FDE0A6"/>
<rect x="74" y="129.501" width="9.25012" height="9.25012" fill="#FCE1A4"/>
<rect x="83.25" y="129.501" width="9.25012" height="9.25012" fill="#FFE1B5"/>
<rect x="92.5" y="129.501" width="9.25012" height="9.25012" fill="#FACC43"/>
<rect x="101.75" y="129.501" width="9.25012" height="9.25012" fill="#E6511C"/>
<rect x="110.998" y="129.501" width="9.25012" height="9.25012" fill="#EA1B26"/>
<rect x="120.25" y="129.501" width="9.25012" height="9.25012" fill="#8F0004"/>
<rect y="138.751" width="9.25012" height="9.25012" fill="#6F040D"/>
<rect x="9.25" y="138.751" width="9.25012" height="9.25012" fill="#E92124"/>
<rect x="18.5" y="138.751" width="9.25012" height="9.25012" fill="#FD8617"/>
<rect x="27.75" y="138.751" width="9.25012" height="9.25012" fill="#E71623"/>
<rect x="37" y="138.751" width="9.25012" height="9.25012" fill="#FDE4A5"/>
<rect x="46.248" y="138.751" width="9.25012" height="9.25012" fill="#FEE2B0"/>
<rect x="55.5" y="138.751" width="9.25012" height="9.25012" fill="#FCC53F"/>
<rect x="64.75" y="138.751" width="9.25012" height="9.25012" fill="#FDE1A4"/>
<rect x="74" y="138.751" width="9.25012" height="9.25012" fill="#FDC842"/>
<rect x="83.25" y="138.751" width="9.25012" height="9.25012" fill="#FFE1B2"/>
<rect x="92.5" y="138.751" width="9.25012" height="9.25012" fill="#FEE1B0"/>
<rect x="101.75" y="138.751" width="9.25012" height="9.25012" fill="#F05D1E"/>
<rect x="110.998" y="138.751" width="9.25012" height="9.25012" fill="#EA1D25"/>
<rect x="120.25" y="138.751" width="9.25012" height="9.25012" fill="#8F0004"/>
<rect y="148.001" width="9.25012" height="9.25012" fill="#6F040D"/>
<rect x="9.25" y="148.001" width="9.25012" height="9.25012" fill="#E92124"/>
<rect x="18.5" y="148.001" width="9.25012" height="9.25012" fill="#EA1924"/>
<rect x="27.75" y="148.001" width="9.25012" height="9.25012" fill="#F98511"/>
<rect x="37" y="148.001" width="9.25012" height="9.25012" fill="#FDE2A1"/>
<rect x="46.248" y="148.001" width="9.25012" height="9.25012" fill="#FBCB3B"/>
<rect x="55.5" y="148.001" width="9.25012" height="9.25012" fill="#FC8518"/>
<rect x="64.75" y="148.001" width="9.25012" height="9.25012" fill="#FBC856"/>
<rect x="74" y="148.001" width="9.25012" height="9.25012" fill="#FD8619"/>
<rect x="83.25" y="148.001" width="9.25012" height="9.25012" fill="#FDC93F"/>
<rect x="92.5" y="148.001" width="9.25012" height="9.25012" fill="#FEE4AC"/>
<rect x="101.75" y="148.001" width="9.25012" height="9.25012" fill="#F9AD32"/>
<rect x="110.998" y="148.001" width="9.25012" height="9.25012" fill="#EC1C25"/>
<rect x="120.25" y="148.001" width="9.25012" height="9.25012" fill="#8F0004"/>
<rect y="157.251" width="9.25012" height="9.25012" fill="#72040C"/>
<rect x="9.25" y="157.251" width="9.25012" height="9.25012" fill="#8F0004"/>
<rect x="18.5" y="157.251" width="9.25012" height="9.25012" fill="#E81D27"/>
<rect x="27.75" y="157.251" width="9.25012" height="9.25012" fill="#FE8818"/>
<rect x="37" y="157.251" width="9.25012" height="9.25012" fill="#FDDDA1"/>
<rect x="46.248" y="157.251" width="9.25012" height="9.25012" fill="#FD8712"/>
<rect x="55.5" y="157.251" width="9.25012" height="9.25012" fill="#FCCB4B"/>
<rect x="64.75" y="157.251" width="9.25012" height="9.25012" fill="#FE8614"/>
<rect x="74" y="157.251" width="9.25012" height="9.25012" fill="#E31B24"/>
<rect x="83.25" y="157.251" width="9.25012" height="9.25012" fill="#FEE0B6"/>
<rect x="92.5" y="157.251" width="9.25012" height="9.25012" fill="#FCC83E"/>
<rect x="101.75" y="157.251" width="9.25012" height="9.25012" fill="#EC8937"/>
<rect x="110.998" y="157.251" width="9.25012" height="9.25012" fill="#890002"/>
<rect x="120.25" y="157.251" width="9.25012" height="9.25012" fill="#920003"/>
<rect x="9.25" y="166.502" width="9.25012" height="9.25012" fill="#910005"/>
<rect x="18.5" y="166.502" width="9.25012" height="9.25012" fill="#C51418"/>
<rect x="27.75" y="166.502" width="9.25012" height="9.25012" fill="#C61115"/>
<rect x="37" y="166.502" width="9.25012" height="9.25012" fill="#F9A32D"/>
<rect x="46.248" y="166.502" width="9.25012" height="9.25012" fill="#F8C695"/>
<rect x="55.5" y="166.502" width="9.25012" height="9.25012" fill="#FC8717"/>
<rect x="64.75" y="166.502" width="9.25012" height="9.25012" fill="#E7281D"/>
<rect x="74" y="166.502" width="9.25012" height="9.25012" fill="#F07B34"/>
<rect x="83.25" y="166.502" width="9.25012" height="9.25012" fill="#EC8774"/>
<rect x="92.5" y="166.502" width="9.25012" height="9.25012" fill="#F07C32"/>
<rect x="101.75" y="166.502" width="9.25012" height="9.25012" fill="#C33715"/>
<rect x="110.998" y="166.502" width="9.25012" height="9.25012" fill="#8D0003"/>
<rect x="27.75" y="175.752" width="9.25012" height="9.25012" fill="#8E0008"/>
<rect x="37" y="175.752" width="9.25012" height="9.25012" fill="#E63538"/>
<rect x="46.248" y="175.752" width="9.25012" height="9.25012" fill="#FB8519"/>
<rect x="55.5" y="175.752" width="9.25012" height="9.25012" fill="#E91B29"/>
<rect x="64.75" y="175.752" width="9.25012" height="9.25012" fill="#DE1F21"/>
<rect x="74" y="175.752" width="9.25012" height="9.25012" fill="#ED212D"/>
<rect x="83.25" y="175.752" width="9.25012" height="9.25012" fill="#8C0102"/>
<rect x="92.5" y="175.752" width="9.25012" height="9.25012" fill="#8C0002"/>
<rect x="101.75" y="175.752" width="9.25012" height="9.25012" fill="#590409"/>
<rect x="37" y="185.001" width="9.25012" height="9.25012" fill="#8C0202"/>
<rect x="46.248" y="185.001" width="9.25012" height="9.25012" fill="#8E0104"/>
<rect x="55.5" y="185.001" width="9.25012" height="9.25012" fill="#8F0003"/>
<rect x="64.75" y="185.001" width="9.25012" height="9.25012" fill="#8F0003"/>
<rect x="74" y="185.001" width="9.25012" height="9.25012" fill="#8D0005"/>
<rect x="83.25" y="185.001" width="9.25012" height="9.25012" fill="#8F0003"/>
<rect x="92.5" y="185.001" width="9.25012" height="9.25012" fill="#920102"/>
</svg>
