<svg width="112" height="107" viewBox="0 0 112 107" fill="none" xmlns="http://www.w3.org/2000/svg">
<rect x="31.9714" width="5.32855" height="5.32855" fill="#201040"/>
<rect x="37.2998" width="5.32855" height="5.32855" fill="#2D7B6E"/>
<rect x="42.6284" width="5.32855" height="5.32855" fill="#17BA83"/>
<rect x="47.957" width="5.32855" height="5.32855" fill="#15B881"/>
<rect x="53.2855" width="5.32855" height="5.32855" fill="#07BA82"/>
<rect x="58.6141" width="5.32855" height="5.32855" fill="#0EBB7C"/>
<rect x="63.9426" width="5.32855" height="5.32855" fill="#CB1DA0"/>
<rect x="69.2711" width="5.32855" height="5.32855" fill="#961F97"/>
<rect x="74.5998" width="5.32855" height="5.32855" fill="#0E0E47"/>
<rect x="79.9282" width="5.32855" height="5.32855" fill="#0E0047"/>
<rect x="21.3143" y="5.32812" width="5.32855" height="5.32855" fill="#221144"/>
<rect x="26.6427" y="5.32812" width="5.32855" height="5.32855" fill="#041E57"/>
<rect x="31.9714" y="5.32812" width="5.32855" height="5.32855" fill="#0BC18E"/>
<rect x="37.2998" y="5.32812" width="5.32855" height="5.32855" fill="#15B68C"/>
<rect x="42.6284" y="5.32812" width="5.32855" height="5.32855" fill="#14C67C"/>
<rect x="47.957" y="5.32812" width="5.32855" height="5.32855" fill="#12C8A0"/>
<rect x="53.2855" y="5.32812" width="5.32855" height="5.32855" fill="#0BC186"/>
<rect x="58.6141" y="5.32812" width="5.32855" height="5.32855" fill="#00D396"/>
<rect x="63.9426" y="5.32812" width="5.32855" height="5.32855" fill="#B136AB"/>
<rect x="69.2711" y="5.32812" width="5.32855" height="5.32855" fill="#6C44A4"/>
<rect x="74.5998" y="5.32812" width="5.32855" height="5.32855" fill="#2AA499"/>
<rect x="79.9282" y="5.32812" width="5.32855" height="5.32855" fill="#24528E"/>
<rect x="85.2569" y="5.32812" width="5.32855" height="5.32855" fill="#00156D"/>
<rect x="15.9856" y="10.6562" width="5.32855" height="5.32855" fill="#5555AA"/>
<rect x="21.3143" y="10.6562" width="5.32855" height="5.32855" fill="#217DA6"/>
<rect x="26.6427" y="10.6562" width="5.32855" height="5.32855" fill="#02B492"/>
<rect x="31.9714" y="10.6562" width="5.32855" height="5.32855" fill="#14CE8F"/>
<rect x="37.2998" y="10.6562" width="5.32855" height="5.32855" fill="#546289"/>
<rect x="42.6284" y="10.6562" width="5.32855" height="5.32855" fill="#13DBB6"/>
<rect x="47.957" y="10.6562" width="5.32855" height="5.32855" fill="#D652A8"/>
<rect x="53.2855" y="10.6562" width="5.32855" height="5.32855" fill="#07D499"/>
<rect x="58.6141" y="10.6562" width="5.32855" height="5.32855" fill="#C42B9F"/>
<rect x="63.9426" y="10.6562" width="5.32855" height="5.32855" fill="#B128AC"/>
<rect x="69.2711" y="10.6562" width="5.32855" height="5.32855" fill="#28AA8E"/>
<rect x="74.5998" y="10.6562" width="5.32855" height="5.32855" fill="#097D7D"/>
<rect x="79.9282" y="10.6562" width="5.32855" height="5.32855" fill="#12AF7A"/>
<rect x="85.2569" y="10.6562" width="5.32855" height="5.32855" fill="#118F83"/>
<rect x="90.5853" y="10.6562" width="5.32855" height="5.32855" fill="#000055"/>
<rect x="10.6571" y="15.9863" width="5.32855" height="5.32855" fill="#1E0F4B"/>
<rect x="15.9856" y="15.9863" width="5.32855" height="5.32855" fill="#37B29D"/>
<rect x="21.3143" y="15.9863" width="5.32855" height="5.32855" fill="#C71EAB"/>
<rect x="26.6427" y="15.9863" width="5.32855" height="5.32855" fill="#CD31D3"/>
<rect x="31.9714" y="15.9863" width="5.32855" height="5.32855" fill="#27D399"/>
<rect x="37.2998" y="15.9863" width="5.32855" height="5.32855" fill="#10E2A3"/>
<rect x="42.6284" y="15.9863" width="5.32855" height="5.32855" fill="#3198B7"/>
<rect x="47.957" y="15.9863" width="5.32855" height="5.32855" fill="#DC34CF"/>
<rect x="53.2855" y="15.9863" width="5.32855" height="5.32855" fill="#CC31BB"/>
<rect x="58.6141" y="15.9863" width="5.32855" height="5.32855" fill="#C42EB4"/>
<rect x="63.9426" y="15.9863" width="5.32855" height="5.32855" fill="#23B2AC"/>
<rect x="69.2711" y="15.9863" width="5.32855" height="5.32855" fill="#18B2AA"/>
<rect x="74.5998" y="15.9863" width="5.32855" height="5.32855" fill="#28ABA3"/>
<rect x="79.9282" y="15.9863" width="5.32855" height="5.32855" fill="#1EAE8A"/>
<rect x="85.2569" y="15.9863" width="5.32855" height="5.32855" fill="#22A186"/>
<rect x="90.5853" y="15.9863" width="5.32855" height="5.32855" fill="#046552"/>
<rect x="95.914" y="15.9863" width="5.32855" height="5.32855" fill="#1C1C55"/>
<rect x="10.6571" y="21.314" width="5.32855" height="5.32855" fill="#02203C"/>
<rect x="15.9856" y="21.314" width="5.32855" height="5.32855" fill="#BC40BC"/>
<rect x="21.3143" y="21.314" width="5.32855" height="5.32855" fill="#B23FD2"/>
<rect x="26.6427" y="21.314" width="5.32855" height="5.32855" fill="#B448D2"/>
<rect x="31.9714" y="21.314" width="5.32855" height="5.32855" fill="#D33AD2"/>
<rect x="37.2998" y="21.314" width="5.32855" height="5.32855" fill="#AE4BC9"/>
<rect x="42.6284" y="21.314" width="5.32855" height="5.32855" fill="#D41AAC"/>
<rect x="47.957" y="21.314" width="5.32855" height="5.32855" fill="#D62DC8"/>
<rect x="53.2855" y="21.314" width="5.32855" height="5.32855" fill="#B937CD"/>
<rect x="58.6141" y="21.314" width="5.32855" height="5.32855" fill="#20A9B9"/>
<rect x="63.9426" y="21.314" width="5.32855" height="5.32855" fill="#13AFAC"/>
<rect x="69.2711" y="21.314" width="5.32855" height="5.32855" fill="#2A6D9A"/>
<rect x="74.5998" y="21.314" width="5.32855" height="5.32855" fill="#1F649D"/>
<rect x="79.9282" y="21.314" width="5.32855" height="5.32855" fill="#0D687B"/>
<rect x="85.2569" y="21.314" width="5.32855" height="5.32855" fill="#2BAF97"/>
<rect x="90.5853" y="21.314" width="5.32855" height="5.32855" fill="#0F8869"/>
<rect x="95.914" y="21.314" width="5.32855" height="5.32855" fill="#0D0C2C"/>
<rect x="5.32855" y="26.6421" width="5.32855" height="5.32855" fill="#062156"/>
<rect x="10.6571" y="26.6421" width="5.32855" height="5.32855" fill="#1CAD84"/>
<rect x="15.9856" y="26.6421" width="5.32855" height="5.32855" fill="#C32EC8"/>
<rect x="21.3143" y="26.6421" width="5.32855" height="5.32855" fill="#C01EB2"/>
<rect x="26.6427" y="26.6421" width="5.32855" height="5.32855" fill="#C13DD1"/>
<rect x="31.9714" y="26.6421" width="5.32855" height="5.32855" fill="#16D9AF"/>
<rect x="37.2998" y="26.6421" width="5.32855" height="5.32855" fill="#1EC7AA"/>
<rect x="42.6284" y="26.6421" width="5.32855" height="5.32855" fill="#C828B0"/>
<rect x="47.957" y="26.6421" width="5.32855" height="5.32855" fill="#D130BE"/>
<rect x="53.2855" y="26.6421" width="5.32855" height="5.32855" fill="#14C0AA"/>
<rect x="58.6141" y="26.6421" width="5.32855" height="5.32855" fill="#19B1A5"/>
<rect x="63.9426" y="26.6421" width="5.32855" height="5.32855" fill="#0DB4AA"/>
<rect x="69.2711" y="26.6421" width="5.32855" height="5.32855" fill="#03B8B1"/>
<rect x="74.5998" y="26.6421" width="5.32855" height="5.32855" fill="#B84DD9"/>
<rect x="79.9282" y="26.6421" width="5.32855" height="5.32855" fill="#006DA0"/>
<rect x="85.2569" y="26.6421" width="5.32855" height="5.32855" fill="#077979"/>
<rect x="90.5853" y="26.6421" width="5.32855" height="5.32855" fill="#179280"/>
<rect x="95.914" y="26.6421" width="5.32855" height="5.32855" fill="#1A7866"/>
<rect x="101.242" y="26.6421" width="5.32855" height="5.32855" fill="#271C3C"/>
<rect x="5.32855" y="31.9712" width="5.32855" height="5.32855" fill="#004442"/>
<rect x="10.6571" y="31.9712" width="5.32855" height="5.32855" fill="#14AB80"/>
<rect x="15.9856" y="31.9712" width="5.32855" height="5.32855" fill="#B227BE"/>
<rect x="21.3143" y="31.9712" width="5.32855" height="5.32855" fill="#CA2CBF"/>
<rect x="26.6427" y="31.9712" width="5.32855" height="5.32855" fill="#B939CC"/>
<rect x="31.9714" y="31.9712" width="5.32855" height="5.32855" fill="#21DFB3"/>
<rect x="37.2998" y="31.9712" width="5.32855" height="5.32855" fill="#19B29E"/>
<rect x="42.6284" y="31.9712" width="5.32855" height="5.32855" fill="#C025A7"/>
<rect x="47.957" y="31.9712" width="5.32855" height="5.32855" fill="#CF37BE"/>
<rect x="53.2855" y="31.9712" width="5.32855" height="5.32855" fill="#0DC6A4"/>
<rect x="58.6141" y="31.9712" width="5.32855" height="5.32855" fill="#17B5A7"/>
<rect x="63.9426" y="31.9712" width="5.32855" height="5.32855" fill="#165FA3"/>
<rect x="69.2711" y="31.9712" width="5.32855" height="5.32855" fill="#A94BD3"/>
<rect x="74.5998" y="31.9712" width="5.32855" height="5.32855" fill="#B852E4"/>
<rect x="79.9282" y="31.9712" width="5.32855" height="5.32855" fill="#A326C2"/>
<rect x="85.2569" y="31.9712" width="5.32855" height="5.32855" fill="#0A5479"/>
<rect x="90.5853" y="31.9712" width="5.32855" height="5.32855" fill="#0E777D"/>
<rect x="95.914" y="31.9712" width="5.32855" height="5.32855" fill="#186E63"/>
<rect x="101.242" y="31.9712" width="5.32855" height="5.32855" fill="#001629"/>
<rect y="37.2993" width="5.32855" height="5.32855" fill="#555555"/>
<rect x="5.32855" y="37.2993" width="5.32855" height="5.32855" fill="#25B78A"/>
<rect x="10.6571" y="37.2993" width="5.32855" height="5.32855" fill="#08B693"/>
<rect x="15.9856" y="37.2993" width="5.32855" height="5.32855" fill="#FF1AD5"/>
<rect x="21.3143" y="37.2993" width="5.32855" height="5.32855" fill="#B036BF"/>
<rect x="26.6427" y="37.2993" width="5.32855" height="5.32855" fill="#9F3A88"/>
<rect x="31.9714" y="37.2993" width="5.32855" height="5.32855" fill="#27B8B1"/>
<rect x="37.2998" y="37.2993" width="5.32855" height="5.32855" fill="#02BAAE"/>
<rect x="42.6284" y="37.2993" width="5.32855" height="5.32855" fill="#C825A4"/>
<rect x="47.957" y="37.2993" width="5.32855" height="5.32855" fill="#C539BE"/>
<rect x="53.2855" y="37.2993" width="5.32855" height="5.32855" fill="#19DDB5"/>
<rect x="58.6141" y="37.2993" width="5.32855" height="5.32855" fill="#1FBDAF"/>
<rect x="63.9426" y="37.2993" width="5.32855" height="5.32855" fill="#006683"/>
<rect x="69.2711" y="37.2993" width="5.32855" height="5.32855" fill="#8B25AD"/>
<rect x="74.5998" y="37.2993" width="5.32855" height="5.32855" fill="#8A2DBC"/>
<rect x="79.9282" y="37.2993" width="5.32855" height="5.32855" fill="#6A309E"/>
<rect x="85.2569" y="37.2993" width="5.32855" height="5.32855" fill="#0A5278"/>
<rect x="90.5853" y="37.2993" width="5.32855" height="5.32855" fill="#137C82"/>
<rect x="95.914" y="37.2993" width="5.32855" height="5.32855" fill="#0E6F68"/>
<rect x="101.242" y="37.2993" width="5.32855" height="5.32855" fill="#16555C"/>
<rect x="106.571" y="37.2993" width="5.32855" height="5.32855" fill="#111A45"/>
<rect y="42.6284" width="5.32855" height="5.32855" fill="#000080"/>
<rect x="5.32855" y="42.6284" width="5.32855" height="5.32855" fill="#1CB485"/>
<rect x="10.6571" y="42.6284" width="5.32855" height="5.32855" fill="#1CDBB0"/>
<rect x="15.9856" y="42.6284" width="5.32855" height="5.32855" fill="#05E29C"/>
<rect x="21.3143" y="42.6284" width="5.32855" height="5.32855" fill="#BA23AE"/>
<rect x="26.6427" y="42.6284" width="5.32855" height="5.32855" fill="#17B88F"/>
<rect x="31.9714" y="42.6284" width="5.32855" height="5.32855" fill="#1ABCB1"/>
<rect x="37.2998" y="42.6284" width="5.32855" height="5.32855" fill="#03C7B3"/>
<rect x="42.6284" y="42.6284" width="5.32855" height="5.32855" fill="#43AFAF"/>
<rect x="47.957" y="42.6284" width="5.32855" height="5.32855" fill="#1EAFAC"/>
<rect x="53.2855" y="42.6284" width="5.32855" height="5.32855" fill="#0FB2A1"/>
<rect x="58.6141" y="42.6284" width="5.32855" height="5.32855" fill="#19B6AD"/>
<rect x="63.9426" y="42.6284" width="5.32855" height="5.32855" fill="#1DAAA2"/>
<rect x="69.2711" y="42.6284" width="5.32855" height="5.32855" fill="#274A8C"/>
<rect x="74.5998" y="42.6284" width="5.32855" height="5.32855" fill="#6A31A4"/>
<rect x="79.9282" y="42.6284" width="5.32855" height="5.32855" fill="#033D63"/>
<rect x="85.2569" y="42.6284" width="5.32855" height="5.32855" fill="#004B5A"/>
<rect x="90.5853" y="42.6284" width="5.32855" height="5.32855" fill="#19908A"/>
<rect x="95.914" y="42.6284" width="5.32855" height="5.32855" fill="#16797E"/>
<rect x="101.242" y="42.6284" width="5.32855" height="5.32855" fill="#1A5D65"/>
<rect x="106.571" y="42.6284" width="5.32855" height="5.32855" fill="#0F1841"/>
<rect y="47.9575" width="5.32855" height="5.32855" fill="#0000FF"/>
<rect x="5.32855" y="47.9575" width="5.32855" height="5.32855" fill="#16AF80"/>
<rect x="10.6571" y="47.9575" width="5.32855" height="5.32855" fill="#20C198"/>
<rect x="15.9856" y="47.9575" width="5.32855" height="5.32855" fill="#25D6A8"/>
<rect x="21.3143" y="47.9575" width="5.32855" height="5.32855" fill="#02E59E"/>
<rect x="26.6427" y="47.9575" width="5.32855" height="5.32855" fill="#16C791"/>
<rect x="31.9714" y="47.9575" width="5.32855" height="5.32855" fill="#D224BB"/>
<rect x="37.2998" y="47.9575" width="5.32855" height="5.32855" fill="#C211A0"/>
<rect x="42.6284" y="47.9575" width="5.32855" height="5.32855" fill="#50769A"/>
<rect x="47.957" y="47.9575" width="5.32855" height="5.32855" fill="#08B8AB"/>
<rect x="53.2855" y="47.9575" width="5.32855" height="5.32855" fill="#0DB4AD"/>
<rect x="58.6141" y="47.9575" width="5.32855" height="5.32855" fill="#25B0AB"/>
<rect x="63.9426" y="47.9575" width="5.32855" height="5.32855" fill="#D80BB0"/>
<rect x="69.2711" y="47.9575" width="5.32855" height="5.32855" fill="#27D1B7"/>
<rect x="74.5998" y="47.9575" width="5.32855" height="5.32855" fill="#22AF9C"/>
<rect x="79.9282" y="47.9575" width="5.32855" height="5.32855" fill="#1FA48F"/>
<rect x="85.2569" y="47.9575" width="5.32855" height="5.32855" fill="#1EA388"/>
<rect x="90.5853" y="47.9575" width="5.32855" height="5.32855" fill="#1E9A98"/>
<rect x="95.914" y="47.9575" width="5.32855" height="5.32855" fill="#00625D"/>
<rect x="101.242" y="47.9575" width="5.32855" height="5.32855" fill="#064E5A"/>
<rect x="106.571" y="47.9575" width="5.32855" height="5.32855" fill="#0D163F"/>
<rect y="53.2856" width="5.32855" height="5.32855" fill="black"/>
<rect x="5.32855" y="53.2856" width="5.32855" height="5.32855" fill="#19B283"/>
<rect x="10.6571" y="53.2856" width="5.32855" height="5.32855" fill="#00EA8F"/>
<rect x="15.9856" y="53.2856" width="5.32855" height="5.32855" fill="#09DDA3"/>
<rect x="21.3143" y="53.2856" width="5.32855" height="5.32855" fill="#00DC8F"/>
<rect x="26.6427" y="53.2856" width="5.32855" height="5.32855" fill="#DD11A6"/>
<rect x="31.9714" y="53.2856" width="5.32855" height="5.32855" fill="#B52A87"/>
<rect x="37.2998" y="53.2856" width="5.32855" height="5.32855" fill="#B9298A"/>
<rect x="42.6284" y="53.2856" width="5.32855" height="5.32855" fill="#C91996"/>
<rect x="47.957" y="53.2856" width="5.32855" height="5.32855" fill="#24AEBB"/>
<rect x="53.2855" y="53.2856" width="5.32855" height="5.32855" fill="#19DABF"/>
<rect x="58.6141" y="53.2856" width="5.32855" height="5.32855" fill="#25ABA4"/>
<rect x="63.9426" y="53.2856" width="5.32855" height="5.32855" fill="#902BB9"/>
<rect x="69.2711" y="53.2856" width="5.32855" height="5.32855" fill="#D420B7"/>
<rect x="74.5998" y="53.2856" width="5.32855" height="5.32855" fill="#20B9A5"/>
<rect x="79.9282" y="53.2856" width="5.32855" height="5.32855" fill="#16A390"/>
<rect x="85.2569" y="53.2856" width="5.32855" height="5.32855" fill="#2DA59C"/>
<rect x="90.5853" y="53.2856" width="5.32855" height="5.32855" fill="#0A707F"/>
<rect x="95.914" y="53.2856" width="5.32855" height="5.32855" fill="#025C5A"/>
<rect x="101.242" y="53.2856" width="5.32855" height="5.32855" fill="#094D5A"/>
<rect x="106.571" y="53.2856" width="5.32855" height="5.32855" fill="#0D1941"/>
<rect y="58.6133" width="5.32855" height="5.32855" fill="#000080"/>
<rect x="5.32855" y="58.6133" width="5.32855" height="5.32855" fill="#22AB7F"/>
<rect x="10.6571" y="58.6133" width="5.32855" height="5.32855" fill="#26C08C"/>
<rect x="15.9856" y="58.6133" width="5.32855" height="5.32855" fill="#A43CAF"/>
<rect x="21.3143" y="58.6133" width="5.32855" height="5.32855" fill="#B622B8"/>
<rect x="26.6427" y="58.6133" width="5.32855" height="5.32855" fill="#CD1CA2"/>
<rect x="31.9714" y="58.6133" width="5.32855" height="5.32855" fill="#C61E98"/>
<rect x="37.2998" y="58.6133" width="5.32855" height="5.32855" fill="#C423AD"/>
<rect x="42.6284" y="58.6133" width="5.32855" height="5.32855" fill="#AE2DAE"/>
<rect x="47.957" y="58.6133" width="5.32855" height="5.32855" fill="#CE35C3"/>
<rect x="53.2855" y="58.6133" width="5.32855" height="5.32855" fill="#19BBAC"/>
<rect x="58.6141" y="58.6133" width="5.32855" height="5.32855" fill="#1FAEAA"/>
<rect x="63.9426" y="58.6133" width="5.32855" height="5.32855" fill="#14AEA2"/>
<rect x="69.2711" y="58.6133" width="5.32855" height="5.32855" fill="#CB30BC"/>
<rect x="74.5998" y="58.6133" width="5.32855" height="5.32855" fill="#1E9591"/>
<rect x="79.9282" y="58.6133" width="5.32855" height="5.32855" fill="#249885"/>
<rect x="85.2569" y="58.6133" width="5.32855" height="5.32855" fill="#1B768B"/>
<rect x="90.5853" y="58.6133" width="5.32855" height="5.32855" fill="#147484"/>
<rect x="95.914" y="58.6133" width="5.32855" height="5.32855" fill="#075351"/>
<rect x="101.242" y="58.6133" width="5.32855" height="5.32855" fill="#0C5657"/>
<rect x="106.571" y="58.6133" width="5.32855" height="5.32855" fill="#11213A"/>
<rect x="5.32855" y="63.9424" width="5.32855" height="5.32855" fill="#041741"/>
<rect x="10.6571" y="63.9424" width="5.32855" height="5.32855" fill="#A82583"/>
<rect x="15.9856" y="63.9424" width="5.32855" height="5.32855" fill="#9B2CA5"/>
<rect x="21.3143" y="63.9424" width="5.32855" height="5.32855" fill="#BE22B3"/>
<rect x="26.6427" y="63.9424" width="5.32855" height="5.32855" fill="#D12AC2"/>
<rect x="31.9714" y="63.9424" width="5.32855" height="5.32855" fill="#D227C5"/>
<rect x="37.2998" y="63.9424" width="5.32855" height="5.32855" fill="#D12AC0"/>
<rect x="42.6284" y="63.9424" width="5.32855" height="5.32855" fill="#C225A8"/>
<rect x="47.957" y="63.9424" width="5.32855" height="5.32855" fill="#CC1FAC"/>
<rect x="53.2855" y="63.9424" width="5.32855" height="5.32855" fill="#1BB3A4"/>
<rect x="58.6141" y="63.9424" width="5.32855" height="5.32855" fill="#11AFA1"/>
<rect x="63.9426" y="63.9424" width="5.32855" height="5.32855" fill="#27A1A2"/>
<rect x="69.2711" y="63.9424" width="5.32855" height="5.32855" fill="#CB1DA2"/>
<rect x="74.5998" y="63.9424" width="5.32855" height="5.32855" fill="#33758F"/>
<rect x="79.9282" y="63.9424" width="5.32855" height="5.32855" fill="#147180"/>
<rect x="85.2569" y="63.9424" width="5.32855" height="5.32855" fill="#09747C"/>
<rect x="90.5853" y="63.9424" width="5.32855" height="5.32855" fill="#16777E"/>
<rect x="95.914" y="63.9424" width="5.32855" height="5.32855" fill="#084351"/>
<rect x="101.242" y="63.9424" width="5.32855" height="5.32855" fill="#072645"/>
<rect x="5.32855" y="69.2715" width="5.32855" height="5.32855" fill="#0E2340"/>
<rect x="10.6571" y="69.2715" width="5.32855" height="5.32855" fill="#AD1373"/>
<rect x="15.9856" y="69.2715" width="5.32855" height="5.32855" fill="#961D7C"/>
<rect x="21.3143" y="69.2715" width="5.32855" height="5.32855" fill="#C5238A"/>
<rect x="26.6427" y="69.2715" width="5.32855" height="5.32855" fill="#BA21B9"/>
<rect x="31.9714" y="69.2715" width="5.32855" height="5.32855" fill="#BD1FB4"/>
<rect x="37.2998" y="69.2715" width="5.32855" height="5.32855" fill="#C719AE"/>
<rect x="42.6284" y="69.2715" width="5.32855" height="5.32855" fill="#E128C3"/>
<rect x="47.957" y="69.2715" width="5.32855" height="5.32855" fill="#CA18B4"/>
<rect x="53.2855" y="69.2715" width="5.32855" height="5.32855" fill="#06B79D"/>
<rect x="58.6141" y="69.2715" width="5.32855" height="5.32855" fill="#31A2A0"/>
<rect x="63.9426" y="69.2715" width="5.32855" height="5.32855" fill="#CF1AB4"/>
<rect x="69.2711" y="69.2715" width="5.32855" height="5.32855" fill="#AC1B94"/>
<rect x="74.5998" y="69.2715" width="5.32855" height="5.32855" fill="#107776"/>
<rect x="79.9282" y="69.2715" width="5.32855" height="5.32855" fill="#10777E"/>
<rect x="85.2569" y="69.2715" width="5.32855" height="5.32855" fill="#19787A"/>
<rect x="90.5853" y="69.2715" width="5.32855" height="5.32855" fill="#13636A"/>
<rect x="95.914" y="69.2715" width="5.32855" height="5.32855" fill="#034263"/>
<rect x="101.242" y="69.2715" width="5.32855" height="5.32855" fill="#081C3F"/>
<rect x="10.6571" y="74.5996" width="5.32855" height="5.32855" fill="#05173D"/>
<rect x="15.9856" y="74.5996" width="5.32855" height="5.32855" fill="#A21A7E"/>
<rect x="21.3143" y="74.5996" width="5.32855" height="5.32855" fill="#CD25AC"/>
<rect x="26.6427" y="74.5996" width="5.32855" height="5.32855" fill="#C02EBD"/>
<rect x="31.9714" y="74.5996" width="5.32855" height="5.32855" fill="#CD2BBF"/>
<rect x="37.2998" y="74.5996" width="5.32855" height="5.32855" fill="#CE1CB0"/>
<rect x="42.6284" y="74.5996" width="5.32855" height="5.32855" fill="#D319B8"/>
<rect x="47.957" y="74.5996" width="5.32855" height="5.32855" fill="#2A93A9"/>
<rect x="53.2855" y="74.5996" width="5.32855" height="5.32855" fill="#20A7A3"/>
<rect x="58.6141" y="74.5996" width="5.32855" height="5.32855" fill="#18A99A"/>
<rect x="63.9426" y="74.5996" width="5.32855" height="5.32855" fill="#AF3ABF"/>
<rect x="69.2711" y="74.5996" width="5.32855" height="5.32855" fill="#008690"/>
<rect x="74.5998" y="74.5996" width="5.32855" height="5.32855" fill="#0D7880"/>
<rect x="79.9282" y="74.5996" width="5.32855" height="5.32855" fill="#12676E"/>
<rect x="85.2569" y="74.5996" width="5.32855" height="5.32855" fill="#125162"/>
<rect x="90.5853" y="74.5996" width="5.32855" height="5.32855" fill="#0D4659"/>
<rect x="95.914" y="74.5996" width="5.32855" height="5.32855" fill="#000B2E"/>
<rect x="15.9856" y="79.9287" width="5.32855" height="5.32855" fill="#45334B"/>
<rect x="21.3143" y="79.9287" width="5.32855" height="5.32855" fill="#7D307E"/>
<rect x="26.6427" y="79.9287" width="5.32855" height="5.32855" fill="#90187A"/>
<rect x="31.9714" y="79.9287" width="5.32855" height="5.32855" fill="#B7207F"/>
<rect x="37.2998" y="79.9287" width="5.32855" height="5.32855" fill="#C32385"/>
<rect x="42.6284" y="79.9287" width="5.32855" height="5.32855" fill="#425C73"/>
<rect x="47.957" y="79.9287" width="5.32855" height="5.32855" fill="#1D7B85"/>
<rect x="53.2855" y="79.9287" width="5.32855" height="5.32855" fill="#1F7F8D"/>
<rect x="58.6141" y="79.9287" width="5.32855" height="5.32855" fill="#1B788A"/>
<rect x="63.9426" y="79.9287" width="5.32855" height="5.32855" fill="#156B84"/>
<rect x="69.2711" y="79.9287" width="5.32855" height="5.32855" fill="#0F7782"/>
<rect x="74.5998" y="79.9287" width="5.32855" height="5.32855" fill="#116067"/>
<rect x="79.9282" y="79.9287" width="5.32855" height="5.32855" fill="#124D5F"/>
<rect x="85.2569" y="79.9287" width="5.32855" height="5.32855" fill="#0B4455"/>
<rect x="90.5853" y="79.9287" width="5.32855" height="5.32855" fill="#093C4D"/>
<rect x="21.3143" y="85.2568" width="5.32855" height="5.32855" fill="#800A60"/>
<rect x="26.6427" y="85.2568" width="5.32855" height="5.32855" fill="#A9177C"/>
<rect x="31.9714" y="85.2568" width="5.32855" height="5.32855" fill="#116C7E"/>
<rect x="37.2998" y="85.2568" width="5.32855" height="5.32855" fill="#197284"/>
<rect x="42.6284" y="85.2568" width="5.32855" height="5.32855" fill="#176F7D"/>
<rect x="47.957" y="85.2568" width="5.32855" height="5.32855" fill="#107581"/>
<rect x="53.2855" y="85.2568" width="5.32855" height="5.32855" fill="#147588"/>
<rect x="58.6141" y="85.2568" width="5.32855" height="5.32855" fill="#0C666F"/>
<rect x="63.9426" y="85.2568" width="5.32855" height="5.32855" fill="#115E66"/>
<rect x="69.2711" y="85.2568" width="5.32855" height="5.32855" fill="#0B5862"/>
<rect x="74.5998" y="85.2568" width="5.32855" height="5.32855" fill="#004554"/>
<rect x="79.9282" y="85.2568" width="5.32855" height="5.32855" fill="#0D475D"/>
<rect x="85.2569" y="85.2568" width="5.32855" height="5.32855" fill="#15464B"/>
<rect x="90.5853" y="85.2568" width="5.32855" height="5.32855" fill="#191A6D"/>
<rect x="21.3143" y="90.585" width="5.32855" height="5.32855" fill="#151555"/>
<rect x="26.6427" y="90.585" width="5.32855" height="5.32855" fill="#081542"/>
<rect x="31.9714" y="90.585" width="5.32855" height="5.32855" fill="#07586D"/>
<rect x="37.2998" y="90.585" width="5.32855" height="5.32855" fill="#085D64"/>
<rect x="42.6284" y="90.585" width="5.32855" height="5.32855" fill="#15666A"/>
<rect x="47.957" y="90.585" width="5.32855" height="5.32855" fill="#0F6064"/>
<rect x="53.2855" y="90.585" width="5.32855" height="5.32855" fill="#125D63"/>
<rect x="58.6141" y="90.585" width="5.32855" height="5.32855" fill="#0B4A59"/>
<rect x="63.9426" y="90.585" width="5.32855" height="5.32855" fill="#164654"/>
<rect x="69.2711" y="90.585" width="5.32855" height="5.32855" fill="#074457"/>
<rect x="74.5998" y="90.585" width="5.32855" height="5.32855" fill="#093E70"/>
<rect x="79.9282" y="90.585" width="5.32855" height="5.32855" fill="#0E173E"/>
<rect x="85.2569" y="90.585" width="5.32855" height="5.32855" fill="#090657"/>
<rect x="31.9714" y="95.9146" width="5.32855" height="5.32855" fill="#1A1C55"/>
<rect x="37.2998" y="95.9146" width="5.32855" height="5.32855" fill="#0B274F"/>
<rect x="42.6284" y="95.9146" width="5.32855" height="5.32855" fill="#103756"/>
<rect x="47.957" y="95.9146" width="5.32855" height="5.32855" fill="#133A59"/>
<rect x="53.2855" y="95.9146" width="5.32855" height="5.32855" fill="#0E3851"/>
<rect x="58.6141" y="95.9146" width="5.32855" height="5.32855" fill="#123958"/>
<rect x="63.9426" y="95.9146" width="5.32855" height="5.32855" fill="#103756"/>
<rect x="69.2711" y="95.9146" width="5.32855" height="5.32855" fill="#0F3750"/>
<rect x="74.5998" y="95.9146" width="5.32855" height="5.32855" fill="#151843"/>
<rect x="42.6284" y="101.243" width="5.32855" height="5.32855" fill="#000060"/>
<rect x="47.957" y="101.243" width="5.32855" height="5.32855" fill="#0B0051"/>
<rect x="53.2855" y="101.243" width="5.32855" height="5.32855" fill="#0D0157"/>
<rect x="58.6141" y="101.243" width="5.32855" height="5.32855" fill="#10045A"/>
<rect x="63.9426" y="101.243" width="5.32855" height="5.32855" fill="#110060"/>
<rect x="69.2711" y="101.243" width="5.32855" height="5.32855" fill="#000066"/>
</svg>
