<svg width="80" height="113" viewBox="0 0 80 113" fill="none" xmlns="http://www.w3.org/2000/svg">
<rect x="5.64978" width="5.64999" height="5.64999" fill="#918941"/>
<rect x="11.3001" width="5.64999" height="5.64999" fill="#A19C34"/>
<rect x="16.9499" width="5.64999" height="5.64999" fill="#94A04E"/>
<rect x="22.6002" width="5.64999" height="5.64999" fill="#A19937"/>
<rect x="28.2499" width="5.64999" height="5.64999" fill="#987A17"/>
<rect x="33.9003" width="5.64999" height="5.64999" fill="#A9781B"/>
<rect x="39.55" width="5.64999" height="5.64999" fill="#996C1B"/>
<rect x="45.1998" width="5.64999" height="5.64999" fill="#8E5512"/>
<rect x="50.8501" width="5.64999" height="5.64999" fill="#8F541A"/>
<rect x="56.4999" width="5.64999" height="5.64999" fill="#80411E"/>
<rect x="62.1502" width="5.64999" height="5.64999" fill="#803E26"/>
<rect x="67.8" width="5.64999" height="5.64999" fill="#974515"/>
<rect x="73.4498" width="5.64999" height="5.64999" fill="#10183D"/>
<rect x="5.65033" y="5.6499" width="5.64999" height="5.64999" fill="#B17447"/>
<rect x="11.3001" y="5.6499" width="5.64999" height="5.64999" fill="#BC8A2B"/>
<rect x="16.9499" y="5.6499" width="5.64999" height="5.64999" fill="#D7A043"/>
<rect x="22.6002" y="5.6499" width="5.64999" height="5.64999" fill="#CE7E3F"/>
<rect x="28.2499" y="5.6499" width="5.64999" height="5.64999" fill="#B65C27"/>
<rect x="33.9003" y="5.6499" width="5.64999" height="5.64999" fill="#BF6533"/>
<rect x="39.55" y="5.6499" width="5.64999" height="5.64999" fill="#B95D34"/>
<rect x="45.1998" y="5.6499" width="5.64999" height="5.64999" fill="#B4582F"/>
<rect x="50.8501" y="5.6499" width="5.64999" height="5.64999" fill="#AF5030"/>
<rect x="56.4999" y="5.6499" width="5.64999" height="5.64999" fill="#8B4045"/>
<rect x="62.1502" y="5.6499" width="5.64999" height="5.64999" fill="#8D3A4C"/>
<rect x="67.8" y="5.6499" width="5.64999" height="5.64999" fill="#973A45"/>
<rect x="73.4498" y="5.6499" width="5.64999" height="5.64999" fill="#13194B"/>
<rect x="5.65033" y="11.2998" width="5.64999" height="5.64999" fill="#15143E"/>
<rect x="11.3001" y="11.2998" width="5.64999" height="5.64999" fill="#1B0D26"/>
<rect x="16.9499" y="11.2998" width="5.64999" height="5.64999" fill="#0C0322"/>
<rect x="22.6002" y="11.2998" width="5.64999" height="5.64999" fill="#0C081F"/>
<rect x="28.2499" y="11.2998" width="5.64999" height="5.64999" fill="#0E0B16"/>
<rect x="33.9003" y="11.2998" width="5.64999" height="5.64999" fill="#0E0A19"/>
<rect x="39.55" y="11.2998" width="5.64999" height="5.64999" fill="#0A0615"/>
<rect x="45.1998" y="11.2998" width="5.64999" height="5.64999" fill="#0A0615"/>
<rect x="50.8501" y="11.2998" width="5.64999" height="5.64999" fill="#080516"/>
<rect x="56.4999" y="11.2998" width="5.64999" height="5.64999" fill="#0E0729"/>
<rect x="62.1502" y="11.2998" width="5.64999" height="5.64999" fill="#0E0733"/>
<rect x="67.8" y="11.2998" width="5.64999" height="5.64999" fill="#0E1939"/>
<rect x="73.4498" y="11.2998" width="5.64999" height="5.64999" fill="#140F63"/>
<rect x="5.65033" y="16.9502" width="5.64999" height="5.64999" fill="#061325"/>
<rect x="11.3001" y="16.9502" width="5.64999" height="5.64999" fill="#F9E9EA"/>
<rect x="16.9499" y="16.9502" width="5.64999" height="5.64999" fill="#ECE1DD"/>
<rect x="22.6002" y="16.9502" width="5.64999" height="5.64999" fill="#FAF8EB"/>
<rect x="28.2499" y="16.9502" width="5.64999" height="5.64999" fill="#F6EAEC"/>
<rect x="33.9003" y="16.9502" width="5.64999" height="5.64999" fill="#F2E1EB"/>
<rect x="39.55" y="16.9502" width="5.64999" height="5.64999" fill="#E7D4DA"/>
<rect x="45.1998" y="16.9502" width="5.64999" height="5.64999" fill="#E1CDD9"/>
<rect x="50.8501" y="16.9502" width="5.64999" height="5.64999" fill="#D2C5CF"/>
<rect x="56.4999" y="16.9502" width="5.64999" height="5.64999" fill="#9E8CC6"/>
<rect x="62.1502" y="16.9502" width="5.64999" height="5.64999" fill="#94929D"/>
<rect x="67.8" y="16.9502" width="5.64999" height="5.64999" fill="#181B3A"/>
<rect x="5.65033" y="22.6001" width="5.64999" height="5.64999" fill="#000C1E"/>
<rect x="11.3001" y="22.6001" width="5.64999" height="5.64999" fill="#F8E7ED"/>
<rect x="16.9499" y="22.6001" width="5.64999" height="5.64999" fill="#E4D7DE"/>
<rect x="22.6002" y="22.6001" width="5.64999" height="5.64999" fill="#F8F6E7"/>
<rect x="28.2499" y="22.6001" width="5.64999" height="5.64999" fill="#F1E9D4"/>
<rect x="33.9003" y="22.6001" width="5.64999" height="5.64999" fill="#F3E5D8"/>
<rect x="39.55" y="22.6001" width="5.64999" height="5.64999" fill="#EBDCC9"/>
<rect x="45.1998" y="22.6001" width="5.64999" height="5.64999" fill="#E0D0C1"/>
<rect x="50.8501" y="22.6001" width="5.64999" height="5.64999" fill="#D0C1D4"/>
<rect x="56.4999" y="22.6001" width="5.64999" height="5.64999" fill="#9B8AC0"/>
<rect x="62.1502" y="22.6001" width="5.64999" height="5.64999" fill="#928FA0"/>
<rect x="67.8" y="22.6001" width="5.64999" height="5.64999" fill="#171A3B"/>
<rect x="5.65033" y="28.25" width="5.64999" height="5.64999" fill="#0D1A27"/>
<rect x="11.3001" y="28.25" width="5.64999" height="5.64999" fill="#F7F3DA"/>
<rect x="16.9499" y="28.25" width="5.64999" height="5.64999" fill="#6E30C3"/>
<rect x="22.6002" y="28.25" width="5.64999" height="5.64999" fill="#AE7FC3"/>
<rect x="28.2499" y="28.25" width="5.64999" height="5.64999" fill="#8C44D4"/>
<rect x="33.9003" y="28.25" width="5.64999" height="5.64999" fill="#7F36DD"/>
<rect x="39.55" y="28.25" width="5.64999" height="5.64999" fill="#7433CD"/>
<rect x="45.1998" y="28.25" width="5.64999" height="5.64999" fill="#6C2FC8"/>
<rect x="50.8501" y="28.25" width="5.64999" height="5.64999" fill="#6F38D4"/>
<rect x="56.4999" y="28.25" width="5.64999" height="5.64999" fill="#4B29BB"/>
<rect x="62.1502" y="28.25" width="5.64999" height="5.64999" fill="#B4ACD3"/>
<rect x="67.8" y="28.25" width="5.64999" height="5.64999" fill="#161A3D"/>
<rect x="11.3001" y="33.8999" width="5.64999" height="5.64999" fill="#262C42"/>
<rect x="16.9499" y="33.8999" width="5.64999" height="5.64999" fill="#D3D0C9"/>
<rect x="22.6002" y="33.8999" width="5.64999" height="5.64999" fill="#9139F0"/>
<rect x="28.2499" y="33.8999" width="5.64999" height="5.64999" fill="#953FE0"/>
<rect x="33.9003" y="33.8999" width="5.64999" height="5.64999" fill="#7E37D3"/>
<rect x="39.55" y="33.8999" width="5.64999" height="5.64999" fill="#7134CD"/>
<rect x="45.1998" y="33.8999" width="5.64999" height="5.64999" fill="#6B33CA"/>
<rect x="50.8501" y="33.8999" width="5.64999" height="5.64999" fill="#5A29D2"/>
<rect x="56.4999" y="33.8999" width="5.64999" height="5.64999" fill="#392892"/>
<rect x="62.1502" y="33.8999" width="5.64999" height="5.64999" fill="#000027"/>
<rect x="16.9499" y="39.5493" width="5.64999" height="5.64999" fill="#0C0D39"/>
<rect x="22.6002" y="39.5493" width="5.64999" height="5.64999" fill="#7A4BCB"/>
<rect x="28.2499" y="39.5493" width="5.64999" height="5.64999" fill="#9642E0"/>
<rect x="33.9003" y="39.5493" width="5.64999" height="5.64999" fill="#883BD7"/>
<rect x="39.55" y="39.5493" width="5.64999" height="5.64999" fill="#7132C9"/>
<rect x="45.1998" y="39.5493" width="5.64999" height="5.64999" fill="#5629B8"/>
<rect x="50.8501" y="39.5493" width="5.64999" height="5.64999" fill="#5235A3"/>
<rect x="56.4999" y="39.5493" width="5.64999" height="5.64999" fill="#ABABD1"/>
<rect x="22.6002" y="45.2002" width="5.64999" height="5.64999" fill="#525864"/>
<rect x="28.2499" y="45.2002" width="5.64999" height="5.64999" fill="#9574AB"/>
<rect x="33.9003" y="45.2002" width="5.64999" height="5.64999" fill="#7F37E3"/>
<rect x="39.55" y="45.2002" width="5.64999" height="5.64999" fill="#6732CA"/>
<rect x="45.1998" y="45.2002" width="5.64999" height="5.64999" fill="#5F42AC"/>
<rect x="50.8501" y="45.2002" width="5.64999" height="5.64999" fill="#746DA3"/>
<rect x="56.4999" y="45.2002" width="5.64999" height="5.64999" fill="#000080"/>
<rect x="28.2499" y="50.8501" width="5.64999" height="5.64999" fill="#282C51"/>
<rect x="33.9003" y="50.8501" width="5.64999" height="5.64999" fill="#E8DDE1"/>
<rect x="39.55" y="50.8501" width="5.64999" height="5.64999" fill="#A386B6"/>
<rect x="45.1998" y="50.8501" width="5.64999" height="5.64999" fill="#21202E"/>
<rect x="22.6002" y="56.5" width="5.64999" height="5.64999" fill="#14144E"/>
<rect x="28.2499" y="56.5" width="5.64999" height="5.64999" fill="#EDEDD1"/>
<rect x="33.9003" y="56.5" width="5.64999" height="5.64999" fill="#C8AACC"/>
<rect x="39.55" y="56.5" width="5.64999" height="5.64999" fill="#5C319A"/>
<rect x="45.1998" y="56.5" width="5.64999" height="5.64999" fill="#E1DBC5"/>
<rect x="50.8501" y="56.5" width="5.64999" height="5.64999" fill="#1B1A2C"/>
<rect x="16.9499" y="62.1499" width="5.64999" height="5.64999" fill="#800080"/>
<rect x="22.6002" y="62.1499" width="5.64999" height="5.64999" fill="#B5B1A8"/>
<rect x="28.2499" y="62.1499" width="5.64999" height="5.64999" fill="#F8F4D9"/>
<rect x="33.9003" y="62.1499" width="5.64999" height="5.64999" fill="#8337CF"/>
<rect x="39.55" y="62.1499" width="5.64999" height="5.64999" fill="#5E2E91"/>
<rect x="45.1998" y="62.1499" width="5.64999" height="5.64999" fill="#DCD2D0"/>
<rect x="50.8501" y="62.1499" width="5.64999" height="5.64999" fill="#B7A9BA"/>
<rect x="56.4999" y="62.1499" width="5.64999" height="5.64999" fill="#332E64"/>
<rect x="11.3001" y="67.7993" width="5.64999" height="5.64999" fill="#110944"/>
<rect x="16.9499" y="67.7993" width="5.64999" height="5.64999" fill="#FFFFF4"/>
<rect x="22.6002" y="67.7993" width="5.64999" height="5.64999" fill="#FDFEF0"/>
<rect x="28.2499" y="67.7993" width="5.64999" height="5.64999" fill="#EBE7CC"/>
<rect x="33.9003" y="67.7993" width="5.64999" height="5.64999" fill="#8236CE"/>
<rect x="39.55" y="67.7993" width="5.64999" height="5.64999" fill="#5E2E94"/>
<rect x="45.1998" y="67.7993" width="5.64999" height="5.64999" fill="#BAAEBA"/>
<rect x="50.8501" y="67.7993" width="5.64999" height="5.64999" fill="#C3B7C3"/>
<rect x="56.4999" y="67.7993" width="5.64999" height="5.64999" fill="#8776C6"/>
<rect x="62.1502" y="67.7993" width="5.64999" height="5.64999" fill="#04032B"/>
<rect x="5.65033" y="73.4502" width="5.64999" height="5.64999" fill="#06121E"/>
<rect x="11.3001" y="73.4502" width="5.64999" height="5.64999" fill="#F6E5EB"/>
<rect x="16.9499" y="73.4502" width="5.64999" height="5.64999" fill="#E3D9DA"/>
<rect x="22.6002" y="73.4502" width="5.64999" height="5.64999" fill="#FDFEEC"/>
<rect x="28.2499" y="73.4502" width="5.64999" height="5.64999" fill="#DECED8"/>
<rect x="33.9003" y="73.4502" width="5.64999" height="5.64999" fill="#7A36E3"/>
<rect x="39.55" y="73.4502" width="5.64999" height="5.64999" fill="#5B2891"/>
<rect x="45.1998" y="73.4502" width="5.64999" height="5.64999" fill="#C3B2C4"/>
<rect x="50.8501" y="73.4502" width="5.64999" height="5.64999" fill="#C2B4C5"/>
<rect x="56.4999" y="73.4502" width="5.64999" height="5.64999" fill="#8672BA"/>
<rect x="62.1502" y="73.4502" width="5.64999" height="5.64999" fill="#A59FAD"/>
<rect x="67.8" y="73.4502" width="5.64999" height="5.64999" fill="#16182F"/>
<rect x="5.65033" y="79.1001" width="5.64999" height="5.64999" fill="#06121E"/>
<rect x="11.3001" y="79.1001" width="5.64999" height="5.64999" fill="#EEDDE3"/>
<rect x="16.9499" y="79.1001" width="5.64999" height="5.64999" fill="#E6D7DC"/>
<rect x="22.6002" y="79.1001" width="5.64999" height="5.64999" fill="#F6EDF0"/>
<rect x="28.2499" y="79.1001" width="5.64999" height="5.64999" fill="#A34EF1"/>
<rect x="33.9003" y="79.1001" width="5.64999" height="5.64999" fill="#8D3AE0"/>
<rect x="39.55" y="79.1001" width="5.64999" height="5.64999" fill="#7C34BE"/>
<rect x="45.1998" y="79.1001" width="5.64999" height="5.64999" fill="#E0C2FF"/>
<rect x="50.8501" y="79.1001" width="5.64999" height="5.64999" fill="#D2BFED"/>
<rect x="56.4999" y="79.1001" width="5.64999" height="5.64999" fill="#8772BD"/>
<rect x="62.1502" y="79.1001" width="5.64999" height="5.64999" fill="#A49CB1"/>
<rect x="67.8" y="79.1001" width="5.64999" height="5.64999" fill="#191A36"/>
<rect x="5.65033" y="84.75" width="5.64999" height="5.64999" fill="#0A0A3B"/>
<rect x="11.3001" y="84.75" width="5.64999" height="5.64999" fill="#DED8DA"/>
<rect x="16.9499" y="84.75" width="5.64999" height="5.64999" fill="#D8AFF3"/>
<rect x="22.6002" y="84.75" width="5.64999" height="5.64999" fill="#883EED"/>
<rect x="28.2499" y="84.75" width="5.64999" height="5.64999" fill="#9F48F9"/>
<rect x="33.9003" y="84.75" width="5.64999" height="5.64999" fill="#8C39ED"/>
<rect x="39.55" y="84.75" width="5.64999" height="5.64999" fill="#7B39D1"/>
<rect x="45.1998" y="84.75" width="5.64999" height="5.64999" fill="#5626B8"/>
<rect x="50.8501" y="84.75" width="5.64999" height="5.64999" fill="#5B32B4"/>
<rect x="56.4999" y="84.75" width="5.64999" height="5.64999" fill="#513EA9"/>
<rect x="62.1502" y="84.75" width="5.64999" height="5.64999" fill="#9B96AC"/>
<rect x="67.8" y="84.75" width="5.64999" height="5.64999" fill="#181D33"/>
<rect x="5.65033" y="90.3994" width="5.64999" height="5.64999" fill="#0F162C"/>
<rect x="11.3001" y="90.3994" width="5.64999" height="5.64999" fill="#F3EEFF"/>
<rect x="16.9499" y="90.3994" width="5.64999" height="5.64999" fill="#804DE6"/>
<rect x="22.6002" y="90.3994" width="5.64999" height="5.64999" fill="#9A5FDD"/>
<rect x="28.2499" y="90.3994" width="5.64999" height="5.64999" fill="#AB6CE1"/>
<rect x="33.9003" y="90.3994" width="5.64999" height="5.64999" fill="#9D63DB"/>
<rect x="39.55" y="90.3994" width="5.64999" height="5.64999" fill="#8A55E1"/>
<rect x="45.1998" y="90.3994" width="5.64999" height="5.64999" fill="#7647D1"/>
<rect x="50.8501" y="90.3994" width="5.64999" height="5.64999" fill="#7348D5"/>
<rect x="56.4999" y="90.3994" width="5.64999" height="5.64999" fill="#6543BE"/>
<rect x="62.1502" y="90.3994" width="5.64999" height="5.64999" fill="#B6B4C1"/>
<rect x="67.8" y="90.3994" width="5.64999" height="5.64999" fill="#1D204B"/>
<rect y="96.0493" width="5.64999" height="5.64999" fill="black"/>
<rect x="5.65033" y="96.0493" width="5.64999" height="5.64999" fill="#F5DE80"/>
<rect x="11.3001" y="96.0493" width="5.64999" height="5.64999" fill="#FFF883"/>
<rect x="16.9499" y="96.0493" width="5.64999" height="5.64999" fill="#FFFFA2"/>
<rect x="22.6002" y="96.0493" width="5.64999" height="5.64999" fill="#FFF289"/>
<rect x="28.2499" y="96.0493" width="5.64999" height="5.64999" fill="#FFD97C"/>
<rect x="33.9003" y="96.0493" width="5.64999" height="5.64999" fill="#F2BC5C"/>
<rect x="39.55" y="96.0493" width="5.64999" height="5.64999" fill="#EF9C4C"/>
<rect x="45.1998" y="96.0493" width="5.64999" height="5.64999" fill="#E89549"/>
<rect x="50.8501" y="96.0493" width="5.64999" height="5.64999" fill="#DD7E46"/>
<rect x="56.4999" y="96.0493" width="5.64999" height="5.64999" fill="#BC5B4B"/>
<rect x="62.1502" y="96.0493" width="5.64999" height="5.64999" fill="#BE704A"/>
<rect x="67.8" y="96.0493" width="5.64999" height="5.64999" fill="#A9533C"/>
<rect x="73.4498" y="96.0493" width="5.64999" height="5.64999" fill="#131746"/>
<rect y="101.7" width="5.64999" height="5.64999" fill="black"/>
<rect x="5.65033" y="101.7" width="5.64999" height="5.64999" fill="#B2615D"/>
<rect x="11.3001" y="101.7" width="5.64999" height="5.64999" fill="#CE8A35"/>
<rect x="16.9499" y="101.7" width="5.64999" height="5.64999" fill="#E6A450"/>
<rect x="22.6002" y="101.7" width="5.64999" height="5.64999" fill="#D28334"/>
<rect x="28.2499" y="101.7" width="5.64999" height="5.64999" fill="#AE652E"/>
<rect x="33.9003" y="101.7" width="5.64999" height="5.64999" fill="#B1613C"/>
<rect x="39.55" y="101.7" width="5.64999" height="5.64999" fill="#B95837"/>
<rect x="45.1998" y="101.7" width="5.64999" height="5.64999" fill="#C26043"/>
<rect x="50.8501" y="101.7" width="5.64999" height="5.64999" fill="#AC5045"/>
<rect x="56.4999" y="101.7" width="5.64999" height="5.64999" fill="#8D3C4F"/>
<rect x="62.1502" y="101.7" width="5.64999" height="5.64999" fill="#8C454D"/>
<rect x="67.8" y="101.7" width="5.64999" height="5.64999" fill="#762F3F"/>
<rect x="73.4498" y="101.7" width="5.64999" height="5.64999" fill="#131746"/>
<rect x="5.65033" y="107.35" width="5.64999" height="5.64999" fill="#0A0C3F"/>
<rect x="11.3001" y="107.35" width="5.64999" height="5.64999" fill="#0A0C3F"/>
<rect x="16.9499" y="107.35" width="5.64999" height="5.64999" fill="#0E1043"/>
<rect x="22.6002" y="107.35" width="5.64999" height="5.64999" fill="#090B3E"/>
<rect x="28.2499" y="107.35" width="5.64999" height="5.64999" fill="#0A0C3F"/>
<rect x="33.9003" y="107.35" width="5.64999" height="5.64999" fill="#080A3D"/>
<rect x="39.55" y="107.35" width="5.64999" height="5.64999" fill="#090B3E"/>
<rect x="45.1998" y="107.35" width="5.64999" height="5.64999" fill="#080A3D"/>
<rect x="50.8501" y="107.35" width="5.64999" height="5.64999" fill="#0B0D40"/>
<rect x="56.4999" y="107.35" width="5.64999" height="5.64999" fill="#0A0C3F"/>
<rect x="62.1502" y="107.35" width="5.64999" height="5.64999" fill="#0A0B43"/>
<rect x="67.8" y="107.35" width="5.64999" height="5.64999" fill="#080941"/>
<rect x="73.4498" y="107.35" width="5.64999" height="5.64999" fill="#151060"/>
</svg>
